<?xml version="1.0" standalone="no"?>
<!DOCTYPE svg PUBLIC "-//W3C//DTD SVG 20010904//EN"
 "http://www.w3.org/TR/2001/REC-SVG-20010904/DTD/svg10.dtd">
<svg version="1.0" xmlns="http://www.w3.org/2000/svg"
 width="700.000000pt" height="700.000000pt" viewBox="0 0 700.000000 700.000000"
 preserveAspectRatio="xMidYMid meet">
<metadata>
Created by potrace 1.11, written by Peter Selinger 2001-2013
</metadata>
<g transform="translate(0.000000,700.000000) scale(0.100000,-0.100000)"
fill="#000000" stroke="none">
<path d="M3483 6967 c-16 -18 -65 -75 -109 -127 -43 -52 -81 -97 -84 -100 -3
-3 -41 -48 -85 -100 -77 -92 -404 -479 -448 -530 -12 -14 -81 -96 -154 -182
l-132 -157 35 -26 c19 -14 34 -30 34 -34 0 -5 -280 -289 -622 -631 l-622 -622
-33 36 c-18 20 -36 36 -38 36 -3 0 -54 -41 -113 -91 -59 -50 -188 -159 -287
-242 -99 -83 -182 -153 -185 -156 -3 -3 -48 -42 -100 -86 -52 -44 -97 -82
-100 -85 -3 -3 -26 -22 -52 -43 -26 -21 -53 -44 -60 -50 -7 -7 -42 -37 -77
-66 -35 -29 -70 -58 -76 -64 -6 -7 -31 -28 -55 -47 -24 -19 -60 -50 -81 -68
l-38 -34 32 -26 c32 -27 81 -69 101 -87 6 -5 67 -57 136 -115 69 -58 172 -145
231 -195 58 -49 129 -110 158 -135 30 -25 169 -143 310 -262 l256 -218 40 46
40 45 620 -621 c341 -341 622 -623 625 -626 3 -3 -14 -22 -37 -43 l-42 -36 32
-36 c18 -20 50 -58 72 -85 22 -27 54 -64 71 -84 49 -56 184 -216 418 -494 22
-27 46 -54 51 -60 6 -6 46 -54 90 -106 108 -130 179 -214 185 -220 3 -3 31
-35 62 -72 l57 -68 128 152 c70 83 133 156 138 162 6 6 33 38 60 71 28 33 60
71 71 85 62 73 169 198 188 220 11 14 93 111 181 215 87 105 162 192 165 195
17 16 100 119 100 125 0 4 -17 24 -39 44 l-39 36 624 622 624 622 32 -39 31
-40 56 48 c31 26 67 57 81 68 63 53 197 168 220 187 14 12 52 45 85 72 33 28
62 52 65 55 3 3 32 28 65 55 33 28 71 60 85 71 14 12 77 65 140 119 63 53 138
116 165 140 28 23 98 83 157 133 l108 91 -93 78 c-50 42 -94 80 -97 83 -3 3
-61 52 -130 110 -69 57 -127 107 -130 110 -3 3 -48 41 -100 85 -52 43 -97 81
-100 84 -4 5 -108 93 -215 182 -23 19 -177 150 -215 183 -105 90 -138 116
-145 116 -4 0 -22 -15 -39 -34 l-31 -35 -617 619 -617 620 34 27 c19 16 35 32
35 36 0 7 -194 242 -378 457 -78 90 -87 101 -182 215 -41 50 -77 92 -80 95 -3
3 -53 61 -110 130 -58 68 -115 136 -127 150 -11 14 -50 60 -86 102 l-65 76
-29 -31z m1351 -2138 l1320 -1320 -1322 -1322 -1322 -1322 -1322 1323 -1323
1322 1320 1320 c726 726 1322 1320 1325 1320 3 0 599 -595 1324 -1321z"/>
<path d="M4503 4883 c-14 -5 -18 -43 -5 -43 9 1 52 36 52 44 0 7 -30 7 -47 -1z"/>
<path d="M4365 4770 c-17 -19 -17 -19 9 -7 14 7 26 15 26 20 0 13 -17 7 -35
-13z"/>
<path d="M4396 4742 l-19 -27 24 22 c12 12 21 24 18 27 -2 2 -13 -8 -23 -22z"/>
<path d="M4241 4676 c-9 -10 -8 -15 4 -20 8 -3 15 -4 15 -2 0 3 3 11 6 20 8
20 -9 21 -25 2z"/>
<path d="M2870 4656 c0 -2 7 -7 16 -10 8 -3 12 -2 9 4 -6 10 -25 14 -25 6z"/>
<path d="M4055 4542 c-22 -15 -80 -52 -130 -82 -55 -33 -119 -84 -165 -130
-74 -73 -179 -160 -195 -160 -7 0 -370 -207 -435 -249 -14 -9 -34 -21 -45 -27
-11 -6 -130 -75 -265 -154 -135 -79 -254 -149 -265 -155 -11 -6 -57 -32 -102
-59 l-83 -48 6 -52 c8 -78 33 -155 65 -203 34 -49 140 -117 207 -132 72 -15
151 18 181 77 11 20 37 48 58 61 21 13 60 50 88 82 49 58 70 74 59 44 -4 -8
-4 -15 -1 -15 3 0 13 22 22 49 9 27 28 62 42 77 14 15 46 59 70 97 63 98 121
167 355 421 25 28 45 53 43 57 -5 7 64 74 215 209 133 119 335 321 319 320 -2
0 -22 -13 -44 -28z"/>
<path d="M1997 4230 c-3 -13 0 -20 8 -20 21 0 27 16 11 29 -11 9 -15 7 -19 -9z"/>
<path d="M1930 4101 c-6 -12 -7 -21 -1 -21 10 0 24 30 17 37 -2 3 -9 -5 -16
-16z"/>
<path d="M3256 4035 c-15 -19 -23 -35 -18 -35 4 0 23 16 42 35 23 24 29 35 18
35 -9 0 -28 -16 -42 -35z"/>
<path d="M5070 3990 c0 -5 5 -10 10 -10 6 0 10 5 10 10 0 6 -4 10 -10 10 -5 0
-10 -4 -10 -10z"/>
<path d="M4265 3970 c3 -5 8 -10 11 -10 2 0 4 5 4 10 0 6 -5 10 -11 10 -5 0
-7 -4 -4 -10z"/>
<path d="M5190 3900 c12 -22 25 -26 35 -11 3 6 -3 15 -14 20 -28 16 -33 14
-21 -9z"/>
<path d="M5105 3634 c-33 -13 -62 -25 -65 -25 -13 -3 -38 -12 -70 -24 -19 -8
-208 -75 -420 -150 -212 -75 -394 -140 -405 -145 -11 -5 -40 -16 -65 -24 -111
-36 -246 -88 -275 -106 l-33 -20 -17 42 c-9 24 -25 61 -35 83 -11 22 -27 58
-36 80 -15 34 -18 37 -21 18 -3 -13 -11 -23 -19 -23 -18 0 -18 -19 0 -26 11
-4 11 -12 1 -39 -6 -19 -14 -37 -18 -41 -3 -3 -2 -16 3 -29 5 -13 6 -26 2 -30
-3 -3 -5 -21 -3 -40 3 -40 -6 -75 -20 -75 -5 0 -32 -11 -61 -25 -58 -28 -62
-29 -53 -15 12 19 -2 10 -39 -25 -21 -19 -43 -35 -50 -35 -7 0 -39 -17 -72
-38 -32 -21 -81 -49 -109 -64 -27 -14 -108 -56 -180 -92 -71 -37 -137 -76
-146 -86 -9 -10 -83 -52 -165 -94 -153 -78 -259 -142 -311 -186 -48 -42 -47
-51 4 -30 26 10 91 35 143 56 52 20 115 51 140 68 47 33 105 57 153 62 38 5
109 41 199 102 83 56 153 94 160 86 3 -3 32 13 64 34 57 37 78 48 244 125 73
33 75 34 78 13 2 -12 7 -25 11 -29 4 -4 5 -29 1 -55 -15 -93 7 -262 30 -235
16 18 39 121 37 164 -1 34 3 53 17 68 16 18 18 30 12 91 -5 63 -4 70 14 80 18
10 20 8 20 -17 0 -22 2 -25 10 -13 8 13 10 12 10 -2 0 -10 4 -18 10 -18 5 0 7
6 5 13 -8 19 7 32 53 45 23 7 42 18 42 24 0 7 4 7 13 -1 8 -6 18 -7 22 -3 5 4
6 0 3 -8 -4 -12 4 -15 38 -15 30 0 43 4 40 12 -6 15 19 36 36 31 7 -3 22 7 35
21 22 26 22 26 16 3 -5 -21 -3 -22 23 -16 40 9 44 13 44 35 0 12 7 19 20 19
11 0 20 -3 21 -7 1 -10 6 -35 10 -50 2 -7 -14 -29 -36 -49 -23 -20 -29 -28
-14 -19 25 15 57 12 70 -7 3 -5 30 0 60 11 69 26 230 120 206 121 -10 0 -15 5
-12 11 4 6 19 7 36 4 25 -6 29 -3 35 22 3 15 7 32 8 37 3 11 97 35 140 36 24
0 27 2 16 15 -10 12 -10 15 2 15 9 0 27 9 41 20 30 24 41 25 33 5 -4 -13 -2
-14 14 -5 11 6 20 8 20 5 0 -3 9 -1 21 5 19 11 20 10 9 -9 -13 -25 -7 -26 25
-5 13 9 29 13 34 10 5 -4 25 8 43 27 18 18 54 49 79 69 25 20 56 52 70 72 13
20 29 34 35 32 15 -6 53 84 61 142 7 51 -2 52 -92 16z"/>
<path d="M3820 2923 c0 -13 5 -23 10 -23 13 0 13 11 0 30 -8 12 -10 11 -10 -7z"/>
<path d="M3345 2755 c-27 -13 -61 -24 -75 -25 -14 0 -36 -9 -50 -20 -14 -11
-30 -20 -36 -20 -6 0 -17 -6 -23 -14 -10 -12 -8 -13 11 -9 14 3 4 -7 -24 -26
-27 -17 -48 -33 -48 -37 0 -3 12 2 28 12 15 10 77 43 137 74 118 59 169 91
145 89 -8 0 -37 -11 -65 -24z"/>
<path d="M3055 2620 c-3 -6 1 -7 9 -4 18 7 21 14 7 14 -6 0 -13 -4 -16 -10z"/>
<path d="M3111 2566 c-15 -8 -20 -16 -13 -20 10 -6 62 20 62 30 0 8 -26 3 -49
-10z"/>
<path d="M3640 2520 c0 -5 5 -10 11 -10 5 0 7 5 4 10 -3 6 -8 10 -11 10 -2 0
-4 -4 -4 -10z"/>
<path d="M3660 2395 c0 -9 5 -15 11 -13 6 2 11 8 11 13 0 5 -5 11 -11 13 -6 2
-11 -4 -11 -13z"/>
<path d="M2235 2289 c-4 -6 -5 -13 -2 -16 7 -7 27 6 27 18 0 12 -17 12 -25 -2z"/>
</g>
</svg>
