<svg xmlns="http://www.w3.org/2000/svg" width="551.16" height="485" viewBox="0 0 551.16 485">
  <g id="ArtStation-logomark-white" transform="translate(-51.4 -51.5)">
    <path id="Path_7" data-name="Path 7" d="M51.4,123.3l46.364,80.226h0c9.377,18.233,28.131,30.736,49.49,30.736H456.174L392.1,123.3H51.4Z" transform="translate(0 302.239)" fill="#fff"/>
    <path id="Path_8" data-name="Path 8" d="M427.868,426.06a55.442,55.442,0,0,0-8.856-30.215L237.723,81.194A55.182,55.182,0,0,0,188.754,51.5H92.9L372.648,535.979l44.28-76.579C425.263,444.814,427.868,438.562,427.868,426.06Z" transform="translate(174.692 0)" fill="#fff"/>
    <path id="Path_9" data-name="Path 9" d="M309.733,282.792,185.227,66.6,60.2,282.792Z" transform="translate(37.043 63.563)" fill="#fff"/>
  </g>
</svg>
