<svg xmlns="http://www.w3.org/2000/svg" viewBox="0 0 220825 225" width="220825" height="225"><g><defs><clipPath id="clip_frame0_layer_1"><path d="M1822.197 3.003l-21.604 170.527h-697.714L976.29 222.834H3.003V3.003h1819.194z"/></clipPath></defs><path d="M1822.197 3.003l-21.604 170.527h-697.714L976.29 222.834H3.003V3.003h1819.194z" fill="none" stroke="#111111" stroke-width="6.006583" stroke-dasharray="0,4017.76704072744" stroke-dashoffset="4017.767041" stroke-miterlimit="10"/><path clip-path="url(#clip_frame0_layer_1)" d="M1.1 223.223h1810.1l-14.4 1.1h-696.9l-126.5.5H1.1v-1.6z" fill="#111111" stroke-dasharray="0,3621.84294091498" stroke-dashoffset="3621.842941"/></g><g transform="translate(1825)"><defs><clipPath id="clip_frame1_layer_1"><path d="M1822.197 3.003l-21.604 170.527h-697.714L976.29 222.834H3.003V3.003h1819.194z"/></clipPath></defs><path d="M1822.197 3.003l-21.604 170.527h-697.714L976.29 222.834H3.003V3.003h1819.194z" fill="none" stroke="#111111" stroke-width="6.006583" stroke-dasharray="7.117644997934518,4010.6493957295056" stroke-dashoffset="4017.767041" stroke-miterlimit="10"/><path clip-path="url(#clip_frame1_layer_1)" d="M1.1 223.223h1810.1l-14.4 1.1h-696.9l-126.5.5H1.1v-1.6z" fill="#111111" stroke-dasharray="0,3621.84294091498" stroke-dashoffset="3621.842941"/></g><g transform="translate(3650)"><defs><clipPath id="clip_frame2_layer_1"><path d="M1822.197 3.003l-21.604 170.527h-697.714L976.29 222.834H3.003V3.003h1819.194z"/></clipPath></defs><path d="M1822.197 3.003l-21.604 170.527h-697.714L976.29 222.834H3.003V3.003h1819.194z" fill="none" stroke="#111111" stroke-width="6.006583" stroke-dasharray="30.2381289775602,3987.52891174988" stroke-dashoffset="4017.767041" stroke-miterlimit="10"/><path clip-path="url(#clip_frame2_layer_1)" d="M1.1 223.223h1810.1l-14.4 1.1h-696.9l-126.5.5H1.1v-1.6z" fill="#111111" stroke-dasharray="0,3621.84294091498" stroke-dashoffset="3621.842941"/></g><g transform="translate(5475)"><defs><clipPath id="clip_frame3_layer_1"><path d="M1822.197 3.003l-21.604 170.527h-697.714L976.29 222.834H3.003V3.003h1819.194z"/></clipPath></defs><path d="M1822.197 3.003l-21.604 170.527h-697.714L976.29 222.834H3.003V3.003h1819.194z" fill="none" stroke="#111111" stroke-width="6.006583" stroke-dasharray="72.52885118364622,3945.238189543794" stroke-dashoffset="4017.767041" stroke-miterlimit="10"/><path clip-path="url(#clip_frame3_layer_1)" d="M1.1 223.223h1810.1l-14.4 1.1h-696.9l-126.5.5H1.1v-1.6z" fill="#111111" stroke-dasharray="0,3621.84294091498" stroke-dashoffset="3621.842941"/></g><g transform="translate(7300)"><defs><clipPath id="clip_frame4_layer_1"><path d="M1822.197 3.003l-21.604 170.527h-697.714L976.29 222.834H3.003V3.003h1819.194z"/></clipPath></defs><path d="M1822.197 3.003l-21.604 170.527h-697.714L976.29 222.834H3.003V3.003h1819.194z" fill="none" stroke="#111111" stroke-width="6.006583" stroke-dasharray="137.98528036426492,3879.781760363175" stroke-dashoffset="4017.767041" stroke-miterlimit="10"/><path clip-path="url(#clip_frame4_layer_1)" d="M1.1 223.223h1810.1l-14.4 1.1h-696.9l-126.5.5H1.1v-1.6z" fill="#111111" stroke-dasharray="0,3621.84294091498" stroke-dashoffset="3621.842941"/></g><g transform="translate(9125)"><defs><clipPath id="clip_frame5_layer_1"><path d="M1822.197 3.003l-21.604 170.527h-697.714L976.29 222.834H3.003V3.003h1819.194z"/></clipPath></defs><path d="M1822.197 3.003l-21.604 170.527h-697.714L976.29 222.834H3.003V3.003h1819.194z" fill="none" stroke="#111111" stroke-width="6.006583" stroke-dasharray="231.5829717817038,3786.1840689457363" stroke-dashoffset="4017.767041" stroke-miterlimit="10"/><path clip-path="url(#clip_frame5_layer_1)" d="M1.1 223.223h1810.1l-14.4 1.1h-696.9l-126.5.5H1.1v-1.6z" fill="#111111" stroke-dasharray="0,3621.84294091498" stroke-dashoffset="3621.842941"/></g><g transform="translate(10950)"><defs><clipPath id="clip_frame6_layer_1"><path d="M1822.197 3.003l-21.604 170.527h-697.714L976.29 222.834H3.003V3.003h1819.194z"/></clipPath></defs><path d="M1822.197 3.003l-21.604 170.527h-697.714L976.29 222.834H3.003V3.003h1819.194z" fill="none" stroke="#111111" stroke-width="6.006583" stroke-dasharray="359.2697884063245,3658.4972523211154" stroke-dashoffset="4017.767041" stroke-miterlimit="10"/><path clip-path="url(#clip_frame6_layer_1)" d="M1.1 223.223h1810.1l-14.4 1.1h-696.9l-126.5.5H1.1v-1.6z" fill="#111111" stroke-dasharray="0,3621.84294091498" stroke-dashoffset="3621.842941"/></g><g transform="translate(12775)"><defs><clipPath id="clip_frame7_layer_1"><path d="M1822.197 3.003l-21.604 170.527h-697.714L976.29 222.834H3.003V3.003h1819.194z"/></clipPath></defs><path d="M1822.197 3.003l-21.604 170.527h-697.714L976.29 222.834H3.003V3.003h1819.194z" fill="none" stroke="#111111" stroke-width="6.006583" stroke-dasharray="527.4350395755405,3490.332001151899" stroke-dashoffset="4017.767041" stroke-miterlimit="10"/><path clip-path="url(#clip_frame7_layer_1)" d="M1.1 223.223h1810.1l-14.4 1.1h-696.9l-126.5.5H1.1v-1.6z" fill="#111111" stroke-dasharray="0,3621.84294091498" stroke-dashoffset="3621.842941"/></g><g transform="translate(14600)"><defs><clipPath id="clip_frame8_layer_1"><path d="M1822.197 3.003l-21.604 170.527h-697.714L976.29 222.834H3.003V3.003h1819.194z"/></clipPath></defs><path d="M1822.197 3.003l-21.604 170.527h-697.714L976.29 222.834H3.003V3.003h1819.194z" fill="none" stroke="#111111" stroke-width="6.006583" stroke-dasharray="741.1280028092564,3276.6390379181835" stroke-dashoffset="4017.767041" stroke-miterlimit="10"/><path clip-path="url(#clip_frame8_layer_1)" d="M1.1 223.223h1810.1l-14.4 1.1h-696.9l-126.5.5H1.1v-1.6z" fill="#111111" stroke-dasharray="0,3621.84294091498" stroke-dashoffset="3621.842941"/></g><g transform="translate(16425)"><defs><clipPath id="clip_frame9_layer_1"><path d="M1822.197 3.003l-21.604 170.527h-697.714L976.29 222.834H3.003V3.003h1819.194z"/></clipPath></defs><path d="M1822.197 3.003l-21.604 170.527h-697.714L976.29 222.834H3.003V3.003h1819.194z" fill="none" stroke="#111111" stroke-width="6.006583" stroke-dasharray="1000.2616953004092,3017.505345427031" stroke-dashoffset="4017.767041" stroke-miterlimit="10"/><path clip-path="url(#clip_frame9_layer_1)" d="M1.1 223.223h1810.1l-14.4 1.1h-696.9l-126.5.5H1.1v-1.6z" fill="#111111" stroke-dasharray="0,3621.84294091498" stroke-dashoffset="3621.842941"/></g><g transform="translate(18250)"><defs><clipPath id="clip_frame10_layer_1"><path d="M1822.197 3.003l-21.604 170.527h-697.714L976.29 222.834H3.003V3.003h1819.194z"/></clipPath></defs><path d="M1822.197 3.003l-21.604 170.527h-697.714L976.29 222.834H3.003V3.003h1819.194z" fill="none" stroke="#111111" stroke-width="6.006583" stroke-dasharray="1294.9382459285978,2722.8287947988424" stroke-dashoffset="4017.767041" stroke-miterlimit="10"/><path clip-path="url(#clip_frame10_layer_1)" d="M1.1 223.223h1810.1l-14.4 1.1h-696.9l-126.5.5H1.1v-1.6z" fill="#111111" stroke-dasharray="0,3621.84294091498" stroke-dashoffset="3621.842941"/></g><g transform="translate(20075)"><defs><clipPath id="clip_frame11_layer_1"><path d="M1822.197 3.003l-21.604 170.527h-697.714L976.29 222.834H3.003V3.003h1819.194z"/></clipPath></defs><path d="M1822.197 3.003l-21.604 170.527h-697.714L976.29 222.834H3.003V3.003h1819.194z" fill="none" stroke="#111111" stroke-width="6.006583" stroke-dasharray="1605.0996791932891,2412.667361534151" stroke-dashoffset="4017.767041" stroke-miterlimit="10"/><path clip-path="url(#clip_frame11_layer_1)" d="M1.1 223.223h1810.1l-14.4 1.1h-696.9l-126.5.5H1.1v-1.6z" fill="#111111" stroke-dasharray="0,3621.84294091498" stroke-dashoffset="3621.842941"/></g><g transform="translate(21900)"><defs><clipPath id="clip_frame12_layer_1"><path d="M1822.197 3.003l-21.604 170.527h-697.714L976.29 222.834H3.003V3.003h1819.194z"/></clipPath></defs><path d="M1822.197 3.003l-21.604 170.527h-697.714L976.29 222.834H3.003V3.003h1819.194z" fill="none" stroke="#111111" stroke-width="6.006583" stroke-dasharray="1908.236241977355,2109.530798750085" stroke-dashoffset="4017.767041" stroke-miterlimit="10"/><path clip-path="url(#clip_frame12_layer_1)" d="M1.1 223.223h1810.1l-14.4 1.1h-696.9l-126.5.5H1.1v-1.6z" fill="#111111" stroke-dasharray="0,3621.84294091498" stroke-dashoffset="3621.842941"/></g><g transform="translate(23725)"><defs><clipPath id="clip_frame13_layer_1"><path d="M1822.197 3.003l-21.604 170.527h-697.714L976.29 222.834H3.003V3.003h1819.194z"/></clipPath></defs><path d="M1822.197 3.003l-21.604 170.527h-697.714L976.29 222.834H3.003V3.003h1819.194z" fill="none" stroke="#111111" stroke-width="6.006583" stroke-dasharray="2188.50487048747,1829.26217023997" stroke-dashoffset="4017.767041" stroke-miterlimit="10"/><path clip-path="url(#clip_frame13_layer_1)" d="M1.1 223.223h1810.1l-14.4 1.1h-696.9l-126.5.5H1.1v-1.6z" fill="#111111" stroke-dasharray="0,3621.84294091498" stroke-dashoffset="3621.842941"/></g><g transform="translate(25550)"><defs><clipPath id="clip_frame14_layer_1"><path d="M1822.197 3.003l-21.604 170.527h-697.714L976.29 222.834H3.003V3.003h1819.194z"/></clipPath></defs><path d="M1822.197 3.003l-21.604 170.527h-697.714L976.29 222.834H3.003V3.003h1819.194z" fill="none" stroke="#111111" stroke-width="6.006583" stroke-dasharray="2439.1209534817567,1578.646087245683" stroke-dashoffset="4017.767041" stroke-miterlimit="10"/><path clip-path="url(#clip_frame14_layer_1)" d="M1.1 223.223h1810.1l-14.4 1.1h-696.9l-126.5.5H1.1v-1.6z" fill="#111111" stroke-dasharray="0,3621.84294091498" stroke-dashoffset="3621.842941"/></g><g transform="translate(27375)"><defs><clipPath id="clip_frame15_layer_1"><path d="M1822.197 3.003l-21.604 170.527h-697.714L976.29 222.834H3.003V3.003h1819.194z"/></clipPath></defs><path d="M1822.197 3.003l-21.604 170.527h-697.714L976.29 222.834H3.003V3.003h1819.194z" fill="none" stroke="#111111" stroke-width="6.006583" stroke-dasharray="2659.525430426353,1358.241610301087" stroke-dashoffset="4017.767041" stroke-miterlimit="10"/><path clip-path="url(#clip_frame15_layer_1)" d="M1.1 223.223h1810.1l-14.4 1.1h-696.9l-126.5.5H1.1v-1.6z" fill="#111111" stroke-dasharray="0,3621.84294091498" stroke-dashoffset="3621.842941"/></g><g transform="translate(29200)"><defs><clipPath id="clip_frame16_layer_1"><path d="M1822.197 3.003l-21.604 170.527h-697.714L976.29 222.834H3.003V3.003h1819.194z"/></clipPath></defs><path d="M1822.197 3.003l-21.604 170.527h-697.714L976.29 222.834H3.003V3.003h1819.194z" fill="none" stroke="#111111" stroke-width="6.006583" stroke-dasharray="2852.0653955436346,1165.701645183805" stroke-dashoffset="4017.767041" stroke-miterlimit="10"/><path clip-path="url(#clip_frame16_layer_1)" d="M1.1 223.223h1810.1l-14.4 1.1h-696.9l-126.5.5H1.1v-1.6z" fill="#111111" stroke-dasharray="0,3621.84294091498" stroke-dashoffset="3621.842941"/></g><g transform="translate(31025)"><defs><clipPath id="clip_frame17_layer_1"><path d="M1822.197 3.003l-21.604 170.527h-697.714L976.29 222.834H3.003V3.003h1819.194z"/></clipPath></defs><path d="M1822.197 3.003l-21.604 170.527h-697.714L976.29 222.834H3.003V3.003h1819.194z" fill="none" stroke="#111111" stroke-width="6.006583" stroke-dasharray="3019.981220640819,997.7858200866206" stroke-dashoffset="4017.767041" stroke-miterlimit="10"/><path clip-path="url(#clip_frame17_layer_1)" d="M1.1 223.223h1810.1l-14.4 1.1h-696.9l-126.5.5H1.1v-1.6z" fill="#111111" stroke-dasharray="0,3621.84294091498" stroke-dashoffset="3621.842941"/></g><g transform="translate(32850)"><defs><clipPath id="clip_frame18_layer_1"><path d="M1822.197 3.003l-21.604 170.527h-697.714L976.29 222.834H3.003V3.003h1819.194z"/></clipPath></defs><path d="M1822.197 3.003l-21.604 170.527h-697.714L976.29 222.834H3.003V3.003h1819.194z" fill="none" stroke="#111111" stroke-width="6.006583" stroke-dasharray="3166.492848453948,851.2741922734918" stroke-dashoffset="4017.767041" stroke-miterlimit="10"/><path clip-path="url(#clip_frame18_layer_1)" d="M1.1 223.223h1810.1l-14.4 1.1h-696.9l-126.5.5H1.1v-1.6z" fill="#111111" stroke-dasharray="0,3621.84294091498" stroke-dashoffset="3621.842941"/></g><g transform="translate(34675)"><defs><clipPath id="clip_frame19_layer_1"><path d="M1822.197 3.003l-21.604 170.527h-697.714L976.29 222.834H3.003V3.003h1819.194z"/></clipPath></defs><path d="M1822.197 3.003l-21.604 170.527h-697.714L976.29 222.834H3.003V3.003h1819.194z" fill="none" stroke="#111111" stroke-width="6.006583" stroke-dasharray="3294.471658209945,723.295382517495" stroke-dashoffset="4017.767041" stroke-miterlimit="10"/><path clip-path="url(#clip_frame19_layer_1)" d="M1.1 223.223h1810.1l-14.4 1.1h-696.9l-126.5.5H1.1v-1.6z" fill="#111111" stroke-dasharray="0,3621.84294091498" stroke-dashoffset="3621.842941"/></g><g transform="translate(36500)"><defs><clipPath id="clip_frame20_layer_1"><path d="M1822.197 3.003l-21.604 170.527h-697.714L976.29 222.834H3.003V3.003h1819.194z"/></clipPath></defs><path d="M1822.197 3.003l-21.604 170.527h-697.714L976.29 222.834H3.003V3.003h1819.194z" fill="none" stroke="#111111" stroke-width="6.006583" stroke-dasharray="3406.3689835039213,611.3980572235188" stroke-dashoffset="4017.767041" stroke-miterlimit="10"/><path clip-path="url(#clip_frame20_layer_1)" d="M1.1 223.223h1810.1l-14.4 1.1h-696.9l-126.5.5H1.1v-1.6z" fill="#111111" stroke-dasharray="0,3621.84294091498" stroke-dashoffset="3621.842941"/></g><g transform="translate(38325)"><defs><clipPath id="clip_frame21_layer_1"><path d="M1822.197 3.003l-21.604 170.527h-697.714L976.29 222.834H3.003V3.003h1819.194z"/></clipPath></defs><path d="M1822.197 3.003l-21.604 170.527h-697.714L976.29 222.834H3.003V3.003h1819.194z" fill="none" stroke="#111111" stroke-width="6.006583" stroke-dasharray="3504.2420099864125,513.5250307410276" stroke-dashoffset="4017.767041" stroke-miterlimit="10"/><path clip-path="url(#clip_frame21_layer_1)" d="M1.1 223.223h1810.1l-14.4 1.1h-696.9l-126.5.5H1.1v-1.6z" fill="#111111" stroke-dasharray="0,3621.84294091498" stroke-dashoffset="3621.842941"/></g><g transform="translate(40150)"><defs><clipPath id="clip_frame22_layer_1"><path d="M1822.197 3.003l-21.604 170.527h-697.714L976.29 222.834H3.003V3.003h1819.194z"/></clipPath></defs><path d="M1822.197 3.003l-21.604 170.527h-697.714L976.29 222.834H3.003V3.003h1819.194z" fill="none" stroke="#111111" stroke-width="6.006583" stroke-dasharray="3589.8089193373075,427.95812139013225" stroke-dashoffset="4017.767041" stroke-miterlimit="10"/><path clip-path="url(#clip_frame22_layer_1)" d="M1.1 223.223h1810.1l-14.4 1.1h-696.9l-126.5.5H1.1v-1.6z" fill="#111111" stroke-dasharray="0,3621.84294091498" stroke-dashoffset="3621.842941"/></g><g transform="translate(41975)"><defs><clipPath id="clip_frame23_layer_1"><path d="M1822.197 3.003l-21.604 170.527h-697.714L976.29 222.834H3.003V3.003h1819.194z"/></clipPath></defs><path d="M1822.197 3.003l-21.604 170.527h-697.714L976.29 222.834H3.003V3.003h1819.194z" fill="none" stroke="#111111" stroke-width="6.006583" stroke-dasharray="3664.506663483791,353.2603772436492" stroke-dashoffset="4017.767041" stroke-miterlimit="10"/><path clip-path="url(#clip_frame23_layer_1)" d="M1.1 223.223h1810.1l-14.4 1.1h-696.9l-126.5.5H1.1v-1.6z" fill="#111111" stroke-dasharray="0,3621.84294091498" stroke-dashoffset="3621.842941"/></g><g transform="translate(43800)"><defs><clipPath id="clip_frame24_layer_1"><path d="M1822.197 3.003l-21.604 170.527h-697.714L976.29 222.834H3.003V3.003h1819.194z"/></clipPath></defs><path d="M1822.197 3.003l-21.604 170.527h-697.714L976.29 222.834H3.003V3.003h1819.194z" fill="none" stroke="#111111" stroke-width="6.006583" stroke-dasharray="3729.5422764711348,288.2247642563053" stroke-dashoffset="4017.767041" stroke-miterlimit="10"/><path clip-path="url(#clip_frame24_layer_1)" d="M1.1 223.223h1810.1l-14.4 1.1h-696.9l-126.5.5H1.1v-1.6z" fill="#111111" stroke-dasharray="0,3621.84294091498" stroke-dashoffset="3621.842941"/></g><g transform="translate(45625)"><defs><clipPath id="clip_frame25_layer_1"><path d="M1822.197 3.003l-21.604 170.527h-697.714L976.29 222.834H3.003V3.003h1819.194z"/></clipPath></defs><path d="M1822.197 3.003l-21.604 170.527h-697.714L976.29 222.834H3.003V3.003h1819.194z" fill="none" stroke="#111111" stroke-width="6.006583" stroke-dasharray="3785.9356150477442,231.83142567969557" stroke-dashoffset="4017.767041" stroke-miterlimit="10"/><path clip-path="url(#clip_frame25_layer_1)" d="M1.1 223.223h1810.1l-14.4 1.1h-696.9l-126.5.5H1.1v-1.6z" fill="#111111" stroke-dasharray="0,3621.84294091498" stroke-dashoffset="3621.842941"/></g><g transform="translate(47450)"><defs><clipPath id="clip_frame26_layer_1"><path d="M1822.197 3.003l-21.604 170.527h-697.714L976.29 222.834H3.003V3.003h1819.194z"/></clipPath></defs><path d="M1822.197 3.003l-21.604 170.527h-697.714L976.29 222.834H3.003V3.003h1819.194z" fill="none" stroke="#111111" stroke-width="6.006583" stroke-dasharray="3834.5539794480146,183.21306127942543" stroke-dashoffset="4017.767041" stroke-miterlimit="10"/><path clip-path="url(#clip_frame26_layer_1)" d="M1.1 223.223h1810.1l-14.4 1.1h-696.9l-126.5.5H1.1v-1.6z" fill="#111111" stroke-dasharray="0,3621.84294091498" stroke-dashoffset="3621.842941"/></g><g transform="translate(49275)"><defs><clipPath id="clip_frame27_layer_1"><path d="M1822.197 3.003l-21.604 170.527h-697.714L976.29 222.834H3.003V3.003h1819.194z"/></clipPath></defs><path d="M1822.197 3.003l-21.604 170.527h-697.714L976.29 222.834H3.003V3.003h1819.194z" fill="none" stroke="#111111" stroke-width="6.006583" stroke-dasharray="3876.1398353853224,141.62720534211743" stroke-dashoffset="4017.767041" stroke-miterlimit="10"/><path clip-path="url(#clip_frame27_layer_1)" d="M1.1 223.223h1810.1l-14.4 1.1h-696.9l-126.5.5H1.1v-1.6z" fill="#111111" stroke-dasharray="0,3621.84294091498" stroke-dashoffset="3621.842941"/></g><g transform="translate(51100)"><defs><clipPath id="clip_frame28_layer_1"><path d="M1822.197 3.003l-21.604 170.527h-697.714L976.29 222.834H3.003V3.003h1819.194z"/></clipPath></defs><path d="M1822.197 3.003l-21.604 170.527h-697.714L976.29 222.834H3.003V3.003h1819.194z" fill="none" stroke="#111111" stroke-width="6.006583" stroke-dasharray="3911.3329407196975,106.4341000077425" stroke-dashoffset="4017.767041" stroke-miterlimit="10"/><path clip-path="url(#clip_frame28_layer_1)" d="M1.1 223.223h1810.1l-14.4 1.1h-696.9l-126.5.5H1.1v-1.6z" fill="#111111" stroke-dasharray="0,3621.84294091498" stroke-dashoffset="3621.842941"/></g><g transform="translate(52925)"><defs><clipPath id="clip_frame29_layer_1"><path d="M1822.197 3.003l-21.604 170.527h-697.714L976.29 222.834H3.003V3.003h1819.194z"/></clipPath></defs><path d="M1822.197 3.003l-21.604 170.527h-697.714L976.29 222.834H3.003V3.003h1819.194z" fill="none" stroke="#111111" stroke-width="6.006583" stroke-dasharray="3940.6880285925795,77.07901213486066" stroke-dashoffset="4017.767041" stroke-miterlimit="10"/><path clip-path="url(#clip_frame29_layer_1)" d="M1.1 223.223h1810.1l-14.4 1.1h-696.9l-126.5.5H1.1v-1.6z" fill="#111111" stroke-dasharray="0,3621.84294091498" stroke-dashoffset="3621.842941"/></g><g transform="translate(54750)"><defs><clipPath id="clip_frame30_layer_1"><path d="M1822.197 3.003l-21.604 170.527h-697.714L976.29 222.834H3.003V3.003h1819.194z"/></clipPath></defs><path d="M1822.197 3.003l-21.604 170.527h-697.714L976.29 222.834H3.003V3.003h1819.194z" fill="none" stroke="#111111" stroke-width="6.006583" stroke-dasharray="3964.6889924648694,53.07804826257057" stroke-dashoffset="4017.767041" stroke-miterlimit="10"/><path clip-path="url(#clip_frame30_layer_1)" d="M1.1 223.223h1810.1l-14.4 1.1h-696.9l-126.5.5H1.1v-1.6z" fill="#111111" stroke-dasharray="0,3621.84294091498" stroke-dashoffset="3621.842941"/></g><g transform="translate(56575)"><defs><clipPath id="clip_frame31_layer_1"><path d="M1822.197 3.003l-21.604 170.527h-697.714L976.29 222.834H3.003V3.003h1819.194z"/></clipPath></defs><path d="M1822.197 3.003l-21.604 170.527h-697.714L976.29 222.834H3.003V3.003h1819.194z" fill="none" stroke="#111111" stroke-width="6.006583" stroke-dasharray="3983.7603233307746,34.00671739666541" stroke-dashoffset="4017.767041" stroke-miterlimit="10"/><path clip-path="url(#clip_frame31_layer_1)" d="M1.1 223.223h1810.1l-14.4 1.1h-696.9l-126.5.5H1.1v-1.6z" fill="#111111" stroke-dasharray="0,3621.84294091498" stroke-dashoffset="3621.842941"/></g><g transform="translate(58400)"><defs><clipPath id="clip_frame32_layer_1"><path d="M1822.197 3.003l-21.604 170.527h-697.714L976.29 222.834H3.003V3.003h1819.194z"/></clipPath></defs><path d="M1822.197 3.003l-21.604 170.527h-697.714L976.29 222.834H3.003V3.003h1819.194z" fill="none" stroke="#111111" stroke-width="6.006583" stroke-dasharray="3998.276385196056,19.49065553138433" stroke-dashoffset="4017.767041" stroke-miterlimit="10"/><path clip-path="url(#clip_frame32_layer_1)" d="M1.1 223.223h1810.1l-14.4 1.1h-696.9l-126.5.5H1.1v-1.6z" fill="#111111" stroke-dasharray="0,3621.84294091498" stroke-dashoffset="3621.842941"/></g><g transform="translate(60225)"><defs><clipPath id="clip_frame33_layer_1"><path d="M1822.197 3.003l-21.604 170.527h-697.714L976.29 222.834H3.003V3.003h1819.194z"/></clipPath></defs><path d="M1822.197 3.003l-21.604 170.527h-697.714L976.29 222.834H3.003V3.003h1819.194z" fill="none" stroke="#111111" stroke-width="6.006583" stroke-dasharray="4008.568983712947,9.19805701449293" stroke-dashoffset="4017.767041" stroke-miterlimit="10"/><path clip-path="url(#clip_frame33_layer_1)" d="M1.1 223.223h1810.1l-14.4 1.1h-696.9l-126.5.5H1.1v-1.6z" fill="#111111" stroke-dasharray="0,3621.84294091498" stroke-dashoffset="3621.842941"/></g><g transform="translate(62050)"><defs><clipPath id="clip_frame34_layer_1"><path d="M1822.197 3.003l-21.604 170.527h-697.714L976.29 222.834H3.003V3.003h1819.194z"/></clipPath></defs><path d="M1822.197 3.003l-21.604 170.527h-697.714L976.29 222.834H3.003V3.003h1819.194z" fill="none" stroke="#111111" stroke-width="6.006583" stroke-dasharray="4014.933580595019,2.833460132421106" stroke-dashoffset="4017.767041" stroke-miterlimit="10"/><path clip-path="url(#clip_frame34_layer_1)" d="M1.1 223.223h1810.1l-14.4 1.1h-696.9l-126.5.5H1.1v-1.6z" fill="#111111" stroke-dasharray="0,3621.84294091498" stroke-dashoffset="3621.842941"/></g><g transform="translate(63875)"><defs><clipPath id="clip_frame35_layer_1"><path d="M1822.197 3.003l-21.604 170.527h-697.714L976.29 222.834H3.003V3.003h1819.194z"/></clipPath></defs><path d="M1822.197 3.003l-21.604 170.527h-697.714L976.29 222.834H3.003V3.003h1819.194z" fill="none" stroke="#111111" stroke-width="6.006583" stroke-dasharray="4017.634427644417,0.13261308302283617" stroke-dashoffset="4017.767041" stroke-miterlimit="10"/><path clip-path="url(#clip_frame35_layer_1)" d="M1.1 223.223h1810.1l-14.4 1.1h-696.9l-126.5.5H1.1v-1.6z" fill="#111111" stroke-dasharray="0,3621.84294091498" stroke-dashoffset="3621.842941"/></g><g transform="translate(65700)"><defs><clipPath id="clip_frame36_layer_1"><path d="M1822.197 3.003l-21.604 170.527h-697.714L976.29 222.834H3.003V3.003h1819.194z"/></clipPath></defs><path d="M1822.197 3.003l-21.604 170.527h-697.714L976.29 222.834H3.003V3.003h1819.194z" fill="none" stroke="#111111" stroke-width="6.006583" stroke-miterlimit="10"/><path clip-path="url(#clip_frame36_layer_1)" d="M1.1 223.223h1810.1l-14.4 1.1h-696.9l-126.5.5H1.1v-1.6z" fill="#111111" stroke-dasharray="0,3621.84294091498" stroke-dashoffset="3621.842941"/></g><g transform="translate(67525)"><defs><clipPath id="clip_frame37_layer_1"><path d="M1822.197 3.003l-21.604 170.527h-697.714L976.29 222.834H3.003V3.003h1819.194z"/></clipPath></defs><path d="M1822.197 3.003l-21.604 170.527h-697.714L976.29 222.834H3.003V3.003h1819.194z" fill="none" stroke="#111111" stroke-width="6.006583" stroke-miterlimit="10"/><path clip-path="url(#clip_frame37_layer_1)" d="M1.1 223.119h1810.106l-14.396 1.185h-696.906l-126.501.52H1.1v-1.705z" fill="#111111" stroke-dasharray="0,3621.967419371577" stroke-dashoffset="3621.967419"/></g><g transform="translate(69350)"><defs><clipPath id="clip_frame38_layer_1"><path d="M1822.197 3.003l-21.604 170.527h-697.714L976.29 222.834H3.003V3.003h1819.194z"/></clipPath></defs><path d="M1822.197 3.003l-21.604 170.527h-697.714L976.29 222.834H3.003V3.003h1819.194z" fill="none" stroke="#111111" stroke-width="6.006583" stroke-miterlimit="10"/><path clip-path="url(#clip_frame38_layer_1)" d="M1.099 222.332h1810.155l-14.369 1.826h-696.949l-126.508.669H1.099v-2.495z" fill="#111111" stroke-dasharray="0,3622.92272416861" stroke-dashoffset="3622.922724"/></g><g transform="translate(71175)"><defs><clipPath id="clip_frame39_layer_1"><path d="M1822.197 3.003l-21.604 170.527h-697.714L976.29 222.834H3.003V3.003h1819.194z"/></clipPath></defs><path d="M1822.197 3.003l-21.604 170.527h-697.714L976.29 222.834H3.003V3.003h1819.194z" fill="none" stroke="#111111" stroke-width="6.006583" stroke-miterlimit="10"/><path clip-path="url(#clip_frame39_layer_1)" d="M1.097 220.774h1810.251l-14.315 3.096H1100l-126.523.964H1.097v-4.06z" fill="#111111" stroke-dasharray="0,3624.8980460173" stroke-dashoffset="3624.898046"/></g><g transform="translate(73000)"><defs><clipPath id="clip_frame40_layer_1"><path d="M1822.197 3.003l-21.604 170.527h-697.714L976.29 222.834H3.003V3.003h1819.194z"/></clipPath></defs><path d="M1822.197 3.003l-21.604 170.527h-697.714L976.29 222.834H3.003V3.003h1819.194z" fill="none" stroke="#111111" stroke-width="6.006583" stroke-miterlimit="10"/><path clip-path="url(#clip_frame40_layer_1)" d="M1.094 218.444h1810.395l-14.235 4.995h-697.159l-126.545 1.405H1.094v-6.4z" fill="#111111" stroke-dasharray="0,3628.050355261349" stroke-dashoffset="3628.050355"/></g><g transform="translate(74825)"><defs><clipPath id="clip_frame41_layer_1"><path d="M1822.197 3.003l-21.604 170.527h-697.714L976.29 222.834H3.003V3.003h1819.194z"/></clipPath></defs><path d="M1822.197 3.003l-21.604 170.527h-697.714L976.29 222.834H3.003V3.003h1819.194z" fill="none" stroke="#111111" stroke-width="6.006583" stroke-miterlimit="10"/><path clip-path="url(#clip_frame41_layer_1)" d="M1.089 215.342h1810.588l-14.128 7.522h-697.328l-126.574 1.994H1.089v-9.516z" fill="#111111" stroke-dasharray="0,3632.5837084147356" stroke-dashoffset="3632.583708"/></g><g transform="translate(76650)"><defs><clipPath id="clip_frame42_layer_1"><path d="M1822.197 3.003l-21.604 170.527h-697.714L976.29 222.834H3.003V3.003h1819.194z"/></clipPath></defs><path d="M1822.197 3.003l-21.604 170.527h-697.714L976.29 222.834H3.003V3.003h1819.194z" fill="none" stroke="#111111" stroke-width="6.006583" stroke-miterlimit="10"/><path clip-path="url(#clip_frame42_layer_1)" d="M1.084 211.469h1810.827l-13.995 10.678h-697.537l-126.61 2.728H1.084v-13.406z" fill="#111111" stroke-dasharray="0,3638.69721060114" stroke-dashoffset="3638.697211"/></g><g transform="translate(78475)"><defs><clipPath id="clip_frame43_layer_1"><path d="M1822.197 3.003l-21.604 170.527h-697.714L976.29 222.834H3.003V3.003h1819.194z"/></clipPath></defs><path d="M1822.197 3.003l-21.604 170.527h-697.714L976.29 222.834H3.003V3.003h1819.194z" fill="none" stroke="#111111" stroke-width="6.006583" stroke-miterlimit="10"/><path clip-path="url(#clip_frame43_layer_1)" d="M1.078 206.824h1811.114l-13.835 14.464h-697.788l-126.655 3.607H1.078v-18.071z" fill="#111111" stroke-dasharray="0,3646.5296074749144" stroke-dashoffset="3646.529607"/></g><g transform="translate(80300)"><defs><clipPath id="clip_frame44_layer_1"><path d="M1822.197 3.003l-21.604 170.527h-697.714L976.29 222.834H3.003V3.003h1819.194z"/></clipPath></defs><path d="M1822.197 3.003l-21.604 170.527h-697.714L976.29 222.834H3.003V3.003h1819.194z" fill="none" stroke="#111111" stroke-width="6.006583" stroke-miterlimit="10"/><path clip-path="url(#clip_frame44_layer_1)" d="M1.071 201.408h1811.448l-13.647 18.877h-698.083l-126.705 4.634H1.071v-23.511z" fill="#111111" stroke-dasharray="0,3656.1383389034036" stroke-dashoffset="3656.138339"/></g><g transform="translate(82125)"><defs><clipPath id="clip_frame45_layer_1"><path d="M1822.197 3.003l-21.604 170.527h-697.714L976.29 222.834H3.003V3.003h1819.194z"/></clipPath></defs><path d="M1822.197 3.003l-21.604 170.527h-697.714L976.29 222.834H3.003V3.003h1819.194z" fill="none" stroke="#111111" stroke-width="6.006583" stroke-miterlimit="10"/><path clip-path="url(#clip_frame45_layer_1)" d="M1.062 195.221h1811.832l-13.435 23.919h-698.417l-126.764 5.806H1.062v-29.725z" fill="#111111" stroke-dasharray="0,3667.519620658714" stroke-dashoffset="3667.519621"/></g><g transform="translate(83950)"><defs><clipPath id="clip_frame46_layer_1"><path d="M1822.197 3.003l-21.604 170.527h-697.714L976.29 222.834H3.003V3.003h1819.194z"/></clipPath></defs><path d="M1822.197 3.003l-21.604 170.527h-697.714L976.29 222.834H3.003V3.003h1819.194z" fill="none" stroke="#111111" stroke-width="6.006583" stroke-miterlimit="10"/><path clip-path="url(#clip_frame46_layer_1)" d="M1.053 188.262h1812.261l-13.194 29.589h-698.795l-126.829 7.125H1.053v-36.714z" fill="#111111" stroke-dasharray="0,3680.6415649977016" stroke-dashoffset="3680.641565"/></g><g transform="translate(85775)"><defs><clipPath id="clip_frame47_layer_1"><path d="M1822.197 3.003l-21.604 170.527h-697.714L976.29 222.834H3.003V3.003h1819.194z"/></clipPath></defs><path d="M1822.197 3.003l-21.604 170.527h-697.714L976.29 222.834H3.003V3.003h1819.194z" fill="none" stroke="#111111" stroke-width="6.006583" stroke-miterlimit="10"/><path clip-path="url(#clip_frame47_layer_1)" d="M1.043 180.531h1812.739l-12.927 35.889H1101.64l-126.901 8.59H1.043v-44.479z" fill="#111111" stroke-dasharray="0,3695.467485817845" stroke-dashoffset="3695.467486"/></g><g transform="translate(87600)"><defs><clipPath id="clip_frame48_layer_1"><path d="M1822.197 3.003l-21.604 170.527h-697.714L976.29 222.834H3.003V3.003h1819.194z"/></clipPath></defs><path d="M1822.197 3.003l-21.604 170.527h-697.714L976.29 222.834H3.003V3.003h1819.194z" fill="none" stroke="#111111" stroke-width="6.006583" stroke-miterlimit="10"/><path clip-path="url(#clip_frame48_layer_1)" d="M1.031 172.029h1813.265l-12.634 42.817h-699.675l-126.982 10.201H1.031v-53.018z" fill="#111111" stroke-dasharray="0,3711.9662110087866" stroke-dashoffset="3711.966211"/></g><g transform="translate(89425)"><defs><clipPath id="clip_frame49_layer_1"><path d="M1822.197 3.003l-21.604 170.527h-697.714L976.29 222.834H3.003V3.003h1819.194z"/></clipPath></defs><path d="M1822.197 3.003l-21.604 170.527h-697.714L976.29 222.834H3.003V3.003h1819.194z" fill="none" stroke="#111111" stroke-width="6.006583" stroke-miterlimit="10"/><path clip-path="url(#clip_frame49_layer_1)" d="M1.019 162.755h1813.838l-12.314 50.374h-700.178l-127.069 11.959H1.019v-62.333z" fill="#111111" stroke-dasharray="0,3730.114615639508" stroke-dashoffset="3730.114616"/></g><g transform="translate(91250)"><defs><clipPath id="clip_frame50_layer_1"><path d="M1822.197 3.003l-21.604 170.527h-697.714L976.29 222.834H3.003V3.003h1819.194z"/></clipPath></defs><path d="M1822.197 3.003l-21.604 170.527h-697.714L976.29 222.834H3.003V3.003h1819.194z" fill="none" stroke="#111111" stroke-width="6.006583" stroke-miterlimit="10"/><path clip-path="url(#clip_frame50_layer_1)" d="M1.005 152.71h1814.459l-11.967 58.56h-700.722l-127.164 13.862H1.005V152.71z" fill="#111111" stroke-dasharray="0,3749.8969876657648" stroke-dashoffset="3749.896988"/></g><g transform="translate(93075)"><defs><clipPath id="clip_frame51_layer_1"><path d="M1822.197 3.003l-21.604 170.527h-697.714L976.29 222.834H3.003V3.003h1819.194z"/></clipPath></defs><path d="M1822.197 3.003l-21.604 170.527h-697.714L976.29 222.834H3.003V3.003h1819.194z" fill="none" stroke="#111111" stroke-width="6.006583" stroke-miterlimit="10"/><path clip-path="url(#clip_frame51_layer_1)" d="M.991 141.893h1815.128l-11.595 67.374h-701.308L975.95 225.179H.991v-83.286z" fill="#111111" stroke-dasharray="0,3771.3035581143927" stroke-dashoffset="3771.303558"/></g><g transform="translate(94900)"><defs><clipPath id="clip_frame52_layer_1"><path d="M1822.197 3.003l-21.604 170.527h-697.714L976.29 222.834H3.003V3.003h1819.194z"/></clipPath></defs><path d="M1822.197 3.003l-21.604 170.527h-697.714L976.29 222.834H3.003V3.003h1819.194z" fill="none" stroke="#111111" stroke-width="6.006583" stroke-miterlimit="10"/><path clip-path="url(#clip_frame52_layer_1)" d="M.975 130.305H1816.82l-11.195 76.817h-701.937L976.314 225.23H.975v-94.925z" fill="#111111" stroke-dasharray="0,3794.3290739121126" stroke-dashoffset="3794.329074"/></g><g transform="translate(96725)"><defs><clipPath id="clip_frame53_layer_1"><path d="M1822.197 3.003l-21.604 170.527h-697.714L976.29 222.834H3.003V3.003h1819.194z"/></clipPath></defs><path d="M1822.197 3.003l-21.604 170.527h-697.714L976.29 222.834H3.003V3.003h1819.194z" fill="none" stroke="#111111" stroke-width="6.006583" stroke-miterlimit="10"/><path clip-path="url(#clip_frame53_layer_1)" d="M.959 117.945h1816.608l-10.768 86.889h-702.607l-127.491 20.45H.959V117.945z" fill="#111111" stroke-dasharray="0,3818.971647599395" stroke-dashoffset="3818.971648"/></g><g transform="translate(98550)"><defs><clipPath id="clip_frame54_layer_1"><path d="M1822.197 3.003l-21.604 170.527h-697.714L976.29 222.834H3.003V3.003h1819.194z"/></clipPath></defs><path d="M1822.197 3.003l-21.604 170.527h-697.714L976.29 222.834H3.003V3.003h1819.194z" fill="none" stroke="#111111" stroke-width="6.006583" stroke-miterlimit="10"/><path clip-path="url(#clip_frame54_layer_1)" d="M.941 104.813h1817.42l-10.315 97.59h-703.319l-127.614 22.938H.941V104.813z" fill="#111111" stroke-dasharray="0,3845.2318890851866" stroke-dashoffset="3845.231889"/></g><g transform="translate(100375)"><defs><clipPath id="clip_frame55_layer_1"><path d="M1822.197 3.003l-21.604 170.527h-697.714L976.29 222.834H3.003V3.003h1819.194z"/></clipPath></defs><path d="M1822.197 3.003l-21.604 170.527h-697.714L976.29 222.834H3.003V3.003h1819.194z" fill="none" stroke="#111111" stroke-width="6.006583" stroke-miterlimit="10"/><path clip-path="url(#clip_frame55_layer_1)" d="M.922 90.91h1818.28l-9.836 108.919h-704.072l-127.745 25.573H.922V90.91z" fill="#111111" stroke-dasharray="0,3873.112263198153" stroke-dashoffset="3873.112263"/></g><g transform="translate(102200)"><defs><clipPath id="clip_frame56_layer_1"><path d="M1822.197 3.003l-21.604 170.527h-697.714L976.29 222.834H3.003V3.003h1819.194z"/></clipPath></defs><path d="M1822.197 3.003l-21.604 170.527h-697.714L976.29 222.834H3.003V3.003h1819.194z" fill="none" stroke="#111111" stroke-width="6.006583" stroke-miterlimit="10"/><path clip-path="url(#clip_frame56_layer_1)" d="M.902 76.236h1819.187l-9.329 120.877h-704.868l-127.883 28.353H.902V76.236z" fill="#111111" stroke-dasharray="0,3902.6166128732816" stroke-dashoffset="3902.616613"/></g><g transform="translate(104025)"><defs><clipPath id="clip_frame57_layer_1"><path d="M1822.197 3.003l-21.604 170.527h-697.714L976.29 222.834H3.003V3.003h1819.194z"/></clipPath></defs><path d="M1822.197 3.003l-21.604 170.527h-697.714L976.29 222.834H3.003V3.003h1819.194z" fill="none" stroke="#111111" stroke-width="6.006583" stroke-miterlimit="10"/><path clip-path="url(#clip_frame57_layer_1)" d="M.882 60.79h1820.142l-8.797 133.464h-705.705l-128.028 31.28H.882V60.79z" fill="#111111" stroke-dasharray="0,3933.7497994197593" stroke-dashoffset="3933.749799"/></g><g transform="translate(105850)"><defs><clipPath id="clip_frame58_layer_1"><path d="M1822.197 3.003l-21.604 170.527h-697.714L976.29 222.834H3.003V3.003h1819.194z"/></clipPath></defs><path d="M1822.197 3.003l-21.604 170.527h-697.714L976.29 222.834H3.003V3.003h1819.194z" fill="none" stroke="#111111" stroke-width="6.006583" stroke-miterlimit="10"/><path clip-path="url(#clip_frame58_layer_1)" d="M.86 44.573h1821.144l-8.237 146.678h-706.584l-128.181 34.354H.86V44.573z" fill="#111111" stroke-dasharray="0,3966.5174243986735" stroke-dashoffset="3966.517424"/></g><g transform="translate(107675)"><defs><clipPath id="clip_frame59_layer_1"><path d="M1822.197 3.003l-21.604 170.527h-697.714L976.29 222.834H3.003V3.003h1819.194z"/></clipPath></defs><path d="M1822.197 3.003l-21.604 170.527h-697.714L976.29 222.834H3.003V3.003h1819.194z" fill="none" stroke="#111111" stroke-width="6.006583" stroke-miterlimit="10"/><path clip-path="url(#clip_frame59_layer_1)" d="M.837 27.584h1822.195l-7.652 160.522h-707.504l-128.341 37.573H.837V27.584z" fill="#111111" stroke-dasharray="0,4000.9256083796363" stroke-dashoffset="4000.925608"/></g><g transform="translate(109500)"><defs><clipPath id="clip_frame60_layer_1"><path d="M1822.197 3.003l-21.604 170.527h-697.714L976.29 222.834H3.003V3.003h1819.194z"/></clipPath></defs><path d="M1822.197 3.003l-21.604 170.527h-697.714L976.29 222.834H3.003V3.003h1819.194z" fill="none" stroke="#111111" stroke-width="6.006583" stroke-miterlimit="10"/><path clip-path="url(#clip_frame60_layer_1)" d="M.813 9.823h1823.293l-7.039 174.995H1108.6l-128.508 40.939H.813V9.823z" fill="#111111" stroke-dasharray="0,4036.980809800937" stroke-dashoffset="4036.98081"/></g><g transform="translate(111325)"><defs><clipPath id="clip_frame61_layer_1"><path d="M1822.197 3.003l-21.604 170.527h-697.714L976.29 222.834H3.003V3.003h1819.194z"/></clipPath></defs><path d="M1822.197 3.003l-21.604 170.527h-697.714L976.29 222.834H3.003V3.003h1819.194z" fill="none" stroke="#111111" stroke-width="6.006583" stroke-miterlimit="10"/><path clip-path="url(#clip_frame61_layer_1)" d="M.806 4.65h1823.613l-6.861 179.211H1108.81L980.254 225.78H.806V4.65z" fill="#111111" stroke-dasharray="0,4047.4990828432115" stroke-dashoffset="4047.499083"/></g><g transform="translate(113150)"><defs><clipPath id="clip_frame62_layer_1"><path d="M1822.197 3.003l-21.604 170.527h-697.714L976.29 222.834H3.003V3.003h1819.194z"/></clipPath></defs><path d="M1822.197 3.003l-21.604 170.527h-697.714L976.29 222.834H3.003V3.003h1819.194z" fill="none" stroke="#111111" stroke-width="6.006583" stroke-miterlimit="10"/><path clip-path="url(#clip_frame62_layer_1)" d="M.819 14.07h1823.03l-7.185 171.535h-708.238l-128.467 40.133H.819V14.07z" fill="#111111" stroke-dasharray="0,4028.351921559022" stroke-dashoffset="4028.351922"/></g><g transform="translate(114975)"><defs><clipPath id="clip_frame63_layer_1"><path d="M1822.197 3.003l-21.604 170.527h-697.714L976.29 222.834H3.003V3.003h1819.194z"/></clipPath></defs><path d="M1822.197 3.003l-21.604 170.527h-697.714L976.29 222.834H3.003V3.003h1819.194z" fill="none" stroke="#111111" stroke-width="6.006583" stroke-miterlimit="10"/><path clip-path="url(#clip_frame63_layer_1)" d="M.831 22.719h1822.495l-7.484 164.487h-707.768l-128.386 38.495H.831V22.719z" fill="#111111" stroke-dasharray="0,4010.7934549317392" stroke-dashoffset="4010.793455"/></g><g transform="translate(116800)"><defs><clipPath id="clip_frame64_layer_1"><path d="M1822.197 3.003l-21.604 170.527h-697.714L976.29 222.834H3.003V3.003h1819.194z"/></clipPath></defs><path d="M1822.197 3.003l-21.604 170.527h-697.714L976.29 222.834H3.003V3.003h1819.194z" fill="none" stroke="#111111" stroke-width="6.006583" stroke-miterlimit="10"/><path clip-path="url(#clip_frame64_layer_1)" d="M.841 30.596H1822.85l-7.756 158.068h-707.341l-128.312 37.002H.841V30.596z" fill="#111111" stroke-dasharray="0,3994.8188506954384" stroke-dashoffset="3994.818851"/></g><g transform="translate(118625)"><defs><clipPath id="clip_frame65_layer_1"><path d="M1822.197 3.003l-21.604 170.527h-697.714L976.29 222.834H3.003V3.003h1819.194z"/></clipPath></defs><path d="M1822.197 3.003l-21.604 170.527h-697.714L976.29 222.834H3.003V3.003h1819.194z" fill="none" stroke="#111111" stroke-width="6.006583" stroke-miterlimit="10"/><path clip-path="url(#clip_frame65_layer_1)" d="M.851 37.702H1822.42l-8.001 152.277h-706.956l-128.245 35.656H.851V37.702z" fill="#111111" stroke-dasharray="0,3980.423545027202" stroke-dashoffset="3980.423545"/></g><g transform="translate(120450)"><defs><clipPath id="clip_frame66_layer_1"><path d="M1822.197 3.003l-21.604 170.527h-697.714L976.29 222.834H3.003V3.003h1819.194z"/></clipPath></defs><path d="M1822.197 3.003l-21.604 170.527h-697.714L976.29 222.834H3.003V3.003h1819.194z" fill="none" stroke="#111111" stroke-width="6.006583" stroke-miterlimit="10"/><path clip-path="url(#clip_frame66_layer_1)" d="M.859 44.036h1821.178l-8.219 147.116h-706.613l-128.186 34.455H.859V44.036z" fill="#111111" stroke-dasharray="0,3967.6032734909245" stroke-dashoffset="3967.603273"/></g><g transform="translate(122275)"><defs><clipPath id="clip_frame67_layer_1"><path d="M1822.197 3.003l-21.604 170.527h-697.714L976.29 222.834H3.003V3.003h1819.194z"/></clipPath></defs><path d="M1822.197 3.003l-21.604 170.527h-697.714L976.29 222.834H3.003V3.003h1819.194z" fill="none" stroke="#111111" stroke-width="6.006583" stroke-miterlimit="10"/><path clip-path="url(#clip_frame67_layer_1)" d="M.867 49.599H1821.7l-8.41 142.583h-706.312l-128.133 33.401H.867V49.599z" fill="#111111" stroke-dasharray="0,3956.3541029802514" stroke-dashoffset="3956.354103"/></g><g transform="translate(124100)"><defs><clipPath id="clip_frame68_layer_1"><path d="M1822.197 3.003l-21.604 170.527h-697.714L976.29 222.834H3.003V3.003h1819.194z"/></clipPath></defs><path d="M1822.197 3.003l-21.604 170.527h-697.714L976.29 222.834H3.003V3.003h1819.194z" fill="none" stroke="#111111" stroke-width="6.006583" stroke-miterlimit="10"/><path clip-path="url(#clip_frame68_layer_1)" d="M.873 54.39h1820.538l-8.577 138.679h-706.051l-128.089 32.493H.873V54.39z" fill="#111111" stroke-dasharray="0,3946.6724650456304" stroke-dashoffset="3946.672465"/></g><g transform="translate(125925)"><defs><clipPath id="clip_frame69_layer_1"><path d="M1822.197 3.003l-21.604 170.527h-697.714L976.29 222.834H3.003V3.003h1819.194z"/></clipPath></defs><path d="M1822.197 3.003l-21.604 170.527h-697.714L976.29 222.834H3.003V3.003h1819.194z" fill="none" stroke="#111111" stroke-width="6.006583" stroke-miterlimit="10"/><path clip-path="url(#clip_frame69_layer_1)" d="M.878 58.409h1820.29l-8.715 135.404h-705.834l-128.051 31.731H.878V58.409z" fill="#111111" stroke-dasharray="0,3938.5551905635893" stroke-dashoffset="3938.555191"/></g><g transform="translate(127750)"><defs><clipPath id="clip_frame70_layer_1"><path d="M1822.197 3.003l-21.604 170.527h-697.714L976.29 222.834H3.003V3.003h1819.194z"/></clipPath></defs><path d="M1822.197 3.003l-21.604 170.527h-697.714L976.29 222.834H3.003V3.003h1819.194z" fill="none" stroke="#111111" stroke-width="6.006583" stroke-miterlimit="10"/><path clip-path="url(#clip_frame70_layer_1)" d="M.883 61.657h1820.088l-8.827 132.757h-705.658L978.467 225.53H.883V61.657z" fill="#111111" stroke-dasharray="0,3931.999545131372" stroke-dashoffset="3931.999545"/></g><g transform="translate(129575)"><defs><clipPath id="clip_frame71_layer_1"><path d="M1822.197 3.003l-21.604 170.527h-697.714L976.29 222.834H3.003V3.003h1819.194z"/></clipPath></defs><path d="M1822.197 3.003l-21.604 170.527h-697.714L976.29 222.834H3.003V3.003h1819.194z" fill="none" stroke="#111111" stroke-width="6.006583" stroke-miterlimit="10"/><path clip-path="url(#clip_frame71_layer_1)" d="M.886 64.134h1819.935l-8.912 130.739h-705.524l-127.996 30.646H.886V64.134z" fill="#111111" stroke-dasharray="0,3927.003263926868" stroke-dashoffset="3927.003264"/></g><g transform="translate(131400)"><defs><clipPath id="clip_frame72_layer_1"><path d="M1822.197 3.003l-21.604 170.527h-697.714L976.29 222.834H3.003V3.003h1819.194z"/></clipPath></defs><path d="M1822.197 3.003l-21.604 170.527h-697.714L976.29 222.834H3.003V3.003h1819.194z" fill="none" stroke="#111111" stroke-width="6.006583" stroke-miterlimit="10"/><path clip-path="url(#clip_frame72_layer_1)" d="M.888 65.839h1819.83l-8.971 129.349h-705.431l-127.981 30.324H.888V65.839z" fill="#111111" stroke-dasharray="0,3923.5645841871797" stroke-dashoffset="3923.564584"/></g><g transform="translate(133225)"><defs><clipPath id="clip_frame73_layer_1"><path d="M1822.197 3.003l-21.604 170.527h-697.714L976.29 222.834H3.003V3.003h1819.194z"/></clipPath></defs><path d="M1822.197 3.003l-21.604 170.527h-697.714L976.29 222.834H3.003V3.003h1819.194z" fill="none" stroke="#111111" stroke-width="6.006583" stroke-miterlimit="10"/><path clip-path="url(#clip_frame73_layer_1)" d="M.89 66.773h1819.772l-9.004 128.588h-705.38l-127.972 30.147H.89V66.773z" fill="#111111" stroke-dasharray="0,3921.682273076598" stroke-dashoffset="3921.682273"/></g><g transform="translate(135050)"><defs><clipPath id="clip_frame74_layer_1"><path d="M1822.197 3.003l-21.604 170.527h-697.714L976.29 222.834H3.003V3.003h1819.194z"/></clipPath></defs><path d="M1822.197 3.003l-21.604 170.527h-697.714L976.29 222.834H3.003V3.003h1819.194z" fill="none" stroke="#111111" stroke-width="6.006583" stroke-miterlimit="10"/><path clip-path="url(#clip_frame74_layer_1)" d="M.89 66.935h1819.762l-9.009 128.456h-705.372l-127.97 30.116H.89V66.935z" fill="#111111" stroke-dasharray="0,3921.3556486663633" stroke-dashoffset="3921.355649"/></g><g transform="translate(136875)"><defs><clipPath id="clip_frame75_layer_1"><path d="M1822.197 3.003l-21.604 170.527h-697.714L976.29 222.834H3.003V3.003h1819.194z"/></clipPath></defs><path d="M1822.197 3.003l-21.604 170.527h-697.714L976.29 222.834H3.003V3.003h1819.194z" fill="none" stroke="#111111" stroke-width="6.006583" stroke-miterlimit="10"/><path clip-path="url(#clip_frame75_layer_1)" d="M.889 66.325h1819.8l-8.988 128.953h-705.405L978.32 225.51H.889V66.325z" fill="#111111" stroke-dasharray="0,3922.584592103096" stroke-dashoffset="3922.584592"/></g><g transform="translate(138700)"><defs><clipPath id="clip_frame76_layer_1"><path d="M1822.197 3.003l-21.604 170.527h-697.714L976.29 222.834H3.003V3.003h1819.194z"/></clipPath></defs><path d="M1822.197 3.003l-21.604 170.527h-697.714L976.29 222.834H3.003V3.003h1819.194z" fill="none" stroke="#111111" stroke-width="6.006583" stroke-miterlimit="10"/><path clip-path="url(#clip_frame76_layer_1)" d="M.887 64.944h1819.885l-8.94 130.079h-705.48l-127.989 30.493H.887V64.944z" fill="#111111" stroke-dasharray="0,3925.369549772256" stroke-dashoffset="3925.36955"/></g><g transform="translate(140525)"><defs><clipPath id="clip_frame77_layer_1"><path d="M1822.197 3.003l-21.604 170.527h-697.714L976.29 222.834H3.003V3.003h1819.194z"/></clipPath></defs><path d="M1822.197 3.003l-21.604 170.527h-697.714L976.29 222.834H3.003V3.003h1819.194z" fill="none" stroke="#111111" stroke-width="6.006583" stroke-miterlimit="10"/><path clip-path="url(#clip_frame77_layer_1)" d="M.884 62.791h1820.019l-8.866 131.833H1106.44l-128.009 30.901H.884V62.791z" fill="#111111" stroke-dasharray="0,3929.7115252385865" stroke-dashoffset="3929.711525"/></g><g transform="translate(142350)"><defs><clipPath id="clip_frame78_layer_1"><path d="M1822.197 3.003l-21.604 170.527h-697.714L976.29 222.834H3.003V3.003h1819.194z"/></clipPath></defs><path d="M1822.197 3.003l-21.604 170.527h-697.714L976.29 222.834H3.003V3.003h1819.194z" fill="none" stroke="#111111" stroke-width="6.006583" stroke-miterlimit="10"/><path clip-path="url(#clip_frame78_layer_1)" d="M.88 59.867h1820.199l-8.765 134.216h-705.755l-128.036 31.455H.88V59.867z" fill="#111111" stroke-dasharray="0,3935.612061766958" stroke-dashoffset="3935.612062"/></g><g transform="translate(144175)"><defs><clipPath id="clip_frame79_layer_1"><path d="M1822.197 3.003l-21.604 170.527h-697.714L976.29 222.834H3.003V3.003h1819.194z"/></clipPath></defs><path d="M1822.197 3.003l-21.604 170.527h-697.714L976.29 222.834H3.003V3.003h1819.194z" fill="none" stroke="#111111" stroke-width="6.006583" stroke-miterlimit="10"/><path clip-path="url(#clip_frame79_layer_1)" d="M.875 56.172h1820.428l-8.638 137.227H1106.71l-128.071 32.155H.875V56.172z" fill="#111111" stroke-dasharray="0,3943.073217080794" stroke-dashoffset="3943.073217"/></g><g transform="translate(146000)"><defs><clipPath id="clip_frame80_layer_1"><path d="M1822.197 3.003l-21.604 170.527h-697.714L976.29 222.834H3.003V3.003h1819.194z"/></clipPath></defs><path d="M1822.197 3.003l-21.604 170.527h-697.714L976.29 222.834H3.003V3.003h1819.194z" fill="none" stroke="#111111" stroke-width="6.006583" stroke-miterlimit="10"/><path clip-path="url(#clip_frame80_layer_1)" d="M.869 51.705h1820.704l-8.483 140.867h-706.198l-128.113 33.002H.869V51.705z" fill="#111111" stroke-dasharray="0,3952.0975325366676" stroke-dashoffset="3952.097533"/></g><g transform="translate(147825)"><defs><clipPath id="clip_frame81_layer_1"><path d="M1822.197 3.003l-21.604 170.527h-697.714L976.29 222.834H3.003V3.003h1819.194z"/></clipPath></defs><path d="M1822.197 3.003l-21.604 170.527h-697.714L976.29 222.834H3.003V3.003h1819.194z" fill="none" stroke="#111111" stroke-width="6.006583" stroke-miterlimit="10"/><path clip-path="url(#clip_frame81_layer_1)" d="M.862 46.466H1821.89l-8.303 145.136h-706.481l-128.163 33.995H.862V46.466z" fill="#111111" stroke-dasharray="0,3962.6879990112056" stroke-dashoffset="3962.687999"/></g><g transform="translate(149650)"><defs><clipPath id="clip_frame82_layer_1"><path d="M1822.197 3.003l-21.604 170.527h-697.714L976.29 222.834H3.003V3.003h1819.194z"/></clipPath></defs><path d="M1822.197 3.003l-21.604 170.527h-697.714L976.29 222.834H3.003V3.003h1819.194z" fill="none" stroke="#111111" stroke-width="6.006583" stroke-miterlimit="10"/><path clip-path="url(#clip_frame82_layer_1)" d="M.854 40.456h1821.399l-8.095 150.033h-706.807l-128.22 35.134H.854V40.456z" fill="#111111" stroke-dasharray="0,3974.848021540833" stroke-dashoffset="3974.848022"/></g><g transform="translate(151475)"><defs><clipPath id="clip_frame83_layer_1"><path d="M1822.197 3.003l-21.604 170.527h-697.714L976.29 222.834H3.003V3.003h1819.194z"/></clipPath></defs><path d="M1822.197 3.003l-21.604 170.527h-697.714L976.29 222.834H3.003V3.003h1819.194z" fill="none" stroke="#111111" stroke-width="6.006583" stroke-miterlimit="10"/><path clip-path="url(#clip_frame83_layer_1)" d="M.845 33.674h1821.818l-7.861 155.56h-707.175l-128.283 36.419H.845V33.674z" fill="#111111" stroke-dasharray="0,3988.5813842360167" stroke-dashoffset="3988.581384"/></g><g transform="translate(153300)"><defs><clipPath id="clip_frame84_layer_1"><path d="M1822.197 3.003l-21.604 170.527h-697.714L976.29 222.834H3.003V3.003h1819.194z"/></clipPath></defs><path d="M1822.197 3.003l-21.604 170.527h-697.714L976.29 222.834H3.003V3.003h1819.194z" fill="none" stroke="#111111" stroke-width="6.006583" stroke-miterlimit="10"/><path clip-path="url(#clip_frame84_layer_1)" d="M.835 26.121H1823.12l-7.601 161.714h-707.584l-128.354 37.851H.835V26.121z" fill="#111111" stroke-dasharray="0,4003.892216355035" stroke-dashoffset="4003.892216"/></g><g transform="translate(155125)"><defs><clipPath id="clip_frame85_layer_1"><path d="M1822.197 3.003l-21.604 170.527h-697.714L976.29 222.834H3.003V3.003h1819.194z"/></clipPath></defs><path d="M1822.197 3.003l-21.604 170.527h-697.714L976.29 222.834H3.003V3.003h1819.194z" fill="none" stroke="#111111" stroke-width="6.006583" stroke-miterlimit="10"/><path clip-path="url(#clip_frame85_layer_1)" d="M.824 17.796h1822.8l-7.314 168.498h-708.035l-128.433 39.428H.824V17.796z" fill="#111111" stroke-dasharray="0,4020.7849598060075" stroke-dashoffset="4020.78496"/></g><g transform="translate(156950)"><defs><clipPath id="clip_frame86_layer_1"><path d="M1822.197 3.003l-21.604 170.527h-697.714L976.29 222.834H3.003V3.003h1819.194z"/></clipPath></defs><path d="M1822.197 3.003l-21.604 170.527h-697.714L976.29 222.834H3.003V3.003h1819.194z" fill="none" stroke="#111111" stroke-width="6.006583" stroke-miterlimit="10"/><path clip-path="url(#clip_frame86_layer_1)" d="M.812 8.7h1823.362l-7 175.91h-708.529l-128.518 41.152H.812V8.7z" fill="#111111" stroke-dasharray="0,4039.2643378503994" stroke-dashoffset="4039.264338"/></g><g transform="translate(158775)"><defs><clipPath id="clip_frame87_layer_1"><path d="M1822.197 3.003l-21.604 170.527h-697.714L976.29 222.834H3.003V3.003h1819.194z"/></clipPath></defs><path d="M1822.197 3.003l-21.604 170.527h-697.714L976.29 222.834H3.003V3.003h1819.194z" fill="none" stroke="#111111" stroke-width="6.006583" stroke-miterlimit="10"/><path clip-path="url(#clip_frame87_layer_1)" d="M.801.683h1823.858l-6.724 182.443h-708.963l-128.593 42.671H.801V.683z" fill="#111111" stroke-dasharray="0,4055.5675159496964" stroke-dashoffset="4055.567516"/></g><g transform="translate(160600)"><defs><clipPath id="clip_frame88_layer_1"><path d="M1822.197 3.003l-21.604 170.527h-697.714L976.29 222.834H3.003V3.003h1819.194z"/></clipPath></defs><path d="M1822.197 3.003l-21.604 170.527h-697.714L976.29 222.834H3.003V3.003h1819.194z" fill="none" stroke="#111111" stroke-width="6.006583" stroke-miterlimit="10"/><path clip-path="url(#clip_frame88_layer_1)" d="M.808 6.076h1823.525l-6.91 178.049h-708.671l-128.543 41.648H.808V6.076z" fill="#111111" stroke-dasharray="0,4044.5983953532477" stroke-dashoffset="4044.598395"/></g><g transform="translate(162425)"><defs><clipPath id="clip_frame89_layer_1"><path d="M1822.197 3.003l-21.604 170.527h-697.714L976.29 222.834H3.003V3.003h1819.194z"/></clipPath></defs><path d="M1822.197 3.003l-21.604 170.527h-697.714L976.29 222.834H3.003V3.003h1819.194z" fill="none" stroke="#111111" stroke-width="6.006583" stroke-miterlimit="10"/><path clip-path="url(#clip_frame89_layer_1)" d="M.814 10.697h1823.239l-7.069 174.283h-708.42l-128.499 40.773H.814V10.697z" fill="#111111" stroke-dasharray="0,4035.204571491022" stroke-dashoffset="4035.204571"/></g><g transform="translate(164250)"><defs><clipPath id="clip_frame90_layer_1"><path d="M1822.197 3.003l-21.604 170.527h-697.714L976.29 222.834H3.003V3.003h1819.194z"/></clipPath></defs><path d="M1822.197 3.003l-21.604 170.527h-697.714L976.29 222.834H3.003V3.003h1819.194z" fill="none" stroke="#111111" stroke-width="6.006583" stroke-miterlimit="10"/><path clip-path="url(#clip_frame90_layer_1)" d="M.82 14.547h1823l-7.202 171.146h-708.211l-128.463 40.043H.82V14.547z" fill="#111111" stroke-dasharray="0,4027.383346118208" stroke-dashoffset="4027.383346"/></g><g transform="translate(166075)"><defs><clipPath id="clip_frame91_layer_1"><path d="M1822.197 3.003l-21.604 170.527h-697.714L976.29 222.834H3.003V3.003h1819.194z"/></clipPath></defs><path d="M1822.197 3.003l-21.604 170.527h-697.714L976.29 222.834H3.003V3.003h1819.194z" fill="none" stroke="#111111" stroke-width="6.006583" stroke-miterlimit="10"/><path clip-path="url(#clip_frame91_layer_1)" d="M.824 17.625h1822.81l-7.308 168.638h-708.044l-128.435 39.46H.824V17.625z" fill="#111111" stroke-dasharray="0,4021.1324288400765" stroke-dashoffset="4021.132429"/></g><g transform="translate(167900)"><defs><clipPath id="clip_frame92_layer_1"><path d="M1822.197 3.003l-21.604 170.527h-697.714L976.29 222.834H3.003V3.003h1819.194z"/></clipPath></defs><path d="M1822.197 3.003l-21.604 170.527h-697.714L976.29 222.834H3.003V3.003h1819.194z" fill="none" stroke="#111111" stroke-width="6.006583" stroke-miterlimit="10"/><path clip-path="url(#clip_frame92_layer_1)" d="M.827 19.931h1822.668l-7.388 166.759h-707.92l-128.412 39.023H.827V19.931z" fill="#111111" stroke-dasharray="0,4016.449959089421" stroke-dashoffset="4016.449959"/></g><g transform="translate(169725)"><defs><clipPath id="clip_frame93_layer_1"><path d="M1822.197 3.003l-21.604 170.527h-697.714L976.29 222.834H3.003V3.003h1819.194z"/></clipPath></defs><path d="M1822.197 3.003l-21.604 170.527h-697.714L976.29 222.834H3.003V3.003h1819.194z" fill="none" stroke="#111111" stroke-width="6.006583" stroke-miterlimit="10"/><path clip-path="url(#clip_frame93_layer_1)" d="M.829 21.466h1822.573l-7.441 165.508h-707.836l-128.398 38.732H.829V21.466z" fill="#111111" stroke-dasharray="0,4013.3345249552567" stroke-dashoffset="4013.334525"/></g><g transform="translate(171550)"><defs><clipPath id="clip_frame94_layer_1"><path d="M1822.197 3.003l-21.604 170.527h-697.714L976.29 222.834H3.003V3.003h1819.194z"/></clipPath></defs><path d="M1822.197 3.003l-21.604 170.527h-697.714L976.29 222.834H3.003V3.003h1819.194z" fill="none" stroke="#111111" stroke-width="6.006583" stroke-miterlimit="10"/><path clip-path="url(#clip_frame94_layer_1)" d="M.83 22.23h1822.526l-7.467 164.885h-707.795l-128.391 38.588H.83V22.23z" fill="#111111" stroke-dasharray="0,4011.785178130841" stroke-dashoffset="4011.785178"/></g><g transform="translate(173375)"><defs><clipPath id="clip_frame95_layer_1"><path d="M1822.197 3.003l-21.604 170.527h-697.714L976.29 222.834H3.003V3.003h1819.194z"/></clipPath></defs><path d="M1822.197 3.003l-21.604 170.527h-697.714L976.29 222.834H3.003V3.003h1819.194z" fill="none" stroke="#111111" stroke-width="6.006583" stroke-miterlimit="10"/><path clip-path="url(#clip_frame95_layer_1)" d="M.83 22.222h1822.526l-7.466 164.892h-707.796l-128.391 38.589H.83V22.222z" fill="#111111" stroke-dasharray="0,4011.8014443031825" stroke-dashoffset="4011.801444"/></g><g transform="translate(175200)"><defs><clipPath id="clip_frame96_layer_1"><path d="M1822.197 3.003l-21.604 170.527h-697.714L976.29 222.834H3.003V3.003h1819.194z"/></clipPath></defs><path d="M1822.197 3.003l-21.604 170.527h-697.714L976.29 222.834H3.003V3.003h1819.194z" fill="none" stroke="#111111" stroke-width="6.006583" stroke-miterlimit="10"/><path clip-path="url(#clip_frame96_layer_1)" d="M.829 21.442h1822.574l-7.439 165.527h-707.838l-128.398 38.737H.829V21.442z" fill="#111111" stroke-dasharray="0,4013.3833284614097" stroke-dashoffset="4013.383328"/></g><g transform="translate(177025)"><defs><clipPath id="clip_frame97_layer_1"><path d="M1822.197 3.003l-21.604 170.527h-697.714L976.29 222.834H3.003V3.003h1819.194z"/></clipPath></defs><path d="M1822.197 3.003l-21.604 170.527h-697.714L976.29 222.834H3.003V3.003h1819.194z" fill="none" stroke="#111111" stroke-width="6.006583" stroke-miterlimit="10"/><path clip-path="url(#clip_frame97_layer_1)" d="M.827 19.891h1822.67l-7.386 166.791h-707.922l-128.413 39.031H.827V19.891z" fill="#111111" stroke-dasharray="0,4016.5313148405335" stroke-dashoffset="4016.531315"/></g><g transform="translate(178850)"><defs><clipPath id="clip_frame98_layer_1"><path d="M1822.197 3.003l-21.604 170.527h-697.714L976.29 222.834H3.003V3.003h1819.194z"/></clipPath></defs><path d="M1822.197 3.003l-21.604 170.527h-697.714L976.29 222.834H3.003V3.003h1819.194z" fill="none" stroke="#111111" stroke-width="6.006583" stroke-miterlimit="10"/><path clip-path="url(#clip_frame98_layer_1)" d="M.824 17.569h1822.813l-7.306 168.683h-708.047l-128.435 39.471H.824V17.569z" fill="#111111" stroke-dasharray="0,4021.2463615036695" stroke-dashoffset="4021.246362"/></g><g transform="translate(180675)"><defs><clipPath id="clip_frame99_layer_1"><path d="M1822.197 3.003l-21.604 170.527h-697.714L976.29 222.834H3.003V3.003h1819.194z"/></clipPath></defs><path d="M1822.197 3.003l-21.604 170.527h-697.714L976.29 222.834H3.003V3.003h1819.194z" fill="none" stroke="#111111" stroke-width="6.006583" stroke-miterlimit="10"/><path clip-path="url(#clip_frame99_layer_1)" d="M.819 14.475h1823.006l-7.2 171.205H1108.41l-128.464 40.057H.819V14.475z" fill="#111111" stroke-dasharray="0,4027.5298898517817" stroke-dashoffset="4027.52989"/></g><g transform="translate(182500)"><defs><clipPath id="clip_frame100_layer_1"><path d="M1822.197 3.003l-21.604 170.527h-697.714L976.29 222.834H3.003V3.003h1819.194z"/></clipPath></defs><path d="M1822.197 3.003l-21.604 170.527h-697.714L976.29 222.834H3.003V3.003h1819.194z" fill="none" stroke="#111111" stroke-width="6.006583" stroke-miterlimit="10"/><path clip-path="url(#clip_frame100_layer_1)" d="M.814 10.609h1823.244l-7.066 174.355h-708.424l-128.501 40.79H.814V10.609z" fill="#111111" stroke-dasharray="0,4035.383769587757" stroke-dashoffset="4035.38377"/></g><g transform="translate(184325)"><defs><clipPath id="clip_frame101_layer_1"><path d="M1822.197 3.003l-21.604 170.527h-697.714L976.29 222.834H3.003V3.003h1819.194z"/></clipPath></defs><path d="M1822.197 3.003l-21.604 170.527h-697.714L976.29 222.834H3.003V3.003h1819.194z" fill="none" stroke="#111111" stroke-width="6.006583" stroke-miterlimit="10"/><path clip-path="url(#clip_frame101_layer_1)" d="M.808 5.972h1823.531l-6.906 178.133h-708.676l-128.544 41.669H.808V5.972z" fill="#111111" stroke-dasharray="0,4044.8102998148256" stroke-dashoffset="4044.8103"/></g><g transform="translate(186150)"><defs><clipPath id="clip_frame102_layer_1"><path d="M1822.197 3.003l-21.604 170.527h-697.714L976.29 222.834H3.003V3.003h1819.194z"/></clipPath></defs><path d="M1822.197 3.003l-21.604 170.527h-697.714L976.29 222.834H3.003V3.003h1819.194z" fill="none" stroke="#111111" stroke-width="6.006583" stroke-miterlimit="10"/><path clip-path="url(#clip_frame102_layer_1)" d="M.801.563h1823.865l-6.719 182.541h-708.97l-128.595 42.694H.801V.563z" fill="#111111" stroke-dasharray="0,4055.8121870012906" stroke-dashoffset="4055.812187"/></g><g transform="translate(187975)"><defs><clipPath id="clip_frame103_layer_1"><path d="M1822.197 3.003l-21.604 170.527h-697.714L976.29 222.834H3.003V3.003h1819.194z"/></clipPath></defs><path d="M1822.197 3.003l-21.604 170.527h-697.714L976.29 222.834H3.003V3.003h1819.194z" fill="none" stroke="#111111" stroke-width="6.006583" stroke-miterlimit="10"/><path clip-path="url(#clip_frame103_layer_1)" d="M.805 3.425h1823.688l-6.818 180.209H1108.86l-128.567 42.151H.805V3.425z" fill="#111111" stroke-dasharray="0,4049.9894004477023" stroke-dashoffset="4049.9894"/></g><g transform="translate(189800)"><defs><clipPath id="clip_frame104_layer_1"><path d="M1822.197 3.003l-21.604 170.527h-697.714L976.29 222.834H3.003V3.003h1819.194z"/></clipPath></defs><path d="M1822.197 3.003l-21.604 170.527h-697.714L976.29 222.834H3.003V3.003h1819.194z" fill="none" stroke="#111111" stroke-width="6.006583" stroke-miterlimit="10"/><path clip-path="url(#clip_frame104_layer_1)" d="M.809 6.494h1823.498l-6.924 177.708h-708.648l-128.539 41.57H.809V6.494z" fill="#111111" stroke-dasharray="0,4043.747534725213" stroke-dashoffset="4043.747535"/></g><g transform="translate(191625)"><defs><clipPath id="clip_frame105_layer_1"><path d="M1822.197 3.003l-21.604 170.527h-697.714L976.29 222.834H3.003V3.003h1819.194z"/></clipPath></defs><path d="M1822.197 3.003l-21.604 170.527h-697.714L976.29 222.834H3.003V3.003h1819.194z" fill="none" stroke="#111111" stroke-width="6.006583" stroke-miterlimit="10"/><path clip-path="url(#clip_frame105_layer_1)" d="M.812 8.792h1823.356l-7.003 175.836h-708.523l-128.518 41.134H.812V8.792z" fill="#111111" stroke-dasharray="0,4039.0762912582404" stroke-dashoffset="4039.076291"/></g><g transform="translate(193450)"><defs><clipPath id="clip_frame106_layer_1"><path d="M1822.197 3.003l-21.604 170.527h-697.714L976.29 222.834H3.003V3.003h1819.194z"/></clipPath></defs><path d="M1822.197 3.003l-21.604 170.527h-697.714L976.29 222.834H3.003V3.003h1819.194z" fill="none" stroke="#111111" stroke-width="6.006583" stroke-miterlimit="10"/><path clip-path="url(#clip_frame106_layer_1)" d="M.814 10.318h1823.262l-7.056 174.592h-708.441l-128.503 40.845H.814V10.318z" fill="#111111" stroke-dasharray="0,4035.9743055433255" stroke-dashoffset="4035.974306"/></g><g transform="translate(195275)"><defs><clipPath id="clip_frame107_layer_1"><path d="M1822.197 3.003l-21.604 170.527h-697.714L976.29 222.834H3.003V3.003h1819.194z"/></clipPath></defs><path d="M1822.197 3.003l-21.604 170.527h-697.714L976.29 222.834H3.003V3.003h1819.194z" fill="none" stroke="#111111" stroke-width="6.006583" stroke-miterlimit="10"/><path clip-path="url(#clip_frame107_layer_1)" d="M.815 11.073H1824.03l-7.082 173.977h-708.399l-128.496 40.702H.815V11.073z" fill="#111111" stroke-dasharray="0,4034.440663491943" stroke-dashoffset="4034.440663"/></g><g transform="translate(197100)"><defs><clipPath id="clip_frame108_layer_1"><path d="M1822.197 3.003l-21.604 170.527h-697.714L976.29 222.834H3.003V3.003h1819.194z"/></clipPath></defs><path d="M1822.197 3.003l-21.604 170.527h-697.714L976.29 222.834H3.003V3.003h1819.194z" fill="none" stroke="#111111" stroke-width="6.006583" stroke-miterlimit="10"/><path clip-path="url(#clip_frame108_layer_1)" d="M.815 11.056h1823.216l-7.081 173.991h-708.401l-128.496 40.705H.815V11.056z" fill="#111111" stroke-dasharray="0,4034.4749107776875" stroke-dashoffset="4034.474911"/></g><g transform="translate(198925)"><defs><clipPath id="clip_frame109_layer_1"><path d="M1822.197 3.003l-21.604 170.527h-697.714L976.29 222.834H3.003V3.003h1819.194z"/></clipPath></defs><path d="M1822.197 3.003l-21.604 170.527h-697.714L976.29 222.834H3.003V3.003h1819.194z" fill="none" stroke="#111111" stroke-width="6.006583" stroke-miterlimit="10"/><path clip-path="url(#clip_frame109_layer_1)" d="M.814 10.268h1823.265l-7.054 174.633h-708.444l-128.503 40.854H.814V10.268z" fill="#111111" stroke-dasharray="0,4036.0770575634406" stroke-dashoffset="4036.077058"/></g><g transform="translate(200750)"><defs><clipPath id="clip_frame110_layer_1"><path d="M1822.197 3.003l-21.604 170.527h-697.714L976.29 222.834H3.003V3.003h1819.194z"/></clipPath></defs><path d="M1822.197 3.003l-21.604 170.527h-697.714L976.29 222.834H3.003V3.003h1819.194z" fill="none" stroke="#111111" stroke-width="6.006583" stroke-miterlimit="10"/><path clip-path="url(#clip_frame110_layer_1)" d="M.812 8.708h1823.361l-7 175.904h-708.528l-128.518 41.15H.812V8.708z" fill="#111111" stroke-dasharray="0,4039.247578395019" stroke-dashoffset="4039.247578"/></g><g transform="translate(202575)"><defs><clipPath id="clip_frame111_layer_1"><path d="M1822.197 3.003l-21.604 170.527h-697.714L976.29 222.834H3.003V3.003h1819.194z"/></clipPath></defs><path d="M1822.197 3.003l-21.604 170.527h-697.714L976.29 222.834H3.003V3.003h1819.194z" fill="none" stroke="#111111" stroke-width="6.006583" stroke-miterlimit="10"/><path clip-path="url(#clip_frame111_layer_1)" d="M.809 6.376h1823.505l-6.92 177.804H1108.74L980.2 225.772H.809V6.376z" fill="#111111" stroke-dasharray="0,4043.9874072662046" stroke-dashoffset="4043.987407"/></g><g transform="translate(204400)"><defs><clipPath id="clip_frame112_layer_1"><path d="M1822.197 3.003l-21.604 170.527h-697.714L976.29 222.834H3.003V3.003h1819.194z"/></clipPath></defs><path d="M1822.197 3.003l-21.604 170.527h-697.714L976.29 222.834H3.003V3.003h1819.194z" fill="none" stroke="#111111" stroke-width="6.006583" stroke-miterlimit="10"/><path clip-path="url(#clip_frame112_layer_1)" d="M.804 3.273h1823.698l-6.813 180.333h-708.822l-128.57 42.18H.804V3.273z" fill="#111111" stroke-dasharray="0,4050.2979280776403" stroke-dashoffset="4050.297928"/></g><g transform="translate(206225)"><defs><clipPath id="clip_frame113_layer_1"><path d="M1822.197 3.003l-21.604 170.527h-697.714L976.29 222.834H3.003V3.003h1819.194z"/></clipPath></defs><path d="M1822.197 3.003l-21.604 170.527h-697.714L976.29 222.834H3.003V3.003h1819.194z" fill="none" stroke="#111111" stroke-width="6.006583" stroke-miterlimit="10"/><path clip-path="url(#clip_frame113_layer_1)" d="M.8 0h1823.9l-6.7 183h-709l-128.6 42.8H.8V0z" fill="#111111" stroke-dasharray="0,4056.9578444705385" stroke-dashoffset="4056.957844"/></g><g transform="translate(208050)"><defs><clipPath id="clip_frame114_layer_1"><path d="M1822.197 3.003l-21.604 170.527h-697.714L976.29 222.834H3.003V3.003h1819.194z"/></clipPath></defs><path d="M1822.197 3.003l-21.604 170.527h-697.714L976.29 222.834H3.003V3.003h1819.194z" fill="none" stroke="#111111" stroke-width="6.006583" stroke-miterlimit="10"/><path clip-path="url(#clip_frame114_layer_1)" d="M.8 0h1823.9l-6.7 183h-709l-128.6 42.8H.8V0z" fill="#111111" stroke-dasharray="0,4056.9578444705385" stroke-dashoffset="4056.957844"/></g><g transform="translate(209875)"><defs><clipPath id="clip_frame115_layer_1"><path d="M1822.197 3.003l-21.604 170.527h-697.714L976.29 222.834H3.003V3.003h1819.194z"/></clipPath></defs><path d="M1822.197 3.003l-21.604 170.527h-697.714L976.29 222.834H3.003V3.003h1819.194z" fill="none" stroke="#111111" stroke-width="6.006583" stroke-miterlimit="10"/><path clip-path="url(#clip_frame115_layer_1)" d="M.8 0h1823.9l-6.7 183h-709l-128.6 42.8H.8V0z" fill="#111111" stroke-dasharray="0,4056.9578444705385" stroke-dashoffset="4056.957844"/></g><g transform="translate(211700)"><defs><clipPath id="clip_frame116_layer_1"><path d="M1822.197 3.003l-21.604 170.527h-697.714L976.29 222.834H3.003V3.003h1819.194z"/></clipPath></defs><path d="M1822.197 3.003l-21.604 170.527h-697.714L976.29 222.834H3.003V3.003h1819.194z" fill="none" stroke="#111111" stroke-width="6.006583" stroke-miterlimit="10"/><path clip-path="url(#clip_frame116_layer_1)" d="M.8 0h1823.9l-6.7 183h-709l-128.6 42.8H.8V0z" fill="#111111" stroke-dasharray="0,4056.9578444705385" stroke-dashoffset="4056.957844"/></g><g transform="translate(213525)"><defs><clipPath id="clip_frame117_layer_1"><path d="M1822.197 3.003l-21.604 170.527h-697.714L976.29 222.834H3.003V3.003h1819.194z"/></clipPath></defs><path d="M1822.197 3.003l-21.604 170.527h-697.714L976.29 222.834H3.003V3.003h1819.194z" fill="none" stroke="#111111" stroke-width="6.006583" stroke-miterlimit="10"/><path clip-path="url(#clip_frame117_layer_1)" d="M.8 0h1823.9l-6.7 183h-709l-128.6 42.8H.8V0z" fill="#111111" stroke-dasharray="0,4056.9578444705385" stroke-dashoffset="4056.957844"/></g><g transform="translate(215350)"><defs><clipPath id="clip_frame118_layer_1"><path d="M1822.197 3.003l-21.604 170.527h-697.714L976.29 222.834H3.003V3.003h1819.194z"/></clipPath></defs><path d="M1822.197 3.003l-21.604 170.527h-697.714L976.29 222.834H3.003V3.003h1819.194z" fill="none" stroke="#111111" stroke-width="6.006583" stroke-miterlimit="10"/><path clip-path="url(#clip_frame118_layer_1)" d="M.8 0h1823.9l-6.7 183h-709l-128.6 42.8H.8V0z" fill="#111111" stroke-dasharray="0,4056.9578444705385" stroke-dashoffset="4056.957844"/></g><g transform="translate(217175)"><defs><clipPath id="clip_frame119_layer_1"><path d="M1822.197 3.003l-21.604 170.527h-697.714L976.29 222.834H3.003V3.003h1819.194z"/></clipPath></defs><path d="M1822.197 3.003l-21.604 170.527h-697.714L976.29 222.834H3.003V3.003h1819.194z" fill="none" stroke="#111111" stroke-width="6.006583" stroke-miterlimit="10"/><path clip-path="url(#clip_frame119_layer_1)" d="M.8 0h1823.9l-6.7 183h-709l-128.6 42.8H.8V0z" fill="#111111" stroke-dasharray="0,4056.9578444705385" stroke-dashoffset="4056.957844"/></g><g transform="translate(219000)"><defs><clipPath id="clip_frame120_layer_1"><path d="M1822.197 3.003l-21.604 170.527h-697.714L976.29 222.834H3.003V3.003h1819.194z"/></clipPath></defs><path d="M1822.197 3.003l-21.604 170.527h-697.714L976.29 222.834H3.003V3.003h1819.194z" fill="none" stroke="#111111" stroke-width="6.006583" stroke-miterlimit="10"/><path clip-path="url(#clip_frame120_layer_1)" d="M.8 0h1823.9l-6.7 183h-709l-128.6 42.8H.8V0z" fill="#111111" stroke-dasharray="0,4056.9578444705385" stroke-dashoffset="4056.957844"/></g></svg>