<svg xmlns="http://www.w3.org/2000/svg" viewBox="0 0 220825 225" width="220825" height="225" preserveAspectRatio="xMidYMid meet"><g><defs><clipPath id="clip_frame0_layer_1"><path d="M1822.197 3.003l-21.604 170.527h-697.714L976.29 222.834H3.003V3.003h1819.194z"/></clipPath></defs><path d="M1822.197 3.003l-21.604 170.527h-697.714L976.29 222.834H3.003V3.003h1819.194z" fill="none" stroke="#111111" stroke-width="6.006583" stroke-dasharray="0,4017.76704072744" stroke-dashoffset="4017.767041" stroke-miterlimit="10"/><path clip-path="url(#clip_frame0_layer_1)" d="M1.1 223.223h1810.1l-14.4 1.1h-696.9l-126.5.5H1.1v-1.6z" fill="#111111" stroke-dasharray="0,3621.84294091498" stroke-dashoffset="3621.842941"/></g><g transform="translate(1825)"><defs><clipPath id="clip_frame1_layer_1"><path d="M1822.197 3.003l-21.604 170.527h-697.714L976.29 222.834H3.003V3.003h1819.194z"/></clipPath></defs><path d="M1822.197 3.003l-21.604 170.527h-697.714L976.29 222.834H3.003V3.003h1819.194z" fill="none" stroke="#111111" stroke-width="6.006583" stroke-dasharray="7.117644997934518,4010.6493957295056" stroke-dashoffset="4017.767041" stroke-miterlimit="10"/><path clip-path="url(#clip_frame1_layer_1)" d="M1.1 223.223h1810.1l-14.4 1.1h-696.9l-126.5.5H1.1v-1.6z" fill="#111111" stroke-dasharray="0,3621.84294091498" stroke-dashoffset="3621.842941"/></g><g transform="translate(3650)"><defs><clipPath id="clip_frame2_layer_1"><path d="M1822.197 3.003l-21.604 170.527h-697.714L976.29 222.834H3.003V3.003h1819.194z"/></clipPath></defs><path d="M1822.197 3.003l-21.604 170.527h-697.714L976.29 222.834H3.003V3.003h1819.194z" fill="none" stroke="#111111" stroke-width="6.006583" stroke-dasharray="30.2381289775602,3987.52891174988" stroke-dashoffset="4017.767041" stroke-miterlimit="10"/><path clip-path="url(#clip_frame2_layer_1)" d="M1.1 223.223h1810.1l-14.4 1.1h-696.9l-126.5.5H1.1v-1.6z" fill="#111111" stroke-dasharray="0,3621.84294091498" stroke-dashoffset="3621.842941"/></g><g transform="translate(5475)"><defs><clipPath id="clip_frame3_layer_1"><path d="M1822.197 3.003l-21.604 170.527h-697.714L976.29 222.834H3.003V3.003h1819.194z"/></clipPath></defs><path d="M1822.197 3.003l-21.604 170.527h-697.714L976.29 222.834H3.003V3.003h1819.194z" fill="none" stroke="#111111" stroke-width="6.006583" stroke-dasharray="72.52885118364622,3945.238189543794" stroke-dashoffset="4017.767041" stroke-miterlimit="10"/><path clip-path="url(#clip_frame3_layer_1)" d="M1.1 223.223h1810.1l-14.4 1.1h-696.9l-126.5.5H1.1v-1.6z" fill="#111111" stroke-dasharray="0,3621.84294091498" stroke-dashoffset="3621.842941"/></g><g transform="translate(7300)"><defs><clipPath id="clip_frame4_layer_1"><path d="M1822.197 3.003l-21.604 170.527h-697.714L976.29 222.834H3.003V3.003h1819.194z"/></clipPath></defs><path d="M1822.197 3.003l-21.604 170.527h-697.714L976.29 222.834H3.003V3.003h1819.194z" fill="none" stroke="#111111" stroke-width="6.006583" stroke-dasharray="137.98528036426492,3879.781760363175" stroke-dashoffset="4017.767041" stroke-miterlimit="10"/><path clip-path="url(#clip_frame4_layer_1)" d="M1.1 223.223h1810.1l-14.4 1.1h-696.9l-126.5.5H1.1v-1.6z" fill="#111111" stroke-dasharray="0,3621.84294091498" stroke-dashoffset="3621.842941"/></g><g transform="translate(9125)"><defs><clipPath id="clip_frame5_layer_1"><path d="M1822.197 3.003l-21.604 170.527h-697.714L976.29 222.834H3.003V3.003h1819.194z"/></clipPath></defs><path d="M1822.197 3.003l-21.604 170.527h-697.714L976.29 222.834H3.003V3.003h1819.194z" fill="none" stroke="#111111" stroke-width="6.006583" stroke-dasharray="231.5829717817038,3786.1840689457363" stroke-dashoffset="4017.767041" stroke-miterlimit="10"/><path clip-path="url(#clip_frame5_layer_1)" d="M1.1 223.223h1810.1l-14.4 1.1h-696.9l-126.5.5H1.1v-1.6z" fill="#111111" stroke-dasharray="0,3621.84294091498" stroke-dashoffset="3621.842941"/></g><g transform="translate(10950)"><defs><clipPath id="clip_frame6_layer_1"><path d="M1822.197 3.003l-21.604 170.527h-697.714L976.29 222.834H3.003V3.003h1819.194z"/></clipPath></defs><path d="M1822.197 3.003l-21.604 170.527h-697.714L976.29 222.834H3.003V3.003h1819.194z" fill="none" stroke="#111111" stroke-width="6.006583" stroke-dasharray="359.2697884063245,3658.4972523211154" stroke-dashoffset="4017.767041" stroke-miterlimit="10"/><path clip-path="url(#clip_frame6_layer_1)" d="M1.1 223.223h1810.1l-14.4 1.1h-696.9l-126.5.5H1.1v-1.6z" fill="#111111" stroke-dasharray="0,3621.84294091498" stroke-dashoffset="3621.842941"/></g><g transform="translate(12775)"><defs><clipPath id="clip_frame7_layer_1"><path d="M1822.197 3.003l-21.604 170.527h-697.714L976.29 222.834H3.003V3.003h1819.194z"/></clipPath></defs><path d="M1822.197 3.003l-21.604 170.527h-697.714L976.29 222.834H3.003V3.003h1819.194z" fill="none" stroke="#111111" stroke-width="6.006583" stroke-dasharray="527.4350395755405,3490.332001151899" stroke-dashoffset="4017.767041" stroke-miterlimit="10"/><path clip-path="url(#clip_frame7_layer_1)" d="M1.1 223.223h1810.1l-14.4 1.1h-696.9l-126.5.5H1.1v-1.6z" fill="#111111" stroke-dasharray="0,3621.84294091498" stroke-dashoffset="3621.842941"/></g><g transform="translate(14600)"><defs><clipPath id="clip_frame8_layer_1"><path d="M1822.197 3.003l-21.604 170.527h-697.714L976.29 222.834H3.003V3.003h1819.194z"/></clipPath></defs><path d="M1822.197 3.003l-21.604 170.527h-697.714L976.29 222.834H3.003V3.003h1819.194z" fill="none" stroke="#111111" stroke-width="6.006583" stroke-dasharray="741.1280028092564,3276.6390379181835" stroke-dashoffset="4017.767041" stroke-miterlimit="10"/><path clip-path="url(#clip_frame8_layer_1)" d="M1.1 223.223h1810.1l-14.4 1.1h-696.9l-126.5.5H1.1v-1.6z" fill="#111111" stroke-dasharray="0,3621.84294091498" stroke-dashoffset="3621.842941"/></g><g transform="translate(16425)"><defs><clipPath id="clip_frame9_layer_1"><path d="M1822.197 3.003l-21.604 170.527h-697.714L976.29 222.834H3.003V3.003h1819.194z"/></clipPath></defs><path d="M1822.197 3.003l-21.604 170.527h-697.714L976.29 222.834H3.003V3.003h1819.194z" fill="none" stroke="#111111" stroke-width="6.006583" stroke-dasharray="1000.2616953004092,3017.505345427031" stroke-dashoffset="4017.767041" stroke-miterlimit="10"/><path clip-path="url(#clip_frame9_layer_1)" d="M1.1 223.223h1810.1l-14.4 1.1h-696.9l-126.5.5H1.1v-1.6z" fill="#111111" stroke-dasharray="0,3621.84294091498" stroke-dashoffset="3621.842941"/></g><g transform="translate(18250)"><defs><clipPath id="clip_frame10_layer_1"><path d="M1822.197 3.003l-21.604 170.527h-697.714L976.29 222.834H3.003V3.003h1819.194z"/></clipPath></defs><path d="M1822.197 3.003l-21.604 170.527h-697.714L976.29 222.834H3.003V3.003h1819.194z" fill="none" stroke="#111111" stroke-width="6.006583" stroke-dasharray="1294.9382459285978,2722.8287947988424" stroke-dashoffset="4017.767041" stroke-miterlimit="10"/><path clip-path="url(#clip_frame10_layer_1)" d="M1.1 223.223h1810.1l-14.4 1.1h-696.9l-126.5.5H1.1v-1.6z" fill="#111111" stroke-dasharray="0,3621.84294091498" stroke-dashoffset="3621.842941"/></g><g transform="translate(20075)"><defs><clipPath id="clip_frame11_layer_1"><path d="M1822.197 3.003l-21.604 170.527h-697.714L976.29 222.834H3.003V3.003h1819.194z"/></clipPath></defs><path d="M1822.197 3.003l-21.604 170.527h-697.714L976.29 222.834H3.003V3.003h1819.194z" fill="none" stroke="#111111" stroke-width="6.006583" stroke-dasharray="1605.0996791932891,2412.667361534151" stroke-dashoffset="4017.767041" stroke-miterlimit="10"/><path clip-path="url(#clip_frame11_layer_1)" d="M1.1 223.223h1810.1l-14.4 1.1h-696.9l-126.5.5H1.1v-1.6z" fill="#111111" stroke-dasharray="0,3621.84294091498" stroke-dashoffset="3621.842941"/></g><g transform="translate(21900)"><defs><clipPath id="clip_frame12_layer_1"><path d="M1822.197 3.003l-21.604 170.527h-697.714L976.29 222.834H3.003V3.003h1819.194z"/></clipPath></defs><path d="M1822.197 3.003l-21.604 170.527h-697.714L976.29 222.834H3.003V3.003h1819.194z" fill="none" stroke="#111111" stroke-width="6.006583" stroke-dasharray="1908.236241977355,2109.530798750085" stroke-dashoffset="4017.767041" stroke-miterlimit="10"/><path clip-path="url(#clip_frame12_layer_1)" d="M1.1 223.223h1810.1l-14.4 1.1h-696.9l-126.5.5H1.1v-1.6z" fill="#111111" stroke-dasharray="0,3621.84294091498" stroke-dashoffset="3621.842941"/></g><g transform="translate(23725)"><defs><clipPath id="clip_frame13_layer_1"><path d="M1822.197 3.003l-21.604 170.527h-697.714L976.29 222.834H3.003V3.003h1819.194z"/></clipPath></defs><path d="M1822.197 3.003l-21.604 170.527h-697.714L976.29 222.834H3.003V3.003h1819.194z" fill="none" stroke="#111111" stroke-width="6.006583" stroke-dasharray="2188.50487048747,1829.26217023997" stroke-dashoffset="4017.767041" stroke-miterlimit="10"/><path clip-path="url(#clip_frame13_layer_1)" d="M1.1 223.223h1810.1l-14.4 1.1h-696.9l-126.5.5H1.1v-1.6z" fill="#111111" stroke-dasharray="0,3621.84294091498" stroke-dashoffset="3621.842941"/></g><g transform="translate(25550)"><defs><clipPath id="clip_frame14_layer_1"><path d="M1822.197 3.003l-21.604 170.527h-697.714L976.29 222.834H3.003V3.003h1819.194z"/></clipPath></defs><path d="M1822.197 3.003l-21.604 170.527h-697.714L976.29 222.834H3.003V3.003h1819.194z" fill="none" stroke="#111111" stroke-width="6.006583" stroke-dasharray="2439.1209534817567,1578.646087245683" stroke-dashoffset="4017.767041" stroke-miterlimit="10"/><path clip-path="url(#clip_frame14_layer_1)" d="M1.1 223.223h1810.1l-14.4 1.1h-696.9l-126.5.5H1.1v-1.6z" fill="#111111" stroke-dasharray="0,3621.84294091498" stroke-dashoffset="3621.842941"/></g><g transform="translate(27375)"><defs><clipPath id="clip_frame15_layer_1"><path d="M1822.197 3.003l-21.604 170.527h-697.714L976.29 222.834H3.003V3.003h1819.194z"/></clipPath></defs><path d="M1822.197 3.003l-21.604 170.527h-697.714L976.29 222.834H3.003V3.003h1819.194z" fill="none" stroke="#111111" stroke-width="6.006583" stroke-dasharray="2659.525430426353,1358.241610301087" stroke-dashoffset="4017.767041" stroke-miterlimit="10"/><path clip-path="url(#clip_frame15_layer_1)" d="M1.1 223.223h1810.1l-14.4 1.1h-696.9l-126.5.5H1.1v-1.6z" fill="#111111" stroke-dasharray="0,3621.84294091498" stroke-dashoffset="3621.842941"/></g><g transform="translate(29200)"><defs><clipPath id="clip_frame16_layer_1"><path d="M1822.197 3.003l-21.604 170.527h-697.714L976.29 222.834H3.003V3.003h1819.194z"/></clipPath></defs><path d="M1822.197 3.003l-21.604 170.527h-697.714L976.29 222.834H3.003V3.003h1819.194z" fill="none" stroke="#111111" stroke-width="6.006583" stroke-dasharray="2852.0653955436346,1165.701645183805" stroke-dashoffset="4017.767041" stroke-miterlimit="10"/><path clip-path="url(#clip_frame16_layer_1)" d="M1.1 223.223h1810.1l-14.4 1.1h-696.9l-126.5.5H1.1v-1.6z" fill="#111111" stroke-dasharray="0,3621.84294091498" stroke-dashoffset="3621.842941"/></g><g transform="translate(31025)"><defs><clipPath id="clip_frame17_layer_1"><path d="M1822.197 3.003l-21.604 170.527h-697.714L976.29 222.834H3.003V3.003h1819.194z"/></clipPath></defs><path d="M1822.197 3.003l-21.604 170.527h-697.714L976.29 222.834H3.003V3.003h1819.194z" fill="none" stroke="#111111" stroke-width="6.006583" stroke-dasharray="3019.981220640819,997.7858200866206" stroke-dashoffset="4017.767041" stroke-miterlimit="10"/><path clip-path="url(#clip_frame17_layer_1)" d="M1.1 223.223h1810.1l-14.4 1.1h-696.9l-126.5.5H1.1v-1.6z" fill="#111111" stroke-dasharray="0,3621.84294091498" stroke-dashoffset="3621.842941"/></g><g transform="translate(32850)"><defs><clipPath id="clip_frame18_layer_1"><path d="M1822.197 3.003l-21.604 170.527h-697.714L976.29 222.834H3.003V3.003h1819.194z"/></clipPath></defs><path d="M1822.197 3.003l-21.604 170.527h-697.714L976.29 222.834H3.003V3.003h1819.194z" fill="none" stroke="#111111" stroke-width="6.006583" stroke-dasharray="3166.492848453948,851.2741922734918" stroke-dashoffset="4017.767041" stroke-miterlimit="10"/><path clip-path="url(#clip_frame18_layer_1)" d="M1.1 223.223h1810.1l-14.4 1.1h-696.9l-126.5.5H1.1v-1.6z" fill="#111111" stroke-dasharray="0,3621.84294091498" stroke-dashoffset="3621.842941"/></g><g transform="translate(34675)"><defs><clipPath id="clip_frame19_layer_1"><path d="M1822.197 3.003l-21.604 170.527h-697.714L976.29 222.834H3.003V3.003h1819.194z"/></clipPath></defs><path d="M1822.197 3.003l-21.604 170.527h-697.714L976.29 222.834H3.003V3.003h1819.194z" fill="none" stroke="#111111" stroke-width="6.006583" stroke-dasharray="3294.471658209945,723.295382517495" stroke-dashoffset="4017.767041" stroke-miterlimit="10"/><path clip-path="url(#clip_frame19_layer_1)" d="M1.1 223.223h1810.1l-14.4 1.1h-696.9l-126.5.5H1.1v-1.6z" fill="#111111" stroke-dasharray="0,3621.84294091498" stroke-dashoffset="3621.842941"/></g><g transform="translate(36500)"><defs><clipPath id="clip_frame20_layer_1"><path d="M1822.197 3.003l-21.604 170.527h-697.714L976.29 222.834H3.003V3.003h1819.194z"/></clipPath></defs><path d="M1822.197 3.003l-21.604 170.527h-697.714L976.29 222.834H3.003V3.003h1819.194z" fill="none" stroke="#111111" stroke-width="6.006583" stroke-dasharray="3406.3689835039213,611.3980572235188" stroke-dashoffset="4017.767041" stroke-miterlimit="10"/><path clip-path="url(#clip_frame20_layer_1)" d="M1.1 223.223h1810.1l-14.4 1.1h-696.9l-126.5.5H1.1v-1.6z" fill="#111111" stroke-dasharray="0,3621.84294091498" stroke-dashoffset="3621.842941"/></g><g transform="translate(38325)"><defs><clipPath id="clip_frame21_layer_1"><path d="M1822.197 3.003l-21.604 170.527h-697.714L976.29 222.834H3.003V3.003h1819.194z"/></clipPath></defs><path d="M1822.197 3.003l-21.604 170.527h-697.714L976.29 222.834H3.003V3.003h1819.194z" fill="none" stroke="#111111" stroke-width="6.006583" stroke-dasharray="3504.2420099864125,513.5250307410276" stroke-dashoffset="4017.767041" stroke-miterlimit="10"/><path clip-path="url(#clip_frame21_layer_1)" d="M1.1 223.223h1810.1l-14.4 1.1h-696.9l-126.5.5H1.1v-1.6z" fill="#111111" stroke-dasharray="0,3621.84294091498" stroke-dashoffset="3621.842941"/></g><g transform="translate(40150)"><defs><clipPath id="clip_frame22_layer_1"><path d="M1822.197 3.003l-21.604 170.527h-697.714L976.29 222.834H3.003V3.003h1819.194z"/></clipPath></defs><path d="M1822.197 3.003l-21.604 170.527h-697.714L976.29 222.834H3.003V3.003h1819.194z" fill="none" stroke="#111111" stroke-width="6.006583" stroke-dasharray="3589.8089193373075,427.95812139013225" stroke-dashoffset="4017.767041" stroke-miterlimit="10"/><path clip-path="url(#clip_frame22_layer_1)" d="M1.1 223.223h1810.1l-14.4 1.1h-696.9l-126.5.5H1.1v-1.6z" fill="#111111" stroke-dasharray="0,3621.84294091498" stroke-dashoffset="3621.842941"/></g><g transform="translate(41975)"><defs><clipPath id="clip_frame23_layer_1"><path d="M1822.197 3.003l-21.604 170.527h-697.714L976.29 222.834H3.003V3.003h1819.194z"/></clipPath></defs><path d="M1822.197 3.003l-21.604 170.527h-697.714L976.29 222.834H3.003V3.003h1819.194z" fill="none" stroke="#111111" stroke-width="6.006583" stroke-dasharray="3664.506663483791,353.2603772436492" stroke-dashoffset="4017.767041" stroke-miterlimit="10"/><path clip-path="url(#clip_frame23_layer_1)" d="M1.1 223.223h1810.1l-14.4 1.1h-696.9l-126.5.5H1.1v-1.6z" fill="#111111" stroke-dasharray="0,3621.84294091498" stroke-dashoffset="3621.842941"/></g><g transform="translate(43800)"><defs><clipPath id="clip_frame24_layer_1"><path d="M1822.197 3.003l-21.604 170.527h-697.714L976.29 222.834H3.003V3.003h1819.194z"/></clipPath></defs><path d="M1822.197 3.003l-21.604 170.527h-697.714L976.29 222.834H3.003V3.003h1819.194z" fill="none" stroke="#111111" stroke-width="6.006583" stroke-dasharray="3729.5422764711348,288.2247642563053" stroke-dashoffset="4017.767041" stroke-miterlimit="10"/><path clip-path="url(#clip_frame24_layer_1)" d="M1.1 223.223h1810.1l-14.4 1.1h-696.9l-126.5.5H1.1v-1.6z" fill="#111111" stroke-dasharray="0,3621.84294091498" stroke-dashoffset="3621.842941"/></g><g transform="translate(45625)"><defs><clipPath id="clip_frame25_layer_1"><path d="M1822.197 3.003l-21.604 170.527h-697.714L976.29 222.834H3.003V3.003h1819.194z"/></clipPath></defs><path d="M1822.197 3.003l-21.604 170.527h-697.714L976.29 222.834H3.003V3.003h1819.194z" fill="none" stroke="#111111" stroke-width="6.006583" stroke-dasharray="3785.9356150477442,231.83142567969557" stroke-dashoffset="4017.767041" stroke-miterlimit="10"/><path clip-path="url(#clip_frame25_layer_1)" d="M1.1 223.223h1810.1l-14.4 1.1h-696.9l-126.5.5H1.1v-1.6z" fill="#111111" stroke-dasharray="0,3621.84294091498" stroke-dashoffset="3621.842941"/></g><g transform="translate(47450)"><defs><clipPath id="clip_frame26_layer_1"><path d="M1822.197 3.003l-21.604 170.527h-697.714L976.29 222.834H3.003V3.003h1819.194z"/></clipPath></defs><path d="M1822.197 3.003l-21.604 170.527h-697.714L976.29 222.834H3.003V3.003h1819.194z" fill="none" stroke="#111111" stroke-width="6.006583" stroke-dasharray="3834.5539794480146,183.21306127942543" stroke-dashoffset="4017.767041" stroke-miterlimit="10"/><path clip-path="url(#clip_frame26_layer_1)" d="M1.1 223.223h1810.1l-14.4 1.1h-696.9l-126.5.5H1.1v-1.6z" fill="#111111" stroke-dasharray="0,3621.84294091498" stroke-dashoffset="3621.842941"/></g><g transform="translate(49275)"><defs><clipPath id="clip_frame27_layer_1"><path d="M1822.197 3.003l-21.604 170.527h-697.714L976.29 222.834H3.003V3.003h1819.194z"/></clipPath></defs><path d="M1822.197 3.003l-21.604 170.527h-697.714L976.29 222.834H3.003V3.003h1819.194z" fill="none" stroke="#111111" stroke-width="6.006583" stroke-dasharray="3876.1398353853224,141.62720534211743" stroke-dashoffset="4017.767041" stroke-miterlimit="10"/><path clip-path="url(#clip_frame27_layer_1)" d="M1.1 223.223h1810.1l-14.4 1.1h-696.9l-126.5.5H1.1v-1.6z" fill="#111111" stroke-dasharray="0,3621.84294091498" stroke-dashoffset="3621.842941"/></g><g transform="translate(51100)"><defs><clipPath id="clip_frame28_layer_1"><path d="M1822.197 3.003l-21.604 170.527h-697.714L976.29 222.834H3.003V3.003h1819.194z"/></clipPath></defs><path d="M1822.197 3.003l-21.604 170.527h-697.714L976.29 222.834H3.003V3.003h1819.194z" fill="none" stroke="#111111" stroke-width="6.006583" stroke-dasharray="3911.3329407196975,106.4341000077425" stroke-dashoffset="4017.767041" stroke-miterlimit="10"/><path clip-path="url(#clip_frame28_layer_1)" d="M1.1 223.223h1810.1l-14.4 1.1h-696.9l-126.5.5H1.1v-1.6z" fill="#111111" stroke-dasharray="0,3621.84294091498" stroke-dashoffset="3621.842941"/></g><g transform="translate(52925)"><defs><clipPath id="clip_frame29_layer_1"><path d="M1822.197 3.003l-21.604 170.527h-697.714L976.29 222.834H3.003V3.003h1819.194z"/></clipPath></defs><path d="M1822.197 3.003l-21.604 170.527h-697.714L976.29 222.834H3.003V3.003h1819.194z" fill="none" stroke="#111111" stroke-width="6.006583" stroke-dasharray="3940.6880285925795,77.07901213486066" stroke-dashoffset="4017.767041" stroke-miterlimit="10"/><path clip-path="url(#clip_frame29_layer_1)" d="M1.1 223.223h1810.1l-14.4 1.1h-696.9l-126.5.5H1.1v-1.6z" fill="#111111" stroke-dasharray="0,3621.84294091498" stroke-dashoffset="3621.842941"/></g><g transform="translate(54750)"><defs><clipPath id="clip_frame30_layer_1"><path d="M1822.197 3.003l-21.604 170.527h-697.714L976.29 222.834H3.003V3.003h1819.194z"/></clipPath></defs><path d="M1822.197 3.003l-21.604 170.527h-697.714L976.29 222.834H3.003V3.003h1819.194z" fill="none" stroke="#111111" stroke-width="6.006583" stroke-dasharray="3964.6889924648694,53.07804826257057" stroke-dashoffset="4017.767041" stroke-miterlimit="10"/><path clip-path="url(#clip_frame30_layer_1)" d="M1.1 223.223h1810.1l-14.4 1.1h-696.9l-126.5.5H1.1v-1.6z" fill="#111111" stroke-dasharray="0,3621.84294091498" stroke-dashoffset="3621.842941"/></g><g transform="translate(56575)"><defs><clipPath id="clip_frame31_layer_1"><path d="M1822.197 3.003l-21.604 170.527h-697.714L976.29 222.834H3.003V3.003h1819.194z"/></clipPath></defs><path d="M1822.197 3.003l-21.604 170.527h-697.714L976.29 222.834H3.003V3.003h1819.194z" fill="none" stroke="#111111" stroke-width="6.006583" stroke-dasharray="3983.7603233307746,34.00671739666541" stroke-dashoffset="4017.767041" stroke-miterlimit="10"/><path clip-path="url(#clip_frame31_layer_1)" d="M1.1 223.223h1810.1l-14.4 1.1h-696.9l-126.5.5H1.1v-1.6z" fill="#111111" stroke-dasharray="0,3621.84294091498" stroke-dashoffset="3621.842941"/></g><g transform="translate(58400)"><defs><clipPath id="clip_frame32_layer_1"><path d="M1822.197 3.003l-21.604 170.527h-697.714L976.29 222.834H3.003V3.003h1819.194z"/></clipPath></defs><path d="M1822.197 3.003l-21.604 170.527h-697.714L976.29 222.834H3.003V3.003h1819.194z" fill="none" stroke="#111111" stroke-width="6.006583" stroke-dasharray="3998.276385196056,19.49065553138433" stroke-dashoffset="4017.767041" stroke-miterlimit="10"/><path clip-path="url(#clip_frame32_layer_1)" d="M1.1 223.223h1810.1l-14.4 1.1h-696.9l-126.5.5H1.1v-1.6z" fill="#111111" stroke-dasharray="0,3621.84294091498" stroke-dashoffset="3621.842941"/></g><g transform="translate(60225)"><defs><clipPath id="clip_frame33_layer_1"><path d="M1822.197 3.003l-21.604 170.527h-697.714L976.29 222.834H3.003V3.003h1819.194z"/></clipPath></defs><path d="M1822.197 3.003l-21.604 170.527h-697.714L976.29 222.834H3.003V3.003h1819.194z" fill="none" stroke="#111111" stroke-width="6.006583" stroke-dasharray="4008.568983712947,9.19805701449293" stroke-dashoffset="4017.767041" stroke-miterlimit="10"/><path clip-path="url(#clip_frame33_layer_1)" d="M1.1 223.223h1810.1l-14.4 1.1h-696.9l-126.5.5H1.1v-1.6z" fill="#111111" stroke-dasharray="0,3621.84294091498" stroke-dashoffset="3621.842941"/></g><g transform="translate(62050)"><defs><clipPath id="clip_frame34_layer_1"><path d="M1822.197 3.003l-21.604 170.527h-697.714L976.29 222.834H3.003V3.003h1819.194z"/></clipPath></defs><path d="M1822.197 3.003l-21.604 170.527h-697.714L976.29 222.834H3.003V3.003h1819.194z" fill="none" stroke="#111111" stroke-width="6.006583" stroke-dasharray="4014.933580595019,2.833460132421106" stroke-dashoffset="4017.767041" stroke-miterlimit="10"/><path clip-path="url(#clip_frame34_layer_1)" d="M1.1 223.223h1810.1l-14.4 1.1h-696.9l-126.5.5H1.1v-1.6z" fill="#111111" stroke-dasharray="0,3621.84294091498" stroke-dashoffset="3621.842941"/></g><g transform="translate(63875)"><defs><clipPath id="clip_frame35_layer_1"><path d="M1822.197 3.003l-21.604 170.527h-697.714L976.29 222.834H3.003V3.003h1819.194z"/></clipPath></defs><path d="M1822.197 3.003l-21.604 170.527h-697.714L976.29 222.834H3.003V3.003h1819.194z" fill="none" stroke="#111111" stroke-width="6.006583" stroke-dasharray="4017.634427644417,0.13261308302283617" stroke-dashoffset="4017.767041" stroke-miterlimit="10"/><path clip-path="url(#clip_frame35_layer_1)" d="M1.1 223.223h1810.1l-14.4 1.1h-696.9l-126.5.5H1.1v-1.6z" fill="#111111" stroke-dasharray="0,3621.84294091498" stroke-dashoffset="3621.842941"/></g><g transform="translate(65700)"><defs><clipPath id="clip_frame36_layer_1"><path d="M1822.197 3.003l-21.604 170.527h-697.714L976.29 222.834H3.003V3.003h1819.194z"/></clipPath></defs><path d="M1822.197 3.003l-21.604 170.527h-697.714L976.29 222.834H3.003V3.003h1819.194z" fill="none" stroke="#111111" stroke-width="6.006583" stroke-miterlimit="10"/><path clip-path="url(#clip_frame36_layer_1)" d="M1.1 223.223h1810.1l-14.4 1.1h-696.9l-126.5.5H1.1v-1.6z" fill="#111111" stroke-dasharray="0,3621.84294091498" stroke-dashoffset="3621.842941"/></g><g transform="translate(67525)"><defs><clipPath id="clip_frame37_layer_1"><path d="M1822.197 3.003l-21.604 170.527h-697.714L976.29 222.834H3.003V3.003h1819.194z"/></clipPath></defs><path d="M1822.197 3.003l-21.604 170.527h-697.714L976.29 222.834H3.003V3.003h1819.194z" fill="none" stroke="#111111" stroke-width="6.006583" stroke-miterlimit="10"/><path clip-path="url(#clip_frame37_layer_1)" d="M1.1 223.202h1810.101l-14.399 1.117h-696.901l-126.5.505H1.1v-1.622z" fill="#111111" stroke-dasharray="0,3621.8689669066994" stroke-dashoffset="3621.868967"/></g><g transform="translate(69350)"><defs><clipPath id="clip_frame38_layer_1"><path d="M1822.197 3.003l-21.604 170.527h-697.714L976.29 222.834H3.003V3.003h1819.194z"/></clipPath></defs><path d="M1822.197 3.003l-21.604 170.527h-697.714L976.29 222.834H3.003V3.003h1819.194z" fill="none" stroke="#111111" stroke-width="6.006583" stroke-miterlimit="10"/><path clip-path="url(#clip_frame38_layer_1)" d="M1.1 223.032h1810.112l-14.394 1.256h-696.91l-126.502.536H1.1v-1.792z" fill="#111111" stroke-dasharray="0,3622.071965262733" stroke-dashoffset="3622.071965"/></g><g transform="translate(71175)"><defs><clipPath id="clip_frame39_layer_1"><path d="M1822.197 3.003l-21.604 170.527h-697.714L976.29 222.834H3.003V3.003h1819.194z"/></clipPath></defs><path d="M1822.197 3.003l-21.604 170.527h-697.714L976.29 222.834H3.003V3.003h1819.194z" fill="none" stroke="#111111" stroke-width="6.006583" stroke-miterlimit="10"/><path clip-path="url(#clip_frame39_layer_1)" d="M1.099 222.682h1810.134l-14.382 1.541h-696.929l-126.505.603H1.099v-2.144z" fill="#111111" stroke-dasharray="0,3622.493965940654" stroke-dashoffset="3622.493966"/></g><g transform="translate(73000)"><defs><clipPath id="clip_frame40_layer_1"><path d="M1822.197 3.003l-21.604 170.527h-697.714L976.29 222.834H3.003V3.003h1819.194z"/></clipPath></defs><path d="M1822.197 3.003l-21.604 170.527h-697.714L976.29 222.834H3.003V3.003h1819.194z" fill="none" stroke="#111111" stroke-width="6.006583" stroke-miterlimit="10"/><path clip-path="url(#clip_frame40_layer_1)" d="M1.099 222.138h1810.167l-14.363 1.985h-696.959l-126.51.705H1.099v-2.69z" fill="#111111" stroke-dasharray="0,3623.1623738759818" stroke-dashoffset="3623.162374"/></g><g transform="translate(74825)"><defs><clipPath id="clip_frame41_layer_1"><path d="M1822.197 3.003l-21.604 170.527h-697.714L976.29 222.834H3.003V3.003h1819.194z"/></clipPath></defs><path d="M1822.197 3.003l-21.604 170.527h-697.714L976.29 222.834H3.003V3.003h1819.194z" fill="none" stroke="#111111" stroke-width="6.006583" stroke-miterlimit="10"/><path clip-path="url(#clip_frame41_layer_1)" d="M1.098 221.383h1810.213l-14.336 2.6h-697l-126.517.848H1.098v-3.448z" fill="#111111" stroke-dasharray="0,3624.1131102752015" stroke-dashoffset="3624.11311"/></g><g transform="translate(76650)"><defs><clipPath id="clip_frame42_layer_1"><path d="M1822.197 3.003l-21.604 170.527h-697.714L976.29 222.834H3.003V3.003h1819.194z"/></clipPath></defs><path d="M1822.197 3.003l-21.604 170.527h-697.714L976.29 222.834H3.003V3.003h1819.194z" fill="none" stroke="#111111" stroke-width="6.006583" stroke-miterlimit="10"/><path clip-path="url(#clip_frame42_layer_1)" d="M1.096 220.397h1810.275l-14.303 3.403h-697.053l-126.526 1.036H1.096v-4.439z" fill="#111111" stroke-dasharray="0,3625.392236463194" stroke-dashoffset="3625.392236"/></g><g transform="translate(78475)"><defs><clipPath id="clip_frame43_layer_1"><path d="M1822.197 3.003l-21.604 170.527h-697.714L976.29 222.834H3.003V3.003h1819.194z"/></clipPath></defs><path d="M1822.197 3.003l-21.604 170.527h-697.714L976.29 222.834H3.003V3.003h1819.194z" fill="none" stroke="#111111" stroke-width="6.006583" stroke-miterlimit="10"/><path clip-path="url(#clip_frame43_layer_1)" d="M1.095 219.159h1810.351l-14.26 4.412h-697.12l-126.539 1.27H1.095v-5.682z" fill="#111111" stroke-dasharray="0,3627.0574104085053" stroke-dashoffset="3627.05741"/></g><g transform="translate(80300)"><defs><clipPath id="clip_frame44_layer_1"><path d="M1822.197 3.003l-21.604 170.527h-697.714L976.29 222.834H3.003V3.003h1819.194z"/></clipPath></defs><path d="M1822.197 3.003l-21.604 170.527h-697.714L976.29 222.834H3.003V3.003h1819.194z" fill="none" stroke="#111111" stroke-width="6.006583" stroke-miterlimit="10"/><path clip-path="url(#clip_frame44_layer_1)" d="M1.093 217.648h1810.444l-14.207 5.643h-697.203l-126.552 1.557H1.093v-7.2z" fill="#111111" stroke-dasharray="0,3629.1787081135735" stroke-dashoffset="3629.178708"/></g><g transform="translate(82125)"><defs><clipPath id="clip_frame45_layer_1"><path d="M1822.197 3.003l-21.604 170.527h-697.714L976.29 222.834H3.003V3.003h1819.194z"/></clipPath></defs><path d="M1822.197 3.003l-21.604 170.527h-697.714L976.29 222.834H3.003V3.003h1819.194z" fill="none" stroke="#111111" stroke-width="6.006583" stroke-miterlimit="10"/><path clip-path="url(#clip_frame45_layer_1)" d="M1.09 215.836h1810.557l-14.145 7.12h-697.301l-126.569 1.9H1.09v-9.02z" fill="#111111" stroke-dasharray="0,3631.8381946259146" stroke-dashoffset="3631.838195"/></g><g transform="translate(83950)"><defs><clipPath id="clip_frame46_layer_1"><path d="M1822.197 3.003l-21.604 170.527h-697.714L976.29 222.834H3.003V3.003h1819.194z"/></clipPath></defs><path d="M1822.197 3.003l-21.604 170.527h-697.714L976.29 222.834H3.003V3.003h1819.194z" fill="none" stroke="#111111" stroke-width="6.006583" stroke-miterlimit="10"/><path clip-path="url(#clip_frame46_layer_1)" d="M1.087 213.696h1810.689l-14.071 8.864h-697.417l-126.589 2.305H1.087v-11.169z" fill="#111111" stroke-dasharray="0,3635.127725986722" stroke-dashoffset="3635.127726"/></g><g transform="translate(85775)"><defs><clipPath id="clip_frame47_layer_1"><path d="M1822.197 3.003l-21.604 170.527h-697.714L976.29 222.834H3.003V3.003h1819.194z"/></clipPath></defs><path d="M1822.197 3.003l-21.604 170.527h-697.714L976.29 222.834H3.003V3.003h1819.194z" fill="none" stroke="#111111" stroke-width="6.006583" stroke-miterlimit="10"/><path clip-path="url(#clip_frame47_layer_1)" d="M1.084 211.196h1810.843l-13.985 10.901H1100.39l-126.613 2.779H1.084v-13.68z" fill="#111111" stroke-dasharray="0,3639.1449669022595" stroke-dashoffset="3639.144967"/></g><g transform="translate(87600)"><defs><clipPath id="clip_frame48_layer_1"><path d="M1822.197 3.003l-21.604 170.527h-697.714L976.29 222.834H3.003V3.003h1819.194z"/></clipPath></defs><path d="M1822.197 3.003l-21.604 170.527h-697.714L976.29 222.834H3.003V3.003h1819.194z" fill="none" stroke="#111111" stroke-width="6.006583" stroke-miterlimit="10"/><path clip-path="url(#clip_frame48_layer_1)" d="M1.08 208.302h1811.022l-13.885 13.259h-697.709l-126.64 3.328H1.08v-16.587z" fill="#111111" stroke-dasharray="0,3643.9883764556666" stroke-dashoffset="3643.988376"/></g><g transform="translate(89425)"><defs><clipPath id="clip_frame49_layer_1"><path d="M1822.197 3.003l-21.604 170.527h-697.714L976.29 222.834H3.003V3.003h1819.194z"/></clipPath></defs><path d="M1822.197 3.003l-21.604 170.527h-697.714L976.29 222.834H3.003V3.003h1819.194z" fill="none" stroke="#111111" stroke-width="6.006583" stroke-miterlimit="10"/><path clip-path="url(#clip_frame49_layer_1)" d="M1.075 204.981h1811.228l-13.77 15.965h-697.889l-126.672 3.957H1.075v-19.922z" fill="#111111" stroke-dasharray="0,3649.7523683045024" stroke-dashoffset="3649.752368"/></g><g transform="translate(91250)"><defs><clipPath id="clip_frame50_layer_1"><path d="M1822.197 3.003l-21.604 170.527h-697.714L976.29 222.834H3.003V3.003h1819.194z"/></clipPath></defs><path d="M1822.197 3.003l-21.604 170.527h-697.714L976.29 222.834H3.003V3.003h1819.194z" fill="none" stroke="#111111" stroke-width="6.006583" stroke-miterlimit="10"/><path clip-path="url(#clip_frame50_layer_1)" d="M1.07 201.196h1811.462l-13.64 19.05h-698.094l-126.707 4.674H1.07v-23.724z" fill="#111111" stroke-dasharray="0,3656.5234299632366" stroke-dashoffset="3656.52343"/></g><g transform="translate(93075)"><defs><clipPath id="clip_frame51_layer_1"><path d="M1822.197 3.003l-21.604 170.527h-697.714L976.29 222.834H3.003V3.003h1819.194z"/></clipPath></defs><path d="M1822.197 3.003l-21.604 170.527h-697.714L976.29 222.834H3.003V3.003h1819.194z" fill="none" stroke="#111111" stroke-width="6.006583" stroke-miterlimit="10"/><path clip-path="url(#clip_frame51_layer_1)" d="M1.065 196.912h1811.726l-13.492 22.541h-698.326l-126.748 5.486H1.065v-28.027z" fill="#111111" stroke-dasharray="0,3664.376847297042" stroke-dashoffset="3664.376847"/></g><g transform="translate(94900)"><defs><clipPath id="clip_frame52_layer_1"><path d="M1822.197 3.003l-21.604 170.527h-697.714L976.29 222.834H3.003V3.003h1819.194z"/></clipPath></defs><path d="M1822.197 3.003l-21.604 170.527h-697.714L976.29 222.834H3.003V3.003h1819.194z" fill="none" stroke="#111111" stroke-width="6.006583" stroke-miterlimit="10"/><path clip-path="url(#clip_frame52_layer_1)" d="M1.058 192.099h1812.024l-13.326 26.463h-698.587l-126.793 6.398H1.058v-32.861z" fill="#111111" stroke-dasharray="0,3673.372670034497" stroke-dashoffset="3673.37267"/></g><g transform="translate(96725)"><defs><clipPath id="clip_frame53_layer_1"><path d="M1822.197 3.003l-21.604 170.527h-697.714L976.29 222.834H3.003V3.003h1819.194z"/></clipPath></defs><path d="M1822.197 3.003l-21.604 170.527h-697.714L976.29 222.834H3.003V3.003h1819.194z" fill="none" stroke="#111111" stroke-width="6.006583" stroke-miterlimit="10"/><path clip-path="url(#clip_frame53_layer_1)" d="M1.051 186.736h1812.356l-13.142 30.833h-698.878l-126.843 7.414H1.051v-38.247z" fill="#111111" stroke-dasharray="0,3683.5493818673144" stroke-dashoffset="3683.549382"/></g><g transform="translate(98550)"><defs><clipPath id="clip_frame54_layer_1"><path d="M1822.197 3.003l-21.604 170.527h-697.714L976.29 222.834H3.003V3.003h1819.194z"/></clipPath></defs><path d="M1822.197 3.003l-21.604 170.527h-697.714L976.29 222.834H3.003V3.003h1819.194z" fill="none" stroke="#111111" stroke-width="6.006583" stroke-miterlimit="10"/><path clip-path="url(#clip_frame54_layer_1)" d="M1.043 180.817h1812.722l-12.938 35.656h-699.198l-126.899 8.536H1.043v-44.192z" fill="#111111" stroke-dasharray="0,3694.9145098996823" stroke-dashoffset="3694.91451"/></g><g transform="translate(100375)"><defs><clipPath id="clip_frame55_layer_1"><path d="M1822.197 3.003l-21.604 170.527h-697.714L976.29 222.834H3.003V3.003h1819.194z"/></clipPath></defs><path d="M1822.197 3.003l-21.604 170.527h-697.714L976.29 222.834H3.003V3.003h1819.194z" fill="none" stroke="#111111" stroke-width="6.006583" stroke-miterlimit="10"/><path clip-path="url(#clip_frame55_layer_1)" d="M1.034 174.357h1813.121l-12.714 40.92h-699.549l-126.96 9.76H1.034v-50.68z" fill="#111111" stroke-dasharray="0,3707.432902022096" stroke-dashoffset="3707.432902"/></g><g transform="translate(102200)"><defs><clipPath id="clip_frame56_layer_1"><path d="M1822.197 3.003l-21.604 170.527h-697.714L976.29 222.834H3.003V3.003h1819.194z"/></clipPath></defs><path d="M1822.197 3.003l-21.604 170.527h-697.714L976.29 222.834H3.003V3.003h1819.194z" fill="none" stroke="#111111" stroke-width="6.006583" stroke-miterlimit="10"/><path clip-path="url(#clip_frame56_layer_1)" d="M1.025 167.396h1813.551l-12.474 46.593h-699.926l-127.025 11.079H1.025v-57.672z" fill="#111111" stroke-dasharray="0,3721.0153311348686" stroke-dashoffset="3721.015331"/></g><g transform="translate(104025)"><defs><clipPath id="clip_frame57_layer_1"><path d="M1822.197 3.003l-21.604 170.527h-697.714L976.29 222.834H3.003V3.003h1819.194z"/></clipPath></defs><path d="M1822.197 3.003l-21.604 170.527h-697.714L976.29 222.834H3.003V3.003h1819.194z" fill="none" stroke="#111111" stroke-width="6.006583" stroke-miterlimit="10"/><path clip-path="url(#clip_frame57_layer_1)" d="M1.015 160.009h1814.008l-12.219 52.612h-700.327L975.382 225.1H1.015v-65.091z" fill="#111111" stroke-dasharray="0,3735.5118524906343" stroke-dashoffset="3735.511852"/></g><g transform="translate(105850)"><defs><clipPath id="clip_frame58_layer_1"><path d="M1822.197 3.003l-21.604 170.527h-697.714L976.29 222.834H3.003V3.003h1819.194z"/></clipPath></defs><path d="M1822.197 3.003l-21.604 170.527h-697.714L976.29 222.834H3.003V3.003h1819.194z" fill="none" stroke="#111111" stroke-width="6.006583" stroke-miterlimit="10"/><path clip-path="url(#clip_frame58_layer_1)" d="M1.005 152.296H1815.49l-11.954 58.897h-700.745l-127.167 13.941H1.005v-72.838z" fill="#111111" stroke-dasharray="0,3750.7147366110676" stroke-dashoffset="3750.714737"/></g><g transform="translate(107675)"><defs><clipPath id="clip_frame59_layer_1"><path d="M1822.197 3.003l-21.604 170.527h-697.714L976.29 222.834H3.003V3.003h1819.194z"/></clipPath></defs><path d="M1822.197 3.003l-21.604 170.527h-697.714L976.29 222.834H3.003V3.003h1819.194z" fill="none" stroke="#111111" stroke-width="6.006583" stroke-miterlimit="10"/><path clip-path="url(#clip_frame59_layer_1)" d="M.994 144.38h1814.974l-11.68 65.348h-701.174l-127.242 15.44H.994V144.38z" fill="#111111" stroke-dasharray="0,3766.3735515219364" stroke-dashoffset="3766.373552"/></g><g transform="translate(109500)"><defs><clipPath id="clip_frame60_layer_1"><path d="M1822.197 3.003l-21.604 170.527h-697.714L976.29 222.834H3.003V3.003h1819.194z"/></clipPath></defs><path d="M1822.197 3.003l-21.604 170.527h-697.714L976.29 222.834H3.003V3.003h1819.194z" fill="none" stroke="#111111" stroke-width="6.006583" stroke-miterlimit="10"/><path clip-path="url(#clip_frame60_layer_1)" d="M.983 136.393h1815.468l-11.405 71.856H1103.44l-127.317 16.954H.983v-88.81z" fill="#111111" stroke-dasharray="0,3782.2202640458554" stroke-dashoffset="3782.220264"/></g><g transform="translate(111325)"><defs><clipPath id="clip_frame61_layer_1"><path d="M1822.197 3.003l-21.604 170.527h-697.714L976.29 222.834H3.003V3.003h1819.194z"/></clipPath></defs><path d="M1822.197 3.003l-21.604 170.527h-697.714L976.29 222.834H3.003V3.003h1819.194z" fill="none" stroke="#111111" stroke-width="6.006583" stroke-miterlimit="10"/><path clip-path="url(#clip_frame61_layer_1)" d="M.973 128.462h1815.958l-11.131 78.319h-702.037l-127.391 18.457H.973v-96.776z" fill="#111111" stroke-dasharray="0,3797.9976231364526" stroke-dashoffset="3797.997623"/></g><g transform="translate(113150)"><defs><clipPath id="clip_frame62_layer_1"><path d="M1822.197 3.003l-21.604 170.527h-697.714L976.29 222.834H3.003V3.003h1819.194z"/></clipPath></defs><path d="M1822.197 3.003l-21.604 170.527h-697.714L976.29 222.834H3.003V3.003h1819.194z" fill="none" stroke="#111111" stroke-width="6.006583" stroke-miterlimit="10"/><path clip-path="url(#clip_frame62_layer_1)" d="M.962 120.694h1816.439l-10.864 84.649H1104.08l-127.465 19.929H.962V120.694z" fill="#111111" stroke-dasharray="0,3813.4827994336024" stroke-dashoffset="3813.482799"/></g><g transform="translate(114975)"><defs><clipPath id="clip_frame63_layer_1"><path d="M1822.197 3.003l-21.604 170.527h-697.714L976.29 222.834H3.003V3.003h1819.194z"/></clipPath></defs><path d="M1822.197 3.003l-21.604 170.527h-697.714L976.29 222.834H3.003V3.003h1819.194z" fill="none" stroke="#111111" stroke-width="6.006583" stroke-miterlimit="10"/><path clip-path="url(#clip_frame63_layer_1)" d="M.952 113.175h1816.903l-10.603 90.776h-702.866l-127.535 21.354H.952v-112.13z" fill="#111111" stroke-dasharray="0,3828.501077173778" stroke-dashoffset="3828.501077"/></g><g transform="translate(116800)"><defs><clipPath id="clip_frame64_layer_1"><path d="M1822.197 3.003l-21.604 170.527h-697.714L976.29 222.834H3.003V3.003h1819.194z"/></clipPath></defs><path d="M1822.197 3.003l-21.604 170.527h-697.714L976.29 222.834H3.003V3.003h1819.194z" fill="none" stroke="#111111" stroke-width="6.006583" stroke-miterlimit="10"/><path clip-path="url(#clip_frame64_layer_1)" d="M.942 105.963h1817.35l-10.356 96.653H1104.68l-127.603 22.72H.942V105.963z" fill="#111111" stroke-dasharray="0,3842.9289844104314" stroke-dashoffset="3842.928984"/></g><g transform="translate(118625)"><defs><clipPath id="clip_frame65_layer_1"><path d="M1822.197 3.003l-21.604 170.527h-697.714L976.29 222.834H3.003V3.003h1819.194z"/></clipPath></defs><path d="M1822.197 3.003l-21.604 170.527h-697.714L976.29 222.834H3.003V3.003h1819.194z" fill="none" stroke="#111111" stroke-width="6.006583" stroke-miterlimit="10"/><path clip-path="url(#clip_frame65_layer_1)" d="M.933 99.095h1817.774l-10.118 102.25H1104.96l-127.668 24.021H.933V99.095z" fill="#111111" stroke-dasharray="0,3856.689638377906" stroke-dashoffset="3856.689638"/></g><g transform="translate(120450)"><defs><clipPath id="clip_frame66_layer_1"><path d="M1822.197 3.003l-21.604 170.527h-697.714L976.29 222.834H3.003V3.003h1819.194z"/></clipPath></defs><path d="M1822.197 3.003l-21.604 170.527h-697.714L976.29 222.834H3.003V3.003h1819.194z" fill="none" stroke="#111111" stroke-width="6.006583" stroke-miterlimit="10"/><path clip-path="url(#clip_frame66_layer_1)" d="M.924 92.588h1818.177l-9.894 107.552h-703.981l-127.729 25.255H.924V92.588z" fill="#111111" stroke-dasharray="0,3869.7441029414126" stroke-dashoffset="3869.744103"/></g><g transform="translate(122275)"><defs><clipPath id="clip_frame67_layer_1"><path d="M1822.197 3.003l-21.604 170.527h-697.714L976.29 222.834H3.003V3.003h1819.194z"/></clipPath></defs><path d="M1822.197 3.003l-21.604 170.527h-697.714L976.29 222.834H3.003V3.003h1819.194z" fill="none" stroke="#111111" stroke-width="6.006583" stroke-miterlimit="10"/><path clip-path="url(#clip_frame67_layer_1)" d="M.916 86.445h1818.556l-9.682 112.558h-704.314l-127.787 26.419H.916V86.445z" fill="#111111" stroke-dasharray="0,3882.081852558607" stroke-dashoffset="3882.081853"/></g><g transform="translate(124100)"><defs><clipPath id="clip_frame68_layer_1"><path d="M1822.197 3.003l-21.604 170.527h-697.714L976.29 222.834H3.003V3.003h1819.194z"/></clipPath></defs><path d="M1822.197 3.003l-21.604 170.527h-697.714L976.29 222.834H3.003V3.003h1819.194z" fill="none" stroke="#111111" stroke-width="6.006583" stroke-miterlimit="10"/><path clip-path="url(#clip_frame68_layer_1)" d="M.908 80.661h1818.914l-9.483 117.271h-704.627l-127.841 27.515H.908V80.661z" fill="#111111" stroke-dasharray="0,3893.7121684405142" stroke-dashoffset="3893.712168"/></g><g transform="translate(125925)"><defs><clipPath id="clip_frame69_layer_1"><path d="M1822.197 3.003l-21.604 170.527h-697.714L976.29 222.834H3.003V3.003h1819.194z"/></clipPath></defs><path d="M1822.197 3.003l-21.604 170.527h-697.714L976.29 222.834H3.003V3.003h1819.194z" fill="none" stroke="#111111" stroke-width="6.006583" stroke-miterlimit="10"/><path clip-path="url(#clip_frame69_layer_1)" d="M.901 75.222h1819.25l-9.295 121.703h-704.923l-127.892 28.546H.901V75.222z" fill="#111111" stroke-dasharray="0,3904.6572096423215" stroke-dashoffset="3904.65721"/></g><g transform="translate(127750)"><defs><clipPath id="clip_frame70_layer_1"><path d="M1822.197 3.003l-21.604 170.527h-697.714L976.29 222.834H3.003V3.003h1819.194z"/></clipPath></defs><path d="M1822.197 3.003l-21.604 170.527h-697.714L976.29 222.834H3.003V3.003h1819.194z" fill="none" stroke="#111111" stroke-width="6.006583" stroke-miterlimit="10"/><path clip-path="url(#clip_frame70_layer_1)" d="M.894 70.114H1820.46l-9.119 125.866h-705.199l-127.941 29.513H.894V70.114z" fill="#111111" stroke-dasharray="0,3914.9468338965016" stroke-dashoffset="3914.946834"/></g><g transform="translate(129575)"><defs><clipPath id="clip_frame71_layer_1"><path d="M1822.197 3.003l-21.604 170.527h-697.714L976.29 222.834H3.003V3.003h1819.194z"/></clipPath></defs><path d="M1822.197 3.003l-21.604 170.527h-697.714L976.29 222.834H3.003V3.003h1819.194z" fill="none" stroke="#111111" stroke-width="6.006583" stroke-miterlimit="10"/><path clip-path="url(#clip_frame71_layer_1)" d="M.888 65.318H1820.75l-8.953 129.774h-705.46l-127.985 30.422H.888V65.318z" fill="#111111" stroke-dasharray="0,3924.614930602575" stroke-dashoffset="3924.614931"/></g><g transform="translate(131400)"><defs><clipPath id="clip_frame72_layer_1"><path d="M1822.197 3.003l-21.604 170.527h-697.714L976.29 222.834H3.003V3.003h1819.194z"/></clipPath></defs><path d="M1822.197 3.003l-21.604 170.527h-697.714L976.29 222.834H3.003V3.003h1819.194z" fill="none" stroke="#111111" stroke-width="6.006583" stroke-miterlimit="10"/><path clip-path="url(#clip_frame72_layer_1)" d="M.882 60.816h1820.14l-8.798 133.442h-705.703l-128.028 31.276H.882V60.816z" fill="#111111" stroke-dasharray="0,3933.696936551074" stroke-dashoffset="3933.696937"/></g><g transform="translate(133225)"><defs><clipPath id="clip_frame73_layer_1"><path d="M1822.197 3.003l-21.604 170.527h-697.714L976.29 222.834H3.003V3.003h1819.194z"/></clipPath></defs><path d="M1822.197 3.003l-21.604 170.527h-697.714L976.29 222.834H3.003V3.003h1819.194z" fill="none" stroke="#111111" stroke-width="6.006583" stroke-miterlimit="10"/><path clip-path="url(#clip_frame73_layer_1)" d="M.876 56.59h1820.402l-8.652 136.886h-705.933l-128.068 32.076H.876V56.59z" fill="#111111" stroke-dasharray="0,3942.2282216167237" stroke-dashoffset="3942.228222"/></g><g transform="translate(135050)"><defs><clipPath id="clip_frame74_layer_1"><path d="M1822.197 3.003l-21.604 170.527h-697.714L976.29 222.834H3.003V3.003h1819.194z"/></clipPath></defs><path d="M1822.197 3.003l-21.604 170.527h-697.714L976.29 222.834H3.003V3.003h1819.194z" fill="none" stroke="#111111" stroke-width="6.006583" stroke-miterlimit="10"/><path clip-path="url(#clip_frame74_layer_1)" d="M.871 52.622h1820.647l-8.516 140.12h-706.147L978.75 225.57H.871V52.622z" fill="#111111" stroke-dasharray="0,3950.2430882400254" stroke-dashoffset="3950.243088"/></g><g transform="translate(136875)"><defs><clipPath id="clip_frame75_layer_1"><path d="M1822.197 3.003l-21.604 170.527h-697.714L976.29 222.834H3.003V3.003h1819.194z"/></clipPath></defs><path d="M1822.197 3.003l-21.604 170.527h-697.714L976.29 222.834H3.003V3.003h1819.194z" fill="none" stroke="#111111" stroke-width="6.006583" stroke-miterlimit="10"/><path clip-path="url(#clip_frame75_layer_1)" d="M.866 48.896h1820.877l-8.387 143.156h-706.349l-128.14 33.534H.866V48.896z" fill="#111111" stroke-dasharray="0,3957.7741907033333" stroke-dashoffset="3957.774191"/></g><g transform="translate(138700)"><defs><clipPath id="clip_frame76_layer_1"><path d="M1822.197 3.003l-21.604 170.527h-697.714L976.29 222.834H3.003V3.003h1819.194z"/></clipPath></defs><path d="M1822.197 3.003l-21.604 170.527h-697.714L976.29 222.834H3.003V3.003h1819.194z" fill="none" stroke="#111111" stroke-width="6.006583" stroke-miterlimit="10"/><path clip-path="url(#clip_frame76_layer_1)" d="M.861 45.396h1821.094l-8.266 146.008h-706.54l-128.173 34.197H.861V45.396z" fill="#111111" stroke-dasharray="0,3964.8522341295816" stroke-dashoffset="3964.852234"/></g><g transform="translate(140525)"><defs><clipPath id="clip_frame77_layer_1"><path d="M1822.197 3.003l-21.604 170.527h-697.714L976.29 222.834H3.003V3.003h1819.194z"/></clipPath></defs><path d="M1822.197 3.003l-21.604 170.527h-697.714L976.29 222.834H3.003V3.003h1819.194z" fill="none" stroke="#111111" stroke-width="6.006583" stroke-miterlimit="10"/><path clip-path="url(#clip_frame77_layer_1)" d="M.857 42.107h1821.296l-8.152 148.688h-706.718L979.08 225.616H.857V42.107z" fill="#111111" stroke-dasharray="0,3971.5058551893194" stroke-dashoffset="3971.505855"/></g><g transform="translate(142350)"><defs><clipPath id="clip_frame78_layer_1"><path d="M1822.197 3.003l-21.604 170.527h-697.714L976.29 222.834H3.003V3.003h1819.194z"/></clipPath></defs><path d="M1822.197 3.003l-21.604 170.527h-697.714L976.29 222.834H3.003V3.003h1819.194z" fill="none" stroke="#111111" stroke-width="6.006583" stroke-miterlimit="10"/><path clip-path="url(#clip_frame78_layer_1)" d="M.852 39.016H1822.34l-8.045 151.207h-706.886l-128.233 35.406H.852V39.016z" fill="#111111" stroke-dasharray="0,3977.7616174441882" stroke-dashoffset="3977.761617"/></g><g transform="translate(144175)"><defs><clipPath id="clip_frame79_layer_1"><path d="M1822.197 3.003l-21.604 170.527h-697.714L976.29 222.834H3.003V3.003h1819.194z"/></clipPath></defs><path d="M1822.197 3.003l-21.604 170.527h-697.714L976.29 222.834H3.003V3.003h1819.194z" fill="none" stroke="#111111" stroke-width="6.006583" stroke-miterlimit="10"/><path clip-path="url(#clip_frame79_layer_1)" d="M.849 36.111h1821.667l-7.946 153.574h-707.042l-128.26 35.957H.849V36.111z" fill="#111111" stroke-dasharray="0,3983.644076223305" stroke-dashoffset="3983.644076"/></g><g transform="translate(146000)"><defs><clipPath id="clip_frame80_layer_1"><path d="M1822.197 3.003l-21.604 170.527h-697.714L976.29 222.834H3.003V3.003h1819.194z"/></clipPath></defs><path d="M1822.197 3.003l-21.604 170.527h-697.714L976.29 222.834H3.003V3.003h1819.194z" fill="none" stroke="#111111" stroke-width="6.006583" stroke-miterlimit="10"/><path clip-path="url(#clip_frame80_layer_1)" d="M.845 33.381h1821.836l-7.851 155.798h-707.191l-128.286 36.475H.845V33.381z" fill="#111111" stroke-dasharray="0,3989.1758831688253" stroke-dashoffset="3989.175883"/></g><g transform="translate(147825)"><defs><clipPath id="clip_frame81_layer_1"><path d="M1822.197 3.003l-21.604 170.527h-697.714L976.29 222.834H3.003V3.003h1819.194z"/></clipPath></defs><path d="M1822.197 3.003l-21.604 170.527h-697.714L976.29 222.834H3.003V3.003h1819.194z" fill="none" stroke="#111111" stroke-width="6.006583" stroke-miterlimit="10"/><path clip-path="url(#clip_frame81_layer_1)" d="M.841 30.813h1821.995l-7.762 157.891h-707.33l-128.31 36.961H.841V30.813z" fill="#111111" stroke-dasharray="0,3994.3779109916377" stroke-dashoffset="3994.377911"/></g><g transform="translate(149650)"><defs><clipPath id="clip_frame82_layer_1"><path d="M1822.197 3.003l-21.604 170.527h-697.714L976.29 222.834H3.003V3.003h1819.194z"/></clipPath></defs><path d="M1822.197 3.003l-21.604 170.527h-697.714L976.29 222.834H3.003V3.003h1819.194z" fill="none" stroke="#111111" stroke-width="6.006583" stroke-miterlimit="10"/><path clip-path="url(#clip_frame82_layer_1)" d="M.838 28.4h1822.144l-7.679 159.858h-707.461l-128.333 37.418H.838V28.4z" fill="#111111" stroke-dasharray="0,3999.2693859979036" stroke-dashoffset="3999.269386"/></g><g transform="translate(151475)"><defs><clipPath id="clip_frame83_layer_1"><path d="M1822.197 3.003l-21.604 170.527h-697.714L976.29 222.834H3.003V3.003h1819.194z"/></clipPath></defs><path d="M1822.197 3.003l-21.604 170.527h-697.714L976.29 222.834H3.003V3.003h1819.194z" fill="none" stroke="#111111" stroke-width="6.006583" stroke-miterlimit="10"/><path clip-path="url(#clip_frame83_layer_1)" d="M.835 26.133H1823.12l-7.602 161.705h-707.583l-128.354 37.848H.835V26.133z" fill="#111111" stroke-dasharray="0,4003.8680206368354" stroke-dashoffset="4003.868021"/></g><g transform="translate(153300)"><defs><clipPath id="clip_frame84_layer_1"><path d="M1822.197 3.003l-21.604 170.527h-697.714L976.29 222.834H3.003V3.003h1819.194z"/></clipPath></defs><path d="M1822.197 3.003l-21.604 170.527h-697.714L976.29 222.834H3.003V3.003h1819.194z" fill="none" stroke="#111111" stroke-width="6.006583" stroke-miterlimit="10"/><path clip-path="url(#clip_frame84_layer_1)" d="M.832 24.002h1822.416l-7.527 163.441h-707.699l-128.375 38.252H.832V24.002z" fill="#111111" stroke-dasharray="0,4008.190141423797" stroke-dashoffset="4008.190141"/></g><g transform="translate(155125)"><defs><clipPath id="clip_frame85_layer_1"><path d="M1822.197 3.003l-21.604 170.527h-697.714L976.29 222.834H3.003V3.003h1819.194z"/></clipPath></defs><path d="M1822.197 3.003l-21.604 170.527h-697.714L976.29 222.834H3.003V3.003h1819.194z" fill="none" stroke="#111111" stroke-width="6.006583" stroke-miterlimit="10"/><path clip-path="url(#clip_frame85_layer_1)" d="M.83 22h1822.539l-7.458 165.073h-707.808L979.71 225.704H.83V22z" fill="#111111" stroke-dasharray="0,4012.2508096256247" stroke-dashoffset="4012.25081"/></g><g transform="translate(156950)"><defs><clipPath id="clip_frame86_layer_1"><path d="M1822.197 3.003l-21.604 170.527h-697.714L976.29 222.834H3.003V3.003h1819.194z"/></clipPath></defs><path d="M1822.197 3.003l-21.604 170.527h-697.714L976.29 222.834H3.003V3.003h1819.194z" fill="none" stroke="#111111" stroke-width="6.006583" stroke-miterlimit="10"/><path clip-path="url(#clip_frame86_layer_1)" d="M.827 20.122h1822.656l-7.394 166.603H1108.18l-128.411 38.987H.827V20.122z" fill="#111111" stroke-dasharray="0,4016.063933409216" stroke-dashoffset="4016.063933"/></g><g transform="translate(158775)"><defs><clipPath id="clip_frame87_layer_1"><path d="M1822.197 3.003l-21.604 170.527h-697.714L976.29 222.834H3.003V3.003h1819.194z"/></clipPath></defs><path d="M1822.197 3.003l-21.604 170.527h-697.714L976.29 222.834H3.003V3.003h1819.194z" fill="none" stroke="#111111" stroke-width="6.006583" stroke-miterlimit="10"/><path clip-path="url(#clip_frame87_layer_1)" d="M.825 18.359H1823.59l-7.334 168.04h-708.004L979.824 225.72H.825V18.359z" fill="#111111" stroke-dasharray="0,4019.642370989052" stroke-dashoffset="4019.642371"/></g><g transform="translate(160600)"><defs><clipPath id="clip_frame88_layer_1"><path d="M1822.197 3.003l-21.604 170.527h-697.714L976.29 222.834H3.003V3.003h1819.194z"/></clipPath></defs><path d="M1822.197 3.003l-21.604 170.527h-697.714L976.29 222.834H3.003V3.003h1819.194z" fill="none" stroke="#111111" stroke-width="6.006583" stroke-miterlimit="10"/><path clip-path="url(#clip_frame88_layer_1)" d="M.822 16.706H1823.69l-7.277 169.387h-708.094l-128.443 39.634H.822V16.706z" fill="#111111" stroke-dasharray="0,4022.998024825642" stroke-dashoffset="4022.998025"/></g><g transform="translate(162425)"><defs><clipPath id="clip_frame89_layer_1"><path d="M1822.197 3.003l-21.604 170.527h-697.714L976.29 222.834H3.003V3.003h1819.194z"/></clipPath></defs><path d="M1822.197 3.003l-21.604 170.527h-697.714L976.29 222.834H3.003V3.003h1819.194z" fill="none" stroke="#111111" stroke-width="6.006583" stroke-miterlimit="10"/><path clip-path="url(#clip_frame89_layer_1)" d="M.82 15.158h1822.963l-7.223 170.648h-708.178l-128.457 39.928H.82V15.158z" fill="#111111" stroke-dasharray="0,4026.141927233616" stroke-dashoffset="4026.141927"/></g><g transform="translate(164250)"><defs><clipPath id="clip_frame90_layer_1"><path d="M1822.197 3.003l-21.604 170.527h-697.714L976.29 222.834H3.003V3.003h1819.194z"/></clipPath></defs><path d="M1822.197 3.003l-21.604 170.527h-697.714L976.29 222.834H3.003V3.003h1819.194z" fill="none" stroke="#111111" stroke-width="6.006583" stroke-miterlimit="10"/><path clip-path="url(#clip_frame90_layer_1)" d="M.818 13.709h1823.053l-7.173 171.829h-708.257L979.97 225.74H.818V13.709z" fill="#111111" stroke-dasharray="0,4029.08431792791" stroke-dashoffset="4029.084318"/></g><g transform="translate(166075)"><defs><clipPath id="clip_frame91_layer_1"><path d="M1822.197 3.003l-21.604 170.527h-697.714L976.29 222.834H3.003V3.003h1819.194z"/></clipPath></defs><path d="M1822.197 3.003l-21.604 170.527h-697.714L976.29 222.834H3.003V3.003h1819.194z" fill="none" stroke="#111111" stroke-width="6.006583" stroke-miterlimit="10"/><path clip-path="url(#clip_frame91_layer_1)" d="M.817 12.355h1823.136l-7.126 172.932h-708.331l-128.483 40.459H.817V12.355z" fill="#111111" stroke-dasharray="0,4031.834714118022" stroke-dashoffset="4031.834714"/></g><g transform="translate(167900)"><defs><clipPath id="clip_frame92_layer_1"><path d="M1822.197 3.003l-21.604 170.527h-697.714L976.29 222.834H3.003V3.003h1819.194z"/></clipPath></defs><path d="M1822.197 3.003l-21.604 170.527h-697.714L976.29 222.834H3.003V3.003h1819.194z" fill="none" stroke="#111111" stroke-width="6.006583" stroke-miterlimit="10"/><path clip-path="url(#clip_frame92_layer_1)" d="M.815 11.092h1823.214l-7.082 173.961h-708.399l-128.496 40.698H.815V11.092z" fill="#111111" stroke-dasharray="0,4034.401973785992" stroke-dashoffset="4034.401974"/></g><g transform="translate(169725)"><defs><clipPath id="clip_frame93_layer_1"><path d="M1822.197 3.003l-21.604 170.527h-697.714L976.29 222.834H3.003V3.003h1819.194z"/></clipPath></defs><path d="M1822.197 3.003l-21.604 170.527h-697.714L976.29 222.834H3.003V3.003h1819.194z" fill="none" stroke="#111111" stroke-width="6.006583" stroke-miterlimit="10"/><path clip-path="url(#clip_frame93_layer_1)" d="M.813 9.915H1824.1l-7.042 174.92h-708.462l-128.507 40.922H.813V9.915z" fill="#111111" stroke-dasharray="0,4036.7943527750263" stroke-dashoffset="4036.794353"/></g><g transform="translate(171550)"><defs><clipPath id="clip_frame94_layer_1"><path d="M1822.197 3.003l-21.604 170.527h-697.714L976.29 222.834H3.003V3.003h1819.194z"/></clipPath></defs><path d="M1822.197 3.003l-21.604 170.527h-697.714L976.29 222.834H3.003V3.003h1819.194z" fill="none" stroke="#111111" stroke-width="6.006583" stroke-miterlimit="10"/><path clip-path="url(#clip_frame94_layer_1)" d="M.812 8.82h1823.355l-7.005 175.813H1108.64l-128.517 41.128H.812V8.82z" fill="#111111" stroke-dasharray="0,4039.019556286835" stroke-dashoffset="4039.019556"/></g><g transform="translate(173375)"><defs><clipPath id="clip_frame95_layer_1"><path d="M1822.197 3.003l-21.604 170.527h-697.714L976.29 222.834H3.003V3.003h1819.194z"/></clipPath></defs><path d="M1822.197 3.003l-21.604 170.527h-697.714L976.29 222.834H3.003V3.003h1819.194z" fill="none" stroke="#111111" stroke-width="6.006583" stroke-miterlimit="10"/><path clip-path="url(#clip_frame95_layer_1)" d="M.81 7.804h1823.418l-6.969 176.641h-708.577l-128.527 41.321H.81V7.804z" fill="#111111" stroke-dasharray="0,4041.0847853458713" stroke-dashoffset="4041.084785"/></g><g transform="translate(175200)"><defs><clipPath id="clip_frame96_layer_1"><path d="M1822.197 3.003l-21.604 170.527h-697.714L976.29 222.834H3.003V3.003h1819.194z"/></clipPath></defs><path d="M1822.197 3.003l-21.604 170.527h-697.714L976.29 222.834H3.003V3.003h1819.194z" fill="none" stroke="#111111" stroke-width="6.006583" stroke-miterlimit="10"/><path clip-path="url(#clip_frame96_layer_1)" d="M.809 6.864h1823.476l-6.937 177.407H1108.72L980.185 225.77H.809V6.864z" fill="#111111" stroke-dasharray="0,4042.996778743805" stroke-dashoffset="4042.996779"/></g><g transform="translate(177025)"><defs><clipPath id="clip_frame97_layer_1"><path d="M1822.197 3.003l-21.604 170.527h-697.714L976.29 222.834H3.003V3.003h1819.194z"/></clipPath></defs><path d="M1822.197 3.003l-21.604 170.527h-697.714L976.29 222.834H3.003V3.003h1819.194z" fill="none" stroke="#111111" stroke-width="6.006583" stroke-miterlimit="10"/><path clip-path="url(#clip_frame97_layer_1)" d="M.808 5.996h1823.529l-6.906 178.114h-708.675l-128.544 41.664H.808V5.996z" fill="#111111" stroke-dasharray="0,4044.761850931432" stroke-dashoffset="4044.761851"/></g><g transform="translate(178850)"><defs><clipPath id="clip_frame98_layer_1"><path d="M1822.197 3.003l-21.604 170.527h-697.714L976.29 222.834H3.003V3.003h1819.194z"/></clipPath></defs><path d="M1822.197 3.003l-21.604 170.527h-697.714L976.29 222.834H3.003V3.003h1819.194z" fill="none" stroke="#111111" stroke-width="6.006583" stroke-miterlimit="10"/><path clip-path="url(#clip_frame98_layer_1)" d="M.807 5.197h1823.579l-6.88 178.765h-708.718l-128.551 41.815H.807V5.197z" fill="#111111" stroke-dasharray="0,4046.385926280139" stroke-dashoffset="4046.385926"/></g><g transform="translate(180675)"><defs><clipPath id="clip_frame99_layer_1"><path d="M1822.197 3.003l-21.604 170.527h-697.714L976.29 222.834H3.003V3.003h1819.194z"/></clipPath></defs><path d="M1822.197 3.003l-21.604 170.527h-697.714L976.29 222.834H3.003V3.003h1819.194z" fill="none" stroke="#111111" stroke-width="6.006583" stroke-miterlimit="10"/><path clip-path="url(#clip_frame99_layer_1)" d="M.806 4.465H1824.43l-6.854 179.362h-708.758L980.26 225.78H.806V4.465z" fill="#111111" stroke-dasharray="0,4047.8745700922805" stroke-dashoffset="4047.87457"/></g><g transform="translate(182500)"><defs><clipPath id="clip_frame100_layer_1"><path d="M1822.197 3.003l-21.604 170.527h-697.714L976.29 222.834H3.003V3.003h1819.194z"/></clipPath></defs><path d="M1822.197 3.003l-21.604 170.527h-697.714L976.29 222.834H3.003V3.003h1819.194z" fill="none" stroke="#111111" stroke-width="6.006583" stroke-miterlimit="10"/><path clip-path="url(#clip_frame100_layer_1)" d="M.805 3.797H1824.47l-6.831 179.906h-708.794l-128.564 42.08H.805V3.797z" fill="#111111" stroke-dasharray="0,4049.2330167002015" stroke-dashoffset="4049.233017"/></g><g transform="translate(184325)"><defs><clipPath id="clip_frame101_layer_1"><path d="M1822.197 3.003l-21.604 170.527h-697.714L976.29 222.834H3.003V3.003h1819.194z"/></clipPath></defs><path d="M1822.197 3.003l-21.604 170.527h-697.714L976.29 222.834H3.003V3.003h1819.194z" fill="none" stroke="#111111" stroke-width="6.006583" stroke-miterlimit="10"/><path clip-path="url(#clip_frame101_layer_1)" d="M.804 3.191h1823.703l-6.81 180.4H1108.87L980.3 225.786H.804V3.191z" fill="#111111" stroke-dasharray="0,4050.466194957281" stroke-dashoffset="4050.466195"/></g><g transform="translate(186150)"><defs><clipPath id="clip_frame102_layer_1"><path d="M1822.197 3.003l-21.604 170.527h-697.714L976.29 222.834H3.003V3.003h1819.194z"/></clipPath></defs><path d="M1822.197 3.003l-21.604 170.527h-697.714L976.29 222.834H3.003V3.003h1819.194z" fill="none" stroke="#111111" stroke-width="6.006583" stroke-miterlimit="10"/><path clip-path="url(#clip_frame102_layer_1)" d="M.804 2.644H1824.54l-6.791 180.845h-708.857l-128.575 42.299H.804V2.644z" fill="#111111" stroke-dasharray="0,4051.5787513915507" stroke-dashoffset="4051.578751"/></g><g transform="translate(187975)"><defs><clipPath id="clip_frame103_layer_1"><path d="M1822.197 3.003l-21.604 170.527h-697.714L976.29 222.834H3.003V3.003h1819.194z"/></clipPath></defs><path d="M1822.197 3.003l-21.604 170.527h-697.714L976.29 222.834H3.003V3.003h1819.194z" fill="none" stroke="#111111" stroke-width="6.006583" stroke-miterlimit="10"/><path clip-path="url(#clip_frame103_layer_1)" d="M.803 2.154H1824.57l-6.775 181.245h-708.883l-128.58 42.392H.803V2.154z" fill="#111111" stroke-dasharray="0,4052.5750712628037" stroke-dashoffset="4052.575071"/></g><g transform="translate(189800)"><defs><clipPath id="clip_frame104_layer_1"><path d="M1822.197 3.003l-21.604 170.527h-697.714L976.29 222.834H3.003V3.003h1819.194z"/></clipPath></defs><path d="M1822.197 3.003l-21.604 170.527h-697.714L976.29 222.834H3.003V3.003h1819.194z" fill="none" stroke="#111111" stroke-width="6.006583" stroke-miterlimit="10"/><path clip-path="url(#clip_frame104_layer_1)" d="M.802 1.719h1823.794l-6.759 181.599H1108.93l-128.584 42.474H.802V1.719z" fill="#111111" stroke-dasharray="0,4053.459297737689" stroke-dashoffset="4053.459298"/></g><g transform="translate(191625)"><defs><clipPath id="clip_frame105_layer_1"><path d="M1822.197 3.003l-21.604 170.527h-697.714L976.29 222.834H3.003V3.003h1819.194z"/></clipPath></defs><path d="M1822.197 3.003l-21.604 170.527h-697.714L976.29 222.834H3.003V3.003h1819.194z" fill="none" stroke="#111111" stroke-width="6.006583" stroke-miterlimit="10"/><path clip-path="url(#clip_frame105_layer_1)" d="M.802 1.338h1823.817l-6.746 181.91h-708.928l-128.587 42.546H.802V1.338z" fill="#111111" stroke-dasharray="0,4054.235349373674" stroke-dashoffset="4054.235349"/></g><g transform="translate(193450)"><defs><clipPath id="clip_frame106_layer_1"><path d="M1822.197 3.003l-21.604 170.527h-697.714L976.29 222.834H3.003V3.003h1819.194z"/></clipPath></defs><path d="M1822.197 3.003l-21.604 170.527h-697.714L976.29 222.834H3.003V3.003h1819.194z" fill="none" stroke="#111111" stroke-width="6.006583" stroke-miterlimit="10"/><path clip-path="url(#clip_frame106_layer_1)" d="M.801 1.008h1823.838l-6.735 182.179h-708.945l-128.591 42.609H.801V1.008z" fill="#111111" stroke-dasharray="0,4054.9069360817907" stroke-dashoffset="4054.906936"/></g><g transform="translate(195275)"><defs><clipPath id="clip_frame107_layer_1"><path d="M1822.197 3.003l-21.604 170.527h-697.714L976.29 222.834H3.003V3.003h1819.194z"/></clipPath></defs><path d="M1822.197 3.003l-21.604 170.527h-697.714L976.29 222.834H3.003V3.003h1819.194z" fill="none" stroke="#111111" stroke-width="6.006583" stroke-miterlimit="10"/><path clip-path="url(#clip_frame107_layer_1)" d="M.801.727h1823.855l-6.725 182.408H1108.97l-128.593 42.662H.801V.727z" fill="#111111" stroke-dasharray="0,4055.4775737194736" stroke-dashoffset="4055.477574"/></g><g transform="translate(197100)"><defs><clipPath id="clip_frame108_layer_1"><path d="M1822.197 3.003l-21.604 170.527h-697.714L976.29 222.834H3.003V3.003h1819.194z"/></clipPath></defs><path d="M1822.197 3.003l-21.604 170.527h-697.714L976.29 222.834H3.003V3.003h1819.194z" fill="none" stroke="#111111" stroke-width="6.006583" stroke-miterlimit="10"/><path clip-path="url(#clip_frame108_layer_1)" d="M.801.495H1824.67l-6.717 182.597H1108.98l-128.596 42.706H.801V.495z" fill="#111111" stroke-dasharray="0,4055.950597448315" stroke-dashoffset="4055.950597"/></g><g transform="translate(198925)"><defs><clipPath id="clip_frame109_layer_1"><path d="M1822.197 3.003l-21.604 170.527h-697.714L976.29 222.834H3.003V3.003h1819.194z"/></clipPath></defs><path d="M1822.197 3.003l-21.604 170.527h-697.714L976.29 222.834H3.003V3.003h1819.194z" fill="none" stroke="#111111" stroke-width="6.006583" stroke-miterlimit="10"/><path clip-path="url(#clip_frame109_layer_1)" d="M.8.309h1823.881l-6.71 182.748h-708.984L980.39 225.799H.8V.309z" fill="#111111" stroke-dasharray="0,4056.329173976926" stroke-dashoffset="4056.329174"/></g><g transform="translate(200750)"><defs><clipPath id="clip_frame110_layer_1"><path d="M1822.197 3.003l-21.604 170.527h-697.714L976.29 222.834H3.003V3.003h1819.194z"/></clipPath></defs><path d="M1822.197 3.003l-21.604 170.527h-697.714L976.29 222.834H3.003V3.003h1819.194z" fill="none" stroke="#111111" stroke-width="6.006583" stroke-miterlimit="10"/><path clip-path="url(#clip_frame110_layer_1)" d="M.8.168h1823.89l-6.706 182.863h-708.991l-128.598 42.768H.8V.168z" fill="#111111" stroke-dasharray="0,4056.616312796195" stroke-dashoffset="4056.616313"/></g><g transform="translate(202575)"><defs><clipPath id="clip_frame111_layer_1"><path d="M1822.197 3.003l-21.604 170.527h-697.714L976.29 222.834H3.003V3.003h1819.194z"/></clipPath></defs><path d="M1822.197 3.003l-21.604 170.527h-697.714L976.29 222.834H3.003V3.003h1819.194z" fill="none" stroke="#111111" stroke-width="6.006583" stroke-miterlimit="10"/><path clip-path="url(#clip_frame111_layer_1)" d="M.8.07h1823.896l-6.703 182.943h-708.996L980.398 225.8H.8V.07z" fill="#111111" stroke-dasharray="0,4056.814876502751" stroke-dashoffset="4056.814877"/></g><g transform="translate(204400)"><defs><clipPath id="clip_frame112_layer_1"><path d="M1822.197 3.003l-21.604 170.527h-697.714L976.29 222.834H3.003V3.003h1819.194z"/></clipPath></defs><path d="M1822.197 3.003l-21.604 170.527h-697.714L976.29 222.834H3.003V3.003h1819.194z" fill="none" stroke="#111111" stroke-width="6.006583" stroke-miterlimit="10"/><path clip-path="url(#clip_frame112_layer_1)" d="M.8.015h1823.899l-6.7 182.988h-709L980.4 225.8H.8V.015z" fill="#111111" stroke-dasharray="0,4056.9275902963204" stroke-dashoffset="4056.92759"/></g><g transform="translate(206225)"><defs><clipPath id="clip_frame113_layer_1"><path d="M1822.197 3.003l-21.604 170.527h-697.714L976.29 222.834H3.003V3.003h1819.194z"/></clipPath></defs><path d="M1822.197 3.003l-21.604 170.527h-697.714L976.29 222.834H3.003V3.003h1819.194z" fill="none" stroke="#111111" stroke-width="6.006583" stroke-miterlimit="10"/><path clip-path="url(#clip_frame113_layer_1)" d="M.8 0h1823.9l-6.7 183h-709l-128.6 42.8H.8V0z" fill="#111111" stroke-dasharray="0,4056.9578444705385" stroke-dashoffset="4056.957844"/></g><g transform="translate(208050)"><defs><clipPath id="clip_frame114_layer_1"><path d="M1822.197 3.003l-21.604 170.527h-697.714L976.29 222.834H3.003V3.003h1819.194z"/></clipPath></defs><path d="M1822.197 3.003l-21.604 170.527h-697.714L976.29 222.834H3.003V3.003h1819.194z" fill="none" stroke="#111111" stroke-width="6.006583" stroke-miterlimit="10"/><path clip-path="url(#clip_frame114_layer_1)" d="M.8 0h1823.9l-6.7 183h-709l-128.6 42.8H.8V0z" fill="#111111" stroke-dasharray="0,4056.9578444705385" stroke-dashoffset="4056.957844"/></g><g transform="translate(209875)"><defs><clipPath id="clip_frame115_layer_1"><path d="M1822.197 3.003l-21.604 170.527h-697.714L976.29 222.834H3.003V3.003h1819.194z"/></clipPath></defs><path d="M1822.197 3.003l-21.604 170.527h-697.714L976.29 222.834H3.003V3.003h1819.194z" fill="none" stroke="#111111" stroke-width="6.006583" stroke-miterlimit="10"/><path clip-path="url(#clip_frame115_layer_1)" d="M.8 0h1823.9l-6.7 183h-709l-128.6 42.8H.8V0z" fill="#111111" stroke-dasharray="0,4056.9578444705385" stroke-dashoffset="4056.957844"/></g><g transform="translate(211700)"><defs><clipPath id="clip_frame116_layer_1"><path d="M1822.197 3.003l-21.604 170.527h-697.714L976.29 222.834H3.003V3.003h1819.194z"/></clipPath></defs><path d="M1822.197 3.003l-21.604 170.527h-697.714L976.29 222.834H3.003V3.003h1819.194z" fill="none" stroke="#111111" stroke-width="6.006583" stroke-miterlimit="10"/><path clip-path="url(#clip_frame116_layer_1)" d="M.8 0h1823.9l-6.7 183h-709l-128.6 42.8H.8V0z" fill="#111111" stroke-dasharray="0,4056.9578444705385" stroke-dashoffset="4056.957844"/></g><g transform="translate(213525)"><defs><clipPath id="clip_frame117_layer_1"><path d="M1822.197 3.003l-21.604 170.527h-697.714L976.29 222.834H3.003V3.003h1819.194z"/></clipPath></defs><path d="M1822.197 3.003l-21.604 170.527h-697.714L976.29 222.834H3.003V3.003h1819.194z" fill="none" stroke="#111111" stroke-width="6.006583" stroke-miterlimit="10"/><path clip-path="url(#clip_frame117_layer_1)" d="M.8 0h1823.9l-6.7 183h-709l-128.6 42.8H.8V0z" fill="#111111" stroke-dasharray="0,4056.9578444705385" stroke-dashoffset="4056.957844"/></g><g transform="translate(215350)"><defs><clipPath id="clip_frame118_layer_1"><path d="M1822.197 3.003l-21.604 170.527h-697.714L976.29 222.834H3.003V3.003h1819.194z"/></clipPath></defs><path d="M1822.197 3.003l-21.604 170.527h-697.714L976.29 222.834H3.003V3.003h1819.194z" fill="none" stroke="#111111" stroke-width="6.006583" stroke-miterlimit="10"/><path clip-path="url(#clip_frame118_layer_1)" d="M.8 0h1823.9l-6.7 183h-709l-128.6 42.8H.8V0z" fill="#111111" stroke-dasharray="0,4056.9578444705385" stroke-dashoffset="4056.957844"/></g><g transform="translate(217175)"><defs><clipPath id="clip_frame119_layer_1"><path d="M1822.197 3.003l-21.604 170.527h-697.714L976.29 222.834H3.003V3.003h1819.194z"/></clipPath></defs><path d="M1822.197 3.003l-21.604 170.527h-697.714L976.29 222.834H3.003V3.003h1819.194z" fill="none" stroke="#111111" stroke-width="6.006583" stroke-miterlimit="10"/><path clip-path="url(#clip_frame119_layer_1)" d="M.8 0h1823.9l-6.7 183h-709l-128.6 42.8H.8V0z" fill="#111111" stroke-dasharray="0,4056.9578444705385" stroke-dashoffset="4056.957844"/></g><g transform="translate(219000)"><defs><clipPath id="clip_frame120_layer_1"><path d="M1822.197 3.003l-21.604 170.527h-697.714L976.29 222.834H3.003V3.003h1819.194z"/></clipPath></defs><path d="M1822.197 3.003l-21.604 170.527h-697.714L976.29 222.834H3.003V3.003h1819.194z" fill="none" stroke="#111111" stroke-width="6.006583" stroke-miterlimit="10"/><path clip-path="url(#clip_frame120_layer_1)" d="M.8 0h1823.9l-6.7 183h-709l-128.6 42.8H.8V0z" fill="#111111" stroke-dasharray="0,4056.9578444705385" stroke-dashoffset="4056.957844"/></g></svg>