<svg xmlns="http://www.w3.org/2000/svg" width="485" height="485" viewBox="0 0 485 485">
  <g id="GitHubSelf" transform="translate(-751 -755)">
    <g id="Ellipse_1" data-name="Ellipse 1" transform="translate(751 755)" fill="none" stroke="#fff" stroke-width="30">
      <circle cx="242.5" cy="242.5" r="242.5" stroke="none"/>
      <circle cx="242.5" cy="242.5" r="227.5" fill="none"/>
    </g>
    <path id="Subtraction_1" data-name="Subtraction 1" d="M113.5,197.342a179.061,179.061,0,0,1-42.623-4.8c-13.4-3.3-25.111-8.231-34.806-14.666A71.224,71.224,0,0,1,12.6,152.955C6.895,142.591,4,130.627,4,117.4a75.094,75.094,0,0,1,5.316-28.6,65.886,65.886,0,0,1,14.83-22c-.447-3.24-.881-6.249-1.3-9.158l0-.015c-1.244-8.627-2.226-15.441-2.569-21.379C19.9,29.825,20.334,25.125,21.668,21c8.05,1.067,17.028,4.623,26.686,10.569A131.388,131.388,0,0,1,65.431,44.184c14.3-4.077,30.474-6.144,48.069-6.144,17.745,0,34.039,2.1,48.428,6.247a131.283,131.283,0,0,1,17.037-12.621c9.717-6,18.748-9.593,26.842-10.666,1.335,4.126,1.765,8.826,1.395,15.241-.343,5.938-1.325,12.752-2.569,21.378v.005c-.438,3.041-.892,6.186-1.359,9.585A65.772,65.772,0,0,1,217.8,89.07,75.23,75.23,0,0,1,223,117.4c0,13.23-2.9,25.194-8.605,35.558a71.224,71.224,0,0,1-23.467,24.918c-9.7,6.435-21.406,11.369-34.806,14.666A179.061,179.061,0,0,1,113.5,197.342ZM160.5,85.4c-3.873,0-7.514,2.392-10.253,6.737A30.856,30.856,0,0,0,146,108.4a30.854,30.854,0,0,0,4.247,16.263c2.739,4.344,6.38,6.737,10.253,6.737s7.514-2.392,10.253-6.737A30.854,30.854,0,0,0,175,108.4a30.856,30.856,0,0,0-4.247-16.264C168.015,87.79,164.374,85.4,160.5,85.4Zm-93,0c-3.873,0-7.514,2.392-10.253,6.737A30.855,30.855,0,0,0,53,108.4a30.853,30.853,0,0,0,4.247,16.263C59.986,129,63.627,131.4,67.5,131.4s7.515-2.392,10.253-6.737A30.852,30.852,0,0,0,82,108.4a30.854,30.854,0,0,0-4.247-16.264C75.015,87.79,71.373,85.4,67.5,85.4Z" transform="translate(880 888.603)" fill="#fff"/>
  </g>
</svg>
