<svg xmlns="http://www.w3.org/2000/svg" viewBox="0 0 138.53 138.53"><defs><style>.cls-1{fill:#fff;}.cls-2{fill:none;stroke:#fff;stroke-miterlimit:10;stroke-width:11.75px;}.cls-3{fill:#e75d6e;}</style></defs><title>Asset 1</title><g id="Layer_2" data-name="Layer 2"><g id="Body"><rect class="cls-1" x="43.88" y="43.54" width="51.12" height="51.12" transform="translate(69.2 -28.86) rotate(45)"/><rect class="cls-2" x="26.17" y="26.17" width="86.2" height="86.2" transform="translate(69.27 -28.69) rotate(45)"/><path class="cls-3" d="M32.51,81.17c.11-.3.26-.75.42-1.12l-.44,1.19Z"/><path class="cls-3" d="M32.65,80.85c-.16.4-.34.81-.53,1.2l.27-.58c-.25.62-.54,1.29-.66,1.5C31.91,82.69,32.35,81.53,32.65,80.85Z"/><path class="cls-3" d="M32.23,81.79c0-.09-.35.68-.45.93Z"/><path class="cls-3" d="M33.86,78.24l-.25.48C33.73,78.5,33.82,78.32,33.86,78.24Z"/><path class="cls-3" d="M33.61,78.72l-.07.12,0,0Z"/><path class="cls-3" d="M28.79,88c.31-.57.12-.21.25-.45l-.49,1c.17-.31.43-.8.68-1.29-.3.61,0,.06,0,.1l-.46.87L29.41,87l-.13.25c.71-1.33.56-1,1-1.8l.22-.45a29.35,29.35,0,0,0,1.4-2.61c-.14.24.6-1.27-.25.41.34-.68-.17.3.32-.66.2-.43-.67,1.26-.7,1.28l.56-1.09.24-.44.19-.38c.21-.42.06-.12.5-1L32,82c-.11.22,0,0,0,0l-.5,1a6.69,6.69,0,0,1-.6,1.06c-.06.11,0,0,.21-.42.08-.16.27-.53.39-.74-.21.38-.85,1.63-.76,1.44l.81-1.57c-.86,1.66.15-.29-.36.67l.54-1c.14-.28-.33.63-.32.61l.7-1.34c-.67,1.28.13-.26.34-.68l-.66,1.26.37-.7c-.18.33-.49.93-.51,1l.59-1.13s-.06.11.13-.26c-.19.37-.34.64-.59,1.13.16-.32.8-1.55,1.3-2.49l.62-1.17-.19.36.73-1.4c.25-.48-.06.09-.28.51l-.32.61L34,78c-.18.35-.66,1.24-1,1.9.4-.75.16-.29.73-1.38l-.47.89c.38-.72-.34.62-.06.1l.33-.63c-.15.29.4-.75.22-.41l.52-1,.27-.5-.64,1.18.41-.76-.57,1.06.17-.31-.55,1c0-.09.66-1.24.49-.92s-.14.25.07-.14l-.77,1.41c.35-.65-.17.29-.79,1.42l-.94,1.72c-.14.27.15-.27.15-.27l-1.12,2.07.49-.9.23-.43-.79,1.45c.41-.74.07-.13-.13.25l.55-1-.92,1.69.5-.91c-.31.57.05-.11-.79,1.46l.31-.57-.49.91-.06.11c-.11.22-.33.62-.55,1,.09-.16,1.62-3,1.67-3.06l-.32.59.34-.63-.41.75c1.1-2-.09.2.49-.86-.08.15-.41.77-.47.9l.49-.91c-.5.93-.8,1.52-1.92,3.63.37-.7.1-.19.49-.91.51-.94-.25.49-.53,1l.54-1c-.36.69.6-1.12.29-.51l-.37.69c.5-.92.21-.34.32-.52l-.85,1.74.18-.33c-.44.85,0,.07-.2.45Z"/><path class="cls-3" d="M33.28,79.54l.39-.77-.27.53Z"/><polygon class="cls-3" points="32.08 81.89 32.27 81.53 32.24 81.59 32.08 81.89"/><polygon class="cls-3" points="32.66 80.62 32.6 80.74 32.94 80.1 32.66 80.62"/><path class="cls-3" d="M34.27,77.47l.27-.5-.21.38Z"/><path class="cls-3" d="M35.91,74.39l-.66,1.22Z"/><path class="cls-3" d="M34.84,76.37s.09-.16.2-.36C35.36,75.4,35,76.1,34.84,76.37Z"/><path class="cls-3" d="M93,41c.5-.48-.4-.35-1.18-.22l-.25,1Z"/><path class="cls-3" d="M89.65,42.46l-1.21,1.59,1-1c1.48-.35.24.85-.17,1.24C91.24,43,89.54,43,89.65,42.46Z"/><path class="cls-3" d="M86.83,44.79c-1,.55-.49.83,0,.73C86.8,45.29,87.34,44.69,86.83,44.79Z"/><path class="cls-3" d="M56.69,45.65c.31.22.64.54.51.63.21.06.35.09.32,0S57.28,45.91,56.69,45.65Z"/><path class="cls-3" d="M57.2,46.28l-.29-.07.24.1S57.18,46.29,57.2,46.28Z"/><path class="cls-3" d="M47.11,70.3l0,.28c0,.09,0,.16,0,.33s0,.55.07.81a12.54,12.54,0,0,0,.26,1.55,6.87,6.87,0,0,0,.7,1.85,5.47,5.47,0,0,0,2.55,2.35A5.83,5.83,0,0,0,54,78.58a5.38,5.38,0,0,0,1.6-.55,4.09,4.09,0,0,0,.65-.44,1.12,1.12,0,0,0,.37-.49,2.31,2.31,0,0,1,.47-.95,7.88,7.88,0,0,0,2.36-1.88c.69-.77,1.2-1.49,1.42-1.72.52-.14,0,.69-.07,1,1-1.47.44-1.8,1.69-3.32l.16.09c2.19-4.1,6.38-8.14,9.82-11.94-.28.21-.31.05-.5,0,2-1.89,4.15-3.8,6.23-5.66a42.53,42.53,0,0,0,5.44-5.51c-2.4,1.71-7.13,3.86-8.76,6.7-1.17.33-2.06,2-2.84,1.77-3.46,2.65-3.93,4.72-6.78,7.69-.49.34-.53-.09-.87-.18.67-.87,1.37-1.73,2.08-2.58-.53.42-1.08.82-1.61,1.25.4-.83,2.07-2.18,1.83-2.78-1.6,2.51-5.17,5.53-6.16,8,.88-.81,1.73-2,2.71-3,.57-.32,1.35-.89,1.53-.63a37,37,0,0,1-3.3,4.59c-1.16,1.4-2.33,2.88-3.78,4.56-.71.86-2,1.82-2.33,1.67.53-.54-.07-.4.3-.89-.52.6-.4.84-.36,1.11a.55.55,0,0,1-.2.49,2.24,2.24,0,0,1-.54.38,3.15,3.15,0,0,1-1.45.35,3.1,3.1,0,0,0,.45-1.15,1.33,1.33,0,0,1-1.55.29,2.33,2.33,0,0,1-1.29-1.42,5.84,5.84,0,0,1-.26-1.54,6.15,6.15,0,0,0-.18-1.37c.24-.27.4-.14.49.21s.13,1,.29,1.63a6.28,6.28,0,0,0-.24-1.52,2.76,2.76,0,0,1-.18-1.2l.84,1.09c-.8-1.2.37-2,.75-2.57-.21-.1-1,.39-.72-1,.21-.58.39-.23.55-.35a1.64,1.64,0,0,1-.37-1.62c.34-.11.33.7.63.82a3.45,3.45,0,0,1,.55-1.69c0-1.26-.45,0-.6-.84.68-1.8,1.09.08,1.9-.44.06,1.48-.18,3.24-.06,4,.08-.87.18-1.75.31-2.63.31.23,1-1.59,1-.15a31.21,31.21,0,0,0,1.17-4.08c.24-1,.48-2.07.72-3.08s.42-2,.6-2.9c-.29.58-.57,1.26-.8,1.22a3.08,3.08,0,0,1,1.14-2.24,1.17,1.17,0,0,0-.1-.62.45.45,0,0,0-.34-.15c-.26,0-.56,0-.77-.11a9.63,9.63,0,0,0,.52-1.56c.1-.41.16-.72.21-1,.08-.59.31-1.17.43-2.26l-.44.62a1,1,0,0,0-.59-1.23c-.37-.17-.83-.3-1.44-.59,0-.14.62-.2,1.12-.08a4,4,0,0,1-1.13-.5,1,1,0,0,0-1.06-.06A5.4,5.4,0,0,1,56,44.91c-1-.11-2.3.57-1.61-.25-.43.24-1,.66-1.58,1s-1.18.69-1.79,1a4.48,4.48,0,0,0-1,.7l-1,.84a20.34,20.34,0,0,0-1.77,1.65v-.71a13.67,13.67,0,0,1-2.54,2.75c-.23.22-.55.5-.7.67s-.3.34-.43.51a2,2,0,0,0-.44,1l-.27,0c-.33.67-.65,1.35-.94,2-.69.66-1.07-.13-1,.08a22.75,22.75,0,0,1-3.44,3.76c.34.73-.93,2.52-2,3.91-2.84,3.06-5.52,6.41-8.23,9.6a83.49,83.49,0,0,1-8.43,8.81,14.87,14.87,0,0,0-1.47,1.44A5.18,5.18,0,0,1,15.3,85a3.88,3.88,0,0,0,2.08-.58c.47-.28.89-.6,1.66-1.1,1.23-.6,2-.32,3.26-.65l-.85-.13c1.15-1.49,1.22-.5,1.92-1.91l.59.8c.06-.73,1.32-1.22,1.87-1.41l-.11-.83c1.08-.51,1.75-.9,2.44-.71l-.52-.37c.58,0,3-3.2,2.86-1.48a2.13,2.13,0,0,1,.64-1.28l.53.34c.61-.88,1.3-1.83,1.75-1.83a1.48,1.48,0,0,0-.1,1.18c3-3.28-.89-2,1.57-5l.28.29.31-1,1.05-.46c-.17-2,3.53-4,4.45-6.26.5-.77,1.9-1.11,3-2.43l-.54-.34c.71-.28,2-1.33,3.33-2.18q.51-.33,1-.63l.5-.27a.56.56,0,0,1,.26,0,1,1,0,0,1,.72.57c0-.63-.06-.12-.27-.6.12-.57.32-.61.41-.41a2.89,2.89,0,0,1,.11.9c.07-.27.09-.37.06-.45a1.08,1.08,0,0,1,0-.58c.14.21.23-.11.44-.55s.52-1,.73-.75c-.27.69-.41.57-.63,1.06a1.84,1.84,0,0,1,.66-.75c.23-.13.49-.07.55.14a1.59,1.59,0,0,1-.12.67,2.47,2.47,0,0,0-.13.58c-.17.24-.35.52-.55.81a3.15,3.15,0,0,0-.53.89c-.82,2.2-1.66,4.55-2.38,6.75l.21.13A7.6,7.6,0,0,0,47,68.07c0,.53-.1,1.07-.14,1.63,0,.28,0,.57-.08.85l0,.25,0,.37c0,.25,0,.5,0,.75a8,8,0,0,1,.15-1,1.89,1.89,0,0,1,.11-.37Z"/><path class="cls-3" d="M66.91,58l-.61-.16c-.4.53-.77,1.08-1.14,1.62C66,59.18,66,58.63,66.91,58Z"/><polygon class="cls-3" points="67.73 59.43 68.28 58.56 67.14 59.7 67.73 59.43"/><path class="cls-3" d="M52.21,70.91l-.09.23a3.15,3.15,0,0,0,.46,1.46c.28.39.45.29.6.19a.36.36,0,0,1-.25.06.72.72,0,0,1-.35-.34A3.56,3.56,0,0,1,52.21,70.91Z"/><path class="cls-3" d="M57.13,45.24c.62-.05,1.18.54,1.57.79a3.67,3.67,0,0,0-1.8-1Z"/><path class="cls-3" d="M39.3,54c.25,1.15-.91,1,.34.91C40.23,54,39.33,54.4,39.3,54Z"/><path class="cls-3" d="M37.72,57.84a2.48,2.48,0,0,0,.63-1.12C37.51,57,37.86,57.38,37.72,57.84Z"/><path class="cls-3" d="M74.24,93.33c.17.26.5,0,.78-.26l-.74-.34Z"/><path class="cls-3" d="M74.63,92l-.71-.79.32.54c-.48.49-.84-.19-1-.42C73.35,92.28,74.19,91.82,74.63,92Z"/><path class="cls-3" d="M74.19,90.62c.13-.43-.41-.39-.61-.23C73.8,90.45,74,90.77,74.19,90.62Z"/><path class="cls-3" d="M83.26,65.14c-.14.08-.25.2-.39.14C83,65.45,83.09,65.51,83.26,65.14Z"/><path class="cls-3" d="M82.87,65.28l-.06-.11s0,0,0,.09Z"/><path class="cls-3" d="M74.24,71.89c.24.58-.08.78,0,1.27l-.7.07c.07.54.47.37.7.81-.53.33-.43,1.38-.52,1.58-.33.06-.35-.3-.51-.42,0,.64.67.76.48,1.48l-.18,0c.42,2-.4,4.08-.29,6.15.07-.12.19-.06.33-.08-.26,2.08-.73,4.48.52,6.37,0-1.14,1.41-2.77.53-4.12.55-.31,0-1.09.72-1.11.66-1.5-.32-2.42.06-3.94.17-.19.45,0,.77,0V81.2l.44-.66c.2.38-.2,1.09.35,1.33-.42-1.21.56-2.73,0-3.85a8,8,0,0,0-.43,1.45c-.26.17-.5.47-.8.37-.5-1.69.27-2.77.42-4.32,0-.39.23-.88.54-.86,0,.28.34.16.42.4-.1-.59-1.07-.36-.73-1.08l1,.4c-1-.62.46-.87,0-1.59.47-.07.61.35.52.77.32-.41-.28-.63-.15-1l.79.61c-.74-.64.37-.66.72-.8-.21-.09-1-.08-.75-.57.18-.18.37,0,.51,0-.21-.1-.56-.39-.49-.73.32,0,.39.35.68.46.06-.25.06-.47.36-.58-.12-.51-.44-.1-.68-.46.41-.61,1,.23,1.75.17a14.45,14.45,0,0,1,.37,1.67l0-1c.33.16.79-.48,1,.13a5.67,5.67,0,0,0,.55-3.18c-.16.1-.29.25-.5.16-.06-.55.36-.36.64-.39-.14-.43-.75-.56-1.14-.91.73-.59.45-.78,1.36-1.19l-.61-.14c.61-.3-.28-.63.22-1,.13,0,.23.24.33.43-.07-.48.62-.24.51-.72l.58.52c.07-.34,0-.88.53-.54-.52-.78,0-1.71-.14-2.54l.5.2c-.52-.56.43-1.36-.23-1.9h.23l-.49-1c.16-.31.92,0,.71-.06a2.71,2.71,0,0,1,.6-1.76c-.66-.32-.62-1.15-.53-1.79a22.39,22.39,0,0,0,1.57-9.19c.09-.42-.52-1.22-.7-1.83-.36.58,0,.74-.21,1.36-.31.41-1.09.38-1.65.65l.65,0c.29.77-.44.35,0,1l-.94-.3c.43.32-.1.64-.39.75l.61.35a1.83,1.83,0,0,1-1.34.46l.61.13c-.42,0-.38,1.55-1.26.78.1.15.38.35.24.58l-.62-.14c0,.41,0,.85-.32.85a1.17,1.17,0,0,0-.57-.52c-.56,1.51,1.87.9,1.53,2.28l-.39-.13.31.46-.6.22c1.19.88-.67,1.87-.21,2.9,0,.35-.9.55-1,1.19l.61.13c-.75.32-1.68,2-3.2,2.11.33.6.14,0,.61.13.36,1.09-.6.88-1.1,1.25.14.65.36-.36.72.08-.7.72.54.91-.17,1.85-.37,0-.15-.34-.34-.52.39.93-.39,2.2-.59,3.35-.79,1.14-1.51,3-2.48,4.28l.21.1c-.74.45-.42,1.27-.88,1.92Z"/><path class="cls-3" d="M77.48,82.37H78l-.18-.77C77.35,81.78,77.68,82,77.48,82.37Z"/><polygon class="cls-3" points="75.93 81.82 76.09 82.24 76.19 81.65 75.93 81.82"/><polygon class="cls-3" points="79.14 73.41 79.03 73.48 79.09 74.9 79.14 73.41"/><path class="cls-3" d="M83.77,65.34c.23.22,0,.4.19.61l-.08-.68Z"/><path class="cls-3" d="M87.56,60.11c-.86-.5.14-.45-.79-.4C86.82,60.12,87.28,59.91,87.56,60.11Z"/><path class="cls-3" d="M86.61,58.36c-.09.2,0,.35.12.51C87.22,58.71,86.75,58.56,86.61,58.36Z"/><path class="cls-3" d="M39.23,98.3c-.4.39.34.39,1,.39l.18-.93Z"/><path class="cls-3" d="M42,97.38l1-1.32-.8.77c-1.23.08-.2-.85.14-1.16C40.65,96.6,42.06,96.83,42,97.38Z"/><path class="cls-3" d="M44.33,95.68c.87-.32.43-.7,0-.7C44.37,95.21,43.91,95.68,44.33,95.68Z"/><path class="cls-3" d="M98.28,75.05c-.3,0-.62.11-.64,0C97.44,75.27,97.44,75.42,98.28,75.05Z"/><path class="cls-3" d="M97.64,75l.13-.17-.14.12S97.64,75,97.64,75Z"/><path class="cls-3" d="M77.88,76.59c-.8.77-1.44.77-2.28,1.31l-.76-.39c-.9.62-.22.7-.8,1.32-1.06,0-2.8,1.16-3.24,1.31-.41-.15.21-.54.28-.77-1.07.69-.74,1.23-2.17,1.85l-.09-.15c-3.06,2.31-7.49,3.94-11.06,6.1.27-.08.26.08.41.16-3.92,1.93-8.54,3.94-11.11,6.72,2.11-1.08,6.19-1.7,7.95-3.71,1,.08,2-1.08,2.59-.61,3.27-1.09,4.1-2.71,7.12-4,.48-.08.4.31.65.54l-2.29,1.31,1.57-.38c-.52.54-2.15,1-2.09,1.62,1.82-1.55,5.4-2.47,6.91-4-.92.23-1.93.85-3,1.24-.53,0-1.29.15-1.37-.16,2.56-2.09,5.16-2.7,8-4.25.73-.38,1.77-.77,2-.54-.45.31,0,.39-.32.7,1-.7-.34-1.09,1.25-1.63l.23,1.09c.16-1.32,2-.62,2.79-1.7.56.23-.07.77-.9,1.16,1-.24.87-.85,1.64-1.16l-.36,1.16c.47-1.16,1.52-.47,2.1-.39,0-.23-.74-.7.3-1.08.48-.08.35.23.51.31a1.24,1.24,0,0,1,.83-1.08c.24.23-.27.62-.19.93A2.28,2.28,0,0,1,84.42,79c.8-.62-.23-.39.18-.93,1.47-.38.56.93,1.33,1.32-.87.85-2.15,1.54-2.6,2l1.89-1.09c0,.39,1.59,0,.67.78a24.85,24.85,0,0,0,6.14-3c-.32,0-.69.07-.73-.16.9-.62,1-.16,1.28,0,.63-.55.3-1.09.56-1.71,1.73-.18,1.8-.56,3.42-.48l-.35-.53c1.13,0,.84-.89,2-1.07.11.1-.18.43-.42.71.77-.62,1,.06,1.78-.62l-.34,1c.67-.38,1.56-1.15,1.51-.43a9,9,0,0,1,2-1.88l.63-.52.37-.32.37-.36a6.37,6.37,0,0,0,1.13-1.52l.37.41a13.72,13.72,0,0,1,.76-1.94,4.64,4.64,0,0,0,.33-2.34,1.74,1.74,0,0,0-.48-1l.18-.2a6.06,6.06,0,0,0-1.64-1.77c-.53-.8.34-1,.11-.94-.21-.21-.4-.42-.61-.61l-.53-.49c-.28-.26-.53-.49-.74-.71a2.8,2.8,0,0,1-.78-1.2,1,1,0,0,1-1.06-.36,3.07,3.07,0,0,1-.62-1.5,7.73,7.73,0,0,1,1.18-3.9,10.88,10.88,0,0,1,3.09-3.11A24.38,24.38,0,0,1,113.35,47c.45,0,1-.34,1.58-.43a1.35,1.35,0,0,1,.86.12c.22.11.36.32.23.39a.57.57,0,0,0-.1-.75,1.16,1.16,0,0,0-.57-.34,5.47,5.47,0,0,0-1.65,0c-1.07-.13-1.55-.83-2.58-1.15l.57.54c-1.39.71-1.08-.17-2.11.67l-.17-1c-.3.58-1.42.44-1.92.34l-.17.77c-1-.07-1.68,0-2.2-.43l.33.54c-.25-.11-1.12.28-1.84.59s-1.32.51-1-.28c-.2.28-.27.7-.87,1l-.44-.45c-.76.71-1.53,1.58-2,1.56a1.68,1.68,0,0,0,.25-1.19,3.86,3.86,0,0,0-1.38,1.77,1,1,0,0,0,.19.9,1.41,1.41,0,0,1,.32.81A4.31,4.31,0,0,1,98,52.7l-.35-.22c0,.37,0,.73,0,1.08a8,8,0,0,0-.81.83c.47.87.17,2.11.21,3.64a6.67,6.67,0,0,0,.4,2.32,3.79,3.79,0,0,0,1.23,1.76,5.33,5.33,0,0,1,.77,1.35,5.05,5.05,0,0,0,.43.79,3.52,3.52,0,0,0,.27.37,2.5,2.5,0,0,0,.27.28l.42-.46c0,.52.36,1.38-.2,2a1.36,1.36,0,0,1-1.5.19c.39.3.13,0,.61.25.2.32,0,.42-.24.32a1.31,1.31,0,0,1-.32-.22,1.79,1.79,0,0,0-.57,0c-.32.41-.13.36.13.28s.49-.15.45.18a1.77,1.77,0,0,0-1.16,1,2.34,2.34,0,0,1-1.54,1.13c-.35-.2.37-.48.43-.79C96,70,93.25,70.9,91.08,72c-2.72.68-6.64,2.16-9.87,2.93l0,.23c-1.49,0-2.63,1.08-4.21,1.47Z"/><path class="cls-3" d="M62.16,89.73l.45.39,1.24-.93C63.12,89,63,89.5,62.16,89.73Z"/><polygon class="cls-3" points="61.82 88.1 61.19 88.64 62.35 88.11 61.82 88.1"/><polygon class="cls-3" points="79.72 81.38 79.51 81.38 77.04 82.93 79.72 81.38"/><path class="cls-3" d="M98.43,75.59c-.19.41-.69.52-.92.85l1.14-.87Z"/><path class="cls-3" d="M107.48,61.47c-1.39-.3-1.22-1.49-1.12,0C107.37,62.5,107,61.29,107.48,61.47Z"/><path class="cls-3" d="M103.67,59.34a1.26,1.26,0,0,0,.78.43C104.35,59.06,104,59.41,103.67,59.34Z"/></g></g></svg>