<svg xmlns="http://www.w3.org/2000/svg" viewBox="0 0 191.4 191.35"><defs><style>.cls-1,.cls-2{fill:none;stroke-miterlimit:10;stroke-width:10px;}.cls-1{stroke:#7c2538;}.cls-2{stroke:#e34659;}.cls-3{fill:#fff;}</style></defs><title>logo3</title><g id="Layer_2" data-name="Layer 2"><g id="Layer_1-2" data-name="Layer 1"><g id="Body"><polyline class="cls-1" points="154.65 119.96 183.66 95.43 154.65 70.87"/><polyline class="cls-1" points="120.51 36.75 95.98 7.74 71.42 36.75"/><polyline class="cls-1" points="36.75 71.19 7.74 95.71 36.75 120.27"/><polyline class="cls-1" points="71.42 154.59 95.95 183.61 120.51 154.59"/><rect class="cls-2" x="39.84" y="39.32" width="112.21" height="112.21" transform="translate(-39.37 95.79) rotate(-45)"/><path class="cls-3" d="M58.61,107.84c.11-.3.26-.75.42-1.12l-.44,1.18Z"/><path class="cls-3" d="M58.73,107.51c-.16.41-.34.81-.53,1.21l.27-.58c-.25.62-.54,1.28-.66,1.5A19.8,19.8,0,0,0,58.73,107.51Z"/><path class="cls-3" d="M58.33,108.45a6.52,6.52,0,0,0-.45.94Z"/><path class="cls-3" d="M60,104.91l-.25.47Z"/><path class="cls-3" d="M59.73,105.38l-.07.13h0Z"/><path class="cls-3" d="M54.89,114.73c.31-.57.12-.21.25-.45l-.48,1,.67-1.29c-.3.6,0,.06,0,.1l-.46.87.66-1.23-.13.26c.71-1.34.56-1,1-1.81l.23-.44c.19-.33.25-.36,1.39-2.61-.14.24.61-1.27-.25.41.34-.68-.17.3.32-.66.2-.43-.67,1.26-.7,1.28l.56-1.09.24-.44.19-.39.5-1-.75,1.41h0l-.5,1a6.89,6.89,0,0,1-.6,1.06c-.06.1,0,0,.21-.42l.39-.75c-.21.38-.85,1.64-.76,1.45l.81-1.57c-.86,1.66.15-.3-.36.67l.54-1c.14-.28-.33.63-.32.61l.7-1.34c-.67,1.28.13-.26.35-.68l-.67,1.26.37-.7-.51,1,.59-1.13.13-.25L57.91,109l1.3-2.48.62-1.17-.19.35.73-1.39c.25-.48-.06.09-.28.5l-.32.62c-.16.3.18-.34.37-.72l-1,1.91.73-1.38-.47.88c.38-.71-.34.63-.06.1l.33-.62c-.15.29.4-.75.22-.41l.52-1,.27-.5L60,104.85l.41-.76-.57,1,.17-.31-.55,1a7.29,7.29,0,0,1,.49-.93l.07-.13-.77,1.41c.35-.66-.17.29-.79,1.42l-.94,1.72.15-.27-1.12,2.07.49-.9c.22-.41,0,.08.23-.43l-.79,1.45c.41-.74.08-.13-.13.25l.55-1L56,112.13l.5-.92-.79,1.52.31-.57-.49.91c.13-.23.22-.41,0,.11l-.56,1,1.67-3.05-.32.59.34-.63-.4.75c1.09-2-.1.2.48-.87l-.47.91.49-.91-1.92,3.63.49-.91c.51-.94-.25.49-.53,1l.54-1c-.36.69.6-1.12.29-.51l-.37.69c.5-.92.21-.35.32-.52l-.85,1.74.18-.33c-.44.85,0,.07-.2.45Z"/><path class="cls-3" d="M59.38,106.21l.39-.77-.27.52C59.19,106.58,59.46,106.05,59.38,106.21Z"/><polygon class="cls-3" points="58.18 108.56 58.37 108.2 58.34 108.25 58.18 108.56"/><polygon class="cls-3" points="58.76 107.29 58.7 107.41 59.04 106.77 58.76 107.29"/><path class="cls-3" d="M60.37,104.14l.27-.5-.2.38Z"/><path class="cls-3" d="M62,101.06l-.66,1.22Z"/><path class="cls-3" d="M60.94,103l.2-.37Z"/><path class="cls-3" d="M124.43,58.17c.65-.62-.52-.45-1.53-.29l-.32,1.31Z"/><path class="cls-3" d="M120.1,60.13l-1.57,2.07,1.25-1.28c1.92-.45.31,1.1-.21,1.62C122.16,60.82,120,60.89,120.1,60.13Z"/><path class="cls-3" d="M116.43,63.16c-1.36.71-.63,1.08,0,1C116.39,63.8,117.09,63,116.43,63.16Z"/><path class="cls-3" d="M77.29,64.27c.39.29.83.71.65.82.28.08.46.12.42,0A2.09,2.09,0,0,0,77.29,64.27Z"/><path class="cls-3" d="M77.94,65.09,77.57,65l.31.13Z"/><path class="cls-3" d="M64.84,96.29l.06.37a2.94,2.94,0,0,1,0,.42,8.49,8.49,0,0,0,.1,1.06,17,17,0,0,0,.33,2,9,9,0,0,0,.91,2.41,7.34,7.34,0,0,0,1.15,1.55,6.52,6.52,0,0,0,.94.8,6.43,6.43,0,0,0,1.22.7,7.64,7.64,0,0,0,4.22,1.45,6.7,6.7,0,0,0,2.08-.73,4.37,4.37,0,0,0,.88-.59,1.35,1.35,0,0,0,.48-.63,3.09,3.09,0,0,1,.62-1.24,9.91,9.91,0,0,0,3.06-2.44c.9-1,1.56-1.93,1.85-2.23.67-.18-.06.9-.09,1.28a5.91,5.91,0,0,0,1-2.12,5.89,5.89,0,0,1,1.23-2.18l.2.11a44.76,44.76,0,0,1,5.77-7.91c2.28-2.59,4.75-5.12,7-7.6-.36.27-.4.06-.64,0,2.52-2.45,5.38-4.93,8.09-7.35a55,55,0,0,0,7.07-7.16c-1.57,1.14-3.88,2.36-6.07,3.8A16.63,16.63,0,0,0,101,75c-1.52.44-2.67,2.56-3.68,2.31a21.58,21.58,0,0,0-4.7,4.84l-1.87,2.46c-.65.85-1.4,1.72-2.31,2.71-.64.45-.69-.11-1.13-.22q1.32-1.71,2.7-3.36c-.69.54-1.4,1.07-2.09,1.62.52-1.08,2.68-2.84,2.38-3.6-2.09,3.25-6.73,7.18-8,10.42,1.14-1.06,2.24-2.64,3.52-3.94.73-.41,1.74-1.16,2-.82a46.09,46.09,0,0,1-4.29,6c-1.51,1.82-3,3.74-4.9,5.93-.93,1.11-2.58,2.36-3,2.17.69-.71-.1-.53.39-1.16-.68.77-.52,1.08-.47,1.44a.7.7,0,0,1-.26.63,2.3,2.3,0,0,1-.7.5,4.11,4.11,0,0,1-1.89.45,3.85,3.85,0,0,0,.59-1.49,1.72,1.72,0,0,1-2,.38,3,3,0,0,1-1.68-1.84,7.55,7.55,0,0,1-.34-2A7.77,7.77,0,0,0,69,96.65c.31-.34.52-.17.64.28s.17,1.28.38,2.12a8,8,0,0,0-.32-2,3.55,3.55,0,0,1-.23-1.55l1.09,1.42c-1-1.57.48-2.61,1-3.34-.28-.14-1.31.5-1-1.32.28-.76.52-.3.72-.45a2.14,2.14,0,0,1-.48-2.08c.44-.13.42.91.81,1.07a4.66,4.66,0,0,1,.72-2.2c0-1.63-.59,0-.78-1.09.88-2.33,1.4.1,2.46-.56.09,1.91-.23,4.2-.07,5.19q.15-1.69.39-3.42c.41.3,1.34-2.06,1.36-.2a40.58,40.58,0,0,0,1.52-5.3c.31-1.34.63-2.69.93-4s.56-2.62.78-3.77c-.38.75-.73,1.63-1,1.58a4,4,0,0,1,1.47-2.91,1.42,1.42,0,0,0-.12-.81.68.68,0,0,0-.45-.19,1.75,1.75,0,0,1-1-.14,12,12,0,0,0,.66-2c.14-.54.22-1,.29-1.32s.14-.76.25-1.23a9.87,9.87,0,0,0,.3-1.71l-.57.81a1.31,1.31,0,0,0-.76-1.6c-.49-.22-1.08-.39-1.88-.76,0-.18.81-.26,1.46-.1a5,5,0,0,1-1.47-.66,1.3,1.3,0,0,0-1.39-.14,7.42,7.42,0,0,1,1.64-1c-1.33-.14-3,.74-2.09-.33-.56.32-1.32.87-2.06,1.31s-1.53.89-2.32,1.32a3,3,0,0,0-.61.38l-.65.54-1.28,1.08A27.84,27.84,0,0,0,65,69.73v-.92a17.41,17.41,0,0,1-3.31,3.6l-.49.45-.41.41c-.2.21-.38.44-.56.67a2.54,2.54,0,0,0-.54,1.26h-.35c-.43.87-.84,1.75-1.22,2.65-.9.85-1.4-.17-1.25.1a29.09,29.09,0,0,1-4.46,4.88c.43,1-1.22,3.28-2.56,5.09-3.7,4-7.18,8.32-10.7,12.47a108.47,108.47,0,0,1-10.94,11.44,21.08,21.08,0,0,0-1.92,1.86,6.5,6.5,0,0,1-2.78,1.77,5,5,0,0,0,2.7-.74c.61-.37,1.16-.78,2.16-1.43,1.61-.78,2.63-.42,4.24-.85l-1.1-.17c1.49-1.94,1.58-.65,2.49-2.48l.77,1c.07-.94,1.71-1.58,2.43-1.82l-.15-1.07c1.41-.67,2.27-1.18,3.17-.93l-.68-.48c.76,0,3.94-4.16,3.72-1.93a2.84,2.84,0,0,1,.83-1.66l.69.45c.79-1.15,1.68-2.39,2.27-2.38A1.94,1.94,0,0,0,47,102.5c3.9-4.25-1.15-2.66,2-6.54l.37.38.4-1.33,1.36-.59c-.22-2.54,4.59-5.27,5.78-8.13.65-1,2.47-1.44,3.83-3.16l-.7-.44c.92-.36,2.55-1.73,4.33-2.84.44-.28.89-.55,1.33-.81l.65-.35a.91.91,0,0,1,.33,0,1.27,1.27,0,0,1,.94.74c0-.82-.08-.16-.36-.78.16-.74.42-.79.53-.53a3,3,0,0,1,.15,1.16c.1-.35.12-.47.08-.58A1.37,1.37,0,0,1,68,78c.18.28.3-.15.58-.72s.67-1.28,1-1c-.36.89-.53.73-.82,1.37a2.45,2.45,0,0,1,.86-1c.29-.17.63-.09.7.19a1.8,1.8,0,0,1-.15.86,6.74,6.74,0,0,0-.17.75l-.71,1.06a4.4,4.4,0,0,0-.69,1.16c-1.06,2.85-2.15,5.9-3.09,8.76l.27.17a10.11,10.11,0,0,0-1,3.81c-.06.69-.13,1.39-.17,2.12a8.2,8.2,0,0,1-.11,1.1v1.8a11,11,0,0,1,.2-1.28c0-.1,0-.2.07-.3l.06-.18Z"/><path class="cls-3" d="M90.55,80.27l-.82-.19c-.51.68-1,1.39-1.47,2.1C89.4,81.85,89.43,81.13,90.55,80.27Z"/><polygon class="cls-3" points="91.63 82.17 92.34 81.04 90.86 82.53 91.63 82.17"/><path class="cls-3" d="M71.47,97.09l-.13.3a4.24,4.24,0,0,0,.6,1.9c.37.5.58.36.78.25a.48.48,0,0,1-.33.07.9.9,0,0,1-.45-.45A4.49,4.49,0,0,1,71.47,97.09Z"/><path class="cls-3" d="M77.85,63.73c.8-.07,1.54.69,2,1a4.67,4.67,0,0,0-2.34-1.26C77.63,63.55,77.74,63.64,77.85,63.73Z"/><path class="cls-3" d="M54.73,75.07c.33,1.49-1.18,1.27.44,1.19C55.9,75.11,54.73,75.65,54.73,75.07Z"/><path class="cls-3" d="M52.63,80.11a3.16,3.16,0,0,0,.83-1.45C52.36,79.06,52.82,79.52,52.63,80.11Z"/><path class="cls-3" d="M100.08,126.21c.22.35.64,0,1-.33l-1-.45Z"/><path class="cls-3" d="M100.58,124.52l-.91-1,.41.7c-.63.63-1.09-.24-1.25-.54C98.92,124.85,100,124.25,100.58,124.52Z"/><path class="cls-3" d="M100,122.73c.16-.55-.54-.51-.79-.3C99.51,122.47,99.73,122.89,100,122.73Z"/><path class="cls-3" d="M111.8,89.59c-.18.11-.33.26-.51.18C111.43,90,111.58,90.08,111.8,89.59Z"/><path class="cls-3" d="M111.29,89.73l-.08-.14v.12Z"/><path class="cls-3" d="M100.07,98.36c.32.75-.09,1,0,1.65l-.92.09c.09.71.62.48.91,1.06-.69.43-.56,1.78-.67,2-.43.08-.46-.39-.66-.55.07.83.86,1,.61,1.92h-.22c.54,2.54-.52,5.29-.38,8,.09-.16.25-.07.43-.1-.34,2.7-1,5.82.68,8.27,0-1.48,1.83-3.59.68-5.35.72-.4,0-1.42.94-1.44.85-2-.42-3.15.07-5.12.23-.25.59,0,1,0v1.65l.58-.85c.26.5-.27,1.42.45,1.72-.55-1.57.72-3.54,0-5a10.37,10.37,0,0,0-.55,1.88c-.34.22-.66.61-1,.48-.64-2.19.36-3.6.54-5.62,0-.51.3-1.14.71-1.11,0,.36.44.21.55.52-.14-.77-1.39-.47-.95-1.41l1.32.52c-1.32-.8.6-1.13,0-2.06.62-.1.8.46.68,1,.41-.54-.36-.82-.2-1.3l1,.8c-1-.84.48-.87.94-1-.28-.12-1.23-.1-1-.73.23-.23.48,0,.66,0a1,1,0,0,1-.63-1c.41,0,.5.46.89.6.07-.33.07-.61.46-.75-.16-.67-.57-.13-.89-.6.53-.79,1.36.3,2.28.22.36.82.28,1.72.49,2.16V97.56c.43.21,1-.63,1.27.16.79-1.13.73-2.81.72-4.12-.21.12-.37.32-.64.2-.09-.71.45-.47.82-.5-.18-.56-1-.74-1.47-1.19.94-.76.57-1,1.76-1.55l-.79-.18c.79-.39-.36-.82.28-1.31.18,0,.31.32.43.56-.09-.63.81-.31.66-.94l.75.68c.1-.44,0-1.14.69-.7-.68-1,.06-2.22-.18-3.3l.66.26c-.68-.72.56-1.76-.31-2.47h.3l-.63-1.22c.21-.42,1.19,0,.91-.09a3.55,3.55,0,0,1,.79-2.28c-.86-.42-.81-1.49-.69-2.32,1.69-3.68,2-8.07,2-12,.12-.54-.67-1.58-.91-2.37-.47.75,0,1-.27,1.77-.41.53-1.41.48-2.14.83h.84c.38,1-.57.45,0,1.32l-1.23-.39c.57.41-.11.83-.5,1l.79.47a2.43,2.43,0,0,1-1.73.58l.79.18c-.55,0-.49,2-1.65,1,.14.21.5.46.32.76l-.8-.18c.07.53.06,1.1-.42,1.11-.11-.31-.43-.49-.74-.68-.72,2,2.43,1.17,2,3l-.5-.17.41.6-.78.29c1.54,1.14-.88,2.43-.28,3.76,0,.46-1.16.72-1.28,1.55l.79.17c-1,.41-2.18,2.66-4.16,2.73.43.78.18,0,.8.18.46,1.42-.79,1.14-1.43,1.63.18.84.46-.47.93.09-.91.94.7,1.18-.22,2.41-.47,0-.2-.45-.45-.67.52,1.2-.5,2.86-.76,4.34-1,1.49-2,3.85-3.22,5.57l.27.12c-1,.58-.54,1.65-1.14,2.49Z"/><path class="cls-3" d="M104.28,112H105l-.24-1C104.12,111.21,104.54,111.52,104.28,112Z"/><polygon class="cls-3" points="102.28 111.26 102.48 111.81 102.61 111.04 102.28 111.26"/><polygon class="cls-3" points="106.44 100.34 106.31 100.42 106.39 102.27 106.44 100.34"/><path class="cls-3" d="M112.46,89.85c.29.29.06.53.25.8l-.11-.89Z"/><path class="cls-3" d="M117.38,83.06c-1.11-.65.19-.59-1-.51C116.42,83.07,117,82.81,117.38,83.06Z"/><path class="cls-3" d="M116.14,80.78a.67.67,0,0,0,.16.66C116.94,81.24,116.32,81.05,116.14,80.78Z"/><path class="cls-3" d="M54.6,132.67c-.52.5.45.5,1.27.5l.24-1.2Z"/><path class="cls-3" d="M58.15,131.47l1.31-1.74-1,1c-1.59.1-.25-1.1.2-1.5C56.44,130.46,58.28,130.73,58.15,131.47Z"/><path class="cls-3" d="M61.22,129.26c1.14-.4.56-.91,0-.91C61.27,128.66,60.67,129.26,61.22,129.26Z"/><path class="cls-3" d="M131.3,102.47c-.38,0-.79.13-.83-.06C130.21,102.73,130.21,103,131.3,102.47Z"/><path class="cls-3" d="M130.47,102.41l.18-.22a.9.9,0,0,0-.19.15A.35.35,0,0,1,130.47,102.41Z"/><path class="cls-3" d="M104.81,104.46c-1,1-1.87,1-3,1.71l-1-.5c-1.16.8-.28.9-1,1.7-1.38,0-3.64,1.51-4.21,1.71-.53-.2.27-.71.36-1-1.38.91-1,1.61-2.81,2.41l-.13-.2c-4,3-9.72,5.12-14.36,7.93.35-.1.34.1.53.21-5.09,2.5-11.09,5.11-14.43,8.73,2.74-1.41,8-2.21,10.32-4.82,1.3.1,2.6-1.4,3.38-.8,4.24-1.4,5.31-3.51,9.24-5.22.63-.1.52.4.84.7l-3,1.71,2-.5c-.67.7-2.79,1.31-2.72,2.11,2.37-2,7-3.21,9-5.22-1.2.3-2.51,1.1-3.86,1.61-.69,0-1.67.2-1.77-.21,3.32-2.71,6.7-3.51,10.44-5.52.94-.5,2.29-1,2.61-.7-.58.4,0,.5-.42.91,1.25-.91-.44-1.41,1.62-2.12l.3,1.41c.21-1.71,2.55-.8,3.63-2.21.73.3-.09,1-1.16,1.51,1.33-.3,1.12-1.11,2.12-1.51l-.46,1.51c.6-1.51,2-.6,2.72-.5,0-.3-1-.91.39-1.41.63-.1.46.31.66.41a1.63,1.63,0,0,1,1.08-1.41c.32.3-.34.8-.24,1.21a3,3,0,0,1,1.76-.51c1-.8-.3-.5.24-1.2,1.9-.5.73,1.2,1.72,1.71-1.12,1.1-2.78,2-3.38,2.61l2.46-1.41c0,.5,2.06,0,.88,1,2.74-.7,5.65-2.51,8-3.92-.42,0-.9.1-1-.2,1.17-.8,1.26-.2,1.66,0,.82-.71.39-1.41.74-2.22,2.23-.23,2.33-.73,4.43-.62l-.45-.69c1.47,0,1.09-1.16,2.56-1.39.16.12-.23.56-.53.93,1-.82,1.36.07,2.3-.81l-.44,1.27c.88-.5,2-1.5,2-.57A11.9,11.9,0,0,1,137,99.65l.82-.68.48-.42.48-.46a8,8,0,0,0,1.46-2l.49.53a21,21,0,0,1,1-2.52,5.93,5.93,0,0,0,.43-3,2.17,2.17,0,0,0-.63-1.25l.25-.26a8,8,0,0,0-2.14-2.3.79.79,0,0,1,.15-1.22c-.28-.27-.53-.55-.79-.79l-.39-.37-.3-.27-1-.92a3.59,3.59,0,0,1-1-1.56,1.24,1.24,0,0,1-1.38-.47,4,4,0,0,1-.81-2,10.09,10.09,0,0,1,1.53-5.06,14.64,14.64,0,0,1,4-4,28.31,28.31,0,0,1,5.39-2.84,33.75,33.75,0,0,1,5.8-1.77c.59,0,1.24-.43,2.06-.56a1.84,1.84,0,0,1,1.11.16c.29.15.47.42.31.51a.75.75,0,0,0-.13-1,1.41,1.41,0,0,0-.74-.44,7,7,0,0,0-2.15,0c-1.4-.17-2-1.08-3.36-1.5l.75.7c-1.81.93-1.41-.22-2.75.88l-.22-1.28c-.4.75-1.85.57-2.5.43l-.23,1c-1.32-.09-2.17,0-2.85-.55l.43.7c-.32-.14-1.46.36-2.39.77s-1.71.66-1.36-.37c-.26.37-.35.91-1.13,1.33l-.58-.59c-1,.92-2,2.06-2.59,2a2.12,2.12,0,0,0,.33-1.55,5,5,0,0,0-1.79,2.3,1.33,1.33,0,0,0,.24,1.17,1.75,1.75,0,0,1,.43,1.06,5.85,5.85,0,0,1-.79,2.22l-.45-.29c0,.47,0,.93,0,1.4-.37.33-.71.69-1.06,1.07.62,1.14.23,2.75.28,4.74a9,9,0,0,0,.52,3,5.12,5.12,0,0,0,1.59,2.29,6.62,6.62,0,0,1,1,1.75,8.91,8.91,0,0,0,.57,1,5.92,5.92,0,0,0,.35.48,4,4,0,0,0,.35.36l.63-.48c0,.68.46,1.8-.26,2.53a1.74,1.74,0,0,1-2,.25c.52.4.17.07.8.33.25.42,0,.55-.31.41a1.22,1.22,0,0,1-.42-.29,3.05,3.05,0,0,0-.74,0c-.41.53-.17.46.17.36s.64-.19.58.24A2.32,2.32,0,0,0,131,93.73a3,3,0,0,1-2,1.47c-.46-.27.47-.62.56-1-1.23,1.71-4.84,2.9-7.65,4.27-3.54.89-8.63,2.8-12.83,3.8v.3c-1.93,0-3.42,1.41-5.46,1.91Z"/><path class="cls-3" d="M84.39,121.53,85,122l1.62-1.21C85.64,120.63,85.45,121.23,84.39,121.53Z"/><polygon class="cls-3" points="83.94 119.42 83.13 120.12 84.63 119.42 83.94 119.42"/><polygon class="cls-3" points="107.2 110.7 106.92 110.7 103.72 112.7 107.2 110.7"/><path class="cls-3" d="M131.5,103.16c-.24.54-.89.69-1.2,1.12l1.48-1.14Z"/><path class="cls-3" d="M143.26,84.83A2.45,2.45,0,0,1,141.8,84c-.16-.21,0-.13,0,.8C143.11,86.17,142.56,84.59,143.26,84.83Z"/><path class="cls-3" d="M138.3,82.06a1.51,1.51,0,0,0,.49.38,2.55,2.55,0,0,0,.53.18C139.19,81.73,138.73,82.15,138.3,82.06Z"/></g></g></g></svg>