<svg xmlns="http://www.w3.org/2000/svg" viewBox="0 0 181.94 181.89"><defs><style>.cls-1,.cls-2{fill:none;stroke-miterlimit:10;}.cls-1{stroke:#fff;stroke-width:3.89px;}.cls-2{stroke:#e34659;stroke-width:10px;}.cls-3{fill:#fff;}</style></defs><title>Asset 2</title><g id="Layer_2" data-name="Layer 2"><g id="Body"><polyline class="cls-1" points="149.92 115.23 178.93 90.7 149.92 66.14"/><polyline class="cls-1" points="115.78 32.02 91.25 3.01 66.69 32.02"/><polyline class="cls-1" points="32.02 66.46 3.01 90.98 32.02 115.54"/><polyline class="cls-1" points="66.69 149.86 91.22 178.88 115.78 149.86"/><rect class="cls-2" x="35.11" y="34.58" width="112.21" height="112.21" transform="translate(90.84 -37.93) rotate(45)"/><path class="cls-3" d="M53.88,103.11c.11-.3.26-.75.42-1.12l-.44,1.18Z"/><path class="cls-3" d="M54,102.78c-.16.41-.34.81-.53,1.21l.27-.58c-.25.62-.54,1.28-.66,1.5C53.28,104.63,53.72,103.47,54,102.78Z"/><path class="cls-3" d="M53.6,103.72c0-.08-.35.69-.45.94Z"/><path class="cls-3" d="M55.23,100.18l-.25.47Z"/><path class="cls-3" d="M55,100.65l-.07.13,0,0Z"/><path class="cls-3" d="M50.16,110c.31-.57.12-.21.25-.45l-.48,1,.67-1.29c-.3.6,0,.06,0,.1l-.46.87.66-1.23-.13.26c.71-1.34.56-1,1-1.81l.23-.44c.19-.33.25-.36,1.39-2.61-.14.24.61-1.27-.25.41.34-.68-.17.3.32-.66.2-.43-.67,1.26-.7,1.28l.56-1.09.24-.44.19-.39.5-1-.75,1.41c-.11.21,0,0,0,0l-.5,1a6.69,6.69,0,0,1-.6,1.06c-.06.1,0,0,.21-.42l.39-.75c-.21.38-.85,1.64-.76,1.45l.81-1.57c-.86,1.66.15-.3-.36.67l.54-1c.14-.28-.33.63-.32.61l.7-1.34c-.67,1.28.13-.26.35-.68l-.67,1.26.37-.7-.51,1,.59-1.13s-.06.11.13-.25l-.59,1.12,1.3-2.48.62-1.17-.19.35.73-1.39c.25-.48-.06.09-.28.5l-.32.62c-.16.3.18-.34.37-.72l-1,1.91.73-1.38-.47.88c.38-.71-.34.63-.06.1l.33-.62c-.15.29.4-.75.22-.41l.52-1s-.18.34.27-.5l-.64,1.18.41-.76-.57,1,.17-.31-.55,1c0-.1.66-1.25.49-.93l.07-.13-.77,1.41c.35-.66-.17.29-.79,1.42l-.94,1.72.15-.27-1.12,2.07.49-.9c.22-.41,0,.08.23-.43l-.79,1.45c.41-.74.08-.13-.13.25l.55-1-.92,1.69.5-.92L51,108l.31-.57-.49.91c.13-.23.22-.41,0,.11l-.56,1,1.67-3.05-.32.59.34-.63-.4.75c1.09-2-.1.2.48-.87l-.47.91.49-.91-1.92,3.63.49-.91c.51-.94-.25.49-.53,1l.54-1c-.36.69.6-1.12.29-.51l-.37.69c.5-.92.21-.35.32-.52l-.85,1.74.18-.33c-.44.85,0,.07-.2.45Z"/><path class="cls-3" d="M54.65,101.48l.39-.77-.27.52C54.46,101.85,54.73,101.32,54.65,101.48Z"/><polygon class="cls-3" points="53.45 103.83 53.64 103.47 53.61 103.52 53.45 103.83"/><polygon class="cls-3" points="54.03 102.56 53.97 102.68 54.31 102.04 54.03 102.56"/><path class="cls-3" d="M55.64,99.41l.27-.5-.2.38Z"/><path class="cls-3" d="M57.28,96.33l-.66,1.22Z"/><path class="cls-3" d="M56.21,98.31l.2-.37Z"/><path class="cls-3" d="M119.7,53.44c.65-.62-.52-.45-1.53-.29l-.32,1.31Z"/><path class="cls-3" d="M115.37,55.4l-1.57,2.07,1.25-1.28c1.92-.45.31,1.1-.21,1.62C117.43,56.09,115.22,56.16,115.37,55.4Z"/><path class="cls-3" d="M111.7,58.43c-1.36.71-.63,1.08,0,1C111.66,59.07,112.36,58.3,111.7,58.43Z"/><path class="cls-3" d="M72.56,59.54c.39.29.83.71.65.82.28.08.46.12.42,0A2.07,2.07,0,0,0,72.56,59.54Z"/><path class="cls-3" d="M73.21,60.36l-.37-.08.31.13S73.19,60.38,73.21,60.36Z"/><path class="cls-3" d="M60.11,91.56l.06.37a3,3,0,0,1,0,.42c0,.38.06.73.1,1.06a14.51,14.51,0,0,0,.33,2,8.94,8.94,0,0,0,.91,2.41,7.32,7.32,0,0,0,1.15,1.55,6.52,6.52,0,0,0,.94.8,6.19,6.19,0,0,0,1.22.7,7.69,7.69,0,0,0,4.22,1.45,6.82,6.82,0,0,0,2.08-.73A4.49,4.49,0,0,0,72,101a1.36,1.36,0,0,0,.48-.63,3.08,3.08,0,0,1,.62-1.24,10.05,10.05,0,0,0,3.06-2.44c.9-1,1.56-1.93,1.85-2.23.67-.18-.06.9-.09,1.28a6.08,6.08,0,0,0,1-2.12,5.7,5.7,0,0,1,1.23-2.18l.2.11a44.34,44.34,0,0,1,5.77-7.91c2.28-2.59,4.75-5.12,7-7.6-.36.27-.4.06-.64.05,2.52-2.45,5.38-4.93,8.09-7.35a55.78,55.78,0,0,0,7.07-7.16c-1.57,1.14-3.88,2.36-6.07,3.8a16.6,16.6,0,0,0-5.32,4.9c-1.52.44-2.67,2.56-3.68,2.31a21.47,21.47,0,0,0-4.7,4.84L86,79.89c-.65.85-1.4,1.72-2.31,2.71-.64.45-.69-.11-1.13-.22q1.32-1.71,2.7-3.36c-.69.54-1.4,1.07-2.09,1.62.52-1.08,2.68-2.84,2.38-3.6-2.09,3.25-6.73,7.18-8,10.42,1.14-1.06,2.24-2.64,3.52-3.94.73-.41,1.74-1.16,2-.82a46.9,46.9,0,0,1-4.29,6c-1.51,1.82-3,3.74-4.9,5.93-.93,1.11-2.58,2.36-3,2.17.69-.71-.1-.53.39-1.16-.68.77-.52,1.08-.47,1.44a.72.72,0,0,1-.26.63,2.42,2.42,0,0,1-.7.5,4.09,4.09,0,0,1-1.89.45,3.85,3.85,0,0,0,.59-1.49,1.73,1.73,0,0,1-2,.38,3,3,0,0,1-1.68-1.84,7.56,7.56,0,0,1-.34-2,8,8,0,0,0-.23-1.79c.31-.34.52-.17.64.28s.17,1.28.38,2.12a8.21,8.21,0,0,0-.32-2,3.47,3.47,0,0,1-.23-1.55l1.09,1.42c-1-1.57.48-2.61,1-3.34-.28-.14-1.31.5-1-1.32.28-.76.52-.3.72-.45A2.12,2.12,0,0,1,66.09,85c.44-.13.42.91.81,1.07a4.59,4.59,0,0,1,.72-2.2c0-1.63-.59,0-.78-1.09.88-2.33,1.4.1,2.46-.56.09,1.91-.23,4.2-.07,5.19q.15-1.69.39-3.42c.41.3,1.34-2.06,1.36-.2a41,41,0,0,0,1.52-5.3c.31-1.34.63-2.69.93-4s.56-2.62.78-3.77c-.38.75-.73,1.63-1,1.58a4,4,0,0,1,1.47-2.91,1.52,1.52,0,0,0-.12-.81.68.68,0,0,0-.45-.19c-.34,0-.73.05-1-.14a13,13,0,0,0,.66-2c.14-.54.22-1,.29-1.32s.14-.76.25-1.23a10.56,10.56,0,0,0,.3-1.71l-.57.81a1.32,1.32,0,0,0-.76-1.6c-.49-.22-1.08-.39-1.88-.76,0-.18.81-.26,1.46-.1a5.07,5.07,0,0,1-1.47-.66A1.3,1.3,0,0,0,70,59.54a7.56,7.56,0,0,1,1.64-1c-1.33-.14-3,.74-2.09-.33-.56.32-1.32.87-2.06,1.31s-1.53.89-2.32,1.32a2.62,2.62,0,0,0-.61.38l-.65.54-1.28,1.08A27,27,0,0,0,60.31,65v-.92A17.67,17.67,0,0,1,57,67.68l-.49.45c-.16.16-.33.32-.41.41a8,8,0,0,0-.56.67A2.49,2.49,0,0,0,55,70.47l-.35,0c-.43.87-.84,1.75-1.22,2.65-.9.85-1.4-.17-1.25.1a29.67,29.67,0,0,1-4.46,4.88c.43,1-1.22,3.28-2.56,5.09-3.7,4-7.18,8.32-10.7,12.47a109.77,109.77,0,0,1-10.94,11.44,20.15,20.15,0,0,0-1.92,1.86,6.59,6.59,0,0,1-2.78,1.77,5.08,5.08,0,0,0,2.7-.74c.61-.37,1.16-.78,2.16-1.43,1.61-.78,2.63-.42,4.24-.85l-1.1-.17c1.49-1.94,1.58-.65,2.49-2.48l.77,1c.07-.94,1.71-1.58,2.43-1.82l-.15-1.07c1.41-.67,2.27-1.18,3.17-.93l-.68-.48c.76,0,3.94-4.16,3.72-1.93a2.82,2.82,0,0,1,.83-1.66l.69.45c.79-1.15,1.68-2.39,2.27-2.38a1.93,1.93,0,0,0-.13,1.53c3.9-4.25-1.15-2.66,2-6.54l.37.38.4-1.33,1.36-.59c-.22-2.54,4.59-5.27,5.78-8.13.65-1,2.47-1.44,3.83-3.16l-.7-.44c.92-.36,2.55-1.73,4.33-2.84.44-.28.89-.55,1.33-.81l.65-.35a.73.73,0,0,1,.33,0,1.28,1.28,0,0,1,.94.74c-.05-.82-.08-.16-.36-.78.16-.74.42-.79.53-.53a3.11,3.11,0,0,1,.15,1.16c.1-.35.12-.47.08-.58a1.37,1.37,0,0,1,0-.75c.18.28.3-.15.58-.72s.67-1.28.95-1c-.36.89-.53.73-.82,1.37a2.42,2.42,0,0,1,.86-1c.29-.17.63-.09.7.19a1.87,1.87,0,0,1-.15.86,4.8,4.8,0,0,0-.17.75l-.71,1.06a4.26,4.26,0,0,0-.69,1.16c-1.06,2.85-2.15,5.9-3.09,8.76l.27.17a10.17,10.17,0,0,0-1,3.81c-.06.69-.13,1.39-.17,2.12,0,.37-.06.73-.11,1.1,0,.11,0,.15,0,.32l0,.48c0,.33,0,.65,0,1a10.67,10.67,0,0,1,.2-1.28,1.91,1.91,0,0,1,.07-.3l.06-.18Z"/><path class="cls-3" d="M85.82,75.54,85,75.35c-.51.68-1,1.39-1.47,2.1C84.67,77.12,84.7,76.4,85.82,75.54Z"/><polygon class="cls-3" points="86.9 77.44 87.61 76.31 86.13 77.8 86.9 77.44"/><path class="cls-3" d="M66.74,92.36l-.13.3a4.18,4.18,0,0,0,.6,1.9c.37.5.58.36.78.25a.51.51,0,0,1-.33.07.93.93,0,0,1-.45-.45A4.52,4.52,0,0,1,66.74,92.36Z"/><path class="cls-3" d="M73.12,59c.8-.07,1.54.69,2,1a4.69,4.69,0,0,0-2.34-1.26A3.15,3.15,0,0,1,73.12,59Z"/><path class="cls-3" d="M50,70.34c.33,1.49-1.18,1.27.44,1.19C51.17,70.38,50,70.92,50,70.34Z"/><path class="cls-3" d="M47.9,75.38a3.23,3.23,0,0,0,.83-1.45C47.63,74.33,48.09,74.79,47.9,75.38Z"/><path class="cls-3" d="M95.35,121.48c.22.35.64,0,1-.33l-1-.45Z"/><path class="cls-3" d="M95.85,119.79l-.91-1,.41.7c-.63.63-1.09-.24-1.25-.54C94.19,120.12,95.29,119.52,95.85,119.79Z"/><path class="cls-3" d="M95.29,118c.16-.55-.54-.51-.79-.3C94.78,117.74,95,118.16,95.29,118Z"/><path class="cls-3" d="M107.07,84.86c-.18.11-.33.26-.51.18C106.7,85.27,106.85,85.35,107.07,84.86Z"/><path class="cls-3" d="M106.56,85l-.08-.14s0,.07,0,.12Z"/><path class="cls-3" d="M95.34,93.63c.32.75-.09,1,0,1.65l-.92.09c.09.71.62.48.91,1.06-.69.43-.56,1.78-.67,2-.43.08-.46-.39-.66-.55.07.83.86,1,.61,1.92l-.22,0c.54,2.54-.52,5.29-.38,8,.09-.16.25-.07.43-.1-.34,2.7-1,5.82.68,8.27,0-1.48,1.83-3.59.68-5.35.72-.4,0-1.42.94-1.44.85-2-.42-3.15.07-5.12.23-.25.59,0,1,0v1.65l.58-.85c.26.5-.27,1.42.45,1.72-.55-1.57.72-3.54,0-5a9.67,9.67,0,0,0-.55,1.88c-.34.22-.66.61-1,.48-.64-2.19.36-3.6.54-5.62,0-.51.3-1.14.71-1.11,0,.36.44.21.55.52-.14-.77-1.39-.47-.95-1.41l1.32.52c-1.32-.8.6-1.13,0-2.06.62-.1.8.46.68,1,.41-.54-.36-.82-.2-1.3l1,.8c-1-.84.48-.87.94-1-.28-.12-1.23-.1-1-.73.23-.23.48,0,.66,0-.27-.12-.72-.51-.63-1,.41,0,.5.46.89.6.07-.33.07-.61.46-.75-.16-.67-.57-.13-.89-.6.53-.79,1.36.3,2.28.22.36.82.28,1.72.49,2.16l0-1.35c.43.21,1-.63,1.27.16.79-1.13.73-2.81.72-4.12-.21.12-.37.32-.64.2-.09-.71.45-.47.82-.5-.18-.56-1-.74-1.47-1.19.94-.76.57-1,1.76-1.55l-.79-.18c.79-.39-.36-.82.28-1.31.18,0,.31.32.43.56-.09-.63.81-.31.66-.94l.75.68c.1-.44,0-1.14.69-.7-.68-1,.06-2.22-.18-3.3l.66.26c-.68-.72.56-1.76-.31-2.47h.3l-.63-1.22c.21-.42,1.19,0,.91-.09a3.5,3.5,0,0,1,.79-2.28c-.86-.42-.81-1.49-.69-2.32,1.69-3.68,2-8.07,2-12,.12-.54-.67-1.58-.91-2.37-.47.75,0,1-.27,1.77-.41.53-1.41.48-2.14.83l.84,0c.38,1-.57.45,0,1.32l-1.23-.39c.57.41-.11.83-.5,1l.79.47a2.4,2.4,0,0,1-1.73.58l.79.18c-.55.05-.49,2-1.65,1,.14.21.5.46.32.76l-.8-.18c.07.53.06,1.1-.42,1.11-.11-.31-.43-.49-.74-.68-.72,2,2.43,1.17,2,3l-.5-.17.41.6-.78.29c1.54,1.14-.88,2.43-.28,3.76,0,.46-1.16.72-1.28,1.55l.79.17c-1,.41-2.18,2.66-4.16,2.73.43.78.18,0,.8.18.46,1.42-.79,1.14-1.43,1.63.18.84.46-.47.93.09-.91.94.7,1.18-.22,2.41-.47,0-.2-.45-.45-.67.52,1.2-.5,2.86-.76,4.34-1,1.49-2,3.85-3.22,5.57l.27.12c-1,.58-.54,1.65-1.14,2.49Z"/><path class="cls-3" d="M99.55,107.24l.71,0-.24-1C99.39,106.48,99.81,106.79,99.55,107.24Z"/><polygon class="cls-3" points="97.55 106.53 97.75 107.08 97.88 106.31 97.55 106.53"/><polygon class="cls-3" points="101.71 95.61 101.58 95.69 101.66 97.54 101.71 95.61"/><path class="cls-3" d="M107.73,85.12c.29.29.06.53.25.8l-.11-.89Z"/><path class="cls-3" d="M112.65,78.33c-1.11-.65.19-.59-1-.51C111.69,78.34,112.29,78.08,112.65,78.33Z"/><path class="cls-3" d="M111.41,76.05a.65.65,0,0,0,.16.66C112.21,76.51,111.59,76.32,111.41,76.05Z"/><path class="cls-3" d="M49.87,127.94c-.52.5.45.5,1.27.5l.24-1.2Z"/><path class="cls-3" d="M53.42,126.74,54.73,125l-1,1c-1.59.1-.25-1.1.2-1.5C51.71,125.73,53.55,126,53.42,126.74Z"/><path class="cls-3" d="M56.49,124.53c1.14-.4.56-.91,0-.91C56.54,123.93,55.94,124.53,56.49,124.53Z"/><path class="cls-3" d="M126.57,97.74c-.38,0-.79.13-.83-.06C125.48,98,125.48,98.22,126.57,97.74Z"/><path class="cls-3" d="M125.74,97.68l.18-.22a1.25,1.25,0,0,0-.19.15S125.74,97.65,125.74,97.68Z"/><path class="cls-3" d="M100.08,99.73c-1,1-1.87,1-3,1.71l-1-.5c-1.16.8-.28.9-1,1.7-1.38,0-3.64,1.51-4.21,1.71-.53-.2.27-.71.36-1-1.38.91-1,1.61-2.81,2.41l-.13-.2c-4,3-9.72,5.12-14.36,7.93.35-.1.34.1.53.21-5.09,2.5-11.09,5.11-14.43,8.73,2.74-1.41,8-2.21,10.32-4.82,1.3.1,2.6-1.4,3.38-.8,4.24-1.4,5.31-3.51,9.24-5.22.63-.1.52.4.84.7l-3,1.71,2-.5c-.67.7-2.79,1.31-2.72,2.11,2.37-2,7-3.21,9-5.22-1.2.3-2.51,1.1-3.86,1.61-.69,0-1.67.2-1.77-.21,3.32-2.71,6.7-3.51,10.44-5.52.94-.5,2.29-1,2.61-.7-.58.4,0,.5-.42.91,1.25-.91-.44-1.41,1.62-2.12l.3,1.41c.21-1.71,2.55-.8,3.63-2.21.73.3-.09,1-1.16,1.51,1.33-.3,1.12-1.11,2.12-1.51l-.46,1.51c.6-1.51,2-.6,2.72-.5,0-.3-1-.91.39-1.41.63-.1.46.31.66.41a1.63,1.63,0,0,1,1.08-1.41c.32.3-.34.8-.24,1.21a3,3,0,0,1,1.76-.51c1-.8-.3-.5.24-1.2,1.9-.5.73,1.2,1.72,1.71-1.12,1.1-2.78,2-3.38,2.61l2.46-1.41c0,.5,2.06,0,.88,1,2.74-.7,5.65-2.51,8-3.92-.42,0-.9.1-.95-.2,1.17-.8,1.26-.2,1.66,0,.82-.71.39-1.41.74-2.22,2.23-.23,2.33-.73,4.43-.62l-.45-.69c1.47,0,1.09-1.16,2.56-1.39.16.12-.23.56-.53.93,1-.82,1.36.07,2.3-.81l-.44,1.27c.88-.5,2-1.5,2-.57a11.59,11.59,0,0,1,2.53-2.43l.82-.68.48-.42.48-.46a8,8,0,0,0,1.46-2l.49.53a19.08,19.08,0,0,1,1-2.52,6,6,0,0,0,.43-3,2.18,2.18,0,0,0-.63-1.25l.25-.26a8,8,0,0,0-2.14-2.3c-.68-1,.45-1.31.15-1.22-.28-.27-.53-.55-.79-.79l-.39-.37-.3-.27c-.37-.34-.69-.64-1-.92a3.6,3.6,0,0,1-1-1.56,1.23,1.23,0,0,1-1.38-.47,3.9,3.9,0,0,1-.81-2,10,10,0,0,1,1.53-5.06,14.34,14.34,0,0,1,4-4,27.67,27.67,0,0,1,5.39-2.84,33.33,33.33,0,0,1,5.8-1.77c.59,0,1.24-.43,2.06-.56a1.84,1.84,0,0,1,1.11.16c.29.15.47.42.31.51a.76.76,0,0,0-.13-1,1.43,1.43,0,0,0-.74-.44,7.05,7.05,0,0,0-2.15,0c-1.4-.17-2-1.08-3.36-1.5l.75.7c-1.81.93-1.41-.22-2.75.88L141,58.76c-.4.75-1.85.57-2.5.43l-.23,1c-1.32-.09-2.17.05-2.85-.55l.43.7c-.32-.14-1.46.36-2.39.77s-1.71.66-1.36-.37c-.26.37-.35.91-1.13,1.33l-.58-.59c-1,.92-2,2.06-2.59,2a2.15,2.15,0,0,0,.33-1.55,5,5,0,0,0-1.79,2.3,1.3,1.3,0,0,0,.24,1.17,1.82,1.82,0,0,1,.43,1.06,6.08,6.08,0,0,1-.79,2.22l-.45-.29a13.07,13.07,0,0,0,0,1.4c-.37.33-.71.69-1.06,1.07.62,1.14.23,2.75.28,4.74a9,9,0,0,0,.52,3,5.1,5.1,0,0,0,1.59,2.29,6.55,6.55,0,0,1,1,1.75,8.66,8.66,0,0,0,.57,1,5.34,5.34,0,0,0,.35.48,3.06,3.06,0,0,0,.35.36L130,84c0,.68.46,1.8-.26,2.53a1.76,1.76,0,0,1-2,.25c.52.4.17.07.8.33.25.42,0,.55-.31.41a1.27,1.27,0,0,1-.42-.29,2.56,2.56,0,0,0-.74,0c-.41.53-.17.46.17.36s.64-.19.58.24A2.33,2.33,0,0,0,126.31,89a3,3,0,0,1-2,1.47c-.46-.27.47-.62.56-1-1.23,1.71-4.84,2.9-7.65,4.27-3.54.89-8.63,2.8-12.83,3.8l0,.3c-1.93,0-3.42,1.41-5.46,1.91Z"/><path class="cls-3" d="M79.66,116.8l.58.51,1.62-1.21C80.91,115.9,80.72,116.5,79.66,116.8Z"/><polygon class="cls-3" points="79.21 114.69 78.4 115.39 79.9 114.69 79.21 114.69"/><polygon class="cls-3" points="102.47 105.97 102.19 105.97 98.99 107.97 102.47 105.97"/><path class="cls-3" d="M126.77,98.43c-.24.54-.89.69-1.2,1.12l1.48-1.14Z"/><path class="cls-3" d="M138.53,80.1a2.43,2.43,0,0,1-1.46-.88c-.16-.21,0-.13,0,.8C138.38,81.44,137.83,79.86,138.53,80.1Z"/><path class="cls-3" d="M133.57,77.33a1.42,1.42,0,0,0,.49.38,3,3,0,0,0,.53.18C134.46,77,134,77.42,133.57,77.33Z"/></g></g></svg>