<svg xmlns="http://www.w3.org/2000/svg" viewBox="0 0 93.21 91.04"><defs><style>.cls-1{fill:none;stroke:#29abe2;stroke-miterlimit:10;stroke-width:7.72px;}.cls-2{fill:#29abe2;}.cls-3{fill:#f4f4f4;}</style></defs><title>logo1</title><g id="Layer_2" data-name="Layer 2"><g id="LogoText"><polygon class="cls-1" points="47.69 5.46 45.17 7.98 50.21 7.98 47.69 5.46"/><polygon class="cls-1" points="87.75 45.52 84.84 42.61 84.84 48.42 87.75 45.52"/><polygon class="cls-1" points="47.69 85.57 49.69 83.58 45.69 83.58 47.69 85.57"/><polygon class="cls-1" points="75.65 53.15 75.65 37.86 80.09 37.86 55.34 13.11 55.34 17.18 40.05 17.18 40.05 13.11 15.3 37.86 19.55 37.86 19.55 53.15 15.27 53.15 40.05 77.93 40.05 74.38 55.34 74.38 55.34 77.93 80.12 53.15 75.65 53.15"/><polygon class="cls-1" points="7.64 45.52 10.36 48.24 10.36 42.8 7.64 45.52"/><polygon class="cls-2" points="84.84 37.86 80.09 37.86 84.84 42.61 84.84 37.86"/><polygon class="cls-2" points="84.84 53.15 84.84 48.42 80.12 53.15 84.84 53.15"/><polygon class="cls-2" points="75.65 53.15 80.12 53.15 84.84 48.42 84.84 42.61 80.09 37.86 75.65 37.86 75.65 53.15"/><polygon class="cls-2" points="40.05 7.98 40.05 13.11 45.17 7.98 40.05 7.98"/><polygon class="cls-2" points="55.34 7.98 50.21 7.98 55.34 13.11 55.34 7.98"/><polygon class="cls-2" points="55.34 17.18 55.34 13.11 50.21 7.98 45.17 7.98 40.05 13.11 40.05 17.18 55.34 17.18"/><polygon class="cls-2" points="40.05 83.58 45.69 83.58 40.05 77.93 40.05 83.58"/><polygon class="cls-2" points="55.34 83.58 55.34 77.93 49.69 83.58 55.34 83.58"/><polygon class="cls-2" points="40.05 74.38 40.05 77.93 45.69 83.58 49.69 83.58 55.34 77.93 55.34 74.38 40.05 74.38"/><polygon class="cls-2" points="10.36 53.15 15.27 53.15 10.36 48.24 10.36 53.15"/><polygon class="cls-2" points="10.36 37.86 10.36 42.8 15.3 37.86 10.36 37.86"/><polygon class="cls-2" points="19.55 37.86 15.3 37.86 10.36 42.8 10.36 48.24 15.27 53.15 19.55 53.15 19.55 37.86"/><path class="cls-3" d="M19.89,53c.06-.16.14-.4.23-.6l-.24.64Z" transform="translate(-0.09)"/><path class="cls-3" d="M20,52.78c-.09.22-.19.43-.29.65l.15-.32c-.14.33-.3.69-.36.81C19.57,53.77,19.81,53.14,20,52.78Z" transform="translate(-0.09)"/><path class="cls-3" d="M19.74,53.28c0-.05-.19.37-.24.5C19.58,53.6,19.68,53.41,19.74,53.28Z" transform="translate(-0.09)"/><path class="cls-3" d="M20.62,51.38l-.14.26A2.41,2.41,0,0,1,20.62,51.38Z" transform="translate(-0.09)"/><path class="cls-3" d="M20.48,51.64l0,.06,0,0Z" transform="translate(-0.09)"/><path class="cls-3" d="M17.9,56.63l.13-.24-.26.51c.09-.16.23-.43.36-.69-.16.33,0,0,0,.06l-.24.46.35-.66-.07.14c.38-.72.3-.52.54-1l.12-.23a14.65,14.65,0,0,0,.75-1.4c-.07.12.32-.68-.14.21l.18-.35c.1-.23-.36.68-.38.69l.3-.58.13-.24.1-.21.27-.51c-.29.53-.06.11-.4.75-.06.11,0,0,0,0s-.14.29-.27.53a3.93,3.93,0,0,1-.32.57c0,.06,0,0,.11-.23.05-.08.15-.28.21-.39-.1.2-.36.68-.4.77l.43-.84c-.46.89.08-.16-.19.36.18-.34.28-.53.29-.56s-.18.35-.18.33l.38-.72.19-.36c-.09.17-.34.63-.36.68,0-.1.14-.28.2-.38l-.28.52.32-.61.07-.14-.32.61.7-1.33.33-.63-.1.19.39-.75-.15.27-.17.33c-.09.16.1-.18.2-.38l-.54,1,.39-.74L20.3,52c.2-.38-.18.34,0,.06l.17-.34c-.08.16.22-.4.12-.22l.28-.53.15-.27-.35.64.22-.41c-.27.49,0,0-.3.57l.08-.17-.29.55s.36-.67.26-.5-.07.14,0-.07c-.29.54-.37.69-.41.75.18-.35-.09.16-.43.77l-.5.92c-.07.14.08-.14.08-.14l-.6,1.1.26-.48c.12-.22,0,0,.13-.23l-.42.78c.21-.4,0-.07-.07.13l.29-.54-.49.91.26-.49-.42.79.17-.31-.27.49c.07-.13.12-.22,0,.06l-.29.54c0-.08.87-1.59.89-1.64l-.17.32.18-.34-.21.41c.58-1.08-.05.1.26-.47l-.26.49.26-.49c-.26.5-.42.81-1,1.94l.26-.48-.29.55.3-.56c-.2.38.32-.59.15-.27s-.1.19-.2.37c.27-.49.12-.18.18-.28-.18.35-.24.49-.46.94l.09-.18c-.23.46,0,0-.1.24Z" transform="translate(-0.09)"/><path class="cls-3" d="M20.31,52.08l.2-.42-.14.29C20.2,52.28,20.35,52,20.31,52.08Z" transform="translate(-0.09)"/><polygon class="cls-3" points="19.57 53.34 19.67 53.14 19.65 53.17 19.57 53.34"/><polygon class="cls-3" points="19.88 52.66 19.84 52.72 20.03 52.38 19.88 52.66"/><path class="cls-3" d="M20.83,51,21,50.7l-.11.2Z" transform="translate(-0.09)"/><path class="cls-3" d="M21.71,49.32c-.38.72,0,0-.35.65C21.43,49.85,21.58,49.56,21.71,49.32Z" transform="translate(-0.09)"/><path class="cls-3" d="M21.14,50.38l.11-.2C21.42,49.86,21.22,50.23,21.14,50.38Z" transform="translate(-0.09)"/><path class="cls-3" d="M67.66,20.83c.43-.41-.35-.3-1-.19l-.21.88Z" transform="translate(-0.09)"/><path class="cls-3" d="M64.76,22.14l-1.05,1.39.83-.85c1.29-.3.21.73-.14,1.08C66.14,22.61,64.66,22.66,64.76,22.14Z" transform="translate(-0.09)"/><path class="cls-3" d="M62.3,24.18c-.91.47-.42.72,0,.63C62.28,24.61,62.74,24.09,62.3,24.18Z" transform="translate(-0.09)"/><path class="cls-3" d="M36.1,24.92c.26.19.55.47.43.55.19.05.31.08.28,0S36.61,25.15,36.1,24.92Z" transform="translate(-0.09)"/><path class="cls-3" d="M36.53,25.47l-.24-.06.2.09S36.52,25.48,36.53,25.47Z" transform="translate(-0.09)"/><path class="cls-3" d="M27.76,46.36a3.26,3.26,0,0,1,.07.53c0,.25,0,.48.06.71a11.06,11.06,0,0,0,.23,1.34,6,6,0,0,0,.61,1.62,4.77,4.77,0,0,0,2.21,2,5.12,5.12,0,0,0,2.83,1,4.05,4.05,0,0,0,2-.86,1,1,0,0,0,.32-.42,2.08,2.08,0,0,1,.41-.84,6.57,6.57,0,0,0,2-1.63c.6-.67,1-1.29,1.23-1.49.46-.12,0,.6-.05.85.87-1.27.38-1.56,1.47-2.88l.13.08C43.2,42.8,46.84,39.29,49.83,36c-.24.18-.27,0-.43,0,1.69-1.64,3.61-3.3,5.42-4.92a37.88,37.88,0,0,0,4.73-4.79c-2.09,1.48-6.21,3.35-7.62,5.82-1,.29-1.79,1.71-2.47,1.54-3,2.3-3.42,4.11-5.89,6.69-.43.3-.47-.08-.76-.15.58-.76,1.19-1.51,1.81-2.25-.47.36-.94.71-1.4,1.09.34-.73,1.79-1.9,1.59-2.42-1.4,2.18-4.5,4.81-5.36,7,.76-.71,1.5-1.77,2.36-2.64.49-.27,1.17-.77,1.33-.55a31.6,31.6,0,0,1-2.88,4c-1,1.22-2,2.5-3.28,4-.62.74-1.72,1.58-2,1.45.45-.47-.07-.35.25-.77-.45.51-.35.72-.31,1a.46.46,0,0,1-.17.42,1.72,1.72,0,0,1-.47.34,2.67,2.67,0,0,1-1.26.3,2.81,2.81,0,0,0,.39-1,1.15,1.15,0,0,1-1.35.25,2,2,0,0,1-1.12-1.23,4.77,4.77,0,0,1-.23-1.34,4.84,4.84,0,0,0-.16-1.2c.21-.23.35-.11.43.19s.12.86.25,1.42a5.85,5.85,0,0,0-.2-1.33,2.23,2.23,0,0,1-.16-1l.73.95c-.7-1,.32-1.74.65-2.23-.18-.1-.87.33-.63-.89.19-.5.35-.2.48-.3a1.4,1.4,0,0,1-.31-1.41c.29-.09.28.61.54.72a3.05,3.05,0,0,1,.48-1.48c0-1.09-.4,0-.52-.73.59-1.56.94.07,1.64-.37.06,1.28-.15,2.81,0,3.48.06-.76.15-1.53.26-2.3.28.21.9-1.38.91-.13a27.11,27.11,0,0,0,1-3.55l.62-2.67c.21-.91.37-1.75.53-2.52-.26.5-.5,1.09-.7,1.06a2.69,2.69,0,0,1,1-1.95c0-.55-.15-.66-.38-.67s-.49,0-.67-.1a9.08,9.08,0,0,0,.45-1.35c.09-.36.14-.63.19-.88.07-.52.27-1,.37-2l-.38.54A.88.88,0,0,0,36.57,26c-.33-.15-.73-.26-1.26-.51,0-.12.54-.17,1-.07a3.39,3.39,0,0,1-1-.44.85.85,0,0,0-.92,0,5,5,0,0,1,1.09-.64c-.88-.1-2,.49-1.39-.22-.35.21-.73.44-1.13.66s-.82.51-1.24.76a6.76,6.76,0,0,0-1.3.86A27.06,27.06,0,0,0,27.9,28.6V28a12.17,12.17,0,0,1-2.21,2.39c-.2.19-.48.43-.6.58s-.27.3-.38.44a1.74,1.74,0,0,0-.39.85l-.23,0c-.29.59-.56,1.18-.81,1.78-.61.57-.94-.12-.84.06a19.17,19.17,0,0,1-3,3.27c.29.64-.81,2.2-1.71,3.41-2.48,2.66-4.81,5.57-7.17,8.35a72.32,72.32,0,0,1-7.32,7.65A14.57,14.57,0,0,0,2,58,4.49,4.49,0,0,1,.09,59.16a3.35,3.35,0,0,0,1.81-.5c.41-.25.78-.52,1.44-1,1.08-.52,1.77-.28,2.84-.57L5.45,57c1-1.3,1.06-.43,1.67-1.66l.51.69c0-.63,1.15-1.06,1.63-1.22l-.1-.72c.94-.44,1.52-.79,2.12-.62l-.45-.32c.51,0,2.64-2.78,2.49-1.29a1.84,1.84,0,0,1,.55-1.11l.47.3c.52-.77,1.12-1.6,1.52-1.6a1.29,1.29,0,0,0-.09,1c2.6-2.85-.78-1.78,1.37-4.38l.24.26.26-.89.92-.4c-.15-1.7,3.07-3.53,3.87-5.44.43-.67,1.65-1,2.56-2.12l-.47-.29c.62-.24,1.71-1.16,2.9-1.9.3-.19.6-.38.89-.54l.44-.24a.41.41,0,0,1,.22,0,.86.86,0,0,1,.63.5c0-.55-.05-.11-.24-.53.1-.49.28-.53.35-.35a2,2,0,0,1,.1.78.77.77,0,0,0,.06-.4.76.76,0,0,1,0-.5c.13.21.22-.15.44-.58s.42-.74.58-.54c-.24.59-.35.49-.55.92a1.67,1.67,0,0,1,.58-.66c.2-.11.42-.06.47.13,0,.38-.22.8-.22,1.08l-.47.7a2.67,2.67,0,0,0-.46.78c-.71,1.91-1.44,4-2.07,5.87l.18.11a6.67,6.67,0,0,0-.66,2.55c0,.47-.09.93-.12,1.42,0,.24,0,.49-.07.74,0,.09,0,.31-.05.53s0,.44,0,.66a7.91,7.91,0,0,1,.13-.85,1.46,1.46,0,0,1,.09-.32Z" transform="translate(-0.09)"/><path class="cls-3" d="M45,35.63l-.53-.13q-.51.69-1,1.41C44.21,36.69,44.23,36.21,45,35.63Z" transform="translate(-0.09)"/><polygon class="cls-3" points="45.6 36.9 46.08 36.15 45.09 37.14 45.6 36.9"/><path class="cls-3" d="M32.2,46.89l-.09.2a2.8,2.8,0,0,0,.41,1.27c.24.34.39.25.52.17a.3.3,0,0,1-.22,0,.64.64,0,0,1-.3-.3A3.1,3.1,0,0,1,32.2,46.89Z" transform="translate(-0.09)"/><path class="cls-3" d="M36.47,24.57c.54-.05,1,.47,1.37.68a3.15,3.15,0,0,0-1.57-.84A1.56,1.56,0,0,1,36.47,24.57Z" transform="translate(-0.09)"/><path class="cls-3" d="M21,32.15c.22,1-.79.85.29.79C21.78,32.17,21,32.53,21,32.15Z" transform="translate(-0.09)"/><path class="cls-3" d="M19.59,35.52a2.07,2.07,0,0,0,.55-1C19.41,34.82,19.72,35.13,19.59,35.52Z" transform="translate(-0.09)"/><path class="cls-3" d="M48.88,61.57c.11.25.43,0,.7-.12l-.6-.39Z" transform="translate(-0.09)"/><path class="cls-3" d="M49.38,60.5l-.51-.77.2.51c-.47.35-.7-.27-.77-.48C48.24,60.56,49,60.26,49.38,60.5Z" transform="translate(-0.09)"/><path class="cls-3" d="M49.18,59.23c.16-.35-.31-.39-.5-.28C48.86,59,49,59.34,49.18,59.23Z" transform="translate(-0.09)"/><path class="cls-3" d="M60.21,38.45c-.13.06-.24.15-.35.08C59.93,38.69,60,38.76,60.21,38.45Z" transform="translate(-0.09)"/><path class="cls-3" d="M59.86,38.53l0-.11v.08S59.85,38.52,59.86,38.53Z" transform="translate(-0.09)"/><path class="cls-3" d="M51.59,43.12c.13.53-.16.66-.2,1.09l-.61,0c0,.47.36.37.49.79-.49.21-.54,1.12-.64,1.29-.29,0-.26-.3-.38-.43,0,.56.47.74.22,1.34l-.15-.06c.12,1.74-.86,3.46-1,5.25.07-.09.17,0,.3,0-.49,1.75-1.2,3.76-.36,5.54.17-1,1.56-2.2,1-3.48.52-.19.17-.93.76-.86.76-1.21,0-2.12.55-3.38.18-.14.4.06.67.11L52,51.36l.46-.51c.12.36-.31.92.13,1.19-.21-1.1.82-2.27.49-3.31-.27.3-.32.8-.54,1.2-.25.11-.5.34-.74.21-.22-1.51.58-2.35.9-3.67.08-.33.31-.72.58-.66,0,.24.27.18.31.4,0-.53-.87-.45-.49-1l.82.47c-.79-.66.51-.69.18-1.37.42,0,.48.38.35.73.33-.31-.15-.58,0-.88l.6.63c-.55-.65.4-.53.72-.6-.17-.11-.8-.19-.57-.58.17-.13.32,0,.44.05-.17-.11-.43-.41-.33-.69.27.07.29.35.53.48.08-.21.11-.4.38-.45,0-.46-.37-.14-.53-.48.43-.48.87.33,1.49.37a14.09,14.09,0,0,1,.11,1.48l.17-.9c.26.18.74-.31.82.24A4.84,4.84,0,0,0,59.17,41c-.15.07-.27.18-.44.07,0-.47.35-.26.59-.25-.06-.38-.57-.58-.86-.93.7-.41.48-.61,1.32-.85l-.51-.2c.57-.18-.16-.58.32-.84.11,0,.17.24.23.41,0-.42.57-.12.53-.55l.43.52c.1-.28.12-.76.52-.4-.35-.73.26-1.46.2-2.2l.42.24c-.38-.55.54-1.12,0-1.67l.19,0-.3-.88c.18-.25.78.14.62,0a2.33,2.33,0,0,1,.74-1.44c-.53-.36-.39-1.06-.23-1.6A19.52,19.52,0,0,0,65.5,22.8c.13-.35-.29-1.11-.38-1.66-.38.46-.11.64-.35,1.15-.32.31-1,.18-1.5.34l.56.06c.16.7-.42.24-.12.87l-.77-.37c.33.32-.16.53-.43.59l.48.38a1.58,1.58,0,0,1-1.21.22l.51.2c-.37,0-.52,1.28-1.19.5.07.15.29.35.14.53l-.51-.19c0,.36-.07.73-.39.69a1,1,0,0,0-.43-.52c-.66,1.22,1.5,1,1,2.15l-.32-.16.21.44-.54.11c.91.91-.82,1.53-.55,2.47,0,.31-.84.36-1,.9l.51.19c-.69.18-1.71,1.55-3,1.4.21.56.13,0,.51.2.18,1-.63.68-1.1.94,0,.57.35-.27.61.15-.7.53.35.85-.38,1.57-.32,0-.09-.31-.23-.49.22.85-.61,1.85-.93,2.81-.83.88-1.67,2.36-2.68,3.37l.17.11c-.7.29-.52,1-1,1.54Z" transform="translate(-0.09)"/><path class="cls-3" d="M53.05,52.55l.47.08-.06-.69C53,52,53.27,52.27,53.05,52.55Z" transform="translate(-0.09)"/><polygon class="cls-3" points="51.7 51.88 51.77 52.26 51.94 51.77 51.7 51.88"/><polygon class="cls-3" points="55.52 45.05 55.42 45.09 55.3 46.33 55.52 45.05"/><path class="cls-3" d="M60.62,38.69c.17.22,0,.36.09.55v-.59Z" transform="translate(-0.09)"/><path class="cls-3" d="M64.55,34.67c-.68-.53.18-.37-.63-.44C63.91,34.59,64.33,34.47,64.55,34.67Z" transform="translate(-0.09)"/><path class="cls-3" d="M64,33.05c-.1.16,0,.3,0,.45C64.43,33.43,64,33.24,64,33.05Z" transform="translate(-0.09)"/><path class="cls-3" d="M26.68,78.09c-.27.4.36.26.9.15v-.82Z" transform="translate(-0.09)"/><path class="cls-3" d="M28.84,76.81l.63-1.3-.55.81c-1,.28-.32-.69-.08-1C27.58,76.39,28.83,76.33,28.84,76.81Z" transform="translate(-0.09)"/><path class="cls-3" d="M30.55,75c.69-.42.24-.67-.12-.6C30.5,74.54,30.19,75,30.55,75Z" transform="translate(-0.09)"/><path class="cls-3" d="M72.82,47.82c-.24.07-.5.19-.55.07C72.15,48.15,72.17,48.28,72.82,47.82Z" transform="translate(-0.09)"/><path class="cls-3" d="M72.27,47.89l.08-.17-.1.12S72.27,47.87,72.27,47.89Z" transform="translate(-0.09)"/><path class="cls-3" d="M55.73,52.74c-.55.8-1.09.91-1.71,1.52l-.72-.19c-.65.68-.06.63-.44,1.26-.9.19-2.18,1.48-2.52,1.69-.38-.06.07-.5.09-.71-.78.78-.41,1.19-1.51,2l-.11-.12c-2.19,2.52-5.67,4.69-8.33,7.16.21-.11.23,0,.38.06-3,2.34-6.58,4.87-8.27,7.7,1.6-1.3,5-2.55,6.11-4.57.86-.11,1.51-1.27,2.1-1,2.59-1.5,3-3,5.35-4.68.39-.15.39.19.64.35l-1.71,1.52,1.27-.61c-.35.56-1.65,1.24-1.5,1.76C46.13,64.22,49,62.79,50,61.21c-.74.36-1.49,1.07-2.31,1.58-.45.09-1.06.36-1.19.11,1.81-2.23,3.91-3.22,6.09-5,.55-.45,1.37-1,1.62-.81-.33.34.09.32-.15.65.69-.76-.48-.86.77-1.61l.39.89c-.1-1.15,1.56-.88,2.07-1.95.52.1.09.67-.55,1.15.83-.38.59-.88,1.19-1.28l-.1,1c.19-1.07,1.21-.66,1.71-.7-.07-.19-.75-.46.07-1,.4-.16.34.13.48.17a1.09,1.09,0,0,1,.52-1.07c.25.16-.11.57,0,.82a2,2,0,0,1,1.09-.56c.56-.67-.27-.29,0-.83,1.17-.58.64.69,1.36.89-.59.87-1.55,1.69-1.86,2.17l1.42-1.26c.08.33,1.35-.28.71.54A21.48,21.48,0,0,0,68,51.49c-.27.06-.58.19-.65,0,.66-.68.8-.3,1.09-.22.44-.58.06-1,.18-1.56,1.43-.45,1.43-.79,2.82-1l-.39-.39c1-.19.56-.91,1.49-1.26.12.06-.08.4-.23.68.55-.67.91-.14,1.41-.85l-.12.9c.51-.45,1.12-1.26,1.21-.64a7.48,7.48,0,0,1,1.33-1.94l.44-.56.26-.34.25-.37a5.21,5.21,0,0,0,.69-1.49l.39.28a13.7,13.7,0,0,1,.3-1.78,4,4,0,0,0-.13-2.06,1.52,1.52,0,0,0-.58-.73l.12-.2a5.17,5.17,0,0,0-1.71-1.22c-.59-.59.11-.92-.07-.82l-.63-.41L75,35.16l-.76-.46a2.49,2.49,0,0,1-.87-.89.82.82,0,0,1-1-.12,2.54,2.54,0,0,1-.79-1.17A6.73,6.73,0,0,1,71.89,29,9.48,9.48,0,0,1,74,25.8a21.36,21.36,0,0,1,6.7-4.56c.38-.1.76-.45,1.28-.64a1.16,1.16,0,0,1,.75-.05c.21.06.36.21.27.29a.51.51,0,0,0-.22-.62A1,1,0,0,0,82.2,20a4.86,4.86,0,0,0-1.41.28c-.94.08-1.46-.43-2.4-.52l.58.35c-1.06.86-1,.05-1.68.95l-.31-.8c-.16.55-1.13.63-1.58.63v.68c-.88.12-1.42.33-1.94,0l.37.4c-.23-.05-.91.44-1.46.83s-1,.67-.94-.05a1.9,1.9,0,0,1-.56,1l-.46-.31c-.52.74-1,1.62-1.42,1.68a1.44,1.44,0,0,0,0-1.05c-1.26,1.66-.86,2.18-.54,2.48a1.2,1.2,0,0,1,.43.64,4,4,0,0,1-.22,1.56l-.33-.13a8.81,8.81,0,0,0,.19.92c-.2.27-.37.55-.55.85.56.66.53,1.77.83,3.07a6.18,6.18,0,0,0,.75,1.9,3.36,3.36,0,0,0,1.36,1.28,4.8,4.8,0,0,1,.9,1,3.83,3.83,0,0,0,1.08,1.05l.28-.47c.09.45.55,1.12.17,1.7a1.15,1.15,0,0,1-1.24.43c.39.19.12,0,.57.1.22.25,0,.37-.15.32a1.08,1.08,0,0,1-.32-.13,1.44,1.44,0,0,0-.49.08c-.19.4,0,.32.16.21s.4-.21.42.08c-1.22.67-.3,1.31-1.93,2.26-.34-.11.23-.47.23-.75-.57,1.29-2.77,2.56-4.43,3.85-2.2,1.06-5.27,3-7.89,4.24l.07.19c-1.26.27-2,1.39-3.32,2Z" transform="translate(-0.09)"/><path class="cls-3" d="M44.68,66.72l.45.25L46,66C45.37,66,45.33,66.38,44.68,66.72Z" transform="translate(-0.09)"/><polygon class="cls-3" points="44.01 65.39 43.57 65.97 44.46 65.3 44.01 65.39"/><polygon class="cls-3" points="58.05 56.5 57.87 56.54 56.05 58.29 58.05 56.5"/><path class="cls-3" d="M73,48.24c-.08.39-.48.57-.63.9l.82-1Z" transform="translate(-0.09)"/><path class="cls-3" d="M78.25,34.62c-1.24,0-1.3-1-1,.15C78.34,35.52,77.76,34.56,78.25,34.62Z" transform="translate(-0.09)"/><path class="cls-3" d="M74.62,33.48a1.22,1.22,0,0,0,.75.23C75.15,33.12,74.92,33.48,74.62,33.48Z" transform="translate(-0.09)"/></g></g></svg>