<?xml version="1.0" encoding="utf-8"?>
<!-- Generator: Adobe Illustrator 23.0.2, SVG Export Plug-In . SVG Version: 6.00 Build 0)  -->
<svg version="1.1" id="Layer_1" xmlns="http://www.w3.org/2000/svg" xmlns:xlink="http://www.w3.org/1999/xlink" x="0px" y="0px"
	 viewBox="0 0 181.9 181.9" style="enable-background:new 0 0 181.9 181.9;" xml:space="preserve">
<style type="text/css">
	.st0{opacity:0.26;}
	.st1{fill:none;stroke:#FFFFFF;stroke-width:3.89;stroke-miterlimit:10;}
	.st2{fill:none;stroke:#E34659;stroke-width:10;stroke-miterlimit:10;}
	.st3{fill:#FFFFFF;}
</style>
<title>Asset 2</title>
<g class="st0">
	<g id="Body">
		<polyline class="st1" points="149.9,115.2 178.9,90.7 149.9,66.1 		"/>
		<polyline class="st1" points="115.8,32 91.3,3 66.7,32 		"/>
		<polyline class="st1" points="32,66.5 3,91 32,115.5 		"/>
		<polyline class="st1" points="66.7,149.9 91.2,178.9 115.8,149.9 		"/>
		
			<rect x="35.1" y="34.6" transform="matrix(0.7071 -0.7071 0.7071 0.7071 -37.4133 91.0619)" class="st2" width="112.2" height="112.2"/>
		<path class="st3" d="M53.9,103.1c0.1-0.3,0.3-0.8,0.4-1.1L53.9,103.1L53.9,103.1z"/>
		<path class="st3" d="M54,102.8c-0.2,0.4-0.3,0.8-0.5,1.2l0.3-0.6c-0.3,0.6-0.5,1.3-0.7,1.5C53.3,104.6,53.7,103.5,54,102.8z"/>
		<path class="st3" d="M53.6,103.7c0-0.1-0.3,0.7-0.5,0.9L53.6,103.7z"/>
		<path class="st3" d="M55.2,100.2l-0.3,0.5L55.2,100.2z"/>
		<path class="st3" d="M55,100.7l-0.1,0.1l0,0L55,100.7z"/>
		<path class="st3" d="M50.2,110c0.3-0.6,0.1-0.2,0.3-0.4l-0.5,1l0.7-1.3c-0.3,0.6,0,0.1,0,0.1l-0.5,0.9l0.7-1.2l-0.1,0.3
			c0.7-1.3,0.6-1,1-1.8l0.2-0.4c0.2-0.3,0.3-0.4,1.4-2.6c-0.1,0.2,0.6-1.3-0.3,0.4c0.3-0.7-0.2,0.3,0.3-0.7c0.2-0.4-0.7,1.3-0.7,1.3
			l0.6-1.1l0.2-0.4l0.2-0.4l0.5-1l-0.8,1.4c-0.1,0.2,0,0,0,0l-0.5,1c-0.2,0.4-0.4,0.7-0.6,1.1c-0.1,0.1,0,0,0.2-0.4l0.4-0.8
			c-0.2,0.4-0.8,1.6-0.8,1.4l0.8-1.6c-0.9,1.7,0.2-0.3-0.4,0.7l0.5-1c0.1-0.3-0.3,0.6-0.3,0.6l0.7-1.3c-0.7,1.3,0.1-0.3,0.3-0.7
			l-0.7,1.3l0.4-0.7l-0.5,1l0.6-1.1c0,0-0.1,0.1,0.1-0.3l-0.6,1.1l1.3-2.5l0.6-1.2l-0.2,0.3l0.7-1.4c0.3-0.5-0.1,0.1-0.3,0.5
			l-0.3,0.6c-0.2,0.3,0.2-0.3,0.4-0.7l-1,1.9l0.7-1.4l-0.5,0.9c0.4-0.7-0.3,0.6-0.1,0.1l0.3-0.6c-0.2,0.3,0.4-0.8,0.2-0.4l0.5-1
			c0,0-0.2,0.3,0.3-0.5l-0.6,1.2l0.4-0.8l-0.6,1l0.2-0.3l-0.5,1c0-0.1,0.7-1.3,0.5-0.9l0.1-0.1l-0.8,1.4c0.3-0.7-0.2,0.3-0.8,1.4
			l-0.9,1.7l0.2-0.3l-1.1,2.1l0.5-0.9c0.2-0.4,0,0.1,0.2-0.4l-0.8,1.4c0.4-0.7,0.1-0.1-0.1,0.3l0.5-1l-0.9,1.7l0.5-0.9L51,108
			l0.3-0.6l-0.5,0.9c0.1-0.2,0.2-0.4,0,0.1l-0.6,1l1.7-3.1l-0.3,0.6l0.3-0.6l-0.4,0.8c1.1-2-0.1,0.2,0.5-0.9l-0.5,0.9l0.5-0.9
			l-1.9,3.6l0.5-0.9C51.1,108,50.4,109.4,50.2,110l0.5-1c-0.4,0.7,0.6-1.1,0.3-0.5l-0.4,0.7c0.5-0.9,0.2-0.3,0.3-0.5l-0.8,1.7
			L50.2,110c-0.4,0.9,0,0.1-0.2,0.5L50.2,110z"/>
		<path class="st3" d="M54.7,101.5l0.4-0.8l-0.3,0.5C54.5,101.8,54.7,101.3,54.7,101.5z"/>
		<polygon class="st3" points="53.5,103.8 53.6,103.5 53.6,103.5 		"/>
		<polygon class="st3" points="54,102.6 54,102.7 54.3,102 		"/>
		<path class="st3" d="M55.6,99.4l0.3-0.5l-0.2,0.4L55.6,99.4z"/>
		<path class="st3" d="M57.3,96.3l-0.7,1.2L57.3,96.3z"/>
		<path class="st3" d="M56.2,98.3l0.2-0.4L56.2,98.3z"/>
		<path class="st3" d="M119.7,53.4c0.7-0.6-0.5-0.5-1.5-0.3l-0.3,1.3L119.7,53.4z"/>
		<path class="st3" d="M115.4,55.4l-1.6,2.1l1.3-1.3c1.9-0.5,0.3,1.1-0.2,1.6C117.4,56.1,115.2,56.2,115.4,55.4z"/>
		<path class="st3" d="M111.7,58.4c-1.4,0.7-0.6,1.1,0,1C111.7,59.1,112.4,58.3,111.7,58.4z"/>
		<path class="st3" d="M72.6,59.5c0.4,0.3,0.8,0.7,0.7,0.8c0.3,0.1,0.5,0.1,0.4,0C73.4,60,73,59.7,72.6,59.5z"/>
		<path class="st3" d="M73.2,60.4l-0.4-0.1L73.2,60.4C73.1,60.4,73.2,60.4,73.2,60.4z"/>
		<path class="st3" d="M60.1,91.6l0.1,0.4c0,0.1,0,0.3,0,0.4c0,0.4,0.1,0.7,0.1,1.1c0.1,0.7,0.2,1.3,0.3,2c0.2,0.8,0.5,1.7,0.9,2.4
			c0.3,0.6,0.7,1.1,1.2,1.6c0.3,0.3,0.6,0.6,0.9,0.8c0.4,0.3,0.8,0.5,1.2,0.7c1.2,0.9,2.7,1.4,4.2,1.4c0.7-0.1,1.4-0.4,2.1-0.7
			c0.3-0.2,0.6-0.4,0.9-0.6c0.2-0.2,0.4-0.4,0.5-0.6c0.1-0.5,0.3-0.9,0.6-1.2c1.2-0.6,2.2-1.4,3.1-2.4c0.9-1,1.6-1.9,1.8-2.2
			c0.7-0.2-0.1,0.9-0.1,1.3c0.5-0.6,0.8-1.4,1-2.1c0.2-0.8,0.7-1.6,1.2-2.2l0.2,0.1c1.6-2.8,3.6-5.5,5.8-7.9c2.3-2.6,4.8-5.1,7-7.6
			c-0.4,0.3-0.4,0.1-0.6,0.1c2.5-2.4,5.4-4.9,8.1-7.3c2.6-2.2,4.9-4.6,7.1-7.2c-1.6,1.1-3.9,2.4-6.1,3.8c-2.1,1.2-3.9,2.9-5.3,4.9
			c-1.5,0.4-2.7,2.6-3.7,2.3c-1.8,1.4-3.4,3-4.7,4.8L86,79.9c-0.7,0.8-1.4,1.7-2.3,2.7c-0.6,0.4-0.7-0.1-1.1-0.2
			c0.9-1.1,1.8-2.3,2.7-3.4c-0.7,0.5-1.4,1.1-2.1,1.6c0.5-1.1,2.7-2.8,2.4-3.6c-2.1,3.3-6.7,7.2-8,10.4c1.1-1.1,2.2-2.6,3.5-3.9
			c0.7-0.4,1.7-1.2,2-0.8c-1.3,2.1-2.7,4.1-4.3,6c-1.5,1.8-3,3.7-4.9,5.9c-0.9,1.1-2.6,2.4-3,2.2c0.7-0.7-0.1-0.5,0.4-1.2
			c-0.7,0.8-0.5,1.1-0.5,1.4c0,0.2-0.1,0.5-0.3,0.6c-0.2,0.2-0.4,0.4-0.7,0.5c-0.6,0.3-1.2,0.5-1.9,0.4c0.3-0.4,0.5-1,0.6-1.5
			c-0.5,0.5-1.3,0.7-2,0.4c-0.8-0.3-1.4-1-1.7-1.8c-0.2-0.6-0.3-1.3-0.3-2c0-0.6-0.1-1.2-0.2-1.8c0.3-0.3,0.5-0.2,0.6,0.3
			s0.2,1.3,0.4,2.1c0-0.7-0.1-1.3-0.3-2c-0.2-0.5-0.3-1-0.2-1.6l1.1,1.4c-1-1.6,0.5-2.6,1-3.3c-0.3-0.1-1.3,0.5-1-1.3
			c0.3-0.8,0.5-0.3,0.7-0.4c-0.5-0.6-0.7-1.4-0.5-2.1c0.4-0.1,0.4,0.9,0.8,1.1c0-0.8,0.3-1.5,0.7-2.2c0-1.6-0.6,0-0.8-1.1
			c0.9-2.3,1.4,0.1,2.5-0.6c0.1,1.9-0.2,4.2-0.1,5.2c0.1-1.1,0.2-2.3,0.4-3.4c0.4,0.3,1.3-2.1,1.4-0.2c0.6-1.7,1.1-3.5,1.5-5.3
			c0.3-1.3,0.6-2.7,0.9-4s0.6-2.6,0.8-3.8c-0.4,0.8-0.7,1.6-1,1.6c0.1-1.1,0.6-2.2,1.5-2.9c0-0.3,0-0.6-0.1-0.8
			c-0.1-0.1-0.3-0.2-0.4-0.2c-0.3,0-0.7,0.1-1-0.1c0.3-0.6,0.5-1.3,0.7-2c0.1-0.5,0.2-1,0.3-1.3s0.1-0.8,0.3-1.2
			c0.1-0.6,0.2-1.1,0.3-1.7L74,62.8c0.2-0.6-0.1-1.3-0.8-1.6c-0.5-0.2-1.1-0.4-1.9-0.8c0-0.2,0.8-0.3,1.5-0.1
			c-0.5-0.1-1-0.4-1.5-0.7c-0.4-0.3-0.9-0.4-1.4-0.1c0.5-0.4,1.1-0.7,1.6-1c-1.3-0.1-3,0.7-2.1-0.3c-0.6,0.3-1.3,0.9-2.1,1.3
			s-1.5,0.9-2.3,1.3c-0.2,0.1-0.4,0.2-0.6,0.4l-0.7,0.5l-1.3,1.1c-0.8,0.7-1.6,1.4-2.3,2.2v-0.9c-0.9,1.3-2,2.6-3.3,3.6l-0.5,0.4
			c-0.2,0.2-0.3,0.3-0.4,0.4c-0.2,0.2-0.4,0.4-0.6,0.7c-0.3,0.4-0.5,0.8-0.5,1.3h-0.3c-0.4,0.9-0.8,1.8-1.2,2.7
			C52.5,74,52,73,52.2,73.2c-1.3,1.8-2.8,3.4-4.5,4.9c0.4,1-1.2,3.3-2.6,5.1c-3.7,4-7.2,8.3-10.7,12.5c-3.4,4.1-7,7.9-10.9,11.4
			c-0.7,0.6-1.3,1.2-1.9,1.9c-0.8,0.8-1.7,1.4-2.8,1.8c1,0,1.9-0.2,2.7-0.7c0.6-0.4,1.2-0.8,2.2-1.4c1.6-0.8,2.6-0.4,4.2-0.8
			l-1.1-0.2c1.5-1.9,1.6-0.7,2.5-2.5l0.8,1c0.1-0.9,1.7-1.6,2.4-1.8l-0.2-1.1c1.4-0.7,2.3-1.2,3.2-0.9l-0.7-0.5
			c0.8,0,3.9-4.2,3.7-1.9c0.1-0.6,0.4-1.2,0.8-1.7l0.7,0.4c0.8-1.2,1.7-2.4,2.3-2.4c-0.3,0.5-0.3,1-0.1,1.5c3.9-4.3-1.2-2.7,2-6.5
			l0.4,0.4l0.4-1.3l1.4-0.6c-0.2-2.5,4.6-5.3,5.8-8.1c0.7-1,2.5-1.4,3.8-3.2L55.3,78c0.9-0.4,2.5-1.7,4.3-2.8
			c0.4-0.3,0.9-0.6,1.3-0.8l0.7-0.3c0.1,0,0.2,0,0.3,0c0.4,0.1,0.8,0.4,0.9,0.7c0-0.8-0.1-0.2-0.4-0.8c0.2-0.7,0.4-0.8,0.5-0.5
			c0.1,0.4,0.2,0.8,0.2,1.2c0.1-0.3,0.1-0.5,0.1-0.6c-0.1-0.2-0.1-0.5,0-0.8c0.2,0.3,0.3-0.2,0.6-0.7s0.7-1.3,1-1
			c-0.4,0.9-0.5,0.7-0.8,1.4c0.2-0.4,0.5-0.8,0.9-1c0.3-0.2,0.6-0.1,0.7,0.2c0,0.3,0,0.6-0.2,0.9c-0.1,0.2-0.1,0.5-0.2,0.8l-0.7,1.1
			c-0.3,0.3-0.5,0.7-0.7,1.2c-1.1,2.8-2.2,5.9-3.1,8.8l0.3,0.2c-0.6,1.2-0.9,2.5-1,3.8c-0.1,0.7-0.1,1.4-0.2,2.1
			c0,0.4-0.1,0.7-0.1,1.1c0,0.1,0,0.2,0,0.3v0.5c0,0.3,0,0.7,0,1c0-0.4,0.1-0.9,0.2-1.3c0-0.1,0-0.2,0.1-0.3l0.1-0.2L60.1,91.6z"/>
		<path class="st3" d="M85.8,75.5L85,75.3c-0.5,0.7-1,1.4-1.5,2.1C84.7,77.1,84.7,76.4,85.8,75.5z"/>
		<polygon class="st3" points="86.9,77.4 87.6,76.3 86.1,77.8 		"/>
		<path class="st3" d="M66.7,92.4l-0.1,0.3c0,0.7,0.2,1.3,0.6,1.9c0.4,0.5,0.6,0.4,0.8,0.3c-0.1,0.1-0.2,0.1-0.3,0.1
			c-0.2-0.1-0.4-0.3-0.4-0.4C66.9,93.8,66.7,93.1,66.7,92.4z"/>
		<path class="st3" d="M73.1,59c0.8-0.1,1.5,0.7,2,1c-0.6-0.6-1.5-1.1-2.3-1.3C72.9,58.8,73,58.9,73.1,59z"/>
		<path class="st3" d="M50,70.3c0.3,1.5-1.2,1.3,0.4,1.2C51.2,70.4,50,70.9,50,70.3z"/>
		<path class="st3" d="M47.9,75.4c0.4-0.4,0.7-0.9,0.8-1.4C47.6,74.3,48.1,74.8,47.9,75.4z"/>
		<path class="st3" d="M95.3,121.5c0.2,0.3,0.6,0,1-0.3l-1-0.4V121.5z"/>
		<path class="st3" d="M95.8,119.8l-0.9-1l0.4,0.7c-0.6,0.6-1.1-0.2-1.3-0.5C94.2,120.1,95.3,119.5,95.8,119.8z"/>
		<path class="st3" d="M95.3,118c0.2-0.6-0.5-0.5-0.8-0.3C94.8,117.7,95,118.2,95.3,118z"/>
		<path class="st3" d="M107.1,84.9c-0.2,0.1-0.3,0.3-0.5,0.2C106.7,85.3,106.8,85.3,107.1,84.9z"/>
		<path class="st3" d="M106.6,85l-0.1-0.1C106.5,84.9,106.5,84.9,106.6,85L106.6,85z"/>
		<path class="st3" d="M95.3,93.6c0.3,0.8-0.1,1,0,1.7l-0.9,0.1c0.1,0.7,0.6,0.5,0.9,1.1c-0.7,0.4-0.6,1.8-0.7,2
			c-0.4,0.1-0.5-0.4-0.7-0.6c0.1,0.8,0.9,1,0.6,1.9h-0.2c0.5,2.5-0.5,5.3-0.4,8c0.1-0.2,0.3-0.1,0.4-0.1c-0.3,2.7-1,5.8,0.7,8.3
			c0-1.5,1.8-3.6,0.7-5.3c0.7-0.4,0-1.4,0.9-1.4c0.8-2-0.4-3.2,0.1-5.1c0.2-0.3,0.6,0,1,0v1.7l0.6-0.8c0.3,0.5-0.3,1.4,0.4,1.7
			c-0.6-1.6,0.7-3.5,0-5c-0.2,0.6-0.4,1.2-0.6,1.9c-0.3,0.2-0.7,0.6-1,0.5c-0.6-2.2,0.4-3.6,0.5-5.6c0-0.5,0.3-1.1,0.7-1.1
			c0,0.4,0.4,0.2,0.6,0.5c-0.1-0.8-1.4-0.5-0.9-1.4l1.3,0.5c-1.3-0.8,0.6-1.1,0-2.1c0.6-0.1,0.8,0.5,0.7,1c0.4-0.5-0.4-0.8-0.2-1.3
			l1,0.8c-1-0.8,0.5-0.9,0.9-1c-0.3-0.1-1.2-0.1-1-0.7c0.2-0.2,0.5,0,0.7,0c-0.3-0.1-0.7-0.5-0.6-1c0.4,0,0.5,0.5,0.9,0.6
			c0.1-0.3,0.1-0.6,0.5-0.8c-0.2-0.7-0.6-0.1-0.9-0.6c0.5-0.8,1.4,0.3,2.3,0.2c0.4,0.8,0.3,1.7,0.5,2.2v-1.3c0.4,0.2,1-0.6,1.3,0.2
			c0.8-1.1,0.7-2.8,0.7-4.1c-0.2,0.1-0.4,0.3-0.6,0.2c-0.1-0.7,0.4-0.5,0.8-0.5c-0.2-0.6-1-0.7-1.5-1.2c0.9-0.8,0.6-1,1.8-1.6
			l-0.8-0.2c0.8-0.4-0.4-0.8,0.3-1.3c0.2,0,0.3,0.3,0.4,0.6c-0.1-0.6,0.8-0.3,0.7-0.9l0.8,0.7c0.1-0.4,0-1.1,0.7-0.7
			c-0.7-1,0.1-2.2-0.2-3.3l0.7,0.3c-0.7-0.7,0.6-1.8-0.3-2.5h0.3l-0.6-1.2c0.2-0.4,1.2,0,0.9-0.1c0-0.8,0.3-1.6,0.8-2.3
			c-0.9-0.4-0.8-1.5-0.7-2.3c1.7-3.7,2-8.1,2-12c0.1-0.5-0.7-1.6-0.9-2.4c-0.5,0.8,0,1-0.3,1.8c-0.4,0.5-1.4,0.5-2.1,0.8h0.8
			c0.4,1-0.6,0.5,0,1.3l-1.2-0.4c0.6,0.4-0.1,0.8-0.5,1l0.8,0.5c-0.5,0.4-1.1,0.6-1.7,0.6l0.8,0.2c-0.6,0-0.5,2-1.7,1
			c0.1,0.2,0.5,0.5,0.3,0.8l-0.8-0.2c0.1,0.5,0.1,1.1-0.4,1.1c-0.1-0.3-0.4-0.5-0.7-0.7c-0.7,2,2.4,1.2,2,3l-0.5-0.2l0.4,0.6
			l-0.8,0.3c1.5,1.1-0.9,2.4-0.3,3.8c0,0.5-1.2,0.7-1.3,1.6l0.8,0.2c-1,0.4-2.2,2.7-4.2,2.7c0.4,0.8,0.2,0,0.8,0.2
			c0.5,1.4-0.8,1.1-1.4,1.6c0.2,0.8,0.5-0.5,0.9,0.1c-0.9,0.9,0.7,1.2-0.2,2.4c-0.5,0-0.2-0.4-0.4-0.7c0.5,1.2-0.5,2.9-0.8,4.3
			c-1,1.5-2,3.8-3.2,5.6l0.3,0.1c-1,0.6-0.5,1.7-1.1,2.5L95.3,93.6z"/>
		<path class="st3" d="M99.6,107.2h0.7l-0.2-1C99.4,106.5,99.8,106.8,99.6,107.2z"/>
		<polygon class="st3" points="97.6,106.5 97.8,107.1 97.9,106.3 		"/>
		<polygon class="st3" points="101.7,95.6 101.6,95.7 101.7,97.5 		"/>
		<path class="st3" d="M107.7,85.1c0.3,0.3,0.1,0.5,0.3,0.8l-0.1-0.9L107.7,85.1z"/>
		<path class="st3" d="M112.7,78.3c-1.1-0.7,0.2-0.6-1-0.5C111.7,78.3,112.3,78.1,112.7,78.3z"/>
		<path class="st3" d="M111.4,76.1c-0.1,0.2,0,0.5,0.2,0.7C112.2,76.5,111.6,76.3,111.4,76.1z"/>
		<path class="st3" d="M49.9,127.9c-0.5,0.5,0.5,0.5,1.3,0.5l0.2-1.2L49.9,127.9z"/>
		<path class="st3" d="M53.4,126.7l1.3-1.7l-1,1c-1.6,0.1-0.3-1.1,0.2-1.5C51.7,125.7,53.5,126,53.4,126.7z"/>
		<path class="st3" d="M56.5,124.5c1.1-0.4,0.6-0.9,0-0.9C56.5,123.9,55.9,124.5,56.5,124.5z"/>
		<path class="st3" d="M126.6,97.7c-0.4,0-0.8,0.1-0.8-0.1C125.5,98,125.5,98.2,126.6,97.7z"/>
		<path class="st3" d="M125.7,97.7l0.2-0.2C125.9,97.5,125.8,97.6,125.7,97.7C125.7,97.6,125.7,97.7,125.7,97.7z"/>
		<path class="st3" d="M100.1,99.7c-1,1-1.9,1-3,1.7l-1-0.5c-1.2,0.8-0.3,0.9-1,1.7c-1.4,0-3.6,1.5-4.2,1.7c-0.5-0.2,0.3-0.7,0.4-1
			c-1.4,0.9-1,1.6-2.8,2.4l-0.1-0.2c-4,3-9.7,5.1-14.4,7.9c0.3-0.1,0.3,0.1,0.5,0.2c-5.1,2.5-11.1,5.1-14.4,8.7
			c2.7-1.4,8-2.2,10.3-4.8c1.3,0.1,2.6-1.4,3.4-0.8c4.2-1.4,5.3-3.5,9.2-5.2c0.6-0.1,0.5,0.4,0.8,0.7l-3,1.7l2-0.5
			c-0.7,0.7-2.8,1.3-2.7,2.1c2.4-2,7-3.2,9-5.2c-1.2,0.3-2.5,1.1-3.9,1.6c-0.7,0-1.7,0.2-1.8-0.2c3.3-2.7,6.7-3.5,10.4-5.5
			c0.9-0.5,2.3-1,2.6-0.7c-0.6,0.4,0,0.5-0.4,0.9c1.3-0.9-0.4-1.4,1.6-2.1l0.3,1.4c0.2-1.7,2.6-0.8,3.6-2.2c0.7,0.3-0.1,1-1.2,1.5
			c1.3-0.3,1.1-1.1,2.1-1.5l-0.5,1.5c0.6-1.5,2-0.6,2.7-0.5c0-0.3-1-0.9,0.4-1.4c0.6-0.1,0.5,0.3,0.7,0.4c0-0.6,0.5-1.2,1.1-1.4
			c0.3,0.3-0.3,0.8-0.2,1.2c0.5-0.3,1.1-0.5,1.8-0.5c1-0.8-0.3-0.5,0.2-1.2c1.9-0.5,0.7,1.2,1.7,1.7c-1.1,1.1-2.8,2-3.4,2.6l2.5-1.4
			c0,0.5,2.1,0,0.9,1c2.7-0.7,5.7-2.5,8-3.9c-0.4,0-0.9,0.1-0.9-0.2c1.2-0.8,1.3-0.2,1.7,0c0.8-0.7,0.4-1.4,0.7-2.2
			c2.2-0.2,2.3-0.7,4.4-0.6l-0.4-0.7c1.5,0,1.1-1.2,2.6-1.4c0.2,0.1-0.2,0.6-0.5,0.9c1-0.8,1.4,0.1,2.3-0.8l-0.4,1.3
			c0.9-0.5,2-1.5,2-0.6c0.7-0.9,1.6-1.8,2.5-2.4l0.8-0.7l0.5-0.4l0.5-0.5c0.6-0.6,1.1-1.3,1.5-2l0.5,0.5c0.3-0.9,0.6-1.7,1-2.5
			c0.4-0.9,0.5-2,0.4-3c-0.1-0.5-0.3-0.9-0.6-1.3l0.3-0.3c-0.6-0.9-1.3-1.7-2.1-2.3c-0.7-1,0.4-1.3,0.1-1.2
			c-0.3-0.3-0.5-0.6-0.8-0.8l-0.4-0.4l-0.3-0.3c-0.4-0.3-0.7-0.6-1-0.9c-0.5-0.4-0.8-1-1-1.6c-0.5,0.2-1.1,0-1.4-0.5
			c-0.5-0.6-0.7-1.3-0.8-2c0-1.8,0.6-3.5,1.5-5.1c1.1-1.6,2.4-2.9,4-4c1.7-1.1,3.5-2.1,5.4-2.8c1.9-0.8,3.8-1.4,5.8-1.8
			c0.6,0,1.2-0.4,2.1-0.6c0.4-0.1,0.8,0,1.1,0.2c0.3,0.2,0.5,0.4,0.3,0.5c0.2-0.3,0.2-0.7-0.1-1c-0.2-0.2-0.5-0.4-0.7-0.4
			c-0.7-0.1-1.4-0.1-2.1,0c-1.4-0.2-2-1.1-3.4-1.5l0.8,0.7c-1.8,0.9-1.4-0.2-2.8,0.9l-0.2-1.3c-0.4,0.8-1.9,0.6-2.5,0.4l-0.2,1
			c-1.3-0.1-2.2,0-2.9-0.5l0.4,0.7c-0.3-0.1-1.5,0.4-2.4,0.8s-1.7,0.7-1.4-0.4c-0.3,0.4-0.4,0.9-1.1,1.3l-0.6-0.6
			c-1,0.9-2,2.1-2.6,2c0.3-0.5,0.4-1,0.3-1.5c-0.8,0.6-1.4,1.4-1.8,2.3c-0.1,0.4,0,0.8,0.2,1.2c0.3,0.3,0.4,0.7,0.4,1.1
			c-0.1,0.8-0.4,1.5-0.8,2.2l-0.4-0.3c0,0.5,0,0.9,0,1.4c-0.4,0.3-0.7,0.7-1.1,1.1c0.6,1.1,0.2,2.8,0.3,4.7c0,1,0.2,2,0.5,3
			c0.3,0.9,0.9,1.7,1.6,2.3c0.4,0.5,0.8,1.1,1,1.8c0.2,0.3,0.4,0.7,0.6,1c0.1,0.2,0.2,0.3,0.4,0.5c0.1,0.1,0.2,0.2,0.4,0.4L130,84
			c0,0.7,0.5,1.8-0.3,2.5c-0.5,0.5-1.3,0.6-2,0.3c0.5,0.4,0.2,0.1,0.8,0.3c0.3,0.4,0,0.6-0.3,0.4c-0.2-0.1-0.3-0.2-0.4-0.3
			c-0.2,0-0.5,0-0.7,0c-0.4,0.5-0.2,0.5,0.2,0.4s0.6-0.2,0.6,0.2c-0.6,0.2-1.2,0.6-1.5,1.2c-0.4,0.8-1.2,1.3-2,1.5
			c-0.5-0.3,0.5-0.6,0.6-1c-1.2,1.7-4.8,2.9-7.7,4.3c-3.5,0.9-8.6,2.8-12.8,3.8v0.3c-1.9,0-3.4,1.4-5.5,1.9L100.1,99.7z"/>
		<path class="st3" d="M79.7,116.8l0.6,0.5l1.6-1.2C80.9,115.9,80.7,116.5,79.7,116.8z"/>
		<polygon class="st3" points="79.2,114.7 78.4,115.4 79.9,114.7 		"/>
		<polygon class="st3" points="102.5,106 102.2,106 99,108 		"/>
		<path class="st3" d="M126.8,98.4c-0.2,0.5-0.9,0.7-1.2,1.1l1.5-1.1L126.8,98.4z"/>
		<path class="st3" d="M138.5,80.1c-0.6-0.1-1.1-0.4-1.5-0.9c-0.2-0.2,0-0.1,0,0.8C138.4,81.4,137.8,79.9,138.5,80.1z"/>
		<path class="st3" d="M133.6,77.3c0.1,0.2,0.3,0.3,0.5,0.4c0.2,0.1,0.3,0.1,0.5,0.2C134.5,77,134,77.4,133.6,77.3z"/>
	</g>
</g>
</svg>
