<svg xmlns="http://www.w3.org/2000/svg" viewBox="0 0 111203 225" width="111203" height="225"><path d="M1820.2 3l-21.58 170.34h-696.95l-126.45 49.25H3V3h1817.2z" fill="none" stroke="#111111" stroke-width="6" stroke-dasharray="0,4013.364007167572" stroke-dashoffset="4013.364007" stroke-miterlimit="10"/><path d="M3643.2 3l-21.58 170.34h-696.95l-126.45 49.25H1826V3h1817.2z" fill="none" stroke="#111111" stroke-width="6" stroke-dasharray="2.4003970360688185,4010.963610131503" stroke-dashoffset="4013.364007" stroke-miterlimit="10"/><path d="M5466.2 3l-21.58 170.34h-696.95l-126.45 49.25H3649V3h1817.2z" fill="none" stroke="#111111" stroke-width="6" stroke-dasharray="9.934955674012611,4003.429051493559" stroke-dashoffset="4013.364007" stroke-miterlimit="10"/><path d="M7289.2 3l-21.58 170.34h-696.95l-126.45 49.25H5472V3h1817.2z" fill="none" stroke="#111111" stroke-width="6" stroke-dasharray="23.157962098167715,3990.2060450694044" stroke-dashoffset="4013.364007" stroke-miterlimit="10"/><path d="M9112.2 3l-21.58 170.34h-696.95l-126.45 49.25H7295V3h1817.2z" fill="none" stroke="#111111" stroke-width="6" stroke-dasharray="42.705222552571975,3970.6587846149996" stroke-dashoffset="4013.364007" stroke-miterlimit="10"/><path d="M10935.2 3l-21.58 170.34h-696.95l-126.45 49.25H9118V3h1817.2z" fill="none" stroke="#111111" stroke-width="6" stroke-dasharray="69.3064087108714,3944.0575984567004" stroke-dashoffset="4013.364007" stroke-miterlimit="10"/><path d="M12758.2 3l-21.58 170.34h-696.95l-126.45 49.25H10941V3h1817.2z" fill="none" stroke="#111111" stroke-width="6" stroke-dasharray="103.79769308203583,3909.5663140855363" stroke-dashoffset="4013.364007" stroke-miterlimit="10"/><path d="M14581.2 3l-21.58 170.34h-696.95l-126.45 49.25H12764V3h1817.2z" fill="none" stroke="#111111" stroke-width="6" stroke-dasharray="147.13299296280084,3866.231014204771" stroke-dashoffset="4013.364007" stroke-miterlimit="10"/><path d="M16404.2 3l-21.58 170.34h-696.95l-126.45 49.25H14587V3h1817.2z" fill="none" stroke="#111111" stroke-width="6" stroke-dasharray="200.3905034914162,3812.9735036761554" stroke-dashoffset="4013.364007" stroke-miterlimit="10"/><path d="M18227.2 3l-21.58 170.34h-696.95l-126.45 49.25H16410V3h1817.2z" fill="none" stroke="#111111" stroke-width="6" stroke-dasharray="264.76841444302516,3748.595592724547" stroke-dashoffset="4013.364007" stroke-miterlimit="10"/><path d="M20050.2 3l-21.58 170.34h-696.95l-126.45 49.25H18233V3h1817.2z" fill="none" stroke="#111111" stroke-width="6" stroke-dasharray="341.5592766883823,3671.8047304791894" stroke-dashoffset="4013.364007" stroke-miterlimit="10"/><path d="M21873.2 3l-21.58 170.34h-696.95l-126.45 49.25H20056V3h1817.2z" fill="none" stroke="#111111" stroke-width="6" stroke-dasharray="432.08620776994104,3581.2777993976306" stroke-dashoffset="4013.364007" stroke-miterlimit="10"/><path d="M23696.2 3l-21.58 170.34h-696.95l-126.45 49.25H21879V3h1817.2z" fill="none" stroke="#111111" stroke-width="6" stroke-dasharray="537.5771659666294,3475.786841200942" stroke-dashoffset="4013.364007" stroke-miterlimit="10"/><path d="M25519.2 3l-21.58 170.34h-696.95l-126.45 49.25H23702V3h1817.2z" fill="none" stroke="#111111" stroke-width="6" stroke-dasharray="658.9507743883922,3354.4132327791795" stroke-dashoffset="4013.364007" stroke-miterlimit="10"/><path d="M27342.2 3l-21.58 170.34h-696.95l-126.45 49.25H25525V3h1817.2z" fill="none" stroke="#111111" stroke-width="6" stroke-dasharray="796.5004863397244,3216.8635208278474" stroke-dashoffset="4013.364007" stroke-miterlimit="10"/><path d="M29165.2 3l-21.58 170.34h-696.95l-126.45 49.25H27348V3h1817.2z" fill="none" stroke="#111111" stroke-width="6" stroke-dasharray="949.511197052174,3063.852810115398" stroke-dashoffset="4013.364007" stroke-miterlimit="10"/><path d="M30988.2 3l-21.58 170.34h-696.95l-126.45 49.25H29171V3h1817.2z" fill="none" stroke="#111111" stroke-width="6" stroke-dasharray="1115.9300584598657,2897.4339487077063" stroke-dashoffset="4013.364007" stroke-miterlimit="10"/><path d="M32811.2 3l-21.58 170.34h-696.95l-126.45 49.25H30994V3h1817.2z" fill="none" stroke="#111111" stroke-width="6" stroke-dasharray="1292.2952781443546,2721.068729023217" stroke-dashoffset="4013.364007" stroke-miterlimit="10"/><path d="M34634.2 3l-21.58 170.34h-696.95l-126.45 49.25H32817V3h1817.2z" fill="none" stroke="#111111" stroke-width="6" stroke-dasharray="1474.0913756221164,2539.2726315454556" stroke-dashoffset="4013.364007" stroke-miterlimit="10"/><path d="M36457.2 3l-21.58 170.34h-696.95l-126.45 49.25H34640V3h1817.2z" fill="none" stroke="#111111" stroke-width="6" stroke-dasharray="1656.4819363313468,2356.882070836225" stroke-dashoffset="4013.364007" stroke-miterlimit="10"/><path d="M38280.2 3l-21.58 170.34h-696.95l-126.45 49.25H36463V3h1817.2z" fill="none" stroke="#111111" stroke-width="6" stroke-dasharray="1835.1176747957834,2178.2463323717884" stroke-dashoffset="4013.364007" stroke-miterlimit="10"/><path d="M40103.2 3l-21.58 170.34h-696.95l-126.45 49.25H38286V3h1817.2z" fill="none" stroke="#111111" stroke-width="6" stroke-dasharray="2006.6820035837854,2006.6820035837864" stroke-dashoffset="4013.364007" stroke-miterlimit="10"/><path d="M41926.2 3l-21.58 170.34h-696.95l-126.45 49.25H40109V3h1817.2z" fill="none" stroke="#111111" stroke-width="6" stroke-dasharray="2169.044242384953,1844.319764782619" stroke-dashoffset="4013.364007" stroke-miterlimit="10"/><path d="M43749.2 3l-21.58 170.34h-696.95l-126.45 49.25H41932V3h1817.2z" fill="none" stroke="#111111" stroke-width="6" stroke-dasharray="2321.1155691521617,1692.24843801541" stroke-dashoffset="4013.364007" stroke-miterlimit="10"/><path d="M45572.2 3l-21.58 170.34h-696.95l-126.45 49.25H43755V3h1817.2z" fill="none" stroke="#111111" stroke-width="6" stroke-dasharray="2462.5790706274556,1550.7849365401164" stroke-dashoffset="4013.364007" stroke-miterlimit="10"/><path d="M47395.2 3l-21.58 170.34h-696.95l-126.45 49.25H45578V3h1817.2z" fill="none" stroke="#111111" stroke-width="6" stroke-dasharray="2593.620913260253,1419.7430939073188" stroke-dashoffset="4013.364007" stroke-miterlimit="10"/><path d="M49218.2 3l-21.58 170.34h-696.95l-126.45 49.25H47401V3h1817.2z" fill="none" stroke="#111111" stroke-width="6" stroke-dasharray="2714.7186167578757,1298.645390409696" stroke-dashoffset="4013.364007" stroke-miterlimit="10"/><path d="M51041.2 3l-21.58 170.34h-696.95l-126.45 49.25H49224V3h1817.2z" fill="none" stroke="#111111" stroke-width="6" stroke-dasharray="2826.494824698563,1186.8691824690084" stroke-dashoffset="4013.364007" stroke-miterlimit="10"/><path d="M52864.2 3l-21.58 170.34h-696.95l-126.45 49.25H51047V3h1817.2z" fill="none" stroke="#111111" stroke-width="6" stroke-dasharray="2929.624861180957,1083.739145986615" stroke-dashoffset="4013.364007" stroke-miterlimit="10"/><path d="M54687.2 3l-21.58 170.34h-696.95l-126.45 49.25H52870V3h1817.2z" fill="none" stroke="#111111" stroke-width="6" stroke-dasharray="3024.782384474221,988.5816226933506" stroke-dashoffset="4013.364007" stroke-miterlimit="10"/><path d="M56510.2 3l-21.58 170.34h-696.95l-126.45 49.25H54693V3h1817.2z" fill="none" stroke="#111111" stroke-width="6" stroke-dasharray="3112.6098513854395,900.7541557821326" stroke-dashoffset="4013.364007" stroke-miterlimit="10"/><path d="M58333.2 3l-21.58 170.34h-696.95l-126.45 49.25H56516V3h1817.2z" fill="none" stroke="#111111" stroke-width="6" stroke-dasharray="3193.7042615469845,819.6597456205875" stroke-dashoffset="4013.364007" stroke-miterlimit="10"/><path d="M60156.2 3l-21.58 170.34h-696.95l-126.45 49.25H58339V3h1817.2z" fill="none" stroke="#111111" stroke-width="6" stroke-dasharray="3268.611898546385,744.7521086211868" stroke-dashoffset="4013.364007" stroke-miterlimit="10"/><path d="M61979.2 3l-21.58 170.34h-696.95l-126.45 49.25H60162V3h1817.2z" fill="none" stroke="#111111" stroke-width="6" stroke-dasharray="3337.828127977645,675.5358791899268" stroke-dashoffset="4013.364007" stroke-miterlimit="10"/><path d="M63802.2 3l-21.58 170.34h-696.95l-126.45 49.25H61985V3h1817.2z" fill="none" stroke="#111111" stroke-width="6" stroke-dasharray="3401.7998642702387,611.564142897333" stroke-dashoffset="4013.364007" stroke-miterlimit="10"/><path d="M65625.2 3l-21.58 170.34h-696.95l-126.45 49.25H63808V3h1817.2z" fill="none" stroke="#111111" stroke-width="6" stroke-dasharray="3460.9292983075165,552.4347088600555" stroke-dashoffset="4013.364007" stroke-miterlimit="10"/><path d="M67448.2 3l-21.58 170.34h-696.95l-126.45 49.25H65631V3h1817.2z" fill="none" stroke="#111111" stroke-width="6" stroke-dasharray="3515.578079231731,497.7859279358407" stroke-dashoffset="4013.364007" stroke-miterlimit="10"/><path d="M69271.2 3l-21.58 170.34h-696.95l-126.45 49.25H67454V3h1817.2z" fill="none" stroke="#111111" stroke-width="6" stroke-dasharray="3566.071505450212,447.29250171735976" stroke-dashoffset="4013.364007" stroke-miterlimit="10"/><path d="M71094.2 3l-21.58 170.34h-696.95l-126.45 49.25H69277V3h1817.2z" fill="none" stroke="#111111" stroke-width="6" stroke-dasharray="3612.7024936436264,400.66151352394525" stroke-dashoffset="4013.364007" stroke-miterlimit="10"/><path d="M72917.2 3l-21.58 170.34h-696.95l-126.45 49.25H71100V3h1817.2z" fill="none" stroke="#111111" stroke-width="6" stroke-dasharray="3655.7352187022,357.62878846537177" stroke-dashoffset="4013.364007" stroke-miterlimit="10"/><path d="M74740.2 3l-21.58 170.34h-696.95l-126.45 49.25H72923V3h1817.2z" fill="none" stroke="#111111" stroke-width="6" stroke-dasharray="3695.4083878868823,317.95561928068935" stroke-dashoffset="4013.364007" stroke-miterlimit="10"/><path d="M76563.2 3l-21.58 170.34h-696.95l-126.45 49.25H74746V3h1817.2z" fill="none" stroke="#111111" stroke-width="6" stroke-dasharray="3731.9381509823143,281.42585618525766" stroke-dashoffset="4013.364007" stroke-miterlimit="10"/><path d="M78386.2 3l-21.58 170.34h-696.95l-126.45 49.25H76569V3h1817.2z" fill="none" stroke="#111111" stroke-width="6" stroke-dasharray="3765.520667959088,247.84333920848388" stroke-dashoffset="4013.364007" stroke-miterlimit="10"/><path d="M80209.2 3l-21.58 170.34h-696.95l-126.45 49.25H78392V3h1817.2z" fill="none" stroke="#111111" stroke-width="6" stroke-dasharray="3796.334364597467,217.029642570105" stroke-dashoffset="4013.364007" stroke-miterlimit="10"/><path d="M82032.2 3l-21.58 170.34h-696.95l-126.45 49.25H80215V3h1817.2z" fill="none" stroke="#111111" stroke-width="6" stroke-dasharray="3824.5419093541964,188.82209781337562" stroke-dashoffset="4013.364007" stroke-miterlimit="10"/><path d="M83855.2 3l-21.58 170.34h-696.95l-126.45 49.25H82038V3h1817.2z" fill="none" stroke="#111111" stroke-width="6" stroke-dasharray="3850.291944267626,163.0720628999455" stroke-dashoffset="4013.364007" stroke-miterlimit="10"/><path d="M85678.2 3l-21.58 170.34h-696.95l-126.45 49.25H83861V3h1817.2z" fill="none" stroke="#111111" stroke-width="6" stroke-dasharray="3873.720600528414,139.64340663915792" stroke-dashoffset="4013.364007" stroke-miterlimit="10"/><path d="M87501.2 3l-21.58 170.34h-696.95l-126.45 49.25H85684V3h1817.2z" fill="none" stroke="#111111" stroke-width="6" stroke-dasharray="3894.952826437268,118.41118073030367" stroke-dashoffset="4013.364007" stroke-miterlimit="10"/><path d="M89324.2 3l-21.58 170.34h-696.95l-126.45 49.25H87507V3h1817.2z" fill="none" stroke="#111111" stroke-width="6" stroke-dasharray="3914.1035523582855,99.26045480928644" stroke-dashoffset="4013.364007" stroke-miterlimit="10"/><path d="M91147.2 3l-21.58 170.34h-696.95l-126.45 49.25H89330V3h1817.2z" fill="none" stroke="#111111" stroke-width="6" stroke-dasharray="3931.278714243166,82.08529292440559" stroke-dashoffset="4013.364007" stroke-miterlimit="10"/><path d="M92970.2 3l-21.58 170.34h-696.95l-126.45 49.25H91153V3h1817.2z" fill="none" stroke="#111111" stroke-width="6" stroke-dasharray="3946.5761544909265,66.7878526766452" stroke-dashoffset="4013.364007" stroke-miterlimit="10"/><path d="M94793.2 3l-21.58 170.34h-696.95l-126.45 49.25H92976V3h1817.2z" fill="none" stroke="#111111" stroke-width="6" stroke-dasharray="3960.0864163801375,53.27759078743439" stroke-dashoffset="4013.364007" stroke-miterlimit="10"/><path d="M96616.2 3l-21.58 170.34h-696.95l-126.45 49.25H94799V3h1817.2z" fill="none" stroke="#111111" stroke-width="6" stroke-dasharray="3971.893446080143,41.47056108742908" stroke-dashoffset="4013.364007" stroke-miterlimit="10"/><path d="M98439.2 3l-21.58 170.34h-696.95l-126.45 49.25H96622V3h1817.2z" fill="none" stroke="#111111" stroke-width="6" stroke-dasharray="3982.0752143032296,31.2887928643422" stroke-dashoffset="4013.364007" stroke-miterlimit="10"/><path d="M100262.2 3l-21.58 170.34h-696.95l-126.45 49.25H98445V3h1817.2z" fill="none" stroke="#111111" stroke-width="6" stroke-dasharray="3990.7042679782476,22.659739189324107" stroke-dashoffset="4013.364007" stroke-miterlimit="10"/><path d="M102085.2 3l-21.58 170.34h-696.95l-126.45 49.25H100268V3h1817.2z" fill="none" stroke="#111111" stroke-width="6" stroke-dasharray="3997.8482208797764,15.51578628779543" stroke-dashoffset="4013.364007" stroke-miterlimit="10"/><path d="M103908.2 3l-21.58 170.34h-696.95l-126.45 49.25H102091V3h1817.2z" fill="none" stroke="#111111" stroke-width="6" stroke-dasharray="4003.5701909068093,9.793816260762249" stroke-dashoffset="4013.364007" stroke-miterlimit="10"/><path d="M105731.2 3l-21.58 170.34h-696.95l-126.45 49.25H103914V3h1817.2z" fill="none" stroke="#111111" stroke-width="6" stroke-dasharray="4007.9291906437034,5.434816523868449" stroke-dashoffset="4013.364007" stroke-miterlimit="10"/><path d="M107554.2 3l-21.58 170.34h-696.95l-126.45 49.25H105737V3h1817.2z" fill="none" stroke="#111111" stroke-width="6" stroke-dasharray="4010.980476928805,2.3835302387670128" stroke-dashoffset="4013.364007" stroke-miterlimit="10"/><path d="M109377.2 3l-21.58 170.34h-696.95l-126.45 49.25H107560V3h1817.2z" fill="none" stroke="#111111" stroke-width="6" stroke-dasharray="4012.77586438055,0.588142787021922" stroke-dashoffset="4013.364007" stroke-miterlimit="10"/><path d="M111200.2 3l-21.58 170.34h-696.95l-126.45 49.25H109383V3h1817.2z" fill="none" stroke="#111111" stroke-width="6" stroke-dasharray="4013.364007167572,0" stroke-dashoffset="4013.364007" stroke-miterlimit="10"/></svg>