<svg xmlns="http://www.w3.org/2000/svg" viewBox="0 0 197760 178" width="197760" height="178"><g><defs><clipPath id="clip_frame0_path_1"><path d="M1.157 1.272L1920.625 177.08H1.157z"/></clipPath></defs><path d="M1.157 1.333L1920.625 177.14H1.157z" fill="none" stroke="#111111" stroke-width="2.313253" stroke-dasharray="0,4022.7775541141973" stroke-dashoffset="4022.777554" stroke-miterlimit="10"/><path clip-path="url(#clip_frame0_path_1)" d="M-1.6 176.16h1923V178H-1.6z" fill="#111111"/></g><g transform="translate(1920)"><defs><clipPath id="clip_frame1_path_1"><path d="M1.157 1.272L1920.625 177.08H1.157z"/></clipPath></defs><path d="M1.157 1.333L1920.625 177.14H1.157z" fill="none" stroke="#111111" stroke-width="2.313253" stroke-dasharray="2.4456521785316023,4020.331901935666" stroke-dashoffset="4022.777554" stroke-miterlimit="10"/><path clip-path="url(#clip_frame1_path_1)" d="M-1.6 176.16h1923V178H-1.6z" fill="#111111"/></g><g transform="translate(3840)"><defs><clipPath id="clip_frame2_path_1"><path d="M1.157 1.272L1920.625 177.08H1.157z"/></clipPath></defs><path d="M1.157 1.333L1920.625 177.14H1.157z" fill="none" stroke="#111111" stroke-width="2.313253" stroke-dasharray="10.12519523586689,4012.6523588783307" stroke-dashoffset="4022.777554" stroke-miterlimit="10"/><path clip-path="url(#clip_frame2_path_1)" d="M-1.6 176.16h1923V178H-1.6z" fill="#111111"/></g><g transform="translate(5760)"><defs><clipPath id="clip_frame3_path_1"><path d="M1.157 1.272L1920.625 177.08H1.157z"/></clipPath></defs><path d="M1.157 1.333L1920.625 177.14H1.157z" fill="none" stroke="#111111" stroke-width="2.313253" stroke-dasharray="23.608729979144318,3999.168824135053" stroke-dashoffset="4022.777554" stroke-miterlimit="10"/><path clip-path="url(#clip_frame3_path_1)" d="M-1.6 176.16h1923V178H-1.6z" fill="#111111"/></g><g transform="translate(7680)"><defs><clipPath id="clip_frame4_path_1"><path d="M1.157 1.272L1920.625 177.08H1.157z"/></clipPath></defs><path d="M1.157 1.333L1920.625 177.14H1.157z" fill="none" stroke="#111111" stroke-width="2.313253" stroke-dasharray="43.550938160617065,3979.22661595358" stroke-dashoffset="4022.777554" stroke-miterlimit="10"/><path clip-path="url(#clip_frame4_path_1)" d="M-1.6 176.16h1923V178H-1.6z" fill="#111111"/></g><g transform="translate(9600)"><defs><clipPath id="clip_frame5_path_1"><path d="M1.157 1.272L1920.625 177.08H1.157z"/></clipPath></defs><path d="M1.157 1.333L1920.625 177.14H1.157z" fill="none" stroke="#111111" stroke-width="2.313253" stroke-dasharray="70.70397757815417,3952.0735765360428" stroke-dashoffset="4022.777554" stroke-miterlimit="10"/><path clip-path="url(#clip_frame5_path_1)" d="M-1.6 176.16h1923V178H-1.6z" fill="#111111"/></g><g transform="translate(11520)"><defs><clipPath id="clip_frame6_path_1"><path d="M1.157 1.272L1920.625 177.08H1.157z"/></clipPath></defs><path d="M1.157 1.333L1920.625 177.14H1.157z" fill="none" stroke="#111111" stroke-width="2.313253" stroke-dasharray="105.93064933363331,3916.8469047805643" stroke-dashoffset="4022.777554" stroke-miterlimit="10"/><path clip-path="url(#clip_frame6_path_1)" d="M-1.6 176.16h1923V178H-1.6z" fill="#111111"/></g><g transform="translate(13440)"><defs><clipPath id="clip_frame7_path_1"><path d="M1.157 1.272L1920.625 177.08H1.157z"/></clipPath></defs><path d="M1.157 1.333L1920.625 177.14H1.157z" fill="none" stroke="#111111" stroke-width="2.313253" stroke-dasharray="150.2160140039059,3872.5615401102914" stroke-dashoffset="4022.777554" stroke-miterlimit="10"/><path clip-path="url(#clip_frame7_path_1)" d="M-1.6 176.16h1923V178H-1.6z" fill="#111111"/></g><g transform="translate(15360)"><defs><clipPath id="clip_frame8_path_1"><path d="M1.157 1.272L1920.625 177.08H1.157z"/></clipPath></defs><path d="M1.157 1.333L1920.625 177.14H1.157z" fill="none" stroke="#111111" stroke-width="2.313253" stroke-dasharray="204.67384850420376,3818.1037056099935" stroke-dashoffset="4022.777554" stroke-miterlimit="10"/><path clip-path="url(#clip_frame8_path_1)" d="M-1.6 176.16h1923V178H-1.6z" fill="#111111"/></g><g transform="translate(17280)"><defs><clipPath id="clip_frame9_path_1"><path d="M1.157 1.272L1920.625 177.08H1.157z"/></clipPath></defs><path d="M1.157 1.333L1920.625 177.14H1.157z" fill="none" stroke="#111111" stroke-width="2.313253" stroke-dasharray="270.5412938799588,3752.236260234238" stroke-dashoffset="4022.777554" stroke-miterlimit="10"/><path clip-path="url(#clip_frame9_path_1)" d="M-1.6 176.16h1923V178H-1.6z" fill="#111111"/></g><g transform="translate(19200)"><defs><clipPath id="clip_frame10_path_1"><path d="M1.157 1.272L1920.625 177.08H1.157z"/></clipPath></defs><path d="M1.157 1.333L1920.625 177.14H1.157z" fill="none" stroke="#111111" stroke-width="2.313253" stroke-dasharray="349.1502129633588,3673.6273411508387" stroke-dashoffset="4022.777554" stroke-miterlimit="10"/><path clip-path="url(#clip_frame10_path_1)" d="M-1.6 176.16h1923V178H-1.6z" fill="#111111"/></g><g transform="translate(21120)"><defs><clipPath id="clip_frame11_path_1"><path d="M1.157 1.272L1920.625 177.08H1.157z"/></clipPath></defs><path d="M1.157 1.333L1920.625 177.14H1.157z" fill="none" stroke="#111111" stroke-width="2.313253" stroke-dasharray="441.85697697909836,3580.920577135099" stroke-dashoffset="4022.777554" stroke-miterlimit="10"/><path clip-path="url(#clip_frame11_path_1)" d="M-1.6 176.16h1923V178H-1.6z" fill="#111111"/></g><g transform="translate(23040)"><defs><clipPath id="clip_frame12_path_1"><path d="M1.157 1.272L1920.625 177.08H1.157z"/></clipPath></defs><path d="M1.157 1.333L1920.625 177.14H1.157z" fill="none" stroke="#111111" stroke-width="2.313253" stroke-dasharray="549.9050594645167,3472.8724946496804" stroke-dashoffset="4022.777554" stroke-miterlimit="10"/><path clip-path="url(#clip_frame12_path_1)" d="M-1.6 176.16h1923V178H-1.6z" fill="#111111"/></g><g transform="translate(24960)"><defs><clipPath id="clip_frame13_path_1"><path d="M1.157 1.272L1920.625 177.08H1.157z"/></clipPath></defs><path d="M1.157 1.333L1920.625 177.14H1.157z" fill="none" stroke="#111111" stroke-width="2.313253" stroke-dasharray="674.1926631243655,3348.584890989832" stroke-dashoffset="4022.777554" stroke-miterlimit="10"/><path clip-path="url(#clip_frame13_path_1)" d="M-1.6 176.16h1923V178H-1.6z" fill="#111111"/></g><g transform="translate(26880)"><defs><clipPath id="clip_frame14_path_1"><path d="M1.157 1.272L1920.625 177.08H1.157z"/></clipPath></defs><path d="M1.157 1.333L1920.625 177.14H1.157z" fill="none" stroke="#111111" stroke-width="2.313253" stroke-dasharray="814.9341375800369,3207.8434165341605" stroke-dashoffset="4022.777554" stroke-miterlimit="10"/><path clip-path="url(#clip_frame14_path_1)" d="M-1.6 176.16h1923V178H-1.6z" fill="#111111"/></g><g transform="translate(28800)"><defs><clipPath id="clip_frame15_path_1"><path d="M1.157 1.272L1920.625 177.08H1.157z"/></clipPath></defs><path d="M1.157 1.333L1920.625 177.14H1.157z" fill="none" stroke="#111111" stroke-width="2.313253" stroke-dasharray="971.2585823131858,3051.518971801011" stroke-dashoffset="4022.777554" stroke-miterlimit="10"/><path clip-path="url(#clip_frame15_path_1)" d="M-1.6 176.16h1923V178H-1.6z" fill="#111111"/></g><g transform="translate(30720)"><defs><clipPath id="clip_frame16_path_1"><path d="M1.157 1.272L1920.625 177.08H1.157z"/></clipPath></defs><path d="M1.157 1.333L1920.625 177.14H1.157z" fill="none" stroke="#111111" stroke-width="2.313253" stroke-dasharray="1140.8852793427543,2881.892274771443" stroke-dashoffset="4022.777554" stroke-miterlimit="10"/><path clip-path="url(#clip_frame16_path_1)" d="M-1.6 176.16h1923V178H-1.6z" fill="#111111"/></g><g transform="translate(32640)"><defs><clipPath id="clip_frame17_path_1"><path d="M1.157 1.272L1920.625 177.08H1.157z"/></clipPath></defs><path d="M1.157 1.333L1920.625 177.14H1.157z" fill="none" stroke="#111111" stroke-width="2.313253" stroke-dasharray="1320.095702132133,2702.681851982064" stroke-dashoffset="4022.777554" stroke-miterlimit="10"/><path clip-path="url(#clip_frame17_path_1)" d="M-1.6 176.16h1923V178H-1.6z" fill="#111111"/></g><g transform="translate(34560)"><defs><clipPath id="clip_frame18_path_1"><path d="M1.157 1.272L1920.625 177.08H1.157z"/></clipPath></defs><path d="M1.157 1.333L1920.625 177.14H1.157z" fill="none" stroke="#111111" stroke-width="2.313253" stroke-dasharray="1504.1621552307126,2518.6153988834844" stroke-dashoffset="4022.777554" stroke-miterlimit="10"/><path clip-path="url(#clip_frame18_path_1)" d="M-1.6 176.16h1923V178H-1.6z" fill="#111111"/></g><g transform="translate(36480)"><defs><clipPath id="clip_frame19_path_1"><path d="M1.157 1.272L1920.625 177.08H1.157z"/></clipPath></defs><path d="M1.157 1.333L1920.625 177.14H1.157z" fill="none" stroke="#111111" stroke-width="2.313253" stroke-dasharray="1688.1437595296595,2334.6337945845376" stroke-dashoffset="4022.777554" stroke-miterlimit="10"/><path clip-path="url(#clip_frame19_path_1)" d="M-1.6 176.16h1923V178H-1.6z" fill="#111111"/></g><g transform="translate(38400)"><defs><clipPath id="clip_frame20_path_1"><path d="M1.157 1.272L1920.625 177.08H1.157z"/></clipPath></defs><path d="M1.157 1.333L1920.625 177.14H1.157z" fill="none" stroke="#111111" stroke-width="2.313253" stroke-dasharray="1867.7080376665556,2155.069516447642" stroke-dashoffset="4022.777554" stroke-miterlimit="10"/><path clip-path="url(#clip_frame20_path_1)" d="M-1.6 176.16h1923V178H-1.6z" fill="#111111"/></g><g transform="translate(40320)"><defs><clipPath id="clip_frame21_path_1"><path d="M1.157 1.272L1920.625 177.08H1.157z"/></clipPath></defs><path d="M1.157 1.333L1920.625 177.14H1.157z" fill="none" stroke="#111111" stroke-width="2.313253" stroke-dasharray="2039.6405531348855,1983.1370009793118" stroke-dashoffset="4022.777554" stroke-miterlimit="10"/><path clip-path="url(#clip_frame21_path_1)" d="M-1.6 176.16h1923V178H-1.6z" fill="#111111"/></g><g transform="translate(42240)"><defs><clipPath id="clip_frame22_path_1"><path d="M1.157 1.272L1920.625 177.08H1.157z"/></clipPath></defs><path d="M1.157 1.333L1920.625 177.14H1.157z" fill="none" stroke="#111111" stroke-width="2.313253" stroke-dasharray="2201.945777125846,1820.8317769883515" stroke-dashoffset="4022.777554" stroke-miterlimit="10"/><path clip-path="url(#clip_frame22_path_1)" d="M-1.6 176.16h1923V178H-1.6z" fill="#111111"/></g><g transform="translate(44160)"><defs><clipPath id="clip_frame23_path_1"><path d="M1.157 1.272L1920.625 177.08H1.157z"/></clipPath></defs><path d="M1.157 1.333L1920.625 177.14H1.157z" fill="none" stroke="#111111" stroke-width="2.313253" stroke-dasharray="2353.6636107478434,1669.1139433663536" stroke-dashoffset="4022.777554" stroke-miterlimit="10"/><path clip-path="url(#clip_frame23_path_1)" d="M-1.6 176.16h1923V178H-1.6z" fill="#111111"/></g><g transform="translate(46080)"><defs><clipPath id="clip_frame24_path_1"><path d="M1.157 1.272L1920.625 177.08H1.157z"/></clipPath></defs><path d="M1.157 1.333L1920.625 177.14H1.157z" fill="none" stroke="#111111" stroke-width="2.313253" stroke-dasharray="2494.5810056553187,1528.1965484588789" stroke-dashoffset="4022.777554" stroke-miterlimit="10"/><path clip-path="url(#clip_frame24_path_1)" d="M-1.6 176.16h1923V178H-1.6z" fill="#111111"/></g><g transform="translate(48000)"><defs><clipPath id="clip_frame25_path_1"><path d="M1.157 1.272L1920.625 177.08H1.157z"/></clipPath></defs><path d="M1.157 1.333L1920.625 177.14H1.157z" fill="none" stroke="#111111" stroke-width="2.313253" stroke-dasharray="2624.959973869991,1397.8175802442065" stroke-dashoffset="4022.777554" stroke-miterlimit="10"/><path clip-path="url(#clip_frame25_path_1)" d="M-1.6 176.16h1923V178H-1.6z" fill="#111111"/></g><g transform="translate(49920)"><defs><clipPath id="clip_frame26_path_1"><path d="M1.157 1.272L1920.625 177.08H1.157z"/></clipPath></defs><path d="M1.157 1.333L1920.625 177.14H1.157z" fill="none" stroke="#111111" stroke-width="2.313253" stroke-dasharray="2745.3299203100487,1277.4476338041486" stroke-dashoffset="4022.777554" stroke-miterlimit="10"/><path clip-path="url(#clip_frame26_path_1)" d="M-1.6 176.16h1923V178H-1.6z" fill="#111111"/></g><g transform="translate(51840)"><defs><clipPath id="clip_frame27_path_1"><path d="M1.157 1.272L1920.625 177.08H1.157z"/></clipPath></defs><path d="M1.157 1.333L1920.625 177.14H1.157z" fill="none" stroke="#111111" stroke-width="2.313253" stroke-dasharray="2856.3473620404493,1166.4301920737482" stroke-dashoffset="4022.777554" stroke-miterlimit="10"/><path clip-path="url(#clip_frame27_path_1)" d="M-1.6 176.16h1923V178H-1.6z" fill="#111111"/></g><g transform="translate(53760)"><defs><clipPath id="clip_frame28_path_1"><path d="M1.157 1.272L1920.625 177.08H1.157z"/></clipPath></defs><path d="M1.157 1.333L1920.625 177.14H1.157z" fill="none" stroke="#111111" stroke-width="2.313253" stroke-dasharray="2958.708894839223,1064.0686592749744" stroke-dashoffset="4022.777554" stroke-miterlimit="10"/><path clip-path="url(#clip_frame28_path_1)" d="M-1.6 176.16h1923V178H-1.6z" fill="#111111"/></g><g transform="translate(55680)"><defs><clipPath id="clip_frame29_path_1"><path d="M1.157 1.272L1920.625 177.08H1.157z"/></clipPath></defs><path d="M1.157 1.333L1920.625 177.14H1.157z" fill="none" stroke="#111111" stroke-width="2.313253" stroke-dasharray="3053.1010082148578,969.6765458993395" stroke-dashoffset="4022.777554" stroke-miterlimit="10"/><path clip-path="url(#clip_frame29_path_1)" d="M-1.6 176.16h1923V178H-1.6z" fill="#111111"/></g><g transform="translate(57600)"><defs><clipPath id="clip_frame30_path_1"><path d="M1.157 1.272L1920.625 177.08H1.157z"/></clipPath></defs><path d="M1.157 1.333L1920.625 177.14H1.157z" fill="none" stroke="#111111" stroke-width="2.313253" stroke-dasharray="3140.1734977121896,882.6040564020076" stroke-dashoffset="4022.777554" stroke-miterlimit="10"/><path clip-path="url(#clip_frame30_path_1)" d="M-1.6 176.16h1923V178H-1.6z" fill="#111111"/></g><g transform="translate(59520)"><defs><clipPath id="clip_frame31_path_1"><path d="M1.157 1.272L1920.625 177.08H1.157z"/></clipPath></defs><path d="M1.157 1.333L1920.625 177.14H1.157z" fill="none" stroke="#111111" stroke-width="2.313253" stroke-dasharray="3220.527204612497,802.2503495017004" stroke-dashoffset="4022.777554" stroke-miterlimit="10"/><path clip-path="url(#clip_frame31_path_1)" d="M-1.6 176.16h1923V178H-1.6z" fill="#111111"/></g><g transform="translate(61440)"><defs><clipPath id="clip_frame32_path_1"><path d="M1.157 1.272L1920.625 177.08H1.157z"/></clipPath></defs><path d="M1.157 1.333L1920.625 177.14H1.157z" fill="none" stroke="#111111" stroke-width="2.313253" stroke-dasharray="3294.710072090029,728.0674820241685" stroke-dashoffset="4022.777554" stroke-miterlimit="10"/><path clip-path="url(#clip_frame32_path_1)" d="M-1.6 176.16h1923V178H-1.6z" fill="#111111"/></g><g transform="translate(63360)"><defs><clipPath id="clip_frame33_path_1"><path d="M1.157 1.272L1920.625 177.08H1.157z"/></clipPath></defs><path d="M1.157 1.333L1920.625 177.14H1.157z" fill="none" stroke="#111111" stroke-width="2.313253" stroke-dasharray="3363.2177955372545,659.5597585769431" stroke-dashoffset="4022.777554" stroke-miterlimit="10"/><path clip-path="url(#clip_frame33_path_1)" d="M-1.6 176.16h1923V178H-1.6z" fill="#111111"/></g><g transform="translate(65280)"><defs><clipPath id="clip_frame34_path_1"><path d="M1.157 1.272L1920.625 177.08H1.157z"/></clipPath></defs><path d="M1.157 1.333L1920.625 177.14H1.157z" fill="none" stroke="#111111" stroke-width="2.313253" stroke-dasharray="3426.496835335101,596.2807187790962" stroke-dashoffset="4022.777554" stroke-miterlimit="10"/><path clip-path="url(#clip_frame34_path_1)" d="M-1.6 176.16h1923V178H-1.6z" fill="#111111"/></g><g transform="translate(67200)"><defs><clipPath id="clip_frame35_path_1"><path d="M1.157 1.272L1920.625 177.08H1.157z"/></clipPath></defs><path d="M1.157 1.333L1920.625 177.14H1.157z" fill="none" stroke="#111111" stroke-width="2.313253" stroke-dasharray="3484.9484907017845,537.8290634124129" stroke-dashoffset="4022.777554" stroke-miterlimit="10"/><path clip-path="url(#clip_frame35_path_1)" d="M-1.6 176.16h1923V178H-1.6z" fill="#111111"/></g><g transform="translate(69120)"><defs><clipPath id="clip_frame36_path_1"><path d="M1.157 1.272L1920.625 177.08H1.157z"/></clipPath></defs><path d="M1.157 1.333L1920.625 177.14H1.157z" fill="none" stroke="#111111" stroke-width="2.313253" stroke-dasharray="3538.93329867061,483.84425544358714" stroke-dashoffset="4022.777554" stroke-miterlimit="10"/><path clip-path="url(#clip_frame36_path_1)" d="M-1.6 176.16h1923V178H-1.6z" fill="#111111"/></g><g transform="translate(71040)"><defs><clipPath id="clip_frame37_path_1"><path d="M1.157 1.272L1920.625 177.08H1.157z"/></clipPath></defs><path d="M1.157 1.333L1920.625 177.14H1.157z" fill="none" stroke="#111111" stroke-width="2.313253" stroke-dasharray="3588.775359323898,434.0021947902991" stroke-dashoffset="4022.777554" stroke-miterlimit="10"/><path clip-path="url(#clip_frame37_path_1)" d="M-1.6 176.16h1923V178H-1.6z" fill="#111111"/></g><g transform="translate(72960)"><defs><clipPath id="clip_frame38_path_1"><path d="M1.157 1.272L1920.625 177.08H1.157z"/></clipPath></defs><path d="M1.157 1.333L1920.625 177.14H1.157z" fill="none" stroke="#111111" stroke-width="2.313253" stroke-dasharray="3634.7663859443883,388.011168169809" stroke-dashoffset="4022.777554" stroke-miterlimit="10"/><path clip-path="url(#clip_frame38_path_1)" d="M-1.6 176.16h1923V178H-1.6z" fill="#111111"/></g><g transform="translate(74880)"><defs><clipPath id="clip_frame39_path_1"><path d="M1.157 1.272L1920.625 177.08H1.157z"/></clipPath></defs><path d="M1.157 1.333L1920.625 177.14H1.157z" fill="none" stroke="#111111" stroke-width="2.313253" stroke-dasharray="3677.1693922743775,345.60816183981984" stroke-dashoffset="4022.777554" stroke-miterlimit="10"/><path clip-path="url(#clip_frame39_path_1)" d="M-1.6 176.16h1923V178H-1.6z" fill="#111111"/></g><g transform="translate(76800)"><defs><clipPath id="clip_frame40_path_1"><path d="M1.157 1.272L1920.625 177.08H1.157z"/></clipPath></defs><path d="M1.157 1.333L1920.625 177.14H1.157z" fill="none" stroke="#111111" stroke-width="2.313253" stroke-dasharray="3716.221992588677,306.5555615255205" stroke-dashoffset="4022.777554" stroke-miterlimit="10"/><path clip-path="url(#clip_frame40_path_1)" d="M-1.6 176.16h1923V178H-1.6z" fill="#111111"/></g><g transform="translate(78720)"><defs><clipPath id="clip_frame41_path_1"><path d="M1.157 1.272L1920.625 177.08H1.157z"/></clipPath></defs><path d="M1.157 1.333L1920.625 177.14H1.157z" fill="none" stroke="#111111" stroke-width="2.313253" stroke-dasharray="3752.139324335962,270.63822977823514" stroke-dashoffset="4022.777554" stroke-miterlimit="10"/><path clip-path="url(#clip_frame41_path_1)" d="M-1.6 176.16h1923V178H-1.6z" fill="#111111"/></g><g transform="translate(80640)"><defs><clipPath id="clip_frame42_path_1"><path d="M1.157 1.272L1920.625 177.08H1.157z"/></clipPath></defs><path d="M1.157 1.333L1920.625 177.14H1.157z" fill="none" stroke="#111111" stroke-width="2.313253" stroke-dasharray="3785.1166200032917,237.66093411090563" stroke-dashoffset="4022.777554" stroke-miterlimit="10"/><path clip-path="url(#clip_frame42_path_1)" d="M-1.6 176.16h1923V178H-1.6z" fill="#111111"/></g><g transform="translate(82560)"><defs><clipPath id="clip_frame43_path_1"><path d="M1.157 1.272L1920.625 177.08H1.157z"/></clipPath></defs><path d="M1.157 1.333L1920.625 177.14H1.157z" fill="none" stroke="#111111" stroke-width="2.313253" stroke-dasharray="3815.331461953842,207.44609216035548" stroke-dashoffset="4022.777554" stroke-miterlimit="10"/><path clip-path="url(#clip_frame43_path_1)" d="M-1.6 176.16h1923V178H-1.6z" fill="#111111"/></g><g transform="translate(84480)"><defs><clipPath id="clip_frame44_path_1"><path d="M1.157 1.272L1920.625 177.08H1.157z"/></clipPath></defs><path d="M1.157 1.333L1920.625 177.14H1.157z" fill="none" stroke="#111111" stroke-width="2.313253" stroke-dasharray="3842.945755628692,179.83179848550535" stroke-dashoffset="4022.777554" stroke-miterlimit="10"/><path clip-path="url(#clip_frame44_path_1)" d="M-1.6 176.16h1923V178H-1.6z" fill="#111111"/></g><g transform="translate(86400)"><defs><clipPath id="clip_frame45_path_1"><path d="M1.157 1.272L1920.625 177.08H1.157z"/></clipPath></defs><path d="M1.157 1.333L1920.625 177.14H1.157z" fill="none" stroke="#111111" stroke-width="2.313253" stroke-dasharray="3868.1074552477007,154.67009886649652" stroke-dashoffset="4022.777554" stroke-miterlimit="10"/><path clip-path="url(#clip_frame45_path_1)" d="M-1.6 176.16h1923V178H-1.6z" fill="#111111"/></g><g transform="translate(88320)"><defs><clipPath id="clip_frame46_path_1"><path d="M1.157 1.272L1920.625 177.08H1.157z"/></clipPath></defs><path d="M1.157 1.333L1920.625 177.14H1.157z" fill="none" stroke="#111111" stroke-width="2.313253" stroke-dasharray="3890.9520734784032,131.82548063579384" stroke-dashoffset="4022.777554" stroke-miterlimit="10"/><path clip-path="url(#clip_frame46_path_1)" d="M-1.6 176.16h1923V178H-1.6z" fill="#111111"/></g><g transform="translate(90240)"><defs><clipPath id="clip_frame47_path_1"><path d="M1.157 1.272L1920.625 177.08H1.157z"/></clipPath></defs><path d="M1.157 1.333L1920.625 177.14H1.157z" fill="none" stroke="#111111" stroke-width="2.313253" stroke-dasharray="3911.6040033134614,111.17355080073607" stroke-dashoffset="4022.777554" stroke-miterlimit="10"/><path clip-path="url(#clip_frame47_path_1)" d="M-1.6 176.16h1923V178H-1.6z" fill="#111111"/></g><g transform="translate(92160)"><defs><clipPath id="clip_frame48_path_1"><path d="M1.157 1.272L1920.625 177.08H1.157z"/></clipPath></defs><path d="M1.157 1.333L1920.625 177.14H1.157z" fill="none" stroke="#111111" stroke-width="2.313253" stroke-dasharray="3930.177677076049,92.5998770381483" stroke-dashoffset="4022.777554" stroke-miterlimit="10"/><path clip-path="url(#clip_frame48_path_1)" d="M-1.6 176.16h1923V178H-1.6z" fill="#111111"/></g><g transform="translate(94080)"><defs><clipPath id="clip_frame49_path_1"><path d="M1.157 1.272L1920.625 177.08H1.157z"/></clipPath></defs><path d="M1.157 1.333L1920.625 177.14H1.157z" fill="none" stroke="#111111" stroke-width="2.313253" stroke-dasharray="3946.778584305343,75.9989698088544" stroke-dashoffset="4022.777554" stroke-miterlimit="10"/><path clip-path="url(#clip_frame49_path_1)" d="M-1.6 176.16h1923V178H-1.6z" fill="#111111"/></g><g transform="translate(96000)"><defs><clipPath id="clip_frame50_path_1"><path d="M1.157 1.272L1920.625 177.08H1.157z"/></clipPath></defs><path d="M1.157 1.333L1920.625 177.14H1.157z" fill="none" stroke="#111111" stroke-width="2.313253" stroke-dasharray="3961.504167378268,61.273386735929094" stroke-dashoffset="4022.777554" stroke-miterlimit="10"/><path clip-path="url(#clip_frame50_path_1)" d="M-1.6 176.16h1923V178H-1.6z" fill="#111111"/></g><g transform="translate(97920)"><defs><clipPath id="clip_frame51_path_1"><path d="M1.157 1.272L1920.625 177.08H1.157z"/></clipPath></defs><path d="M1.157 1.333L1920.625 177.14H1.157z" fill="none" stroke="#111111" stroke-width="2.313253" stroke-dasharray="3974.444611142426,48.33294297177138" stroke-dashoffset="4022.777554" stroke-miterlimit="10"/><path clip-path="url(#clip_frame51_path_1)" d="M-1.6 176.16h1923V178H-1.6z" fill="#111111"/></g><g transform="translate(99840)"><defs><clipPath id="clip_frame52_path_1"><path d="M1.157 1.272L1920.625 177.08H1.157z"/></clipPath></defs><path d="M1.157 1.333L1920.625 177.14H1.157z" fill="none" stroke="#111111" stroke-width="2.313253" stroke-dasharray="3985.683540571488,37.09401354270932" stroke-dashoffset="4022.777554" stroke-miterlimit="10"/><path clip-path="url(#clip_frame52_path_1)" d="M-1.6 176.16h1923V178H-1.6z" fill="#111111"/></g><g transform="translate(101760)"><defs><clipPath id="clip_frame53_path_1"><path d="M1.157 1.272L1920.625 177.08H1.157z"/></clipPath></defs><path d="M1.157 1.333L1920.625 177.14H1.157z" fill="none" stroke="#111111" stroke-width="2.313253" stroke-dasharray="3995.2986384902847,27.47891562391255" stroke-dashoffset="4022.777554" stroke-miterlimit="10"/><path clip-path="url(#clip_frame53_path_1)" d="M-1.6 176.16h1923V178H-1.6z" fill="#111111"/></g><g transform="translate(103680)"><defs><clipPath id="clip_frame54_path_1"><path d="M1.157 1.272L1920.625 177.08H1.157z"/></clipPath></defs><path d="M1.157 1.333L1920.625 177.14H1.157z" fill="none" stroke="#111111" stroke-width="2.313253" stroke-dasharray="4003.362193724391,19.415360389806196" stroke-dashoffset="4022.777554" stroke-miterlimit="10"/><path clip-path="url(#clip_frame54_path_1)" d="M-1.6 176.16h1923V178H-1.6z" fill="#111111"/></g><g transform="translate(105600)"><defs><clipPath id="clip_frame55_path_1"><path d="M1.157 1.272L1920.625 177.08H1.157z"/></clipPath></defs><path d="M1.157 1.333L1920.625 177.14H1.157z" fill="none" stroke="#111111" stroke-width="2.313253" stroke-dasharray="4009.941588577203,12.835965536994273" stroke-dashoffset="4022.777554" stroke-miterlimit="10"/><path clip-path="url(#clip_frame55_path_1)" d="M-1.6 176.16h1923V178H-1.6z" fill="#111111"/></g><g transform="translate(107520)"><defs><clipPath id="clip_frame56_path_1"><path d="M1.157 1.272L1920.625 177.08H1.157z"/></clipPath></defs><path d="M1.157 1.333L1920.625 177.14H1.157z" fill="none" stroke="#111111" stroke-width="2.313253" stroke-dasharray="4015.0997332954207,7.677820818776374" stroke-dashoffset="4022.777554" stroke-miterlimit="10"/><path clip-path="url(#clip_frame56_path_1)" d="M-1.6 176.16h1923V178H-1.6z" fill="#111111"/></g><g transform="translate(109440)"><defs><clipPath id="clip_frame57_path_1"><path d="M1.157 1.272L1920.625 177.08H1.157z"/></clipPath></defs><path d="M1.157 1.333L1920.625 177.14H1.157z" fill="none" stroke="#111111" stroke-width="2.313253" stroke-dasharray="4018.895454122821,3.882099991376289" stroke-dashoffset="4022.777554" stroke-miterlimit="10"/><path clip-path="url(#clip_frame57_path_1)" d="M-1.6 176.16h1923V178H-1.6z" fill="#111111"/></g><g transform="translate(111360)"><defs><clipPath id="clip_frame58_path_1"><path d="M1.157 1.272L1920.625 177.08H1.157z"/></clipPath></defs><path d="M1.157 1.333L1920.625 177.14H1.157z" fill="none" stroke="#111111" stroke-width="2.313253" stroke-dasharray="4021.3838406363257,1.393713477871563" stroke-dashoffset="4022.777554" stroke-miterlimit="10"/><path clip-path="url(#clip_frame58_path_1)" d="M-1.6 176.16h1923V178H-1.6z" fill="#111111"/></g><g transform="translate(113280)"><defs><clipPath id="clip_frame59_path_1"><path d="M1.157 1.272L1920.625 177.08H1.157z"/></clipPath></defs><path d="M1.157 1.333L1920.625 177.14H1.157z" fill="none" stroke="#111111" stroke-width="2.313253" stroke-dasharray="4022.6165572848454,0.1609968293519916" stroke-dashoffset="4022.777554" stroke-miterlimit="10"/><path clip-path="url(#clip_frame59_path_1)" d="M-1.6 176.16h1923V178H-1.6z" fill="#111111"/></g><g transform="translate(115200)"><defs><clipPath id="clip_frame60_path_1"><path d="M1.157 1.272L1920.625 177.08H1.157z"/></clipPath></defs><path d="M1.157 1.333L1920.625 177.14H1.157z" fill="none" stroke="#111111" stroke-width="2.313253" stroke-miterlimit="10"/><path clip-path="url(#clip_frame60_path_1)" d="M-1.6 176.16h1923V178H-1.6z" fill="#111111"/></g><g transform="translate(117120)"><defs><clipPath id="clip_frame61_path_1"><path d="M1.157 1.272L1920.625 177.08H1.157z"/></clipPath></defs><path d="M1.157 1.333L1920.625 177.14H1.157z" fill="none" stroke="#111111" stroke-width="2.313253" stroke-miterlimit="10"/><path clip-path="url(#clip_frame61_path_1)" d="M-1.597 175.867h1922.995V178H-1.597z" fill="#111111"/></g><g transform="translate(119040)"><defs><clipPath id="clip_frame62_path_1"><path d="M1.157 1.272L1920.625 177.08H1.157z"/></clipPath></defs><path d="M1.157 1.333L1920.625 177.14H1.157z" fill="none" stroke="#111111" stroke-width="2.313253" stroke-miterlimit="10"/><path clip-path="url(#clip_frame62_path_1)" d="M-1.589 174.916h1922.98V178H-1.589z" fill="#111111"/></g><g transform="translate(120960)"><defs><clipPath id="clip_frame63_path_1"><path d="M1.157 1.272L1920.625 177.08H1.157z"/></clipPath></defs><path d="M1.157 1.333L1920.625 177.14H1.157z" fill="none" stroke="#111111" stroke-width="2.313253" stroke-miterlimit="10"/><path clip-path="url(#clip_frame63_path_1)" d="M-1.573 173.181h1922.952V178H-1.573z" fill="#111111"/></g><g transform="translate(122880)"><defs><clipPath id="clip_frame64_path_1"><path d="M1.157 1.272L1920.625 177.08H1.157z"/></clipPath></defs><path d="M1.157 1.333L1920.625 177.14H1.157z" fill="none" stroke="#111111" stroke-width="2.313253" stroke-miterlimit="10"/><path clip-path="url(#clip_frame64_path_1)" d="M-1.548 170.506h1922.909V178H-1.548z" fill="#111111"/></g><g transform="translate(124800)"><defs><clipPath id="clip_frame65_path_1"><path d="M1.157 1.272L1920.625 177.08H1.157z"/></clipPath></defs><path d="M1.157 1.333L1920.625 177.14H1.157z" fill="none" stroke="#111111" stroke-width="2.313253" stroke-miterlimit="10"/><path clip-path="url(#clip_frame65_path_1)" d="M-1.514 166.694h1922.849V178H-1.514z" fill="#111111"/></g><g transform="translate(126720)"><defs><clipPath id="clip_frame66_path_1"><path d="M1.157 1.272L1920.625 177.08H1.157z"/></clipPath></defs><path d="M1.157 1.333L1920.625 177.14H1.157z" fill="none" stroke="#111111" stroke-width="2.313253" stroke-miterlimit="10"/><path clip-path="url(#clip_frame66_path_1)" d="M-1.467 161.51h1922.766V178H-1.467z" fill="#111111"/></g><g transform="translate(128640)"><defs><clipPath id="clip_frame67_path_1"><path d="M1.157 1.272L1920.625 177.08H1.157z"/></clipPath></defs><path d="M1.157 1.333L1920.625 177.14H1.157z" fill="none" stroke="#111111" stroke-width="2.313253" stroke-miterlimit="10"/><path clip-path="url(#clip_frame67_path_1)" d="M-1.405 154.698h1922.657V178H-1.405z" fill="#111111"/></g><g transform="translate(130560)"><defs><clipPath id="clip_frame68_path_1"><path d="M1.157 1.272L1920.625 177.08H1.157z"/></clipPath></defs><path d="M1.157 1.333L1920.625 177.14H1.157z" fill="none" stroke="#111111" stroke-width="2.313253" stroke-miterlimit="10"/><path clip-path="url(#clip_frame68_path_1)" d="M-1.326 146.036h1922.518V178H-1.326z" fill="#111111"/></g><g transform="translate(132480)"><defs><clipPath id="clip_frame69_path_1"><path d="M1.157 1.272L1920.625 177.08H1.157z"/></clipPath></defs><path d="M1.157 1.333L1920.625 177.14H1.157z" fill="none" stroke="#111111" stroke-width="2.313253" stroke-miterlimit="10"/><path clip-path="url(#clip_frame69_path_1)" d="M-1.229 135.466H1921.12V178H-1.229z" fill="#111111"/></g><g transform="translate(134400)"><defs><clipPath id="clip_frame70_path_1"><path d="M1.157 1.272L1920.625 177.08H1.157z"/></clipPath></defs><path d="M1.157 1.333L1920.625 177.14H1.157z" fill="none" stroke="#111111" stroke-width="2.313253" stroke-miterlimit="10"/><path clip-path="url(#clip_frame70_path_1)" d="M-1.118 123.277h1922.154V178H-1.118z" fill="#111111"/></g><g transform="translate(136320)"><defs><clipPath id="clip_frame71_path_1"><path d="M1.157 1.272L1920.625 177.08H1.157z"/></clipPath></defs><path d="M1.157 1.333L1920.625 177.14H1.157z" fill="none" stroke="#111111" stroke-width="2.313253" stroke-miterlimit="10"/><path clip-path="url(#clip_frame71_path_1)" d="M-.999 110.185h1921.945V178H-.999z" fill="#111111"/></g><g transform="translate(138240)"><defs><clipPath id="clip_frame72_path_1"><path d="M1.157 1.272L1920.625 177.08H1.157z"/></clipPath></defs><path d="M1.157 1.333L1920.625 177.14H1.157z" fill="none" stroke="#111111" stroke-width="2.313253" stroke-miterlimit="10"/><path clip-path="url(#clip_frame72_path_1)" d="M-.88 97.113h1921.736V178H-.88z" fill="#111111"/></g><g transform="translate(140160)"><defs><clipPath id="clip_frame73_path_1"><path d="M1.157 1.272L1920.625 177.08H1.157z"/></clipPath></defs><path d="M1.157 1.333L1920.625 177.14H1.157z" fill="none" stroke="#111111" stroke-width="2.313253" stroke-miterlimit="10"/><path clip-path="url(#clip_frame73_path_1)" d="M-.768 84.811h1921.539V178H-.768z" fill="#111111"/></g><g transform="translate(142080)"><defs><clipPath id="clip_frame74_path_1"><path d="M1.157 1.272L1920.625 177.08H1.157z"/></clipPath></defs><path d="M1.157 1.333L1920.625 177.14H1.157z" fill="none" stroke="#111111" stroke-width="2.313253" stroke-miterlimit="10"/><path clip-path="url(#clip_frame74_path_1)" d="M-.666 73.67h1921.36V178H-.666z" fill="#111111"/></g><g transform="translate(144000)"><defs><clipPath id="clip_frame75_path_1"><path d="M1.157 1.272L1920.625 177.08H1.157z"/></clipPath></defs><path d="M1.157 1.333L1920.625 177.14H1.157z" fill="none" stroke="#111111" stroke-width="2.313253" stroke-miterlimit="10"/><path clip-path="url(#clip_frame75_path_1)" d="M-.576 63.789h1921.202V178H-.576z" fill="#111111"/></g><g transform="translate(145920)"><defs><clipPath id="clip_frame76_path_1"><path d="M1.157 1.272L1920.625 177.08H1.157z"/></clipPath></defs><path d="M1.157 1.333L1920.625 177.14H1.157z" fill="none" stroke="#111111" stroke-width="2.313253" stroke-miterlimit="10"/><path clip-path="url(#clip_frame76_path_1)" d="M-.497 55.108h1921.063V178H-.497z" fill="#111111"/></g><g transform="translate(147840)"><defs><clipPath id="clip_frame77_path_1"><path d="M1.157 1.272L1920.625 177.08H1.157z"/></clipPath></defs><path d="M1.157 1.333L1920.625 177.14H1.157z" fill="none" stroke="#111111" stroke-width="2.313253" stroke-miterlimit="10"/><path clip-path="url(#clip_frame77_path_1)" d="M-.428 47.506h1920.942V178H-.428z" fill="#111111"/></g><g transform="translate(149760)"><defs><clipPath id="clip_frame78_path_1"><path d="M1.157 1.272L1920.625 177.08H1.157z"/></clipPath></defs><path d="M1.157 1.333L1920.625 177.14H1.157z" fill="none" stroke="#111111" stroke-width="2.313253" stroke-miterlimit="10"/><path clip-path="url(#clip_frame78_path_1)" d="M-.368 40.85h1920.836V178H-.368z" fill="#111111"/></g><g transform="translate(151680)"><defs><clipPath id="clip_frame79_path_1"><path d="M1.157 1.272L1920.625 177.08H1.157z"/></clipPath></defs><path d="M1.157 1.333L1920.625 177.14H1.157z" fill="none" stroke="#111111" stroke-width="2.313253" stroke-miterlimit="10"/><path clip-path="url(#clip_frame79_path_1)" d="M-.314 35.016h1920.742V178H-.314z" fill="#111111"/></g><g transform="translate(153600)"><defs><clipPath id="clip_frame80_path_1"><path d="M1.157 1.272L1920.625 177.08H1.157z"/></clipPath></defs><path d="M1.157 1.333L1920.625 177.14H1.157z" fill="none" stroke="#111111" stroke-width="2.313253" stroke-miterlimit="10"/><path clip-path="url(#clip_frame80_path_1)" d="M-.268 29.899h1920.661V178H-.268z" fill="#111111"/></g><g transform="translate(155520)"><defs><clipPath id="clip_frame81_path_1"><path d="M1.157 1.272L1920.625 177.08H1.157z"/></clipPath></defs><path d="M1.157 1.333L1920.625 177.14H1.157z" fill="none" stroke="#111111" stroke-width="2.313253" stroke-miterlimit="10"/><path clip-path="url(#clip_frame81_path_1)" d="M-.227 25.407h1920.589V178H-.227z" fill="#111111"/></g><g transform="translate(157440)"><defs><clipPath id="clip_frame82_path_1"><path d="M1.157 1.272L1920.625 177.08H1.157z"/></clipPath></defs><path d="M1.157 1.333L1920.625 177.14H1.157z" fill="none" stroke="#111111" stroke-width="2.313253" stroke-miterlimit="10"/><path clip-path="url(#clip_frame82_path_1)" d="M-.191 21.463h1920.525V178H-.191z" fill="#111111"/></g><g transform="translate(159360)"><defs><clipPath id="clip_frame83_path_1"><path d="M1.157 1.272L1920.625 177.08H1.157z"/></clipPath></defs><path d="M1.157 1.333L1920.625 177.14H1.157z" fill="none" stroke="#111111" stroke-width="2.313253" stroke-miterlimit="10"/><path clip-path="url(#clip_frame83_path_1)" d="M-.159 18.004h1920.47V178H-.159z" fill="#111111"/></g><g transform="translate(161280)"><defs><clipPath id="clip_frame84_path_1"><path d="M1.157 1.272L1920.625 177.08H1.157z"/></clipPath></defs><path d="M1.157 1.333L1920.625 177.14H1.157z" fill="none" stroke="#111111" stroke-width="2.313253" stroke-miterlimit="10"/><path clip-path="url(#clip_frame84_path_1)" d="M-.132 14.975H1920.29V178H-.132z" fill="#111111"/></g><g transform="translate(163200)"><defs><clipPath id="clip_frame85_path_1"><path d="M1.157 1.272L1920.625 177.08H1.157z"/></clipPath></defs><path d="M1.157 1.333L1920.625 177.14H1.157z" fill="none" stroke="#111111" stroke-width="2.313253" stroke-miterlimit="10"/><path clip-path="url(#clip_frame85_path_1)" d="M-.108 12.33h1920.379V178H-.108z" fill="#111111"/></g><g transform="translate(165120)"><defs><clipPath id="clip_frame86_path_1"><path d="M1.157 1.272L1920.625 177.08H1.157z"/></clipPath></defs><path d="M1.157 1.333L1920.625 177.14H1.157z" fill="none" stroke="#111111" stroke-width="2.313253" stroke-miterlimit="10"/><path clip-path="url(#clip_frame86_path_1)" d="M-.087 10.031h1920.343V178H-.087z" fill="#111111"/></g><g transform="translate(167040)"><defs><clipPath id="clip_frame87_path_1"><path d="M1.157 1.272L1920.625 177.08H1.157z"/></clipPath></defs><path d="M1.157 1.333L1920.625 177.14H1.157z" fill="none" stroke="#111111" stroke-width="2.313253" stroke-miterlimit="10"/><path clip-path="url(#clip_frame87_path_1)" d="M-.069 8.044h1920.311V178H-.069z" fill="#111111"/></g><g transform="translate(168960)"><defs><clipPath id="clip_frame88_path_1"><path d="M1.157 1.272L1920.625 177.08H1.157z"/></clipPath></defs><path d="M1.157 1.333L1920.625 177.14H1.157z" fill="none" stroke="#111111" stroke-width="2.313253" stroke-miterlimit="10"/><path clip-path="url(#clip_frame88_path_1)" d="M-.053 6.341H1920.23V178H-.053z" fill="#111111"/></g><g transform="translate(170880)"><defs><clipPath id="clip_frame89_path_1"><path d="M1.157 1.272L1920.625 177.08H1.157z"/></clipPath></defs><path d="M1.157 1.333L1920.625 177.14H1.157z" fill="none" stroke="#111111" stroke-width="2.313253" stroke-miterlimit="10"/><path clip-path="url(#clip_frame89_path_1)" d="M-.04 4.897h1920.26V178H-.04z" fill="#111111"/></g><g transform="translate(172800)"><defs><clipPath id="clip_frame90_path_1"><path d="M1.157 1.272L1920.625 177.08H1.157z"/></clipPath></defs><path d="M1.157 1.333L1920.625 177.14H1.157z" fill="none" stroke="#111111" stroke-width="2.313253" stroke-miterlimit="10"/><path clip-path="url(#clip_frame90_path_1)" d="M-.029 3.69h1920.241V178H-.029z" fill="#111111"/></g><g transform="translate(174720)"><defs><clipPath id="clip_frame91_path_1"><path d="M1.157 1.272L1920.625 177.08H1.157z"/></clipPath></defs><path d="M1.157 1.333L1920.625 177.14H1.157z" fill="none" stroke="#111111" stroke-width="2.313253" stroke-miterlimit="10"/><path clip-path="url(#clip_frame91_path_1)" d="M-.02 2.701h1920.225V178H-.02z" fill="#111111"/></g><g transform="translate(176640)"><defs><clipPath id="clip_frame92_path_1"><path d="M1.157 1.272L1920.625 177.08H1.157z"/></clipPath></defs><path d="M1.157 1.333L1920.625 177.14H1.157z" fill="none" stroke="#111111" stroke-width="2.313253" stroke-miterlimit="10"/><path clip-path="url(#clip_frame92_path_1)" d="M-.013 1.914H1920.2V178H-.013z" fill="#111111"/></g><g transform="translate(178560)"><defs><clipPath id="clip_frame93_path_1"><path d="M1.157 1.272L1920.625 177.08H1.157z"/></clipPath></defs><path d="M1.157 1.333L1920.625 177.14H1.157z" fill="none" stroke="#111111" stroke-width="2.313253" stroke-miterlimit="10"/><path clip-path="url(#clip_frame93_path_1)" d="M-.007 1.313h1920.203V178H-.007z" fill="#111111"/></g><g transform="translate(180480)"><defs><clipPath id="clip_frame94_path_1"><path d="M1.157 1.272L1920.625 177.08H1.157z"/></clipPath></defs><path d="M1.157 1.333L1920.625 177.14H1.157z" fill="none" stroke="#111111" stroke-width="2.313253" stroke-miterlimit="10"/><path clip-path="url(#clip_frame94_path_1)" d="M-.004.886h1920.197V178H-.004z" fill="#111111"/></g><g transform="translate(182400)"><defs><clipPath id="clip_frame95_path_1"><path d="M1.157 1.272L1920.625 177.08H1.157z"/></clipPath></defs><path d="M1.157 1.333L1920.625 177.14H1.157z" fill="none" stroke="#111111" stroke-width="2.313253" stroke-miterlimit="10"/><path clip-path="url(#clip_frame95_path_1)" d="M-.001.621h1920.192V178H-.001z" fill="#111111"/></g><g transform="translate(184320)"><defs><clipPath id="clip_frame96_path_1"><path d="M1.157 1.272L1920.625 177.08H1.157z"/></clipPath></defs><path d="M1.157 1.333L1920.625 177.14H1.157z" fill="none" stroke="#111111" stroke-width="2.313253" stroke-miterlimit="10"/><path clip-path="url(#clip_frame96_path_1)" d="M0 .506h1920.19V178H0z" fill="#111111"/></g><g transform="translate(186240)"><defs><clipPath id="clip_frame97_path_1"><path d="M1.157 1.272L1920.625 177.08H1.157z"/></clipPath></defs><path d="M1.157 1.333L1920.625 177.14H1.157z" fill="none" stroke="#111111" stroke-width="2.313253" stroke-miterlimit="10"/><path clip-path="url(#clip_frame97_path_1)" d="M0 .5h1920.19V178H0z" fill="#111111"/></g><g transform="translate(188160)"><defs><clipPath id="clip_frame98_path_1"><path d="M1.157 1.272L1920.625 177.08H1.157z"/></clipPath></defs><path d="M1.157 1.333L1920.625 177.14H1.157z" fill="none" stroke="#111111" stroke-width="2.313253" stroke-miterlimit="10"/><path clip-path="url(#clip_frame98_path_1)" d="M0 .5h1920.19V178H0z" fill="#111111"/></g><g transform="translate(190080)"><defs><clipPath id="clip_frame99_path_1"><path d="M1.157 1.272L1920.625 177.08H1.157z"/></clipPath></defs><path d="M1.157 1.333L1920.625 177.14H1.157z" fill="none" stroke="#111111" stroke-width="2.313253" stroke-miterlimit="10"/><path clip-path="url(#clip_frame99_path_1)" d="M0 .5h1920.19V178H0z" fill="#111111"/></g><g transform="translate(192000)"><defs><clipPath id="clip_frame100_path_1"><path d="M1.157 1.272L1920.625 177.08H1.157z"/></clipPath></defs><path d="M1.157 1.333L1920.625 177.14H1.157z" fill="none" stroke="#111111" stroke-width="2.313253" stroke-miterlimit="10"/><path clip-path="url(#clip_frame100_path_1)" d="M0 .5h1920.19V178H0z" fill="#111111"/></g><g transform="translate(193920)"><defs><clipPath id="clip_frame101_path_1"><path d="M1.157 1.272L1920.625 177.08H1.157z"/></clipPath></defs><path d="M1.157 1.333L1920.625 177.14H1.157z" fill="none" stroke="#111111" stroke-width="2.313253" stroke-miterlimit="10"/><path clip-path="url(#clip_frame101_path_1)" d="M0 .5h1920.19V178H0z" fill="#111111"/></g><g transform="translate(195840)"><defs><clipPath id="clip_frame102_path_1"><path d="M1.157 1.272L1920.625 177.08H1.157z"/></clipPath></defs><path d="M1.157 1.333L1920.625 177.14H1.157z" fill="none" stroke="#111111" stroke-width="2.313253" stroke-miterlimit="10"/><path clip-path="url(#clip_frame102_path_1)" d="M0 .5h1920.19V178H0z" fill="#111111"/></g></svg>