<svg xmlns="http://www.w3.org/2000/svg" viewBox="0 0 967 567"><defs><style>.cls-1{fill:#111;}.cls-2{fill:#f2f2f2;}</style></defs><title>thebigcrewback_2</title><g id="Layer_2" data-name="Layer 2"><g id="Layer_1-2" data-name="Layer 1"><polygon class="cls-1" points="584.5 49 558 0 0 0 0 49 0 115 0 567 967 565 967 47 584.5 49"/><path class="cls-2" d="M55.41,34.32H49.94V32.17H63.2v2.15H57.76V52.44H55.41Z"/><path class="cls-2" d="M78.17,43v9.41H75.88v-9.5a3.52,3.52,0,0,0-3.56-3.85,3.89,3.89,0,0,0-3.93,4.2v9.15H66.1V31.51h2.29v8.05A5.09,5.09,0,0,1,72.84,37C76.35,37,78.17,39.61,78.17,43Z"/><path class="cls-2" d="M88.28,37c4.43,0,7.15,3.18,7.15,7.7,0,.09,0,.41,0,.69H83.33a5.12,5.12,0,0,0,5.41,5.39,5.51,5.51,0,0,0,4.69-2.34l1.51,1.1a7,7,0,0,1-6.23,3.27A7.44,7.44,0,0,1,81,45C81,40.16,84.28,37,88.28,37Zm4.8,6.69A4.61,4.61,0,0,0,88.28,39a4.88,4.88,0,0,0-4.84,4.72Z"/><path class="cls-2" d="M106,32.17h5.59c3.85,0,6,2,6,5.19a4.89,4.89,0,0,1-2.6,4.45,4.93,4.93,0,0,1,3.3,4.87c0,3.65-2.64,5.76-6.11,5.76H106ZM111.85,41a3.19,3.19,0,0,0,3.36-3.42,3,3,0,0,0-3.36-3.27h-3.5V41Zm-.06,9.44c2.41,0,4.08-1.16,4.08-3.77s-1.76-3.7-4.11-3.7h-3.41v7.47Z"/><path class="cls-2" d="M122.56,31.94A1.58,1.58,0,1,1,121,33.5,1.57,1.57,0,0,1,122.56,31.94Zm-1.12,5.44h2.28V52.44h-2.28Z"/><path class="cls-2" d="M129.28,54.7a9.45,9.45,0,0,0,4.55,1.24c2.87,0,5.3-1.18,5.3-4.54V50.07a6.07,6.07,0,0,1-5.21,2.75c-4.32,0-7.27-3.27-7.27-7.88s3-7.93,7.24-7.93a6.25,6.25,0,0,1,5.32,2.81V37.38h2.2v13c0,5.7-3.21,7.64-7.55,7.64a10.91,10.91,0,0,1-5.39-1.51Zm4.78-15.61c-2.92,0-5.1,2.41-5.1,5.85s2.26,5.79,5.16,5.79c3.1,0,5.09-2.55,5.09-5.79C139.21,41.29,136.93,39.09,134.06,39.09Z"/><path class="cls-2" d="M168.58,50.5a10.31,10.31,0,0,1-16.83-8.19A10.21,10.21,0,0,1,162,31.8a10,10,0,0,1,6.28,2.11L167.51,36A9,9,0,0,0,162,34c-4.49,0-7.84,3.59-7.84,8.31s3.21,8.31,7.9,8.31a8.93,8.93,0,0,0,5.76-2.17Z"/><path class="cls-2" d="M178.34,39.3c-3.45,0-4.46,2.72-4.46,5.93v7.21h-2.29V37.38h2.26V39.9A4.67,4.67,0,0,1,178.34,37Z"/><path class="cls-2" d="M186.62,37c4.43,0,7.15,3.18,7.15,7.7,0,.09,0,.41,0,.69H181.67a5.11,5.11,0,0,0,5.41,5.39,5.51,5.51,0,0,0,4.69-2.34l1.51,1.1a7,7,0,0,1-6.23,3.27A7.44,7.44,0,0,1,179.32,45C179.32,40.16,182.62,37,186.62,37Zm4.8,6.69a4.61,4.61,0,0,0-4.8-4.72,4.88,4.88,0,0,0-4.84,4.72Z"/><path class="cls-2" d="M206.51,40.48l-4,12H200L194.9,37.38h2.49l3.94,12.4s0-.06,4-12.4h2.26c4,12.34,4,12.4,4,12.4l4-12.4h2.49L213,52.44h-2.52Z"/><path class="cls-2" d="M239.32,35.62,234.4,52.44h-2.61L226,32.17h2.52l4.66,17.29,5-17.29h2.32l5,17.29,4.69-17.29h2.49l-5.76,20.27h-2.64Z"/><path class="cls-2" d="M260.4,37c4.43,0,7.15,3.18,7.15,7.7,0,.09,0,.41,0,.69H255.45a5.12,5.12,0,0,0,5.42,5.39,5.54,5.54,0,0,0,4.69-2.34l1.5,1.1a7,7,0,0,1-6.22,3.27A7.43,7.43,0,0,1,253.11,45C253.11,40.16,256.41,37,260.4,37Zm4.81,6.69A4.63,4.63,0,0,0,260.4,39a4.86,4.86,0,0,0-4.83,4.72Z"/><path class="cls-2" d="M270.45,31.51h2.29v8.31A6.2,6.2,0,0,1,278.07,37c4.25,0,7.18,3.3,7.18,7.93s-3.07,7.88-7.36,7.88a6.24,6.24,0,0,1-5.24-2.75v2.37h-2.2Zm7.3,19.25c2.89,0,5.15-2.29,5.15-5.79s-2.14-5.88-5.09-5.88-5.16,2.15-5.16,5.88C272.65,48.13,274.62,50.76,277.75,50.76Z"/><path class="cls-2" d="M288.64,48.56a4,4,0,0,0,3.76,2.32,2.5,2.5,0,0,0,2.78-2.41c0-3.47-7.56-2.28-7.56-7.38,0-2.55,2.12-4.08,4.84-4.08a4.78,4.78,0,0,1,4.66,2.89l-1.68,1a3.21,3.21,0,0,0-3.13-1.94A2.21,2.21,0,0,0,289.82,41c0,3.39,7.59,2.12,7.59,7.36,0,2.66-2.2,4.46-5.13,4.46A5.38,5.38,0,0,1,287,49.6Z"/><path class="cls-2" d="M301.38,31.94a1.58,1.58,0,1,1-1.57,1.56A1.56,1.56,0,0,1,301.38,31.94Zm-1.13,5.44h2.29V52.44h-2.29Z"/><path class="cls-2" d="M306.65,34.23h2.28v3.15h3.31v1.94h-3.31v7.76c0,2.81.82,3.48,2.78,3.48.29,0,.64,0,.64,0v2a11.89,11.89,0,0,1-1.39.08c-3,0-4.31-2-4.31-5.35v-8h-1.77V37.38h1.77Z"/><path class="cls-2" d="M321.33,37c4.43,0,7.15,3.18,7.15,7.7,0,.09,0,.41,0,.69H316.38a5.11,5.11,0,0,0,5.41,5.39,5.51,5.51,0,0,0,4.69-2.34l1.51,1.1a7,7,0,0,1-6.23,3.27A7.44,7.44,0,0,1,314,45C314,40.16,317.33,37,321.33,37Zm4.8,6.69a4.61,4.61,0,0,0-4.8-4.72,4.88,4.88,0,0,0-4.84,4.72Z"/></g></g></svg>