<svg xmlns="http://www.w3.org/2000/svg" viewBox="0 0 733 779">
    <defs>
        <style>
            .cls-1 {
                fill: #1a1a1a;
            }

            .cls-2 {
                fill: #f2f2f2;
            }
        </style>
    </defs>
    <title>xdmockup_2</title>
    <g id="Layer_2" data-name="Layer 2">
        <g id="Layer_1-2" data-name="Layer 1">
            <polygon class="cls-1"
                points="338.85 28.46 324.77 0 0 0 0 28.59 0 38.99 0 779 733 779 733 28.59 338.85 28.46" />
            <path class="cls-2" d="M26.14,25.39l-1.84,5H22.49L28.26,15h1.8l5.77,15.4H34l-1.85-5Zm3-8.45-2.47,6.9h5Z" />
            <path class="cls-2"
                d="M48.08,30.38H46.39v-1.8a4.73,4.73,0,0,1-4,2.09c-3.27,0-5.58-2.49-5.58-6s2.2-6,5.45-6a4.67,4.67,0,0,1,4,2.14V14.47h1.76ZM42.49,20.24c-2.24,0-3.87,1.84-3.87,4.46s1.69,4.4,3.89,4.4c2.4,0,3.88-2,3.88-4.4C46.39,21.86,44.63,20.24,42.49,20.24Z" />
            <path class="cls-2"
                d="M56.28,18.65a5.82,5.82,0,0,1,6,6,6,6,0,1,1-12,0A5.84,5.84,0,0,1,56.28,18.65Zm0,10.43a4.18,4.18,0,0,0,4.23-4.42,4.21,4.21,0,1,0-8.41,0A4.15,4.15,0,0,0,56.26,29.08Z" />
            <path class="cls-2"
                d="M64.47,14.47h1.74v6.32a4.71,4.71,0,0,1,4-2.14c3.24,0,5.46,2.51,5.46,6s-2.33,6-5.59,6a4.77,4.77,0,0,1-4-2.09v1.8H64.47ZM70,29.1c2.2,0,3.92-1.73,3.92-4.4s-1.63-4.46-3.87-4.46-3.92,1.62-3.92,4.46C66.14,27.1,67.64,29.1,70,29.1Z" />
            <path class="cls-2"
                d="M82.73,18.65c3.36,0,5.43,2.42,5.43,5.85,0,.07,0,.31,0,.53H79a3.88,3.88,0,0,0,4.11,4.1,4.21,4.21,0,0,0,3.57-1.79l1.14.84a5.33,5.33,0,0,1-4.73,2.49,5.66,5.66,0,0,1-5.88-6C77.18,21.05,79.69,18.65,82.73,18.65Zm3.65,5.08a3.51,3.51,0,0,0-3.65-3.58,3.71,3.71,0,0,0-3.68,3.58Z" />
            <path class="cls-2"
                d="M94.39,22.41,89.53,15h2.13l3.83,6.07L99.34,15h2.09l-4.86,7.43,5.26,8h-2l-4.36-6.62-4.29,6.62h-2Z" />
            <path class="cls-2"
                d="M114.1,30.38h-1.69v-1.8a4.72,4.72,0,0,1-4,2.09c-3.28,0-5.59-2.49-5.59-6s2.2-6,5.45-6a4.67,4.67,0,0,1,4,2.14V14.47h1.76Zm-5.59-10.14c-2.24,0-3.87,1.84-3.87,4.46s1.69,4.4,3.89,4.4c2.4,0,3.88-2,3.88-4.4C112.41,21.86,110.65,20.24,108.51,20.24Z" />
            <path class="cls-2"
                d="M122.92,15h4.23c2.79,0,4.6,1.65,4.6,4.44a4.3,4.3,0,0,1-4.6,4.51H124.7v6.45h-1.78ZM127,22.35a2.71,2.71,0,0,0,2.93-2.93A2.67,2.67,0,0,0,127,16.56H124.7v5.79Z" />
            <path class="cls-2"
                d="M138.65,18.65c3.37,0,5.44,2.42,5.44,5.85a4.18,4.18,0,0,1,0,.53h-9.17a3.89,3.89,0,0,0,4.11,4.1,4.2,4.2,0,0,0,3.57-1.79l1.14.84A5.32,5.32,0,0,1,139,30.67a5.65,5.65,0,0,1-5.87-6C133.11,21.05,135.62,18.65,138.65,18.65Zm3.65,5.08a3.51,3.51,0,0,0-3.65-3.58A3.69,3.69,0,0,0,135,23.73Z" />
            <path class="cls-2"
                d="M146.42,16.54h1.74v2.4h2.5v1.47h-2.5v5.9c0,2.13.61,2.64,2.11,2.64l.48,0v1.54a9,9,0,0,1-1.05.06c-2.29,0-3.28-1.49-3.28-4.07V20.41h-1.34V18.94h1.34Z" />
            <path class="cls-2"
                d="M159.13,26.62A3.33,3.33,0,0,0,162.5,29a2.52,2.52,0,0,0,2.79-2.56c0-3.85-7.21-2.86-7.21-7.83,0-2.2,1.67-3.94,4.4-3.94a4.48,4.48,0,0,1,4.35,3l-1.49.62a3.11,3.11,0,0,0-2.88-1.94,2.31,2.31,0,0,0-2.6,2.31c0,3.52,7.24,2.79,7.24,7.72,0,2.42-1.78,4.32-4.67,4.32a4.8,4.8,0,0,1-4.82-3.39Z" />
            <path class="cls-2"
                d="M169.63,16.54h1.74v2.4h2.5v1.47h-2.5v5.9c0,2.13.61,2.64,2.11,2.64l.48,0v1.54a9,9,0,0,1-1.05.06c-2.29,0-3.28-1.49-3.28-4.07V20.41h-1.34V18.94h1.34Z" />
            <path class="cls-2"
                d="M181.2,18.65a5.82,5.82,0,0,1,6,6,6,6,0,1,1-11.95,0A5.85,5.85,0,0,1,181.2,18.65Zm0,10.43a4.18,4.18,0,0,0,4.22-4.42,4.21,4.21,0,1,0-8.4,0A4.15,4.15,0,0,0,181.18,29.08Z" />
            <path class="cls-2"
                d="M194.51,20.39c-2.62,0-3.39,2.07-3.39,4.51v5.48h-1.74V18.94h1.72v1.91a3.55,3.55,0,0,1,3.41-2.2Z" />
            <path class="cls-2"
                d="M200.8,18.65c3.37,0,5.44,2.42,5.44,5.85a4.18,4.18,0,0,1,0,.53H197a3.89,3.89,0,0,0,4.11,4.1,4.2,4.2,0,0,0,3.57-1.79l1.14.84a5.32,5.32,0,0,1-4.73,2.49,5.65,5.65,0,0,1-5.87-6C195.26,21.05,197.77,18.65,200.8,18.65Zm3.65,5.08a3.51,3.51,0,0,0-3.65-3.58,3.69,3.69,0,0,0-3.67,3.58Z" />
            <path class="cls-2"
                d="M222.05,26.86,227.6,15h2.26v15.4h-1.71V17.66L222.93,29h-1.76L216,17.66V30.38h-1.72V15h2.29Z" />
            <path class="cls-2"
                d="M238.31,18.65a5.82,5.82,0,0,1,6,6,6,6,0,1,1-11.94,0A5.84,5.84,0,0,1,238.31,18.65Zm0,10.43a4.18,4.18,0,0,0,4.22-4.42,4.21,4.21,0,1,0-8.4,0A4.15,4.15,0,0,0,238.29,29.08Z" />
            <path class="cls-2"
                d="M255,21.71a4.79,4.79,0,0,0-3.39-1.45,4.13,4.13,0,0,0-4.09,4.4,4.23,4.23,0,0,0,4.14,4.42,4.78,4.78,0,0,0,3.41-1.52L255.6,29a5.69,5.69,0,0,1-4,1.63,5.8,5.8,0,0,1-5.88-6,5.83,5.83,0,0,1,5.86-6,5.74,5.74,0,0,1,4,1.56Z" />
            <path class="cls-2"
                d="M257.76,14.47h1.74v9.37l4.66-4.9h2.2l-4.93,5.12,5.22,6.32H264.4l-4.9-6.09v6.09h-1.74Z" />
            <path class="cls-2"
                d="M268.16,26.09V18.94h1.74v7.22a2.67,2.67,0,0,0,2.71,2.92,2.94,2.94,0,0,0,3-3.19V18.94h1.76V30.38H275.6V28.73a3.86,3.86,0,0,1-3.39,1.94C269.55,30.67,268.16,28.69,268.16,26.09Z" />
            <path class="cls-2"
                d="M280.22,18.94h1.67v1.8a4.75,4.75,0,0,1,4-2.09c3.25,0,5.58,2.49,5.58,6s-2.22,6-5.45,6A4.72,4.72,0,0,1,282,28.53v6h-1.74Zm5.59,10.14c2.24,0,3.87-1.82,3.87-4.44s-1.71-4.4-3.91-4.4c-2.38,0-3.88,2-3.88,4.4C281.89,27.45,283.65,29.08,285.81,29.08Z" />
        </g>
    </g>
</svg>